<svg width="70" height="63" viewBox="0 0 70 63" fill="none" xmlns="http://www.w3.org/2000/svg">
<path d="M69.0004 51.7781L41.6723 4.31871C40.9894 3.15598 40.0145 2.1919 38.8442 1.52203C37.6739 0.852156 36.3489 0.499756 35.0004 0.499756C33.652 0.499756 32.3269 0.852156 31.1567 1.52203C29.9864 2.1919 29.0114 3.15598 28.3285 4.31871L1.00042 51.7781C0.343348 52.9027 -0.00292969 54.1818 -0.00292969 55.4843C-0.00292969 56.7868 0.343348 58.066 1.00042 59.1906C1.67458 60.3603 2.64783 61.3297 3.8203 61.9991C4.99277 62.6686 6.32225 63.014 7.6723 63H62.3285C63.6775 63.0129 65.0057 62.6669 66.177 61.9975C67.3483 61.3282 68.3205 60.3594 68.9942 59.1906C69.6522 58.0665 69.9995 56.7877 70.0006 55.4852C70.0017 54.1827 69.6565 52.9033 69.0004 51.7781ZM64.666 56.6875C64.4278 57.0939 64.0858 57.4296 63.675 57.6602C63.2643 57.8909 62.7996 58.0081 62.3285 58H7.6723C7.20129 58.0081 6.73658 57.8909 6.32583 57.6602C5.91507 57.4296 5.57304 57.0939 5.3348 56.6875C5.119 56.3221 5.00516 55.9055 5.00516 55.4812C5.00516 55.0569 5.119 54.6403 5.3348 54.275L32.6629 6.81559C32.906 6.41112 33.2496 6.07644 33.6603 5.84409C34.071 5.61174 34.5348 5.48963 35.0067 5.48963C35.4785 5.48963 35.9424 5.61174 36.3531 5.84409C36.7638 6.07644 37.1074 6.41112 37.3504 6.81559L64.6786 54.275C64.8925 54.6414 65.0041 55.0586 65.0019 55.4829C64.9997 55.9072 64.8837 56.3232 64.666 56.6875ZM32.5004 38V25.5C32.5004 24.8369 32.7638 24.201 33.2327 23.7322C33.7015 23.2634 34.3374 23 35.0004 23C35.6635 23 36.2994 23.2634 36.7682 23.7322C37.237 24.201 37.5004 24.8369 37.5004 25.5V38C37.5004 38.663 37.237 39.2989 36.7682 39.7677C36.2994 40.2366 35.6635 40.5 35.0004 40.5C34.3374 40.5 33.7015 40.2366 33.2327 39.7677C32.7638 39.2989 32.5004 38.663 32.5004 38ZM38.7504 49.25C38.7504 49.9916 38.5305 50.7167 38.1184 51.3333C37.7064 51.95 37.1207 52.4307 36.4355 52.7145C35.7503 52.9983 34.9963 53.0726 34.2688 52.9279C33.5414 52.7832 32.8732 52.4261 32.3488 51.9016C31.8243 51.3772 31.4672 50.709 31.3225 49.9815C31.1778 49.2541 31.252 48.5001 31.5359 47.8149C31.8197 47.1297 32.3004 46.544 32.917 46.132C33.5337 45.7199 34.2587 45.5 35.0004 45.5C35.995 45.5 36.9488 45.8951 37.6521 46.5983C38.3553 47.3016 38.7504 48.2554 38.7504 49.25Z" fill="#1A202C"/>
</svg>
