<svg width="28" height="28" viewBox="0 0 28 28" fill="none" xmlns="http://www.w3.org/2000/svg">
<path d="M28 12.8C28 8.31958 28 6.07937 27.1281 4.36808C26.3611 2.86278 25.1372 1.63893 23.6319 0.871948C21.9206 0 19.6804 0 15.2 0H12.8C8.31958 0 6.07937 0 4.36808 0.871948C2.86278 1.63893 1.63893 2.86278 0.871948 4.36808C0 6.07937 0 8.31958 0 12.8V15.2C0 19.6804 0 21.9206 0.871948 23.6319C1.63893 25.1372 2.86278 26.3611 4.36808 27.1281C6.07937 28 8.31958 28 12.8 28H15.2C19.6804 28 21.9206 28 23.6319 27.1281C25.1372 26.3611 26.3611 25.1372 27.1281 23.6319C28 21.9206 28 19.6804 28 15.2V12.8Z" fill="#1C1C1C" fill-opacity="0.05"/>
<path fill-rule="evenodd" clip-rule="evenodd" d="M16.9254 19.4419C17.1915 19.1979 17.1915 18.8021 16.9254 18.5581L12.4375 14.4419C12.1714 14.1979 12.1714 13.8021 12.4375 13.5581L16.9254 9.44194C17.1915 9.19786 17.1915 8.80214 16.9254 8.55806C16.6593 8.31398 16.2278 8.31398 15.9617 8.55806L11.4738 12.6742C10.6754 13.4064 10.6754 14.5936 11.4738 15.3258L15.9617 19.4419C16.2278 19.686 16.6593 19.686 16.9254 19.4419Z" fill="#1C1C1C"/>
</svg>
