<svg width="48" height="49" viewBox="0 0 48 49" fill="none" xmlns="http://www.w3.org/2000/svg">
<path d="M0.5 13.3C0.5 11.0515 0.500389 9.39526 0.607333 8.08633C0.7138 6.78324 0.923378 5.86848 1.31745 5.09507C2.0365 3.68386 3.18386 2.5365 4.59507 1.81745C5.36848 1.42338 6.28324 1.2138 7.58633 1.10733C8.89527 1.00039 10.5515 1 12.8 1H35.2C37.4485 1 39.1047 1.00039 40.4137 1.10733C41.7168 1.2138 42.6315 1.42338 43.4049 1.81745C44.8161 2.5365 45.9635 3.68386 46.6825 5.09507C47.0766 5.86848 47.2862 6.78324 47.3927 8.08633C47.4996 9.39527 47.5 11.0515 47.5 13.3V35.7C47.5 37.9485 47.4996 39.6047 47.3927 40.9137C47.2862 42.2168 47.0766 43.1315 46.6825 43.9049C45.9635 45.3161 44.8161 46.4635 43.4049 47.1825C42.6315 47.5766 41.7168 47.7862 40.4137 47.8927C39.1047 47.9996 37.4485 48 35.2 48H12.8C10.5515 48 8.89526 47.9996 7.58633 47.8927C6.28324 47.7862 5.36848 47.5766 4.59507 47.1825C3.18386 46.4635 2.0365 45.3161 1.31745 43.9049C0.923378 43.1315 0.7138 42.2168 0.607333 40.9137C0.500389 39.6047 0.5 37.9485 0.5 35.7V13.3Z" stroke="#1A202C" stroke-opacity="0.1"/>
<path d="M34.5 24.5C34.5001 26.9723 33.6278 29.3654 32.0368 31.2578C30.4457 33.1501 28.2379 34.4203 25.8022 34.8447C23.3666 35.269 20.8593 34.8203 18.722 33.5776C16.5847 32.3348 14.9545 30.3777 14.1185 28.051C13.2825 25.7243 13.2943 23.1772 14.1519 20.8583C15.0095 18.5395 16.6578 16.5976 18.8066 15.3748C20.9554 14.152 23.4667 13.7266 25.8983 14.1735C28.3299 14.6205 30.5258 15.9112 32.0992 17.8182C32.1773 17.9061 32.2369 18.0089 32.2744 18.1203C32.312 18.2317 32.3266 18.3496 32.3176 18.4668C32.3085 18.5841 32.276 18.6983 32.2218 18.8027C32.1676 18.907 32.0929 18.9994 32.0023 19.0743C31.9116 19.1491 31.8068 19.2049 31.694 19.2384C31.5813 19.2718 31.463 19.2822 31.3462 19.2689C31.2293 19.2556 31.1164 19.2189 31.0141 19.1609C30.9117 19.103 30.8221 19.025 30.7506 18.9317C29.4637 17.3712 27.6759 16.3049 25.6914 15.9139C23.7069 15.523 21.6482 15.8317 19.8656 16.7874C18.083 17.7432 16.6866 19.287 15.9139 21.1563C15.1412 23.0255 15.0399 25.1047 15.6274 27.0402C16.2148 28.9757 17.4547 30.6479 19.136 31.7723C20.8173 32.8967 22.8362 33.4039 24.8493 33.2076C26.8625 33.0114 28.7454 32.1237 30.1778 30.6957C31.6103 29.2676 32.5037 27.3875 32.7063 25.375H24C23.7679 25.375 23.5454 25.2828 23.3813 25.1187C23.2172 24.9546 23.125 24.732 23.125 24.5C23.125 24.2679 23.2172 24.0453 23.3813 23.8812C23.5454 23.7172 23.7679 23.625 24 23.625H33.625C33.8571 23.625 34.0796 23.7172 34.2437 23.8812C34.4078 24.0453 34.5 24.2679 34.5 24.5Z" fill="#22B5E9"/>
</svg>
