<svg width="32" height="33" viewBox="0 0 32 33" fill="none" xmlns="http://www.w3.org/2000/svg">
<rect x="0.5" y="1" width="31" height="31" rx="15.5" stroke="#1A202C" stroke-opacity="0.05"/>
<path d="M22 11.5H18C17.6119 11.5 17.2291 11.5904 16.882 11.7639C16.5348 11.9375 16.2329 12.1895 16 12.5C15.7671 12.1895 15.4652 11.9375 15.118 11.7639C14.7709 11.5904 14.3881 11.5 14 11.5H10C9.73478 11.5 9.48043 11.6054 9.29289 11.7929C9.10536 11.9804 9 12.2348 9 12.5V20.5C9 20.7652 9.10536 21.0196 9.29289 21.2071C9.48043 21.3946 9.73478 21.5 10 21.5H14C14.3978 21.5 14.7794 21.658 15.0607 21.9393C15.342 22.2206 15.5 22.6022 15.5 23C15.5 23.1326 15.5527 23.2598 15.6464 23.3536C15.7402 23.4473 15.8674 23.5 16 23.5C16.1326 23.5 16.2598 23.4473 16.3536 23.3536C16.4473 23.2598 16.5 23.1326 16.5 23C16.5 22.6022 16.658 22.2206 16.9393 21.9393C17.2206 21.658 17.6022 21.5 18 21.5H22C22.2652 21.5 22.5196 21.3946 22.7071 21.2071C22.8946 21.0196 23 20.7652 23 20.5V12.5C23 12.2348 22.8946 11.9804 22.7071 11.7929C22.5196 11.6054 22.2652 11.5 22 11.5ZM14 20.5H10V12.5H14C14.3978 12.5 14.7794 12.658 15.0607 12.9393C15.342 13.2206 15.5 13.6022 15.5 14V21C15.0677 20.6747 14.5411 20.4991 14 20.5ZM22 20.5H18C17.4589 20.4991 16.9323 20.6747 16.5 21V14C16.5 13.6022 16.658 13.2206 16.9393 12.9393C17.2206 12.658 17.6022 12.5 18 12.5H22V20.5Z" fill="#1C1C1C"/>
</svg>
