<svg width="24" height="24" viewBox="0 0 24 24" fill="none" xmlns="http://www.w3.org/2000/svg">
<path d="M0 12C0 8.27247 0 6.4087 0.608964 4.93853C1.42092 2.97831 2.97831 1.42092 4.93853 0.608964C6.4087 0 8.27247 0 12 0V0C15.7275 0 17.5913 0 19.0615 0.608964C21.0217 1.42092 22.5791 2.97831 23.391 4.93853C24 6.4087 24 8.27247 24 12V12C24 15.7275 24 17.5913 23.391 19.0615C22.5791 21.0217 21.0217 22.5791 19.0615 23.391C17.5913 24 15.7275 24 12 24V24C8.27247 24 6.4087 24 4.93853 23.391C2.97831 22.5791 1.42092 21.0217 0.608964 19.0615C0 17.5913 0 15.7275 0 12V12Z" fill="#1A202C" fill-opacity="0.05"/>
<path d="M17.3538 9.14625L13.8538 5.64625C13.8073 5.59983 13.7521 5.56303 13.6914 5.53793C13.6307 5.51284 13.5657 5.49995 13.5 5.5H7.5C7.23478 5.5 6.98043 5.60536 6.79289 5.79289C6.60536 5.98043 6.5 6.23478 6.5 6.5V17.5C6.5 17.7652 6.60536 18.0196 6.79289 18.2071C6.98043 18.3946 7.23478 18.5 7.5 18.5H16.5C16.7652 18.5 17.0196 18.3946 17.2071 18.2071C17.3946 18.0196 17.5 17.7652 17.5 17.5V9.5C17.5001 9.43432 17.4872 9.36927 17.4621 9.30858C17.437 9.24788 17.4002 9.19272 17.3538 9.14625ZM13.5 9.5V6.75L16.25 9.5H13.5Z" fill="#22B5E9"/>
</svg>
