<svg width="40" height="40" viewBox="0 0 40 40" fill="none" xmlns="http://www.w3.org/2000/svg">
<path d="M0 20C0 8.95431 8.95431 0 20 0C31.0457 0 40 8.95431 40 20C40 31.0457 31.0457 40 20 40C8.95431 40 0 31.0457 0 20Z" fill="#22B5E9"/>
<path d="M18.125 13.125H14.375C14.0435 13.125 13.7255 13.2567 13.4911 13.4911C13.2567 13.7255 13.125 14.0435 13.125 14.375V18.125C13.125 18.4565 13.2567 18.7745 13.4911 19.0089C13.7255 19.2433 14.0435 19.375 14.375 19.375H18.125C18.4565 19.375 18.7745 19.2433 19.0089 19.0089C19.2433 18.7745 19.375 18.4565 19.375 18.125V14.375C19.375 14.0435 19.2433 13.7255 19.0089 13.4911C18.7745 13.2567 18.4565 13.125 18.125 13.125ZM18.125 18.125H14.375V14.375H18.125V18.125ZM25.625 13.125H21.875C21.5435 13.125 21.2255 13.2567 20.9911 13.4911C20.7567 13.7255 20.625 14.0435 20.625 14.375V18.125C20.625 18.4565 20.7567 18.7745 20.9911 19.0089C21.2255 19.2433 21.5435 19.375 21.875 19.375H25.625C25.9565 19.375 26.2745 19.2433 26.5089 19.0089C26.7433 18.7745 26.875 18.4565 26.875 18.125V14.375C26.875 14.0435 26.7433 13.7255 26.5089 13.4911C26.2745 13.2567 25.9565 13.125 25.625 13.125ZM25.625 18.125H21.875V14.375H25.625V18.125ZM18.125 20.625H14.375C14.0435 20.625 13.7255 20.7567 13.4911 20.9911C13.2567 21.2255 13.125 21.5435 13.125 21.875V25.625C13.125 25.9565 13.2567 26.2745 13.4911 26.5089C13.7255 26.7433 14.0435 26.875 14.375 26.875H18.125C18.4565 26.875 18.7745 26.7433 19.0089 26.5089C19.2433 26.2745 19.375 25.9565 19.375 25.625V21.875C19.375 21.5435 19.2433 21.2255 19.0089 20.9911C18.7745 20.7567 18.4565 20.625 18.125 20.625ZM18.125 25.625H14.375V21.875H18.125V25.625ZM25.625 20.625H21.875C21.5435 20.625 21.2255 20.7567 20.9911 20.9911C20.7567 21.2255 20.625 21.5435 20.625 21.875V25.625C20.625 25.9565 20.7567 26.2745 20.9911 26.5089C21.2255 26.7433 21.5435 26.875 21.875 26.875H25.625C25.9565 26.875 26.2745 26.7433 26.5089 26.5089C26.7433 26.2745 26.875 25.9565 26.875 25.625V21.875C26.875 21.5435 26.7433 21.2255 26.5089 20.9911C26.2745 20.7567 25.9565 20.625 25.625 20.625ZM25.625 25.625H21.875V21.875H25.625V25.625Z" fill="white"/>
</svg>
