<svg width="20" height="20" viewBox="0 0 20 20" fill="none" xmlns="http://www.w3.org/2000/svg">
<g id="CaretRight">
<path id="Vector" d="M14.1925 10.4422L7.94254 16.6922C7.88447 16.7502 7.81553 16.7963 7.73966 16.8277C7.66379 16.8592 7.58247 16.8753 7.50035 16.8753C7.41823 16.8753 7.33691 16.8592 7.26104 16.8277C7.18517 16.7963 7.11623 16.7502 7.05816 16.6922C7.00009 16.6341 6.95403 16.5652 6.9226 16.4893C6.89117 16.4134 6.875 16.3321 6.875 16.25C6.875 16.1679 6.89117 16.0865 6.9226 16.0107C6.95403 15.9348 7.00009 15.8659 7.05816 15.8078L12.8668 9.99998L7.05816 4.19217C6.94088 4.07489 6.875 3.91583 6.875 3.74998C6.875 3.58413 6.94088 3.42507 7.05816 3.30779C7.17544 3.19052 7.3345 3.12463 7.50035 3.12463C7.6662 3.12463 7.82526 3.19052 7.94254 3.30779L14.1925 9.55779C14.2506 9.61584 14.2967 9.68477 14.3282 9.76064C14.3597 9.83652 14.3758 9.91785 14.3758 9.99998C14.3758 10.0821 14.3597 10.1634 14.3282 10.2393C14.2967 10.3152 14.2506 10.3841 14.1925 10.4422Z" fill="#22B5E9"/>
</g>
</svg>
