<svg width="8" height="8" viewBox="0 0 8 8" fill="none" xmlns="http://www.w3.org/2000/svg">
<path d="M1.17142 0.464318C0.976162 0.269056 0.65958 0.269056 0.464318 0.464318C0.269056 0.65958 0.269056 0.976162 0.464318 1.17142L3.29276 3.99987L0.464355 6.82828C0.269093 7.02354 0.269093 7.34012 0.464355 7.53539C0.659617 7.73065 0.9762 7.73065 1.17146 7.53539L3.99987 4.70698L6.82828 7.53539C7.02354 7.73065 7.34012 7.73065 7.53539 7.53539C7.73065 7.34012 7.73065 7.02354 7.53539 6.82828L4.70698 3.99987L7.53542 1.17143C7.73069 0.976163 7.73069 0.659581 7.53542 0.464318C7.34016 0.269056 7.02358 0.269056 6.82832 0.464318L3.99987 3.29276L1.17142 0.464318Z" fill="#1A202C" fill-opacity="0.4"/>
</svg>
