<svg width="40" height="40" viewBox="0 0 40 40" fill="none" xmlns="http://www.w3.org/2000/svg">
<path d="M0.5 20C0.5 9.23045 9.23045 0.5 20 0.5C30.7696 0.5 39.5 9.23045 39.5 20C39.5 30.7696 30.7696 39.5 20 39.5C9.23045 39.5 0.5 30.7696 0.5 20Z" stroke="#22B5E9"/>
<path d="M27.5 14.375C27.5 14.5408 27.4342 14.6997 27.3169 14.8169C27.1997 14.9342 27.0408 15 26.875 15H26.25V26.25C26.25 26.5815 26.1183 26.8995 25.8839 27.1339C25.6495 27.3683 25.3315 27.5 25 27.5H15C14.6685 27.5 14.3505 27.3683 14.1161 27.1339C13.8817 26.8995 13.75 26.5815 13.75 26.25V15H13.125C12.9592 15 12.8003 14.9342 12.6831 14.8169C12.5658 14.6997 12.5 14.5408 12.5 14.375C12.5 14.2092 12.5658 14.0503 12.6831 13.9331C12.8003 13.8158 12.9592 13.75 13.125 13.75H26.875C27.0408 13.75 27.1997 13.8158 27.3169 13.9331C27.4342 14.0503 27.5 14.2092 27.5 14.375ZM16.875 12.5H23.125C23.2908 12.5 23.4497 12.4342 23.5669 12.3169C23.6842 12.1997 23.75 12.0408 23.75 11.875C23.75 11.7092 23.6842 11.5503 23.5669 11.4331C23.4497 11.3158 23.2908 11.25 23.125 11.25H16.875C16.7092 11.25 16.5503 11.3158 16.4331 11.4331C16.3158 11.5503 16.25 11.7092 16.25 11.875C16.25 12.0408 16.3158 12.1997 16.4331 12.3169C16.5503 12.4342 16.7092 12.5 16.875 12.5Z" fill="#22B5E9"/>
</svg>
