<svg width="40" height="40" viewBox="0 0 40 40" fill="none" xmlns="http://www.w3.org/2000/svg">
<path d="M0.5 19.2C0.5 15.8314 0.500389 13.3351 0.66183 11.3591C0.822794 9.38904 1.14136 7.98035 1.75343 6.77911C2.85597 4.61525 4.61525 2.85597 6.77911 1.75343C7.98035 1.14136 9.38904 0.822794 11.3591 0.66183C13.3351 0.500389 15.8314 0.5 19.2 0.5H20.8C24.1686 0.5 26.6649 0.500389 28.6409 0.66183C30.611 0.822794 32.0197 1.14136 33.2209 1.75343C35.3848 2.85597 37.144 4.61525 38.2466 6.77911C38.8586 7.98035 39.1772 9.38904 39.3382 11.3591C39.4996 13.3351 39.5 15.8314 39.5 19.2V20.8C39.5 24.1686 39.4996 26.6649 39.3382 28.6409C39.1772 30.611 38.8586 32.0197 38.2466 33.2209C37.144 35.3848 35.3848 37.144 33.2209 38.2466C32.0197 38.8586 30.611 39.1772 28.6409 39.3382C26.6649 39.4996 24.1686 39.5 20.8 39.5H19.2C15.8314 39.5 13.3351 39.4996 11.3591 39.3382C9.38904 39.1772 7.98035 38.8586 6.77911 38.2466C4.61525 37.144 2.85597 35.3848 1.75342 33.2209C1.14136 32.0197 0.822794 30.611 0.66183 28.6409C0.500389 26.6649 0.5 24.1686 0.5 20.8V19.2Z" stroke="#FF4747"/>
<path d="M26.875 13.75H13.125C12.9592 13.75 12.8003 13.8158 12.6831 13.9331C12.5658 14.0503 12.5 14.2092 12.5 14.375C12.5 14.5408 12.5658 14.6997 12.6831 14.8169C12.8003 14.9342 12.9592 15 13.125 15H13.75V26.25C13.75 26.5815 13.8817 26.8995 14.1161 27.1339C14.3505 27.3683 14.6685 27.5 15 27.5H25C25.3315 27.5 25.6495 27.3683 25.8839 27.1339C26.1183 26.8995 26.25 26.5815 26.25 26.25V15H26.875C27.0408 15 27.1997 14.9342 27.3169 14.8169C27.4342 14.6997 27.5 14.5408 27.5 14.375C27.5 14.2092 27.4342 14.0503 27.3169 13.9331C27.1997 13.8158 27.0408 13.75 26.875 13.75ZM25 26.25H15V15H25V26.25ZM16.25 11.875C16.25 11.7092 16.3158 11.5503 16.4331 11.4331C16.5503 11.3158 16.7092 11.25 16.875 11.25H23.125C23.2908 11.25 23.4497 11.3158 23.5669 11.4331C23.6842 11.5503 23.75 11.7092 23.75 11.875C23.75 12.0408 23.6842 12.1997 23.5669 12.3169C23.4497 12.4342 23.2908 12.5 23.125 12.5H16.875C16.7092 12.5 16.5503 12.4342 16.4331 12.3169C16.3158 12.1997 16.25 12.0408 16.25 11.875Z" fill="#FF4747"/>
</svg>
