<svg width="16" height="16" viewBox="0 0 16 16" fill="none" xmlns="http://www.w3.org/2000/svg">
  <path d="M15.5 9.875V14.25C15.5 14.5815 15.3683 14.8995 15.1339 15.1339C14.8995 15.3683 14.5815 15.5 14.25 15.5H1.75C1.41848 15.5 1.10054 15.3683 0.866116 15.1339C0.631696 14.8995 0.5 14.5815 0.5 14.25V9.875C0.5 9.70924 0.565848 9.55027 0.683058 9.43306C0.800269 9.31585 0.95924 9.25 1.125 9.25C1.29076 9.25 1.44973 9.31585 1.56694 9.43306C1.68415 9.55027 1.75 9.70924 1.75 9.875V14.25H14.25V9.875C14.25 9.70924 14.3158 9.55027 14.4331 9.43306C14.5503 9.31585 14.7092 9.25 14.875 9.25C15.0408 9.25 15.1997 9.31585 15.3169 9.43306C15.4342 9.55027 15.5 9.70924 15.5 9.875ZM7.55781 10.3172C7.61586 10.3753 7.68479 10.4214 7.76066 10.4529C7.83654 10.4843 7.91787 10.5005 8 10.5005C8.08213 10.5005 8.16346 10.4843 8.23934 10.4529C8.31521 10.4214 8.38414 10.3753 8.44219 10.3172L11.5672 7.19219C11.6253 7.13412 11.6713 7.06518 11.7027 6.98931C11.7342 6.91344 11.7503 6.83212 11.7503 6.75C11.7503 6.66788 11.7342 6.58656 11.7027 6.51069C11.6713 6.43482 11.6253 6.36588 11.5672 6.30781C11.5091 6.24974 11.4402 6.20368 11.3643 6.17225C11.2884 6.14083 11.2071 6.12465 11.125 6.12465C11.0429 6.12465 10.9616 6.14083 10.8857 6.17225C10.8098 6.20368 10.7409 6.24974 10.6828 6.30781L8.625 8.36641V1.125C8.625 0.95924 8.55915 0.800269 8.44194 0.683058C8.32473 0.565848 8.16576 0.5 8 0.5C7.83424 0.5 7.67527 0.565848 7.55806 0.683058C7.44085 0.800269 7.375 0.95924 7.375 1.125V8.36641L5.31719 6.30781C5.19991 6.19054 5.04085 6.12465 4.875 6.12465C4.70915 6.12465 4.55009 6.19054 4.43281 6.30781C4.31554 6.42509 4.24965 6.58415 4.24965 6.75C4.24965 6.91585 4.31554 7.07491 4.43281 7.19219L7.55781 10.3172Z" fill="var(--black-40, rgba(26, 32, 44, 0.40))"/>
</svg>
