<svg width="20" height="20" viewBox="0 0 20 20" fill="none" xmlns="http://www.w3.org/2000/svg">
<path d="M4.21249 2.70474C4.15761 2.64287 4.09099 2.59251 4.01649 2.55658C3.942 2.52064 3.86111 2.49985 3.77853 2.49541C3.69594 2.49097 3.61329 2.50296 3.53537 2.53069C3.45746 2.55843 3.38582 2.60135 3.32461 2.65697C3.2634 2.7126 3.21384 2.77982 3.17881 2.85474C3.14377 2.92965 3.12395 3.01078 3.1205 3.09342C3.11704 3.17605 3.13003 3.25855 3.15869 3.33613C3.18736 3.41371 3.23114 3.48483 3.28749 3.54537L4.79062 5.19927C1.95312 6.94068 0.732805 9.62505 0.678899 9.74693C0.643362 9.82686 0.625 9.91336 0.625 10.0008C0.625 10.0883 0.643362 10.1748 0.678899 10.2547C0.706243 10.3165 1.36796 11.7836 2.83905 13.2547C4.79921 15.2141 7.27499 16.2501 9.99999 16.2501C11.4005 16.258 12.7868 15.9697 14.068 15.404L15.7867 17.2954C15.8416 17.3572 15.9082 17.4076 15.9827 17.4435C16.0572 17.4795 16.1381 17.5003 16.2207 17.5047C16.3033 17.5091 16.3859 17.4971 16.4638 17.4694C16.5417 17.4417 16.6134 17.3988 16.6746 17.3431C16.7358 17.2875 16.7854 17.2203 16.8204 17.1454C16.8554 17.0705 16.8753 16.9893 16.8787 16.9067C16.8822 16.8241 16.8692 16.7416 16.8405 16.664C16.8118 16.5864 16.7681 16.5153 16.7117 16.4547L4.21249 2.70474ZM7.91015 8.62974L11.1656 12.2118C10.6754 12.4697 10.1134 12.5575 9.56783 12.4613C9.02229 12.3652 8.52413 12.0906 8.15157 11.6807C7.77901 11.2707 7.55314 10.7487 7.50945 10.1965C7.46575 9.64426 7.6067 9.09317 7.91015 8.62974ZM9.99999 15.0001C7.5953 15.0001 5.49452 14.1258 3.75546 12.4024C3.04164 11.693 2.43454 10.8838 1.95312 10.0001C2.31952 9.31333 3.48905 7.39146 5.65234 6.14224L7.05859 7.68521C6.51416 8.38248 6.23377 9.24977 6.26697 10.1338C6.30017 11.0178 6.64483 11.8616 7.24002 12.5161C7.83521 13.1705 8.64261 13.5935 9.51952 13.7103C10.3964 13.827 11.2864 13.6299 12.032 13.154L13.1828 14.4196C12.1672 14.8092 11.0878 15.0061 9.99999 15.0001ZM10.4687 7.54458C10.3059 7.5135 10.162 7.419 10.0689 7.28187C9.97568 7.14473 9.94079 6.97619 9.97187 6.81333C10.0029 6.65047 10.0975 6.50663 10.2346 6.41345C10.3717 6.32027 10.5403 6.28538 10.7031 6.31646C11.4997 6.47089 12.225 6.87869 12.7708 7.47903C13.3167 8.07937 13.6539 8.84008 13.732 9.64771C13.7475 9.81274 13.6967 9.97715 13.5909 10.1048C13.4851 10.2324 13.333 10.3127 13.168 10.3282C13.1484 10.3293 13.1289 10.3293 13.1094 10.3282C12.9532 10.3288 12.8024 10.271 12.6867 10.166C12.571 10.061 12.4988 9.91654 12.4844 9.76099C12.4318 9.2238 12.2072 8.71793 11.844 8.3186C11.4809 7.91927 10.9985 7.64781 10.4687 7.54458ZM19.3187 10.2547C19.2859 10.3282 18.4945 12.0805 16.7125 13.6766C16.6516 13.7329 16.5801 13.7765 16.5022 13.8049C16.4243 13.8332 16.3415 13.8458 16.2587 13.8419C16.1759 13.838 16.0947 13.8176 16.0198 13.782C15.9449 13.7464 15.8779 13.6962 15.8226 13.6345C15.7673 13.5727 15.7249 13.5005 15.6977 13.4222C15.6706 13.3438 15.6593 13.2609 15.6645 13.1781C15.6698 13.0954 15.6914 13.0145 15.7282 12.9402C15.765 12.8659 15.8162 12.7997 15.8789 12.7454C16.7532 11.9599 17.4876 11.0316 18.0508 10.0001C17.5683 9.1155 16.9599 8.30574 16.2445 7.59615C14.5055 5.87427 12.4047 5.00005 9.99999 5.00005C9.49332 4.99943 8.98745 5.04046 8.48749 5.12271C8.40619 5.13709 8.32284 5.13521 8.24227 5.1172C8.1617 5.09918 8.08549 5.06538 8.01805 5.01774C7.95062 4.97011 7.89329 4.90958 7.84938 4.83966C7.80547 4.76975 7.77584 4.69182 7.76222 4.61039C7.7486 4.52896 7.75124 4.44563 7.77 4.36523C7.78877 4.28482 7.82327 4.20894 7.87153 4.14194C7.91979 4.07495 7.98085 4.01819 8.05117 3.97493C8.12149 3.93166 8.19969 3.90276 8.28124 3.8899C8.84934 3.7961 9.4242 3.74932 9.99999 3.75005C12.725 3.75005 15.2008 4.78599 17.1609 6.74615C18.632 8.21724 19.2937 9.68521 19.3211 9.74693C19.3566 9.82686 19.375 9.91336 19.375 10.0008C19.375 10.0883 19.3566 10.1748 19.3211 10.2547H19.3187Z" fill="#1A202C" fill-opacity="0.2"/>
</svg>
