<svg width="16" height="16" viewBox="0 0 16 16" fill="none" xmlns="http://www.w3.org/2000/svg">
<path d="M9.75003 13C9.75003 13.1326 9.69735 13.2598 9.60358 13.3536C9.50982 13.4473 9.38264 13.5 9.25003 13.5H7.50003C7.36742 13.5 7.24025 13.4473 7.14648 13.3536C7.05271 13.2598 7.00003 13.1326 7.00003 13V9.5C7.00003 9.36739 7.05271 9.24021 7.14648 9.14645C7.24025 9.05268 7.36742 9 7.50003 9C7.63264 9 7.75982 9.05268 7.85358 9.14645C7.94735 9.24021 8.00003 9.36739 8.00003 9.5V12.5H9.25003C9.38264 12.5 9.50982 12.5527 9.60358 12.6464C9.69735 12.7402 9.75003 12.8674 9.75003 13ZM5.79066 9.09313C5.73722 9.05496 5.6768 9.02769 5.61283 9.01288C5.54886 8.99806 5.4826 8.99599 5.41783 9.00679C5.35306 9.01758 5.29105 9.04103 5.23534 9.07579C5.17964 9.11055 5.13132 9.15594 5.09316 9.20938L4.25003 10.39L3.40691 9.20938C3.3701 9.15275 3.3222 9.10416 3.2661 9.06655C3.21 9.02894 3.14687 9.00308 3.0805 8.99054C3.01414 8.978 2.94592 8.97904 2.87996 8.99359C2.81401 9.00814 2.75169 9.0359 2.69676 9.07519C2.64183 9.11449 2.59543 9.16451 2.56036 9.22223C2.52529 9.27995 2.50228 9.34418 2.49271 9.41104C2.48315 9.4779 2.48722 9.546 2.5047 9.61124C2.52218 9.67648 2.5527 9.7375 2.59441 9.79062L3.63566 11.25L2.59316 12.7094C2.523 12.8173 2.49718 12.9482 2.52108 13.0747C2.54499 13.2012 2.61677 13.3136 2.72148 13.3885C2.82618 13.4634 2.95575 13.495 3.0832 13.4768C3.21065 13.4586 3.32615 13.3919 3.40566 13.2906L4.25003 12.11L5.09316 13.2906C5.17266 13.3919 5.28816 13.4586 5.41561 13.4768C5.54306 13.495 5.67263 13.4634 5.77734 13.3885C5.88205 13.3136 5.95382 13.2012 5.97773 13.0747C6.00163 12.9482 5.97581 12.8173 5.90566 12.7094L4.86441 11.25L5.90691 9.79062C5.94507 9.73719 5.97234 9.67677 5.98715 9.6128C6.00197 9.54883 6.00404 9.48257 5.99324 9.4178C5.98245 9.35303 5.959 9.29102 5.92424 9.23531C5.88948 9.17961 5.84409 9.13129 5.79066 9.09313ZM11.9744 10.7069C11.7244 10.6344 11.4657 10.56 11.3213 10.4669C11.2432 10.4156 11.2444 10.4044 11.2513 10.3481C11.2522 10.3027 11.2641 10.2581 11.2858 10.2182C11.3076 10.1783 11.3386 10.1442 11.3763 10.1187C11.6638 9.92375 12.335 10.0112 12.615 10.0837C12.7433 10.1175 12.8798 10.0989 12.9943 10.032C13.1089 9.96513 13.1922 9.85549 13.226 9.72719C13.2597 9.59889 13.2411 9.46244 13.1742 9.34787C13.1073 9.2333 12.9977 9.14998 12.8694 9.11625C12.7375 9.08187 11.5569 8.79 10.8175 9.28875C10.6616 9.3941 10.5307 9.53237 10.4341 9.69382C10.3374 9.85526 10.2774 10.0359 10.2582 10.2231C10.1332 11.2156 11.1113 11.4987 11.6957 11.6675C12.4494 11.8856 12.5157 11.975 12.4944 12.1419C12.475 12.2925 12.4157 12.35 12.36 12.3875C12.0725 12.5787 11.4125 12.4844 11.1388 12.4094C11.0107 12.3738 10.8738 12.3906 10.7581 12.456C10.7008 12.4884 10.6505 12.5317 10.61 12.5836C10.5694 12.6354 10.5395 12.6947 10.5219 12.7581C10.5043 12.8215 10.4994 12.8878 10.5074 12.9531C10.5154 13.0184 10.5361 13.0815 10.5685 13.1388C10.6339 13.2545 10.7426 13.3394 10.8707 13.375C11.1806 13.4566 11.4996 13.4986 11.82 13.5C12.1838 13.5 12.5888 13.4375 12.9132 13.2212C13.0732 13.1148 13.2076 12.9743 13.3068 12.8097C13.406 12.6451 13.4675 12.4606 13.4869 12.2694C13.625 11.1875 12.5925 10.8856 11.9744 10.7069ZM2.50003 7V2.5C2.50003 2.23478 2.60539 1.98043 2.79292 1.79289C2.98046 1.60536 3.23481 1.5 3.50003 1.5H9.50003C9.56571 1.49995 9.63076 1.51284 9.69146 1.53793C9.75215 1.56303 9.80731 1.59983 9.85378 1.64625L13.3538 5.14625C13.4002 5.19272 13.437 5.24788 13.4621 5.30858C13.4872 5.36927 13.5001 5.43432 13.5 5.5V7C13.5 7.13261 13.4474 7.25979 13.3536 7.35355C13.2598 7.44732 13.1326 7.5 13 7.5C12.8674 7.5 12.7402 7.44732 12.6465 7.35355C12.5527 7.25979 12.5 7.13261 12.5 7V6H9.50003C9.36742 6 9.24024 5.94732 9.14648 5.85355C9.05271 5.75979 9.00003 5.63261 9.00003 5.5V2.5H3.50003V7C3.50003 7.13261 3.44735 7.25979 3.35358 7.35355C3.25982 7.44732 3.13264 7.5 3.00003 7.5C2.86742 7.5 2.74025 7.44732 2.64648 7.35355C2.55271 7.25979 2.50003 7.13261 2.50003 7ZM10 5H11.7925L10 3.20688V5Z" fill="#1C1C1C" fill-opacity="0.4"/>
</svg>
