<svg width="32" height="33" viewBox="0 0 32 33" fill="none" xmlns="http://www.w3.org/2000/svg">
<path d="M26.53 10.97L19.53 3.97C19.3895 3.82931 19.1988 3.75018 19 3.75H7C6.53587 3.75 6.09075 3.93437 5.76256 4.26256C5.43437 4.59075 5.25 5.03587 5.25 5.5V27.5C5.25 27.9641 5.43437 28.4092 5.76256 28.7374C6.09075 29.0656 6.53587 29.25 7 29.25H25C25.4641 29.25 25.9092 29.0656 26.2374 28.7374C26.5656 28.4092 26.75 27.9641 26.75 27.5V11.5C26.7498 11.3012 26.6707 11.1105 26.53 10.97ZM19.75 6.31L24.19 10.75H19.75V6.31ZM25 27.75H7C6.9337 27.75 6.87011 27.7237 6.82322 27.6768C6.77634 27.6299 6.75 27.5663 6.75 27.5V5.5C6.75 5.4337 6.77634 5.37011 6.82322 5.32322C6.87011 5.27634 6.9337 5.25 7 5.25H18.25V11.5C18.25 11.6989 18.329 11.8897 18.4697 12.0303C18.6103 12.171 18.8011 12.25 19 12.25H25.25V27.5C25.25 27.5663 25.2237 27.6299 25.1768 27.6768C25.1299 27.7237 25.0663 27.75 25 27.75Z" fill="#1A202C" fill-opacity="0.4"/>
</svg>
