<svg width="176" height="176" viewBox="0 0 176 176" fill="none" xmlns="http://www.w3.org/2000/svg">
<path d="M54.7438 0H48.4993V6.24452H54.7438V0Z" fill="#1A202C"/>
<path d="M72.9359 0H66.6914V6.24452H72.9359V0Z" fill="#1A202C"/>
<path d="M91.1203 0H84.8757V6.24452H91.1203V0Z" fill="#1A202C"/>
<path d="M103.249 0H97.0044V6.24452H103.249V0Z" fill="#1A202C"/>
<path d="M109.308 0H103.064V6.24452H109.308V0Z" fill="#1A202C"/>
<path d="M115.372 0H109.127V6.24452H115.372V0Z" fill="#1A202C"/>
<path d="M127.495 0H121.25V6.24452H127.495V0Z" fill="#1A202C"/>
<path d="M54.7438 6.06152H48.4993V12.306H54.7438V6.06152Z" fill="#1A202C"/>
<path d="M60.8053 6.06152H54.5608V12.306H60.8053V6.06152Z" fill="#1A202C"/>
<path d="M66.8705 6.06152H60.626V12.306H66.8705V6.06152Z" fill="#1A202C"/>
<path d="M85.0587 6.06152H78.8142V12.306H85.0587V6.06152Z" fill="#1A202C"/>
<path d="M91.1203 6.06152H84.8757V12.306H91.1203V6.06152Z" fill="#1A202C"/>
<path d="M97.1835 6.06152H90.939V12.306H97.1835V6.06152Z" fill="#1A202C"/>
<path d="M103.249 6.06152H97.0044V12.306H103.249V6.06152Z" fill="#1A202C"/>
<path d="M109.308 6.06152H103.064V12.306H109.308V6.06152Z" fill="#1A202C"/>
<path d="M121.431 6.06152H115.187V12.306H121.431V6.06152Z" fill="#1A202C"/>
<path d="M54.7438 12.1229H48.4993V18.3674H54.7438V12.1229Z" fill="#1A202C"/>
<path d="M60.8053 12.1229H54.5608V18.3674H60.8053V12.1229Z" fill="#1A202C"/>
<path d="M66.8705 12.1229H60.626V18.3674H66.8705V12.1229Z" fill="#1A202C"/>
<path d="M72.9359 12.1229H66.6914V18.3674H72.9359V12.1229Z" fill="#1A202C"/>
<path d="M78.9955 12.1229H72.751V18.3674H78.9955V12.1229Z" fill="#1A202C"/>
<path d="M85.0587 12.1229H78.8142V18.3674H85.0587V12.1229Z" fill="#1A202C"/>
<path d="M91.1203 12.1229H84.8757V18.3674H91.1203V12.1229Z" fill="#1A202C"/>
<path d="M97.1835 12.1229H90.939V18.3674H97.1835V12.1229Z" fill="#1A202C"/>
<path d="M103.249 12.1229H97.0044V18.3674H103.249V12.1229Z" fill="#1A202C"/>
<path d="M115.372 12.1229H109.127V18.3674H115.372V12.1229Z" fill="#1A202C"/>
<path d="M121.431 12.1229H115.187V18.3674H121.431V12.1229Z" fill="#1A202C"/>
<path d="M127.495 12.1229H121.25V18.3674H127.495V12.1229Z" fill="#1A202C"/>
<path d="M78.9955 18.1843H72.751V24.4288H78.9955V18.1843Z" fill="#1A202C"/>
<path d="M91.1203 18.1843H84.8757V24.4288H91.1203V18.1843Z" fill="#1A202C"/>
<path d="M97.1835 18.1843H90.939V24.4288H97.1835V18.1843Z" fill="#1A202C"/>
<path d="M109.308 18.1843H103.064V24.4288H109.308V18.1843Z" fill="#1A202C"/>
<path d="M121.431 18.1843H115.187V24.4288H121.431V18.1843Z" fill="#1A202C"/>
<path d="M72.9359 24.2535H66.6914V30.4981H72.9359V24.2535Z" fill="#1A202C"/>
<path d="M85.0587 24.2535H78.8142V30.4981H85.0587V24.2535Z" fill="#1A202C"/>
<path d="M115.372 24.2535H109.127V30.4981H115.372V24.2535Z" fill="#1A202C"/>
<path d="M121.431 24.2535H115.187V30.4981H121.431V24.2535Z" fill="#1A202C"/>
<path d="M54.7438 30.311H48.4993V36.5556H54.7438V30.311Z" fill="#1A202C"/>
<path d="M66.8705 30.311H60.626V36.5556H66.8705V30.311Z" fill="#1A202C"/>
<path d="M85.0587 30.311H78.8142V36.5556H85.0587V30.311Z" fill="#1A202C"/>
<path d="M97.1835 30.311H90.939V36.5556H97.1835V30.311Z" fill="#1A202C"/>
<path d="M103.249 30.311H97.0044V36.5556H103.249V30.311Z" fill="#1A202C"/>
<path d="M115.372 30.311H109.127V36.5556H115.372V30.311Z" fill="#1A202C"/>
<path d="M54.7438 36.3765H48.4993V42.621H54.7438V36.3765Z" fill="#1A202C"/>
<path d="M66.8705 36.3765H60.626V42.621H66.8705V36.3765Z" fill="#1A202C"/>
<path d="M78.9955 36.3765H72.751V42.621H78.9955V36.3765Z" fill="#1A202C"/>
<path d="M91.1203 36.3765H84.8757V42.621H91.1203V36.3765Z" fill="#1A202C"/>
<path d="M103.249 36.3765H97.0044V42.621H103.249V36.3765Z" fill="#1A202C"/>
<path d="M115.372 36.3765H109.127V42.621H115.372V36.3765Z" fill="#1A202C"/>
<path d="M127.495 36.3765H121.25V42.621H127.495V36.3765Z" fill="#1A202C"/>
<path d="M54.7438 42.4377H48.4993V48.6823H54.7438V42.4377Z" fill="#1A202C"/>
<path d="M60.8053 42.4377H54.5608V48.6823H60.8053V42.4377Z" fill="#1A202C"/>
<path d="M91.1203 42.4377H84.8757V48.6823H91.1203V42.4377Z" fill="#1A202C"/>
<path d="M97.1835 42.4377H90.939V48.6823H97.1835V42.4377Z" fill="#1A202C"/>
<path d="M121.431 42.4377H115.187V48.6823H121.431V42.4377Z" fill="#1A202C"/>
<path d="M18.3693 48.5032H12.1248V54.7477H18.3693V48.5032Z" fill="#1A202C"/>
<path d="M24.4347 48.5032H18.1902V54.7477H24.4347V48.5032Z" fill="#1A202C"/>
<path d="M30.496 48.5032H24.2515V54.7477H30.496V48.5032Z" fill="#1A202C"/>
<path d="M42.619 48.5032H36.3745V54.7477H42.619V48.5032Z" fill="#1A202C"/>
<path d="M54.7438 48.5032H48.4993V54.7477H54.7438V48.5032Z" fill="#1A202C"/>
<path d="M60.8053 48.5032H54.5608V54.7477H60.8053V48.5032Z" fill="#1A202C"/>
<path d="M72.9359 48.5032H66.6914V54.7477H72.9359V48.5032Z" fill="#1A202C"/>
<path d="M78.9955 48.5032H72.751V54.7477H78.9955V48.5032Z" fill="#1A202C"/>
<path d="M97.1835 48.5032H90.939V54.7477H97.1835V48.5032Z" fill="#1A202C"/>
<path d="M103.249 48.5032H97.0044V54.7477H103.249V48.5032Z" fill="#1A202C"/>
<path d="M115.372 48.5032H109.127V54.7477H115.372V48.5032Z" fill="#1A202C"/>
<path d="M127.495 48.5032H121.25V54.7477H127.495V48.5032Z" fill="#1A202C"/>
<path d="M133.56 48.5032H127.315V54.7477H133.56V48.5032Z" fill="#1A202C"/>
<path d="M139.623 48.5032H133.379V54.7477H139.623V48.5032Z" fill="#1A202C"/>
<path d="M145.687 48.5032H139.442V54.7477H145.687V48.5032Z" fill="#1A202C"/>
<path d="M163.873 48.5032H157.628V54.7477H163.873V48.5032Z" fill="#1A202C"/>
<path d="M169.934 48.5032H163.69V54.7477H169.934V48.5032Z" fill="#1A202C"/>
<path d="M176 48.5032H169.755V54.7477H176V48.5032Z" fill="#1A202C"/>
<path d="M12.306 54.5646H6.06152V60.8091H12.306V54.5646Z" fill="#1A202C"/>
<path d="M54.7438 54.5646H48.4993V60.8091H54.7438V54.5646Z" fill="#1A202C"/>
<path d="M60.8053 54.5646H54.5608V60.8091H60.8053V54.5646Z" fill="#1A202C"/>
<path d="M66.8705 54.5646H60.626V60.8091H66.8705V54.5646Z" fill="#1A202C"/>
<path d="M85.0587 54.5646H78.8142V60.8091H85.0587V54.5646Z" fill="#1A202C"/>
<path d="M91.1203 54.5646H84.8757V60.8091H91.1203V54.5646Z" fill="#1A202C"/>
<path d="M103.249 54.5646H97.0044V60.8091H103.249V54.5646Z" fill="#1A202C"/>
<path d="M145.687 54.5646H139.442V60.8091H145.687V54.5646Z" fill="#1A202C"/>
<path d="M151.748 54.5646H145.504V60.8091H151.748V54.5646Z" fill="#1A202C"/>
<path d="M157.811 54.5646H151.567V60.8091H157.811V54.5646Z" fill="#1A202C"/>
<path d="M163.873 54.5646H157.628V60.8091H163.873V54.5646Z" fill="#1A202C"/>
<path d="M176 54.5646H169.755V60.8091H176V54.5646Z" fill="#1A202C"/>
<path d="M24.4347 60.626H18.1902V66.8705H24.4347V60.626Z" fill="#1A202C"/>
<path d="M30.496 60.626H24.2515V66.8705H30.496V60.626Z" fill="#1A202C"/>
<path d="M42.619 60.626H36.3745V66.8705H42.619V60.626Z" fill="#1A202C"/>
<path d="M48.6823 60.626H42.4377V66.8705H48.6823V60.626Z" fill="#1A202C"/>
<path d="M54.7438 60.626H48.4993V66.8705H54.7438V60.626Z" fill="#1A202C"/>
<path d="M127.495 60.626H121.25V66.8705H127.495V60.626Z" fill="#1A202C"/>
<path d="M133.56 60.626H127.315V66.8705H133.56V60.626Z" fill="#1A202C"/>
<path d="M139.623 60.626H133.379V66.8705H139.623V60.626Z" fill="#1A202C"/>
<path d="M157.811 60.626H151.567V66.8705H157.811V60.626Z" fill="#1A202C"/>
<path d="M163.873 60.626H157.628V66.8705H163.873V60.626Z" fill="#1A202C"/>
<path d="M6.24452 66.6914H0V72.9359H6.24452V66.6914Z" fill="#1A202C"/>
<path d="M12.306 66.6913H6.06152V72.9358H12.306V66.6913Z" fill="#1A202C"/>
<path d="M18.3693 66.6913H12.1248V72.9358H18.3693V66.6913Z" fill="#1A202C"/>
<path d="M36.5556 66.6913H30.311V72.9358H36.5556V66.6913Z" fill="#1A202C"/>
<path d="M48.6823 66.6914H42.4377V72.9359H48.6823V66.6914Z" fill="#1A202C"/>
<path d="M133.56 66.6913H127.315V72.9358H133.56V66.6913Z" fill="#1A202C"/>
<path d="M139.623 66.6914H133.379V72.9359H139.623V66.6914Z" fill="#1A202C"/>
<path d="M145.687 66.6913H139.442V72.9358H145.687V66.6913Z" fill="#1A202C"/>
<path d="M157.811 66.6913H151.567V72.9358H157.811V66.6913Z" fill="#1A202C"/>
<path d="M169.934 66.6913H163.69V72.9358H169.934V66.6913Z" fill="#1A202C"/>
<path d="M6.24452 72.7605H0V79.005H6.24452V72.7605Z" fill="#1A202C"/>
<path d="M18.3693 72.7605H12.1248V79.005H18.3693V72.7605Z" fill="#1A202C"/>
<path d="M30.496 72.7605H24.2515V79.005H30.496V72.7605Z" fill="#1A202C"/>
<path d="M36.5556 72.7605H30.311V79.005H36.5556V72.7605Z" fill="#1A202C"/>
<path d="M42.619 72.7605H36.3745V79.005H42.619V72.7605Z" fill="#1A202C"/>
<path d="M127.495 72.7605H121.25V79.005H127.495V72.7605Z" fill="#1A202C"/>
<path d="M133.56 72.7605H127.315V79.005H133.56V72.7605Z" fill="#1A202C"/>
<path d="M145.687 72.7605H139.442V79.005H145.687V72.7605Z" fill="#1A202C"/>
<path d="M157.811 72.7605H151.567V79.005H157.811V72.7605Z" fill="#1A202C"/>
<path d="M169.934 72.7605H163.69V79.005H169.934V72.7605Z" fill="#1A202C"/>
<path d="M176 72.7605H169.755V79.005H176V72.7605Z" fill="#1A202C"/>
<path d="M6.24452 78.8104H0V85.0549H6.24452V78.8104Z" fill="#1A202C"/>
<path d="M12.306 78.8104H6.06152V85.0549H12.306V78.8104Z" fill="#1A202C"/>
<path d="M18.3693 78.8104H12.1248V85.0549H18.3693V78.8104Z" fill="#1A202C"/>
<path d="M30.496 78.8104H24.2515V85.0549H30.496V78.8104Z" fill="#1A202C"/>
<path d="M36.5556 78.8104H30.311V85.0549H36.5556V78.8104Z" fill="#1A202C"/>
<path d="M54.7438 78.8104H48.4993V85.0549H54.7438V78.8104Z" fill="#1A202C"/>
<path d="M60.8053 78.8104H54.5608V85.0549H60.8053V78.8104Z" fill="#1A202C"/>
<path d="M121.431 78.8104H115.187V85.0549H121.431V78.8104Z" fill="#1A202C"/>
<path d="M127.495 78.8104H121.25V85.0549H127.495V78.8104Z" fill="#1A202C"/>
<path d="M133.56 78.8104H127.315V85.0549H133.56V78.8104Z" fill="#1A202C"/>
<path d="M139.623 78.8104H133.379V85.0549H139.623V78.8104Z" fill="#1A202C"/>
<path d="M151.748 78.8104H145.504V85.0549H151.748V78.8104Z" fill="#1A202C"/>
<path d="M157.811 78.8104H151.567V85.0549H157.811V78.8104Z" fill="#1A202C"/>
<path d="M169.934 78.8104H163.69V85.0549H169.934V78.8104Z" fill="#1A202C"/>
<path d="M176 78.8104H169.755V85.0549H176V78.8104Z" fill="#1A202C"/>
<path d="M6.24452 84.8757H0V91.1203H6.24452V84.8757Z" fill="#1A202C"/>
<path d="M12.306 84.8757H6.06152V91.1203H12.306V84.8757Z" fill="#1A202C"/>
<path d="M18.3693 84.8757H12.1248V91.1203H18.3693V84.8757Z" fill="#1A202C"/>
<path d="M24.4347 84.8757H18.1902V91.1203H24.4347V84.8757Z" fill="#1A202C"/>
<path d="M36.5556 84.8757H30.311V91.1203H36.5556V84.8757Z" fill="#1A202C"/>
<path d="M42.619 84.8757H36.3745V91.1203H42.619V84.8757Z" fill="#1A202C"/>
<path d="M48.6823 84.8757H42.4377V91.1203H48.6823V84.8757Z" fill="#1A202C"/>
<path d="M54.7438 84.8757H48.4993V91.1203H54.7438V84.8757Z" fill="#1A202C"/>
<path d="M60.8053 84.8757H54.5608V91.1203H60.8053V84.8757Z" fill="#1A202C"/>
<path d="M127.495 84.8757H121.25V91.1203H127.495V84.8757Z" fill="#1A202C"/>
<path d="M133.56 84.8757H127.315V91.1203H133.56V84.8757Z" fill="#1A202C"/>
<path d="M145.687 84.8757H139.442V91.1203H145.687V84.8757Z" fill="#1A202C"/>
<path d="M169.934 84.8757H163.69V91.1203H169.934V84.8757Z" fill="#1A202C"/>
<path d="M6.24452 90.941H0V97.1856H6.24452V90.941Z" fill="#1A202C"/>
<path d="M12.306 90.941H6.06152V97.1856H12.306V90.941Z" fill="#1A202C"/>
<path d="M18.3693 90.941H12.1248V97.1856H18.3693V90.941Z" fill="#1A202C"/>
<path d="M36.5556 90.941H30.311V97.1856H36.5556V90.941Z" fill="#1A202C"/>
<path d="M60.8053 90.941H54.5608V97.1856H60.8053V90.941Z" fill="#1A202C"/>
<path d="M133.56 90.941H127.315V97.1856H133.56V90.941Z" fill="#1A202C"/>
<path d="M151.748 90.941H145.504V97.1856H151.748V90.941Z" fill="#1A202C"/>
<path d="M157.811 90.941H151.567V97.1856H157.811V90.941Z" fill="#1A202C"/>
<path d="M12.306 96.9985H6.06152V103.243H12.306V96.9985Z" fill="#1A202C"/>
<path d="M18.3693 96.9985H12.1248V103.243H18.3693V96.9985Z" fill="#1A202C"/>
<path d="M30.496 96.9985H24.2515V103.243H30.496V96.9985Z" fill="#1A202C"/>
<path d="M36.5556 96.9985H30.311V103.243H36.5556V96.9985Z" fill="#1A202C"/>
<path d="M42.619 96.9985H36.3745V103.243H42.619V96.9985Z" fill="#1A202C"/>
<path d="M48.6823 96.9985H42.4377V103.243H48.6823V96.9985Z" fill="#1A202C"/>
<path d="M54.7438 96.9985H48.4993V103.243H54.7438V96.9985Z" fill="#1A202C"/>
<path d="M157.811 96.9985H151.567V103.243H157.811V96.9985Z" fill="#1A202C"/>
<path d="M163.873 96.9985H157.628V103.243H163.873V96.9985Z" fill="#1A202C"/>
<path d="M176 96.9985H169.755V103.243H176V96.9985Z" fill="#1A202C"/>
<path d="M6.24452 103.064H0V109.308H6.24452V103.064Z" fill="#1A202C"/>
<path d="M12.306 103.064H6.06152V109.308H12.306V103.064Z" fill="#1A202C"/>
<path d="M24.4347 103.064H18.1902V109.308H24.4347V103.064Z" fill="#1A202C"/>
<path d="M30.496 103.064H24.2515V109.308H30.496V103.064Z" fill="#1A202C"/>
<path d="M36.5556 103.064H30.311V109.308H36.5556V103.064Z" fill="#1A202C"/>
<path d="M60.8053 103.064H54.5608V109.308H60.8053V103.064Z" fill="#1A202C"/>
<path d="M127.495 103.064H121.25V109.308H127.495V103.064Z" fill="#1A202C"/>
<path d="M133.56 103.064H127.315V109.308H133.56V103.064Z" fill="#1A202C"/>
<path d="M145.687 103.064H139.442V109.308H145.687V103.064Z" fill="#1A202C"/>
<path d="M151.748 103.064H145.504V109.308H151.748V103.064Z" fill="#1A202C"/>
<path d="M169.934 103.064H163.69V109.308H169.934V103.064Z" fill="#1A202C"/>
<path d="M176 103.064H169.755V109.308H176V103.064Z" fill="#1A202C"/>
<path d="M6.24452 109.125H0V115.37H6.24452V109.125Z" fill="#1A202C"/>
<path d="M24.4347 109.125H18.1902V115.37H24.4347V109.125Z" fill="#1A202C"/>
<path d="M36.5556 109.125H30.311V115.37H36.5556V109.125Z" fill="#1A202C"/>
<path d="M42.619 109.125H36.3745V115.37H42.619V109.125Z" fill="#1A202C"/>
<path d="M48.6823 109.125H42.4377V115.37H48.6823V109.125Z" fill="#1A202C"/>
<path d="M121.431 109.125H115.187V115.37H121.431V109.125Z" fill="#1A202C"/>
<path d="M139.623 109.125H133.379V115.37H139.623V109.125Z" fill="#1A202C"/>
<path d="M145.687 109.125H139.442V115.37H145.687V109.125Z" fill="#1A202C"/>
<path d="M151.748 109.125H145.504V115.37H151.748V109.125Z" fill="#1A202C"/>
<path d="M157.811 109.125H151.567V115.37H157.811V109.125Z" fill="#1A202C"/>
<path d="M163.873 109.125H157.628V115.37H163.873V109.125Z" fill="#1A202C"/>
<path d="M6.24452 115.194H0V121.439H6.24452V115.194Z" fill="#1A202C"/>
<path d="M24.4347 115.194H18.1902V121.439H24.4347V115.194Z" fill="#1A202C"/>
<path d="M30.496 115.194H24.2515V121.439H30.496V115.194Z" fill="#1A202C"/>
<path d="M54.7438 115.194H48.4993V121.439H54.7438V115.194Z" fill="#1A202C"/>
<path d="M60.8053 115.194H54.5608V121.439H60.8053V115.194Z" fill="#1A202C"/>
<path d="M78.9955 115.194H72.751V121.439H78.9955V115.194Z" fill="#1A202C"/>
<path d="M97.1835 115.194H90.939V121.439H97.1835V115.194Z" fill="#1A202C"/>
<path d="M103.249 115.194H97.0044V121.439H103.249V115.194Z" fill="#1A202C"/>
<path d="M109.308 115.194H103.064V121.439H109.308V115.194Z" fill="#1A202C"/>
<path d="M121.431 115.194H115.187V121.439H121.431V115.194Z" fill="#1A202C"/>
<path d="M127.495 115.194H121.25V121.439H127.495V115.194Z" fill="#1A202C"/>
<path d="M139.623 115.194H133.379V121.439H139.623V115.194Z" fill="#1A202C"/>
<path d="M151.748 115.194H145.504V121.439H151.748V115.194Z" fill="#1A202C"/>
<path d="M157.811 115.194H151.567V121.439H157.811V115.194Z" fill="#1A202C"/>
<path d="M169.934 115.194H163.69V121.439H169.934V115.194Z" fill="#1A202C"/>
<path d="M6.24452 121.256H0V127.5H6.24452V121.256Z" fill="#1A202C"/>
<path d="M18.3693 121.256H12.1248V127.5H18.3693V121.256Z" fill="#1A202C"/>
<path d="M24.4347 121.256H18.1902V127.5H24.4347V121.256Z" fill="#1A202C"/>
<path d="M42.619 121.256H36.3745V127.5H42.619V121.256Z" fill="#1A202C"/>
<path d="M48.6823 121.256H42.4377V127.5H48.6823V121.256Z" fill="#1A202C"/>
<path d="M60.8053 121.256H54.5608V127.5H60.8053V121.256Z" fill="#1A202C"/>
<path d="M72.9359 121.256H66.6914V127.5H72.9359V121.256Z" fill="#1A202C"/>
<path d="M78.9955 121.256H72.751V127.5H78.9955V121.256Z" fill="#1A202C"/>
<path d="M85.0587 121.256H78.8142V127.5H85.0587V121.256Z" fill="#1A202C"/>
<path d="M121.431 121.256H115.187V127.5H121.431V121.256Z" fill="#1A202C"/>
<path d="M127.495 121.256H121.25V127.5H127.495V121.256Z" fill="#1A202C"/>
<path d="M133.56 121.256H127.315V127.5H133.56V121.256Z" fill="#1A202C"/>
<path d="M139.623 121.256H133.379V127.5H139.623V121.256Z" fill="#1A202C"/>
<path d="M145.687 121.256H139.442V127.5H145.687V121.256Z" fill="#1A202C"/>
<path d="M151.748 121.256H145.504V127.5H151.748V121.256Z" fill="#1A202C"/>
<path d="M54.7438 127.317H48.4993V133.562H54.7438V127.317Z" fill="#1A202C"/>
<path d="M66.8705 127.317H60.626V133.562H66.8705V127.317Z" fill="#1A202C"/>
<path d="M72.9359 127.317H66.6914V133.562H72.9359V127.317Z" fill="#1A202C"/>
<path d="M78.9955 127.317H72.751V133.562H78.9955V127.317Z" fill="#1A202C"/>
<path d="M85.0587 127.317H78.8142V133.562H85.0587V127.317Z" fill="#1A202C"/>
<path d="M91.1203 127.317H84.8757V133.562H91.1203V127.317Z" fill="#1A202C"/>
<path d="M109.308 127.317H103.064V133.562H109.308V127.317Z" fill="#1A202C"/>
<path d="M121.431 127.317H115.187V133.562H121.431V127.317Z" fill="#1A202C"/>
<path d="M127.495 127.317H121.25V133.562H127.495V127.317Z" fill="#1A202C"/>
<path d="M151.748 127.317H145.504V133.562H151.748V127.317Z" fill="#1A202C"/>
<path d="M157.811 127.317H151.567V133.562H157.811V127.317Z" fill="#1A202C"/>
<path d="M169.934 127.317H163.69V133.562H169.934V127.317Z" fill="#1A202C"/>
<path d="M176 127.317H169.755V133.562H176V127.317Z" fill="#1A202C"/>
<path d="M66.8705 133.379H60.626V139.623H66.8705V133.379Z" fill="#1A202C"/>
<path d="M78.9955 133.379H72.751V139.623H78.9955V133.379Z" fill="#1A202C"/>
<path d="M85.0587 133.379H78.8142V139.623H85.0587V133.379Z" fill="#1A202C"/>
<path d="M103.249 133.379H97.0044V139.623H103.249V133.379Z" fill="#1A202C"/>
<path d="M121.431 133.379H115.187V139.623H121.431V133.379Z" fill="#1A202C"/>
<path d="M127.495 133.379H121.25V139.623H127.495V133.379Z" fill="#1A202C"/>
<path d="M139.623 133.379H133.379V139.623H139.623V133.379Z" fill="#1A202C"/>
<path d="M151.748 133.379H145.504V139.623H151.748V133.379Z" fill="#1A202C"/>
<path d="M60.8053 139.444H54.5608V145.689H60.8053V139.444Z" fill="#1A202C"/>
<path d="M66.8705 139.444H60.626V145.689H66.8705V139.444Z" fill="#1A202C"/>
<path d="M72.9359 139.444H66.6914V145.689H72.9359V139.444Z" fill="#1A202C"/>
<path d="M78.9955 139.444H72.751V145.689H78.9955V139.444Z" fill="#1A202C"/>
<path d="M85.0587 139.444H78.8142V145.689H85.0587V139.444Z" fill="#1A202C"/>
<path d="M91.1203 139.444H84.8757V145.689H91.1203V139.444Z" fill="#1A202C"/>
<path d="M97.1835 139.444H90.939V145.689H97.1835V139.444Z" fill="#1A202C"/>
<path d="M103.249 139.444H97.0044V145.689H103.249V139.444Z" fill="#1A202C"/>
<path d="M109.308 139.444H103.064V145.689H109.308V139.444Z" fill="#1A202C"/>
<path d="M115.372 139.444H109.127V145.689H115.372V139.444Z" fill="#1A202C"/>
<path d="M121.431 139.444H115.187V145.689H121.431V139.444Z" fill="#1A202C"/>
<path d="M127.495 139.444H121.25V145.689H127.495V139.444Z" fill="#1A202C"/>
<path d="M151.748 139.444H145.504V145.689H151.748V139.444Z" fill="#1A202C"/>
<path d="M157.811 139.444H151.567V145.689H157.811V139.444Z" fill="#1A202C"/>
<path d="M169.934 139.444H163.69V145.689H169.934V139.444Z" fill="#1A202C"/>
<path d="M176 139.444H169.755V145.689H176V139.444Z" fill="#1A202C"/>
<path d="M54.7438 145.502H48.4993V151.746H54.7438V145.502Z" fill="#1A202C"/>
<path d="M60.8053 145.502H54.5608V151.746H60.8053V145.502Z" fill="#1A202C"/>
<path d="M66.8705 145.502H60.626V151.746H66.8705V145.502Z" fill="#1A202C"/>
<path d="M78.9955 145.502H72.751V151.746H78.9955V145.502Z" fill="#1A202C"/>
<path d="M85.0587 145.502H78.8142V151.746H85.0587V145.502Z" fill="#1A202C"/>
<path d="M103.249 145.502H97.0044V151.746H103.249V145.502Z" fill="#1A202C"/>
<path d="M109.308 145.502H103.064V151.746H109.308V145.502Z" fill="#1A202C"/>
<path d="M115.372 145.502H109.127V151.746H115.372V145.502Z" fill="#1A202C"/>
<path d="M127.495 145.502H121.25V151.746H127.495V145.502Z" fill="#1A202C"/>
<path d="M133.56 145.502H127.315V151.746H133.56V145.502Z" fill="#1A202C"/>
<path d="M139.623 145.502H133.379V151.746H139.623V145.502Z" fill="#1A202C"/>
<path d="M145.687 145.502H139.442V151.746H145.687V145.502Z" fill="#1A202C"/>
<path d="M151.748 145.502H145.504V151.746H151.748V145.502Z" fill="#1A202C"/>
<path d="M157.811 145.502H151.567V151.746H157.811V145.502Z" fill="#1A202C"/>
<path d="M163.873 145.502H157.628V151.746H163.873V145.502Z" fill="#1A202C"/>
<path d="M54.7438 151.563H48.4993V157.808H54.7438V151.563Z" fill="#1A202C"/>
<path d="M72.9359 151.563H66.6914V157.808H72.9359V151.563Z" fill="#1A202C"/>
<path d="M78.9955 151.563H72.751V157.808H78.9955V151.563Z" fill="#1A202C"/>
<path d="M85.0587 151.563H78.8142V157.808H85.0587V151.563Z" fill="#1A202C"/>
<path d="M97.1835 151.563H90.939V157.808H97.1835V151.563Z" fill="#1A202C"/>
<path d="M115.372 151.563H109.127V157.808H115.372V151.563Z" fill="#1A202C"/>
<path d="M121.431 151.563H115.187V157.808H121.431V151.563Z" fill="#1A202C"/>
<path d="M127.495 151.563H121.25V157.808H127.495V151.563Z" fill="#1A202C"/>
<path d="M133.56 151.563H127.315V157.808H133.56V151.563Z" fill="#1A202C"/>
<path d="M145.687 151.563H139.442V157.808H145.687V151.563Z" fill="#1A202C"/>
<path d="M54.7438 157.632H48.4993V163.877H54.7438V157.632Z" fill="#1A202C"/>
<path d="M60.8053 157.632H54.5608V163.877H60.8053V157.632Z" fill="#1A202C"/>
<path d="M78.9955 157.632H72.751V163.877H78.9955V157.632Z" fill="#1A202C"/>
<path d="M97.1835 157.632H90.939V163.877H97.1835V157.632Z" fill="#1A202C"/>
<path d="M103.249 157.632H97.0044V163.877H103.249V157.632Z" fill="#1A202C"/>
<path d="M109.308 157.632H103.064V163.877H109.308V157.632Z" fill="#1A202C"/>
<path d="M115.372 157.632H109.127V163.877H115.372V157.632Z" fill="#1A202C"/>
<path d="M121.431 157.632H115.187V163.877H121.431V157.632Z" fill="#1A202C"/>
<path d="M127.495 157.632H121.25V163.877H127.495V157.632Z" fill="#1A202C"/>
<path d="M133.56 157.632H127.315V163.877H133.56V157.632Z" fill="#1A202C"/>
<path d="M139.623 157.632H133.379V163.877H139.623V157.632Z" fill="#1A202C"/>
<path d="M145.687 157.632H139.442V163.877H145.687V157.632Z" fill="#1A202C"/>
<path d="M151.748 157.632H145.504V163.877H151.748V157.632Z" fill="#1A202C"/>
<path d="M163.873 157.632H157.628V163.877H163.873V157.632Z" fill="#1A202C"/>
<path d="M169.934 157.632H163.69V163.877H169.934V157.632Z" fill="#1A202C"/>
<path d="M60.8053 163.69H54.5608V169.934H60.8053V163.69Z" fill="#1A202C"/>
<path d="M72.9359 163.69H66.6914V169.934H72.9359V163.69Z" fill="#1A202C"/>
<path d="M78.9955 163.69H72.751V169.934H78.9955V163.69Z" fill="#1A202C"/>
<path d="M97.1835 163.69H90.939V169.934H97.1835V163.69Z" fill="#1A202C"/>
<path d="M103.249 163.69H97.0044V169.934H103.249V163.69Z" fill="#1A202C"/>
<path d="M109.308 163.69H103.064V169.934H109.308V163.69Z" fill="#1A202C"/>
<path d="M115.372 163.69H109.127V169.934H115.372V163.69Z" fill="#1A202C"/>
<path d="M133.56 163.69H127.315V169.934H133.56V163.69Z" fill="#1A202C"/>
<path d="M151.748 163.69H145.504V169.934H151.748V163.69Z" fill="#1A202C"/>
<path d="M157.811 163.69H151.567V169.934H157.811V163.69Z" fill="#1A202C"/>
<path d="M169.934 163.69H163.69V169.934H169.934V163.69Z" fill="#1A202C"/>
<path d="M60.8053 169.755H54.5608V176H60.8053V169.755Z" fill="#1A202C"/>
<path d="M66.8705 169.755H60.626V176H66.8705V169.755Z" fill="#1A202C"/>
<path d="M91.1203 169.755H84.8757V176H91.1203V169.755Z" fill="#1A202C"/>
<path d="M97.1835 169.755H90.939V176H97.1835V169.755Z" fill="#1A202C"/>
<path d="M103.249 169.755H97.0044V176H103.249V169.755Z" fill="#1A202C"/>
<path d="M115.372 169.755H109.127V176H115.372V169.755Z" fill="#1A202C"/>
<path d="M139.623 169.755H133.379V176H139.623V169.755Z" fill="#1A202C"/>
<path d="M151.748 169.755H145.504V176H151.748V169.755Z" fill="#1A202C"/>
<path d="M163.873 169.755H157.628V176H163.873V169.755Z" fill="#1A202C"/>
</svg>
