<svg width="32" height="33" viewBox="0 0 32 33" fill="none" xmlns="http://www.w3.org/2000/svg">
<rect x="0.5" y="1" width="31" height="31" rx="15.5" stroke="#22B5E9"/>
<path d="M16.75 19.75C16.75 19.8983 16.706 20.0433 16.6236 20.1667C16.5412 20.29 16.4241 20.3861 16.287 20.4429C16.15 20.4997 15.9992 20.5145 15.8537 20.4856C15.7082 20.4567 15.5746 20.3852 15.4697 20.2803C15.3648 20.1754 15.2934 20.0418 15.2644 19.8963C15.2355 19.7508 15.2503 19.6 15.3071 19.463C15.3639 19.3259 15.46 19.2088 15.5833 19.1264C15.7067 19.044 15.8517 19 16 19C16.1989 19 16.3897 19.079 16.5303 19.2197C16.671 19.3603 16.75 19.5511 16.75 19.75ZM16 13C14.6213 13 13.5 14.0094 13.5 15.25V15.5C13.5 15.6326 13.5527 15.7598 13.6464 15.8536C13.7402 15.9473 13.8674 16 14 16C14.1326 16 14.2598 15.9473 14.3536 15.8536C14.4473 15.7598 14.5 15.6326 14.5 15.5V15.25C14.5 14.5625 15.1731 14 16 14C16.8269 14 17.5 14.5625 17.5 15.25C17.5 15.9375 16.8269 16.5 16 16.5C15.8674 16.5 15.7402 16.5527 15.6464 16.6464C15.5527 16.7402 15.5 16.8674 15.5 17V17.5C15.5 17.6326 15.5527 17.7598 15.6464 17.8536C15.7402 17.9473 15.8674 18 16 18C16.1326 18 16.2598 17.9473 16.3536 17.8536C16.4473 17.7598 16.5 17.6326 16.5 17.5V17.455C17.64 17.2456 18.5 16.3362 18.5 15.25C18.5 14.0094 17.3788 13 16 13ZM22.5 16.5C22.5 17.7856 22.1188 19.0423 21.4046 20.1112C20.6903 21.1801 19.6752 22.0132 18.4874 22.5052C17.2997 22.9972 15.9928 23.1259 14.7319 22.8751C13.471 22.6243 12.3129 22.0052 11.4038 21.0962C10.4948 20.1872 9.8757 19.029 9.6249 17.7681C9.37409 16.5072 9.50282 15.2003 9.99479 14.0126C10.4868 12.8248 11.3199 11.8097 12.3888 11.0954C13.4577 10.3812 14.7144 10 16 10C17.7234 10.0018 19.3756 10.6872 20.5942 11.9058C21.8128 13.1244 22.4982 14.7767 22.5 16.5ZM21.5 16.5C21.5 15.4122 21.1774 14.3488 20.5731 13.4444C19.9687 12.5399 19.1098 11.8349 18.1048 11.4187C17.0998 11.0024 15.9939 10.8935 14.927 11.1057C13.8601 11.3179 12.8801 11.8417 12.1109 12.6109C11.3417 13.3801 10.8179 14.3601 10.6057 15.427C10.3935 16.4939 10.5024 17.5998 10.9187 18.6048C11.3349 19.6098 12.0399 20.4687 12.9444 21.0731C13.8488 21.6774 14.9122 22 16 22C17.4582 21.9983 18.8562 21.4184 19.8873 20.3873C20.9184 19.3562 21.4983 17.9582 21.5 16.5Z" fill="#22B5E9"/>
</svg>
