<svg width="48" height="49" viewBox="0 0 48 49" fill="none" xmlns="http://www.w3.org/2000/svg">
<rect y="0.5" width="48" height="48" rx="8" fill="#22B5E9"/>
<path d="M34.5 15.75H13.5C13.2679 15.75 13.0454 15.8422 12.8813 16.0063C12.7172 16.1704 12.625 16.3929 12.625 16.625V31.5C12.625 31.9641 12.8094 32.4092 13.1376 32.7374C13.4658 33.0656 13.9109 33.25 14.375 33.25H33.625C34.0891 33.25 34.5342 33.0656 34.8624 32.7374C35.1906 32.4092 35.375 31.9641 35.375 31.5V16.625C35.375 16.3929 35.2828 16.1704 35.1187 16.0063C34.9546 15.8422 34.7321 15.75 34.5 15.75ZM32.2502 17.5L24 25.0633L15.7498 17.5H32.2502ZM33.625 31.5H14.375V18.6145L23.4083 26.8953C23.5697 27.0435 23.7809 27.1257 24 27.1257C24.2191 27.1257 24.4303 27.0435 24.5917 26.8953L33.625 18.6145V31.5Z" fill="white"/>
</svg>
