<svg width="16" height="16" viewBox="0 0 16 16" fill="none" xmlns="http://www.w3.org/2000/svg">
<path d="M13 2.5H3C2.73478 2.5 2.48043 2.60536 2.29289 2.79289C2.10536 2.98043 2 3.23478 2 3.5V7.17312C2 12.7744 6.73875 14.6319 7.6875 14.9469C7.89006 15.0162 8.10994 15.0162 8.3125 14.9469C9.2625 14.6312 14 12.7738 14 7.1725V3.5C14 3.23478 13.8946 2.98043 13.7071 2.79289C13.5196 2.60536 13.2652 2.5 13 2.5ZM13 7.17438C13 12.0756 8.85375 13.7131 8 13.9981C7.15438 13.7169 3 12.0806 3 7.17438V3.5H13V7.17438ZM7.5 8.5V6C7.5 5.86739 7.55268 5.74021 7.64645 5.64645C7.74021 5.55268 7.86739 5.5 8 5.5C8.13261 5.5 8.25979 5.55268 8.35355 5.64645C8.44732 5.74021 8.5 5.86739 8.5 6V8.5C8.5 8.63261 8.44732 8.75979 8.35355 8.85355C8.25979 8.94732 8.13261 9 8 9C7.86739 9 7.74021 8.94732 7.64645 8.85355C7.55268 8.75979 7.5 8.63261 7.5 8.5ZM7.25 10.75C7.25 10.6017 7.29399 10.4567 7.3764 10.3333C7.45881 10.21 7.57594 10.1139 7.71299 10.0571C7.85003 10.0003 8.00083 9.98547 8.14632 10.0144C8.2918 10.0433 8.42544 10.1148 8.53033 10.2197C8.63522 10.3246 8.70665 10.4582 8.73559 10.6037C8.76453 10.7492 8.74967 10.9 8.69291 11.037C8.63614 11.1741 8.54001 11.2912 8.41668 11.3736C8.29334 11.456 8.14834 11.5 8 11.5C7.80109 11.5 7.61032 11.421 7.46967 11.2803C7.32902 11.1397 7.25 10.9489 7.25 10.75Z" fill="#FF4747"/>
</svg>
