<svg width="31" height="31" viewBox="0 0 31 31" fill="none" xmlns="http://www.w3.org/2000/svg">
<path opacity="0.1" d="M26.1562 6.78125V13.8979C26.1562 24.0916 17.5211 27.4689 15.7979 28.0417C15.6049 28.1083 15.3951 28.1083 15.2021 28.0417C13.4789 27.4713 4.84375 24.0977 4.84375 13.9004V6.78125C4.84375 6.52432 4.94581 6.27792 5.12749 6.09624C5.30917 5.91456 5.55557 5.8125 5.8125 5.8125H25.1875C25.4444 5.8125 25.6908 5.91456 25.8725 6.09624C26.0542 6.27792 26.1562 6.52432 26.1562 6.78125Z" fill="white"/>
<path d="M25.1875 4.84375H5.8125C5.29864 4.84375 4.80583 5.04788 4.44248 5.41123C4.07913 5.77458 3.875 6.26739 3.875 6.78125V13.8979C3.875 24.7504 13.0563 28.3493 14.8945 28.9596C15.287 29.0939 15.713 29.0939 16.1055 28.9596C17.9461 28.348 27.125 24.7491 27.125 13.8967V6.78125C27.125 6.26739 26.9209 5.77458 26.5575 5.41123C26.1942 5.04788 25.7014 4.84375 25.1875 4.84375ZM25.1875 13.9004C25.1875 23.3965 17.1541 26.5692 15.5 27.1214C13.8616 26.5764 5.8125 23.4062 5.8125 13.9004V6.78125H25.1875V13.9004ZM14.5312 16.4687V11.625C14.5312 11.3681 14.6333 11.1217 14.815 10.94C14.9967 10.7583 15.2431 10.6562 15.5 10.6562C15.7569 10.6562 16.0033 10.7583 16.185 10.94C16.3667 11.1217 16.4688 11.3681 16.4688 11.625V16.4687C16.4688 16.7257 16.3667 16.9721 16.185 17.1538C16.0033 17.3354 15.7569 17.4375 15.5 17.4375C15.2431 17.4375 14.9967 17.3354 14.815 17.1538C14.6333 16.9721 14.5312 16.7257 14.5312 16.4687ZM14.0469 20.8281C14.0469 20.5407 14.1321 20.2598 14.2918 20.0208C14.4514 19.7818 14.6784 19.5956 14.9439 19.4856C15.2094 19.3756 15.5016 19.3469 15.7835 19.4029C16.0654 19.459 16.3243 19.5974 16.5275 19.8006C16.7307 20.0038 16.8691 20.2628 16.9252 20.5446C16.9813 20.8265 16.9525 21.1187 16.8425 21.3842C16.7325 21.6497 16.5463 21.8767 16.3073 22.0364C16.0683 22.196 15.7874 22.2812 15.5 22.2812C15.1146 22.2812 14.745 22.1282 14.4725 21.8556C14.2 21.5831 14.0469 21.2135 14.0469 20.8281Z" fill="white"/>
</svg>
