<svg width="80" height="80" viewBox="0 0 80 80" fill="none" xmlns="http://www.w3.org/2000/svg">
<rect width="80" height="80" rx="13.3333" fill="#22B5E9"/>
<path d="M57.5 39.9991C57.5002 44.1197 56.0464 48.1082 53.3946 51.2621C50.7428 54.416 47.0632 56.5331 43.0037 57.2403C38.9443 57.9476 34.7655 57.1997 31.2034 55.1284C27.6412 53.0572 24.9242 49.7954 23.5308 45.9175C22.1375 42.0396 22.1572 37.7945 23.5865 33.9298C25.0159 30.065 27.7631 26.8286 31.3443 24.7905C34.9256 22.7524 39.1112 22.0434 43.1638 22.7884C47.2165 23.5334 50.8763 25.6845 53.4987 28.8629C53.6289 29.0094 53.7282 29.1806 53.7907 29.3664C53.8533 29.5521 53.8777 29.7485 53.8627 29.9439C53.8476 30.1393 53.7933 30.3297 53.703 30.5036C53.6127 30.6775 53.4882 30.8315 53.3371 30.9563C53.186 31.081 53.0113 31.1741 52.8234 31.2298C52.6355 31.2855 52.4383 31.3028 52.2436 31.2807C52.0489 31.2585 51.8606 31.1973 51.6901 31.1007C51.5196 31.0042 51.3702 30.8742 51.251 30.7187C49.1062 28.1179 46.1265 26.3406 42.819 25.6891C39.5114 25.0375 36.0803 25.552 33.1093 27.1449C30.1383 28.7379 27.8109 31.3109 26.5231 34.4263C25.2353 37.5417 25.0665 41.0071 26.0456 44.2329C27.0247 47.4587 29.0911 50.2456 31.8933 52.1197C34.6955 53.9937 38.0604 54.8391 41.4156 54.5119C44.7708 54.1848 47.909 52.7054 50.2964 50.3253C52.6838 47.9453 54.1729 44.8116 54.5104 41.4575H40C39.6132 41.4575 39.2423 41.3038 38.9688 41.0303C38.6953 40.7568 38.5417 40.3859 38.5417 39.9991C38.5417 39.6124 38.6953 39.2414 38.9688 38.9679C39.2423 38.6944 39.6132 38.5408 40 38.5408H56.0417C56.4284 38.5408 56.7994 38.6944 57.0729 38.9679C57.3464 39.2414 57.5 39.6124 57.5 39.9991Z" fill="white"/>
</svg>
