<svg width="80" height="80" viewBox="0 0 80 80" fill="none" xmlns="http://www.w3.org/2000/svg">
<rect width="80" height="80" rx="13.3333" fill="#22B5E9"/>
<path d="M58.3095 32.9527L40.8095 21.286C40.5698 21.1261 40.2882 21.0408 40.0001 21.0408C39.712 21.0408 39.4304 21.1261 39.1907 21.286L21.6907 32.9527C21.4909 33.0859 21.3272 33.2665 21.214 33.4783C21.1007 33.6901 21.0416 33.9266 21.0417 34.1667V53.1251C21.0417 53.8986 21.349 54.6405 21.896 55.1874C22.443 55.7344 23.1849 56.0417 23.9584 56.0417H56.0417C56.8153 56.0417 57.5572 55.7344 58.1041 55.1874C58.6511 54.6405 58.9584 53.8986 58.9584 53.1251V34.1667C58.9586 33.9266 58.8994 33.6901 58.7862 33.4783C58.673 33.2665 58.5092 33.0859 58.3095 32.9527ZM40.0001 24.2519L54.9316 34.2068L42.7181 42.9167H37.2858L25.0722 34.2068L40.0001 24.2519ZM23.9584 53.1251V36.9977L35.9714 45.5654C36.2188 45.7421 36.5151 45.837 36.8191 45.837H43.1811C43.485 45.837 43.7814 45.7421 44.0287 45.5654L56.0417 36.9977V53.1251H23.9584Z" fill="white"/>
</svg>
