<svg width="80" height="80" viewBox="0 0 80 80" fill="none" xmlns="http://www.w3.org/2000/svg">
<path d="M61.875 35C61.875 35.4973 61.6775 35.9742 61.3258 36.3258C60.9742 36.6775 60.4973 36.875 60 36.875H47.5C47.0027 36.875 46.5258 36.6775 46.1742 36.3258C45.8225 35.9742 45.625 35.4973 45.625 35C45.625 34.5027 45.8225 34.0258 46.1742 33.6742C46.5258 33.3225 47.0027 33.125 47.5 33.125H60C60.4973 33.125 60.9742 33.3225 61.3258 33.6742C61.6775 34.0258 61.875 34.5027 61.875 35ZM60 43.125H47.5C47.0027 43.125 46.5258 43.3225 46.1742 43.6742C45.8225 44.0258 45.625 44.5027 45.625 45C45.625 45.4973 45.8225 45.9742 46.1742 46.3258C46.5258 46.6775 47.0027 46.875 47.5 46.875H60C60.4973 46.875 60.9742 46.6775 61.3258 46.3258C61.6775 45.9742 61.875 45.4973 61.875 45C61.875 44.5027 61.6775 44.0258 61.3258 43.6742C60.9742 43.3225 60.4973 43.125 60 43.125ZM71.875 17.5V62.5C71.875 63.6603 71.4141 64.7731 70.5936 65.5936C69.7731 66.4141 68.6603 66.875 67.5 66.875H12.5C11.3397 66.875 10.2269 66.4141 9.40641 65.5936C8.58594 64.7731 8.125 63.6603 8.125 62.5V17.5C8.125 16.3397 8.58594 15.2269 9.40641 14.4064C10.2269 13.5859 11.3397 13.125 12.5 13.125H67.5C68.6603 13.125 69.7731 13.5859 70.5936 14.4064C71.4141 15.2269 71.875 16.3397 71.875 17.5ZM68.125 17.5C68.125 17.3342 68.0592 17.1753 67.9419 17.0581C67.8247 16.9408 67.6658 16.875 67.5 16.875H12.5C12.3342 16.875 12.1753 16.9408 12.0581 17.0581C11.9408 17.1753 11.875 17.3342 11.875 17.5V62.5C11.875 62.6658 11.9408 62.8247 12.0581 62.9419C12.1753 63.0592 12.3342 63.125 12.5 63.125H67.5C67.6658 63.125 67.8247 63.0592 67.9419 62.9419C68.0592 62.8247 68.125 62.6658 68.125 62.5V17.5ZM41.8156 52.0344C41.9399 52.5159 41.8679 53.0271 41.6153 53.4555C41.3627 53.8839 40.9503 54.1944 40.4688 54.3188C39.9872 54.4431 39.476 54.371 39.0476 54.1184C38.6192 53.8658 38.3087 53.4534 38.1844 52.9719C37.2938 49.4937 33.775 46.875 30 46.875C26.225 46.875 22.7094 49.4938 21.8156 52.9688C21.6913 53.4503 21.3808 53.8627 20.9524 54.1153C20.524 54.3679 20.0128 54.4399 19.5312 54.3156C19.0497 54.1913 18.6373 53.8808 18.3847 53.4524C18.1321 53.024 18.0601 52.5128 18.1844 52.0312C18.6044 50.4773 19.336 49.025 20.3347 47.7626C21.3333 46.5002 22.5782 45.4539 23.9937 44.6875C22.5152 43.4533 21.4527 41.7936 20.9507 39.9342C20.4486 38.0748 20.5315 36.1059 21.1879 34.2953C21.8443 32.4846 23.0424 30.9201 24.6194 29.8144C26.1964 28.7087 28.0756 28.1155 30.0016 28.1155C31.9275 28.1155 33.8068 28.7087 35.3837 29.8144C36.9607 30.9201 38.1588 32.4846 38.8153 34.2953C39.4717 36.1059 39.5545 38.0748 39.0525 39.9342C38.5504 41.7936 37.4879 43.4533 36.0094 44.6875C37.4246 45.4546 38.6691 46.5015 39.6673 47.7645C40.6654 49.0274 41.3963 50.4802 41.8156 52.0344ZM30 43.125C31.1125 43.125 32.2001 42.7951 33.1251 42.177C34.0501 41.5589 34.7711 40.6804 35.1968 39.6526C35.6226 38.6248 35.734 37.4938 35.5169 36.4026C35.2999 35.3115 34.7641 34.3092 33.9775 33.5225C33.1908 32.7359 32.1885 32.2001 31.0974 31.9831C30.0062 31.766 28.8752 31.8774 27.8474 32.3032C26.8196 32.7289 25.9411 33.4499 25.323 34.3749C24.7049 35.2999 24.375 36.3875 24.375 37.5C24.375 38.9918 24.9676 40.4226 26.0225 41.4775C27.0774 42.5324 28.5082 43.125 30 43.125Z" fill="#1A202C"/>
</svg>
