<svg width="133" height="133" viewBox="0 0 133 133" fill="none" xmlns="http://www.w3.org/2000/svg">
<path d="M101.783 58.1981C101.783 58.7486 101.564 59.2765 101.175 59.6657C100.786 60.0549 100.258 60.2736 99.7076 60.2736H78.9529C78.4025 60.2736 77.8746 60.0549 77.4853 59.6657C77.0961 59.2765 76.8774 58.7486 76.8774 58.1981C76.8774 57.6477 77.0961 57.1198 77.4853 56.7305C77.8746 56.3413 78.4025 56.1226 78.9529 56.1226H99.7076C100.258 56.1226 100.786 56.3413 101.175 56.7305C101.564 57.1198 101.783 57.6477 101.783 58.1981ZM99.7076 72.7264H78.9529C78.4025 72.7264 77.8746 72.9451 77.4853 73.3343C77.0961 73.7235 76.8774 74.2514 76.8774 74.8019C76.8774 75.3523 77.0961 75.8802 77.4853 76.2695C77.8746 76.6587 78.4025 76.8774 78.9529 76.8774H99.7076C100.258 76.8774 100.786 76.6587 101.175 76.2695C101.564 75.8802 101.783 75.3523 101.783 74.8019C101.783 74.2514 101.564 73.7235 101.175 73.3343C100.786 72.9451 100.258 72.7264 99.7076 72.7264ZM118.387 29.1415V103.858C118.387 105.51 117.731 107.094 116.563 108.261C115.396 109.429 113.812 110.085 112.16 110.085H20.8397C19.1883 110.085 17.6046 109.429 16.437 108.261C15.2693 107.094 14.6133 105.51 14.6133 103.858V29.1415C14.6133 27.4902 15.2693 25.9064 16.437 24.7388C17.6046 23.5711 19.1883 22.9151 20.8397 22.9151H112.16C113.812 22.9151 115.396 23.5711 116.563 24.7388C117.731 25.9064 118.387 27.4902 118.387 29.1415ZM114.236 29.1415C114.236 28.5911 114.017 28.0632 113.628 27.6739C113.239 27.2847 112.711 27.066 112.16 27.066H20.8397C20.2892 27.066 19.7613 27.2847 19.3721 27.6739C18.9829 28.0632 18.7642 28.5911 18.7642 29.1415V103.858C18.7642 104.409 18.9829 104.937 19.3721 105.326C19.7613 105.715 20.2892 105.934 20.8397 105.934H112.16C112.711 105.934 113.239 105.715 113.628 105.326C114.017 104.937 114.236 104.409 114.236 103.858V29.1415ZM68.5081 86.7359C68.5882 87.0033 68.6134 87.2842 68.5824 87.5617C68.5514 87.8391 68.4647 88.1075 68.3276 88.3507C68.1904 88.5938 68.0056 88.8069 67.7842 88.9769C67.5628 89.147 67.3094 89.2707 67.039 89.3405C66.7687 89.4104 66.4871 89.425 66.211 89.3834C65.9349 89.3419 65.6701 89.2451 65.4323 89.0988C65.1945 88.9525 64.9886 88.7597 64.8271 88.532C64.6655 88.3043 64.5516 88.0464 64.4921 87.7736C62.8991 81.5472 56.6416 76.8774 49.8963 76.8774C43.151 76.8774 36.9246 81.5472 35.3005 87.7736C35.1856 88.2188 34.926 88.6133 34.5626 88.8951C34.1991 89.1768 33.7524 89.3299 33.2925 89.3302C33.1174 89.3304 32.9429 89.3078 32.7737 89.2627C32.2413 89.1248 31.7855 88.7812 31.5063 88.3074C31.2271 87.8336 31.1473 87.2684 31.2845 86.7359C32.0246 84.0288 33.3606 81.5215 35.1947 79.3974C37.0289 77.2733 39.3147 75.5861 41.885 74.4594C39.2797 72.7373 37.2987 70.2215 36.2356 67.285C35.1725 64.3485 35.084 61.1476 35.9831 58.1568C36.8823 55.1661 38.7212 52.5446 41.2273 50.6811C43.7334 48.8176 46.7733 47.8113 49.8963 47.8113C53.0193 47.8113 56.0592 48.8176 58.5653 50.6811C61.0714 52.5446 62.9103 55.1661 63.8095 58.1568C64.7086 61.1476 64.6201 64.3485 63.557 67.285C62.4939 70.2215 60.5129 72.7373 57.9076 74.4594C60.4796 75.5836 62.7668 77.27 64.6013 79.3944C66.4357 81.5189 67.7707 84.0275 68.5081 86.7359ZM49.8963 72.7264C51.9488 72.7264 53.9551 72.1178 55.6617 70.9775C57.3682 69.8372 58.6983 68.2165 59.4837 66.3203C60.2692 64.4241 60.4747 62.3375 60.0743 60.3245C59.6739 58.3115 58.6855 56.4625 57.2342 55.0112C55.7829 53.5599 53.9338 52.5715 51.9208 52.1711C49.9078 51.7707 47.8213 51.9762 45.9251 52.7616C44.0288 53.5471 42.4081 54.8772 41.2678 56.5837C40.1276 58.2903 39.5189 60.2966 39.5189 62.3491C39.5189 65.1013 40.6123 67.7408 42.5584 69.687C44.5045 71.6331 47.1441 72.7264 49.8963 72.7264Z" fill="#22B5E9"/>
</svg>
