<svg width="17" height="12" viewBox="0 0 17 12" fill="none" xmlns="http://www.w3.org/2000/svg">
<path d="M15.9425 1.0672L5.94254 11.0672C5.88449 11.1253 5.81556 11.1714 5.73969 11.2029C5.66381 11.2343 5.58248 11.2505 5.50035 11.2505C5.41821 11.2505 5.33688 11.2343 5.26101 11.2029C5.18514 11.1714 5.11621 11.1253 5.05816 11.0672L0.68316 6.6922C0.565885 6.57492 0.5 6.41586 0.5 6.25001C0.5 6.08416 0.565885 5.9251 0.68316 5.80782C0.800435 5.69055 0.959495 5.62466 1.12535 5.62466C1.2912 5.62466 1.45026 5.69055 1.56753 5.80782L5.50035 9.74142L15.0582 0.182824C15.1754 0.0655486 15.3345 -0.000335695 15.5003 -0.000335693C15.6662 -0.000335692 15.8253 0.0655486 15.9425 0.182824C16.0598 0.300099 16.1257 0.459159 16.1257 0.625012C16.1257 0.790864 16.0598 0.949924 15.9425 1.0672Z" fill="#22B5E9"/>
</svg>
