<svg width="48" height="48" viewBox="0 0 48 48" fill="none" xmlns="http://www.w3.org/2000/svg">
<path d="M31.5 27C31.5 28.4834 31.0601 29.9334 30.236 31.1668C29.4119 32.4001 28.2406 33.3614 26.8701 33.9291C25.4997 34.4968 23.9917 34.6453 22.5368 34.3559C21.082 34.0665 19.7456 33.3522 18.6967 32.3033C17.6478 31.2544 16.9335 29.918 16.6441 28.4632C16.3547 27.0083 16.5032 25.5003 17.0709 24.1299C17.6386 22.7594 18.5999 21.5881 19.8332 20.764C21.0666 19.9399 22.5166 19.5 24 19.5C25.9891 19.5 27.8968 20.2902 29.3033 21.6967C30.7098 23.1032 31.5 25.0109 31.5 27ZM12 10.5C10.8133 10.5 9.65328 10.8519 8.66658 11.5112C7.67989 12.1705 6.91085 13.1075 6.45673 14.2039C6.0026 15.3003 5.88378 16.5067 6.11529 17.6705C6.3468 18.8344 6.91825 19.9035 7.75736 20.7426C8.59648 21.5818 9.66557 22.1532 10.8295 22.3847C11.9933 22.6162 13.1997 22.4974 14.2961 22.0433C15.3925 21.5892 16.3295 20.8201 16.9888 19.8334C17.6481 18.8467 18 17.6867 18 16.5C18 14.9087 17.3679 13.3826 16.2426 12.2574C15.1174 11.1321 13.5913 10.5 12 10.5ZM36 10.5C34.8133 10.5 33.6533 10.8519 32.6666 11.5112C31.6799 12.1705 30.9109 13.1075 30.4567 14.2039C30.0026 15.3003 29.8838 16.5067 30.1153 17.6705C30.3468 18.8344 30.9182 19.9035 31.7574 20.7426C32.5965 21.5818 33.6656 22.1532 34.8295 22.3847C35.9933 22.6162 37.1997 22.4974 38.2961 22.0433C39.3925 21.5892 40.3295 20.8201 40.9888 19.8334C41.6481 18.8467 42 17.6867 42 16.5C42 14.9087 41.3679 13.3826 40.2426 12.2574C39.1174 11.1321 37.5913 10.5 36 10.5Z" fill="#F8F7F2"/>
<path d="M45.9001 28.2C45.7425 28.3182 45.5632 28.4042 45.3723 28.4531C45.1815 28.502 44.9829 28.5128 44.7879 28.4849C44.5929 28.4571 44.4053 28.3911 44.2358 28.2907C44.0663 28.1904 43.9183 28.0576 43.8001 27.9C42.896 26.6847 41.7192 25.6987 40.3644 25.0213C39.0096 24.344 37.5147 23.9941 36.0001 24C35.6023 24 35.2207 23.842 34.9394 23.5607C34.6581 23.2794 34.5001 22.8978 34.5001 22.5C34.5001 22.1022 34.6581 21.7206 34.9394 21.4393C35.2207 21.158 35.6023 21 36.0001 21C36.8417 20.9999 37.6665 20.7638 38.3806 20.3185C39.0948 19.8732 39.6698 19.2365 40.0403 18.4808C40.4107 17.7251 40.5619 16.8807 40.4765 16.0434C40.3911 15.2061 40.0725 14.4095 39.5571 13.7442C39.0417 13.0788 38.35 12.5714 37.5606 12.2794C36.7713 11.9875 35.9158 11.9227 35.0915 12.0926C34.2672 12.2624 33.507 12.6601 32.8974 13.2403C32.2877 13.8205 31.853 14.5601 31.6426 15.375C31.5933 15.5658 31.507 15.7451 31.3885 15.9025C31.2699 16.06 31.1216 16.1926 30.9518 16.2927C30.782 16.3928 30.5942 16.4585 30.3991 16.486C30.2039 16.5135 30.0053 16.5024 29.8145 16.4531C29.6236 16.4039 29.4444 16.3175 29.2869 16.199C29.1295 16.0805 28.9969 15.9321 28.8968 15.7623C28.7967 15.5926 28.731 15.4048 28.7034 15.2096C28.6759 15.0145 28.6871 14.8158 28.7363 14.625C29.0284 13.495 29.5801 12.4487 30.3477 11.5694C31.1152 10.6901 32.0774 10.0021 33.1577 9.56016C34.2379 9.11818 35.4064 8.93442 36.5702 9.02349C37.7339 9.11257 38.8608 9.47203 39.8612 10.0733C40.8616 10.6745 41.7079 11.5009 42.3327 12.4868C42.9575 13.4726 43.3435 14.5907 43.4602 15.752C43.5769 16.9133 43.4209 18.0859 43.0046 19.1763C42.5884 20.2667 41.9234 21.2449 41.0626 22.0331C43.1022 22.9162 44.8753 24.3177 46.2057 26.0981C46.3239 26.2561 46.4097 26.4359 46.4583 26.6271C46.507 26.8183 46.5174 27.0172 46.489 27.2125C46.4606 27.4077 46.394 27.5954 46.2929 27.7649C46.1918 27.9344 46.0584 28.0822 45.9001 28.2ZM35.7976 39.75C35.9023 39.9208 35.9718 40.1108 36.0019 40.3088C36.032 40.5068 36.0221 40.7089 35.9728 40.903C35.9236 41.0972 35.836 41.2795 35.7151 41.4393C35.5942 41.599 35.4426 41.7329 35.2692 41.8331C35.0957 41.9333 34.9039 41.9977 34.7052 42.0226C34.5064 42.0475 34.3047 42.0323 34.1119 41.9779C33.9191 41.9236 33.7392 41.8312 33.5827 41.7062C33.4262 41.5811 33.2963 41.426 33.2007 41.25C32.2557 39.6504 30.91 38.3249 29.2964 37.404C27.6828 36.4832 25.857 35.9989 23.9991 35.9989C22.1413 35.9989 20.3155 36.4832 18.7019 37.404C17.0883 38.3249 15.7426 39.6504 14.7976 41.25C14.7038 41.4293 14.5747 41.5877 14.4182 41.7158C14.2616 41.8439 14.0807 41.9389 13.8864 41.9953C13.6921 42.0517 13.4884 42.0682 13.2876 42.0438C13.0868 42.0194 12.8929 41.9546 12.7178 41.8534C12.5426 41.7521 12.3898 41.6165 12.2684 41.4547C12.147 41.2928 12.0597 41.1081 12.0115 40.9116C11.9634 40.7151 11.9555 40.5109 11.9883 40.3113C12.0212 40.1116 12.094 39.9207 12.2026 39.75C13.6568 37.2513 15.8742 35.285 18.5288 34.14C17.0351 32.9963 15.9373 31.4133 15.3897 29.6134C14.8422 27.8136 14.8724 25.8874 15.4762 24.1056C16.0799 22.3238 17.2269 20.776 18.7558 19.6798C20.2848 18.5835 22.1188 17.994 24.0001 17.994C25.8814 17.994 27.7154 18.5835 29.2443 19.6798C30.7732 20.776 31.9202 22.3238 32.524 24.1056C33.1278 25.8874 33.158 27.8136 32.6105 29.6134C32.0629 31.4133 30.9651 32.9963 29.4713 34.14C32.126 35.285 34.3433 37.2513 35.7976 39.75ZM24.0001 33C25.1868 33 26.3468 32.6481 27.3335 31.9888C28.3202 31.3295 29.0892 30.3925 29.5434 29.2961C29.9975 28.1997 30.1163 26.9933 29.8848 25.8295C29.6533 24.6656 29.0818 23.5965 28.2427 22.7574C27.4036 21.9182 26.3345 21.3468 25.1706 21.1153C24.0067 20.8838 22.8003 21.0026 21.704 21.4567C20.6076 21.9108 19.6706 22.6799 19.0113 23.6666C18.352 24.6533 18.0001 25.8133 18.0001 27C18.0001 28.5913 18.6322 30.1174 19.7574 31.2426C20.8827 32.3679 22.4088 33 24.0001 33ZM13.5001 22.5C13.5001 22.1022 13.342 21.7206 13.0607 21.4393C12.7794 21.158 12.3979 21 12.0001 21C11.1584 20.9999 10.3337 20.7638 9.61952 20.3185C8.90534 19.8732 8.33036 19.2365 7.95989 18.4808C7.58942 17.7251 7.4383 16.8807 7.5237 16.0434C7.60911 15.2061 7.92761 14.4095 8.44303 13.7442C8.95845 13.0788 9.65014 12.5714 10.4395 12.2794C11.2289 11.9875 12.0843 11.9227 12.9086 12.0926C13.733 12.2624 14.4931 12.6601 15.1028 13.2403C15.7124 13.8205 16.1472 14.5601 16.3576 15.375C16.457 15.7604 16.7055 16.0905 17.0484 16.2927C17.3912 16.4949 17.8003 16.5526 18.1857 16.4531C18.5711 16.3537 18.9012 16.1052 19.1034 15.7623C19.3056 15.4195 19.3633 15.0104 19.2638 14.625C18.9718 13.495 18.42 12.4487 17.6525 11.5694C16.8849 10.6901 15.9227 10.0021 14.8425 9.56016C13.7622 9.11818 12.5938 8.93442 11.43 9.02349C10.2662 9.11257 9.13933 9.47203 8.13894 10.0733C7.13855 10.6745 6.29229 11.5009 5.66749 12.4868C5.0427 13.4726 4.65661 14.5907 4.53996 15.752C4.42331 16.9133 4.5793 18.0859 4.99554 19.1763C5.41177 20.2667 6.07676 21.2449 6.93758 22.0331C4.89999 22.9171 3.12892 24.3184 1.80008 26.0981C1.56114 26.4164 1.45841 26.8165 1.51449 27.2105C1.57058 27.6045 1.78088 27.9601 2.09914 28.1991C2.4174 28.438 2.81755 28.5407 3.21155 28.4847C3.60555 28.4286 3.96114 28.2183 4.20008 27.9C5.10418 26.6847 6.28098 25.6987 7.63575 25.0213C8.99052 24.344 10.4854 23.9941 12.0001 24C12.3979 24 12.7794 23.842 13.0607 23.5607C13.342 23.2794 13.5001 22.8978 13.5001 22.5Z" fill="#1A202C"/>
</svg>
