<svg width="90" height="30" viewBox="0 0 90 30" fill="none" xmlns="http://www.w3.org/2000/svg">
<path d="M5.49827 17.1583C5.65326 17.2156 11.6656 8.32331 12.2588 7.45242C12.2742 7.42952 12.295 7.41075 12.3194 7.39776C12.3437 7.38477 12.3709 7.37796 12.3985 7.37793L17.9918 7.38748C18.0362 7.38773 18.0799 7.39812 18.1196 7.41783C18.1594 7.43753 18.194 7.46604 18.2208 7.50113C18.2476 7.53623 18.266 7.57696 18.2744 7.62018C18.2828 7.6634 18.281 7.70794 18.2693 7.75035C18.2502 7.82166 18.1781 7.94134 18.0531 8.10941C15.6522 11.3511 13.2354 14.6176 10.8026 17.9089C10.7631 17.9628 10.7428 18.0284 10.7449 18.0952C10.747 18.1619 10.7713 18.2261 10.8141 18.2775C13.6691 21.7394 16.5146 25.1829 19.3505 28.6079C19.4806 28.7658 19.5514 28.9097 19.5629 29.0396C19.5658 29.072 19.5619 29.1046 19.5515 29.1355C19.5411 29.1663 19.5244 29.1947 19.5025 29.2187C19.4805 29.2428 19.4538 29.262 19.424 29.2752C19.3942 29.2885 19.362 29.2953 19.3294 29.2955L13.0032 29.2993C12.9375 29.2993 12.8726 29.2836 12.8137 29.2534C12.7548 29.2232 12.7037 29.1794 12.6645 29.1255C10.3708 25.9972 8.07071 22.8783 5.76425 19.7691C5.68516 19.6621 5.61882 19.5959 5.56524 19.5705C5.53865 19.5575 5.50919 19.5515 5.47963 19.553C5.45007 19.5546 5.4214 19.5636 5.39631 19.5793C5.37122 19.5949 5.35055 19.6167 5.33624 19.6426C5.32194 19.6685 5.31448 19.6975 5.31457 19.7271C5.30946 22.6415 5.30627 25.5292 5.305 28.3902C5.305 28.6563 5.28969 28.8575 5.25907 28.9937C5.23997 29.0783 5.19263 29.1538 5.12482 29.208C5.05701 29.2621 4.97277 29.2916 4.88593 29.2917L0.436927 29.2955C0.379975 29.2957 0.323533 29.2847 0.270844 29.2632C0.218154 29.2416 0.170255 29.2098 0.129894 29.1697C0.0895331 29.1296 0.0575057 29.082 0.0356529 29.0295C0.0138001 28.977 0.00255006 28.9207 0.00255062 28.8638C-7.78614e-07 19.3909 -0.000637577 9.90659 0.000638123 0.410767C0.000638123 0.157393 0.171581 0.0281592 0.513468 0.0230662C1.94098 0.00587747 3.40676 0.103281 4.82661 0.0383454C5.14809 0.0230666 5.30883 0.179038 5.30883 0.50626C5.31138 5.93408 5.31201 11.3944 5.31074 16.8871C5.31077 16.946 5.32872 17.0034 5.36221 17.0518C5.3957 17.1003 5.44315 17.1374 5.49827 17.1583Z" fill="white"/>
<path d="M27.8357 0.0383452L23.3121 0.0304652C23.0965 0.0300896 22.9214 0.20422 22.9211 0.419396L22.9139 4.50267C22.9136 4.71784 23.088 4.89258 23.3036 4.89296L27.8272 4.90084C28.0428 4.90121 28.2179 4.72708 28.2183 4.51191L28.2254 0.428636C28.2258 0.21346 28.0513 0.0387207 27.8357 0.0383452Z" fill="white"/>
<path d="M37.3399 0.0305176H32.7933C32.5956 0.0305176 32.4354 0.190418 32.4354 0.387663V28.9401C32.4354 29.1373 32.5956 29.2972 32.7933 29.2972H37.3399C37.5375 29.2972 37.6977 29.1373 37.6977 28.9401V0.387663C37.6977 0.190418 37.5375 0.0305176 37.3399 0.0305176Z" fill="white"/>
<path d="M58.4596 9.54753L58.4616 0.397392C58.4616 0.327631 58.4849 0.259875 58.5279 0.204865C58.5709 0.149855 58.6311 0.11074 58.6988 0.0937254C58.9527 0.0287902 59.2557 -0.00240233 59.6078 0.000144148C60.8082 0.0103301 62.0775 0.0256071 63.4157 0.0459789C63.4562 0.0467872 63.496 0.0560078 63.5327 0.0730519C63.5694 0.0900961 63.6021 0.11459 63.6287 0.144966C63.6554 0.175342 63.6754 0.210932 63.6875 0.249464C63.6996 0.287996 63.7035 0.328622 63.6989 0.368746C63.6856 0.504346 63.7678 0.739259 63.7678 0.888228C63.7704 10.0556 63.7691 19.2229 63.764 28.3902C63.7627 28.6639 63.7474 28.8677 63.7181 29.0014C63.6996 29.0814 63.6546 29.1529 63.59 29.2045C63.5255 29.2561 63.4453 29.2848 63.3622 29.2859C62.0035 29.3037 60.6883 29.3044 59.4164 29.2878C59.0682 29.2827 58.8934 29.1274 58.8921 28.8218C58.887 28.012 58.8864 27.2086 58.8902 26.4116C58.8906 26.4034 58.8884 26.3953 58.8839 26.3885C58.8793 26.3817 58.8727 26.3765 58.865 26.3737C58.8573 26.3709 58.8488 26.3707 58.841 26.373C58.8331 26.3754 58.8262 26.3802 58.8213 26.3868C56.6539 29.1866 53.7734 30.3491 50.1797 29.8742C45.5834 29.2668 42.0548 25.6037 41.1095 21.1289C39.6571 14.2515 43.8286 6.95967 51.368 6.69611C54.1637 6.59871 56.548 7.48106 58.3697 9.58191C58.3767 9.5896 58.3859 9.59501 58.396 9.59742C58.4061 9.59983 58.4167 9.59914 58.4265 9.59542C58.4362 9.5917 58.4445 9.58514 58.4505 9.5766C58.4564 9.56805 58.4596 9.55792 58.4596 9.54753ZM48.4977 23.627C50.595 25.2561 53.3715 25.3707 55.6544 24.1026C58.5534 22.4945 59.4777 18.3864 58.2109 15.5063C56.0199 10.5216 48.8211 10.3573 46.676 15.4738C45.5394 18.1801 46.0981 21.7649 48.4977 23.627Z" fill="white"/>
<path d="M69.3669 11.4365C74.2043 4.55715 85.0982 5.17022 88.7703 12.8727C89.8419 15.1212 90.2131 17.5442 89.8839 20.1416C89.8533 20.3822 89.9567 20.7012 89.5433 20.7012C82.1507 20.705 74.7586 20.705 67.3672 20.7012C67.3402 20.7013 67.314 20.692 67.293 20.6749C67.2721 20.6579 67.2577 20.6341 67.2524 20.6076C66.6095 17.401 67.4839 14.1122 69.3669 11.4365ZM73.2514 15.9437C76.817 15.9896 80.4055 15.9959 84.017 15.9628C84.0812 15.9623 84.1434 15.9401 84.1934 15.8999C84.2434 15.8597 84.2783 15.8038 84.2926 15.7413C84.3155 15.6394 84.2932 15.5045 84.2256 15.3364C82.2049 10.3669 75.297 10.6611 73.0084 15.1989C72.8285 15.556 72.6065 15.9342 73.2514 15.9437Z" fill="white"/>
<path d="M27.8371 7.38354H23.3058C23.0913 7.38354 22.9174 7.55712 22.9174 7.77125V28.9058C22.9174 29.1199 23.0913 29.2935 23.3058 29.2935H27.8371C28.0516 29.2935 28.2255 29.1199 28.2255 28.9058V7.77125C28.2255 7.55712 28.0516 7.38354 27.8371 7.38354Z" fill="white"/>
<path d="M75.0981 29.4922C71.9579 28.5869 69.3 26.2359 68.0983 23.2107C68.0871 23.1823 68.083 23.1516 68.0863 23.1213C68.0897 23.091 68.1004 23.062 68.1176 23.0368C68.1348 23.0115 68.1578 22.9909 68.1848 22.9766C68.2118 22.9623 68.2419 22.9548 68.2725 22.9548L73.7165 22.9433C73.7529 22.9433 73.7889 22.9504 73.8224 22.9641C73.8558 22.9779 73.8862 22.9981 73.9117 23.0235C76.4203 25.5426 80.7871 25.7088 83.1924 23.056C83.2254 23.0188 83.266 22.9892 83.3116 22.9691C83.3571 22.949 83.4065 22.9389 83.4565 22.9395L88.9637 22.9681C88.9971 22.9683 89.0299 22.9768 89.0592 22.9929C89.0885 23.009 89.1132 23.0323 89.1313 23.0606C89.1493 23.0888 89.1601 23.1212 89.1626 23.1547C89.165 23.1883 89.1591 23.2219 89.1454 23.2527C86.6846 28.7244 80.7909 31.1347 75.0981 29.4922Z" fill="#22B5E9"/>
</svg>
