<svg width="20" height="20" viewBox="0 0 20 20" fill="none" xmlns="http://www.w3.org/2000/svg">
<path d="M10.7453 14.5595C10.8624 14.6767 10.9282 14.8357 10.9282 15.0013C10.9282 15.167 10.8624 15.3259 10.7453 15.4431L9.96876 16.2244C9.14752 17.0451 8.03389 17.506 6.87285 17.5056C5.71181 17.5052 4.59847 17.0437 3.77775 16.2224C2.95703 15.4012 2.49615 14.2876 2.49652 13.1265C2.49689 11.9655 2.95846 10.8521 3.7797 10.0314L5.66407 8.14705C6.45289 7.3576 7.51358 6.89944 8.62909 6.86633C9.7446 6.83322 10.8306 7.22765 11.6649 7.96892C11.7264 8.0235 11.7766 8.08967 11.8126 8.16366C11.8486 8.23764 11.8696 8.31799 11.8746 8.40011C11.8795 8.48223 11.8682 8.56452 11.8414 8.64228C11.8145 8.72004 11.7726 8.79174 11.718 8.8533C11.6634 8.91485 11.5972 8.96506 11.5232 9.00104C11.4493 9.03703 11.3689 9.05809 11.2868 9.06302C11.2047 9.06795 11.1224 9.05666 11.0446 9.02979C10.9669 9.00292 10.8952 8.961 10.8336 8.90642C10.2378 8.37729 9.46228 8.09577 8.66575 8.11944C7.86922 8.14311 7.11182 8.47018 6.54845 9.03377L4.66407 10.9158C4.0779 11.502 3.7486 12.297 3.7486 13.126C3.7486 13.9549 4.0779 14.7499 4.66407 15.3361C5.25024 15.9223 6.04526 16.2516 6.87423 16.2516C7.7032 16.2516 8.49822 15.9223 9.08439 15.3361L9.86095 14.5595C9.91899 14.5014 9.98793 14.4553 10.0638 14.4239C10.1397 14.3924 10.221 14.3762 10.3031 14.3762C10.3853 14.3762 10.4666 14.3924 10.5425 14.4239C10.6183 14.4553 10.6873 14.5014 10.7453 14.5595ZM16.2203 3.7783C15.399 2.95878 14.2861 2.49854 13.1258 2.49854C11.9655 2.49854 10.8526 2.95878 10.0313 3.7783L9.2547 4.55564C9.13753 4.67292 9.07174 4.83193 9.07182 4.99771C9.07189 5.16349 9.13781 5.32245 9.25509 5.43963C9.37237 5.5568 9.53138 5.62258 9.69716 5.62251C9.86294 5.62244 10.0219 5.55651 10.1391 5.43923L10.9156 4.66267C11.5018 4.0765 12.2968 3.7472 13.1258 3.7472C13.9548 3.7472 14.7498 4.0765 15.3359 4.66267C15.9221 5.24884 16.2514 6.04386 16.2514 6.87283C16.2514 7.7018 15.9221 8.49682 15.3359 9.08298L13.4516 10.9689C12.8879 11.5322 12.1303 11.8588 11.3338 11.8821C10.5373 11.9053 9.76197 11.6234 9.16642 11.0939C9.10486 11.0393 9.03316 10.9974 8.9554 10.9706C8.87764 10.9437 8.79535 10.9324 8.71323 10.9373C8.54738 10.9473 8.39227 11.0227 8.28204 11.147C8.22746 11.2086 8.18554 11.2803 8.15867 11.3581C8.1318 11.4358 8.12051 11.5181 8.12545 11.6002C8.13541 11.7661 8.21085 11.9212 8.33517 12.0314C9.16923 12.7729 10.2551 13.1676 11.3706 13.1348C12.4861 13.102 13.5469 12.6441 14.3359 11.8549L16.2203 9.97049C17.0403 9.14906 17.5009 8.03583 17.5009 6.87517C17.5009 5.71451 17.0403 4.60128 16.2203 3.77986V3.7783Z" fill="#22B5E9"/>
</svg>
