<svg width="50" height="50" viewBox="0 0 50 50" fill="none" xmlns="http://www.w3.org/2000/svg">
<rect width="50" height="50" rx="5" fill="#22B5E9"/>
<path d="M16.998 17.8497C16.998 17.3135 17.1861 16.8712 17.5621 16.5227C17.9381 16.1742 18.427 16 19.0287 16C19.6196 16 20.0977 16.1716 20.463 16.5147C20.839 16.8685 21.027 17.3296 21.027 17.8979C21.027 18.4126 20.8444 18.8415 20.4791 19.1846C20.1031 19.5385 19.6088 19.7154 18.9964 19.7154H18.9803C18.3894 19.7154 17.9113 19.5385 17.546 19.1846C17.1807 18.8308 16.998 18.3858 16.998 17.8497ZM17.2076 31.9231V21.179H20.7853V31.9231H17.2076ZM22.7676 31.9231H26.3453V25.9238C26.3453 25.5485 26.3883 25.259 26.4742 25.0552C26.6246 24.6907 26.8529 24.3824 27.1592 24.1304C27.4654 23.8784 27.8494 23.7524 28.3114 23.7524C29.5148 23.7524 30.1164 24.562 30.1164 26.1811V31.9231H33.6942V25.7629C33.6942 24.176 33.3181 22.9724 32.566 22.1521C31.814 21.3318 30.8202 20.9217 29.5846 20.9217C28.1986 20.9217 27.1189 21.5168 26.3453 22.707V22.7392H26.3292L26.3453 22.707V21.179H22.7676C22.789 21.5221 22.7998 22.589 22.7998 24.3797C22.7998 26.1704 22.789 28.6848 22.7676 31.9231Z" fill="white"/>
</svg>
