<svg width="90" height="31" viewBox="0 0 90 31" fill="none" xmlns="http://www.w3.org/2000/svg">
<path d="M5.49827 17.6588C5.65326 17.7161 11.6656 8.8238 12.2588 7.95291C12.2742 7.93001 12.295 7.91124 12.3194 7.89825C12.3437 7.88526 12.3709 7.87845 12.3985 7.87842L17.9918 7.88797C18.0362 7.88822 18.0799 7.8986 18.1196 7.91831C18.1594 7.93802 18.194 7.96653 18.2208 8.00162C18.2476 8.03671 18.266 8.07745 18.2744 8.12067C18.2828 8.16389 18.281 8.20843 18.2693 8.25084C18.2502 8.32214 18.1781 8.44183 18.0531 8.6099C15.6522 11.8516 13.2354 15.1181 10.8026 18.4094C10.7631 18.4633 10.7428 18.5289 10.7449 18.5957C10.747 18.6624 10.7713 18.7266 10.8141 18.778C13.6691 22.2399 16.5146 25.6834 19.3505 29.1084C19.4806 29.2663 19.5514 29.4102 19.5629 29.54C19.5658 29.5725 19.5619 29.6051 19.5515 29.636C19.5411 29.6668 19.5244 29.6951 19.5025 29.7192C19.4805 29.7433 19.4538 29.7625 19.424 29.7757C19.3942 29.7889 19.362 29.7958 19.3294 29.796L13.0032 29.7998C12.9375 29.7998 12.8726 29.7841 12.8137 29.7539C12.7548 29.7237 12.7037 29.6798 12.6645 29.626C10.3708 26.4976 8.07071 23.3788 5.76425 20.2696C5.68516 20.1626 5.61882 20.0964 5.56524 20.071C5.53865 20.058 5.50919 20.052 5.47963 20.0535C5.45007 20.055 5.4214 20.0641 5.39631 20.0798C5.37122 20.0954 5.35055 20.1172 5.33624 20.1431C5.32194 20.169 5.31448 20.198 5.31457 20.2276C5.30946 23.142 5.30627 26.0297 5.305 28.8907C5.305 29.1568 5.28969 29.358 5.25907 29.4942C5.23997 29.5788 5.19263 29.6543 5.12482 29.7084C5.05701 29.7626 4.97277 29.7921 4.88593 29.7921L0.436927 29.796C0.379975 29.7962 0.323533 29.7852 0.270844 29.7637C0.218154 29.7421 0.170255 29.7103 0.129894 29.6702C0.0895331 29.6301 0.0575057 29.5824 0.0356529 29.53C0.0138001 29.4775 0.00255006 29.4212 0.00255062 29.3643C-7.78614e-07 19.8914 -0.000637577 10.4071 0.000638123 0.911256C0.000638123 0.657881 0.171581 0.528647 0.513468 0.523554C1.94098 0.506366 3.40676 0.603769 4.82661 0.538834C5.14809 0.523555 5.30883 0.679526 5.30883 1.00675C5.31138 6.43457 5.31201 11.8949 5.31074 17.3876C5.31077 17.4465 5.32872 17.5039 5.36221 17.5523C5.3957 17.6008 5.44315 17.6379 5.49827 17.6588Z" fill="#1A202C"/>
<path d="M27.8359 0.537857L23.3122 0.529977C23.0966 0.529601 22.9216 0.703731 22.9212 0.918907L22.9141 5.00218C22.9137 5.21736 23.0881 5.39209 23.3037 5.39247L27.8274 5.40035C28.043 5.40073 28.218 5.2266 28.2184 5.01142L28.2255 0.928147C28.2259 0.712971 28.0515 0.538232 27.8359 0.537857Z" fill="#1A202C"/>
<path d="M37.34 0.53125H32.7934C32.5958 0.53125 32.4355 0.691151 32.4355 0.888396V29.4408C32.4355 29.638 32.5958 29.7979 32.7934 29.7979H37.34C37.5376 29.7979 37.6978 29.638 37.6978 29.4408V0.888396C37.6978 0.691151 37.5376 0.53125 37.34 0.53125Z" fill="#1A202C"/>
<path d="M58.4598 10.0475L58.4617 0.897392C58.4617 0.827631 58.4851 0.759875 58.528 0.704865C58.571 0.649855 58.6312 0.61074 58.699 0.593725C58.9528 0.52879 59.2558 0.497598 59.6079 0.500144C60.8083 0.51033 62.0777 0.525607 63.4159 0.545979C63.4563 0.546787 63.4961 0.556008 63.5328 0.573052C63.5695 0.590096 63.6022 0.61459 63.6289 0.644966C63.6555 0.675342 63.6755 0.710932 63.6876 0.749464C63.6997 0.787996 63.7036 0.828622 63.6991 0.868746C63.6857 1.00435 63.768 1.23926 63.768 1.38823C63.7705 10.5556 63.7692 19.7229 63.7641 28.8902C63.7628 29.1639 63.7475 29.3677 63.7182 29.5014C63.6998 29.5814 63.6547 29.6529 63.5901 29.7045C63.5256 29.7561 63.4454 29.7848 63.3623 29.7859C62.0037 29.8037 60.6884 29.8044 59.4165 29.7878C59.0683 29.7827 58.8935 29.6274 58.8922 29.3218C58.8871 28.512 58.8865 27.7086 58.8903 26.9116C58.8907 26.9034 58.8885 26.8953 58.884 26.8885C58.8794 26.8817 58.8728 26.8765 58.8651 26.8737C58.8574 26.8709 58.849 26.8707 58.8411 26.873C58.8332 26.8754 58.8263 26.8802 58.8214 26.8868C56.654 29.6866 53.7735 30.8491 50.1798 30.3742C45.5835 29.7668 42.0549 26.1037 41.1096 21.6289C39.6572 14.7515 43.8288 7.45967 51.3682 7.19611C54.1638 7.09871 56.5481 7.98106 58.3698 10.0819C58.3768 10.0896 58.386 10.095 58.3961 10.0974C58.4062 10.0998 58.4169 10.0991 58.4266 10.0954C58.4363 10.0917 58.4447 10.0851 58.4506 10.0766C58.4565 10.0681 58.4597 10.0579 58.4598 10.0475ZM48.4978 24.127C50.5951 25.7561 53.3716 25.8707 55.6545 24.6026C58.5535 22.9945 59.4778 18.8864 58.211 16.0063C56.02 11.0216 48.8212 10.8573 46.6761 15.9738C45.5395 18.6801 46.0982 22.2649 48.4978 24.127Z" fill="#1A202C"/>
<path d="M69.3669 11.9372C74.2043 5.05788 85.0982 5.67095 88.7703 13.3734C89.8419 15.622 90.2131 18.0449 89.8839 20.6423C89.8533 20.883 89.9567 21.2019 89.5433 21.2019C82.1507 21.2057 74.7586 21.2057 67.3672 21.2019C67.3402 21.202 67.314 21.1927 67.293 21.1757C67.2721 21.1586 67.2577 21.1348 67.2524 21.1083C66.6095 17.9017 67.4839 14.6129 69.3669 11.9372ZM73.2514 16.4445C76.817 16.4903 80.4055 16.4967 84.017 16.4636C84.0812 16.463 84.1434 16.4408 84.1934 16.4006C84.2434 16.3604 84.2783 16.3045 84.2926 16.242C84.3155 16.1402 84.2932 16.0052 84.2256 15.8371C82.2049 10.8677 75.297 11.1618 73.0084 15.6996C72.8285 16.0568 72.6065 16.4349 73.2514 16.4445Z" fill="#1A202C"/>
<path d="M27.8372 7.88477H23.3059C23.0914 7.88477 22.9175 8.05835 22.9175 8.27247V29.407C22.9175 29.6211 23.0914 29.7947 23.3059 29.7947H27.8372C28.0518 29.7947 28.2257 29.6211 28.2257 29.407V8.27247C28.2257 8.05835 28.0518 7.88477 27.8372 7.88477Z" fill="#1A202C"/>
<path d="M75.0978 29.9922C71.9577 29.0869 69.2998 26.7359 68.0981 23.7107C68.0868 23.6823 68.0827 23.6516 68.0861 23.6213C68.0895 23.591 68.1002 23.562 68.1174 23.5368C68.1345 23.5115 68.1576 23.4909 68.1846 23.4766C68.2116 23.4623 68.2417 23.4548 68.2722 23.4548L73.7162 23.4433C73.7526 23.4433 73.7886 23.4504 73.8221 23.4641C73.8556 23.4779 73.886 23.4981 73.9114 23.5235C76.4201 26.0426 80.7868 26.2088 83.1921 23.556C83.2251 23.5188 83.2658 23.4892 83.3113 23.4691C83.3569 23.449 83.4063 23.4389 83.4562 23.4395L88.9634 23.4681C88.9968 23.4683 89.0297 23.4768 89.0589 23.4929C89.0882 23.509 89.113 23.5323 89.131 23.5606C89.1491 23.5888 89.1598 23.6212 89.1623 23.6547C89.1648 23.6883 89.1589 23.7219 89.1452 23.7527C86.6844 29.2244 80.7906 31.6347 75.0978 29.9922Z" fill="#22B5E9"/>
</svg>
