<svg width="24" height="24" viewBox="0 0 24 24" fill="none" xmlns="http://www.w3.org/2000/svg">
<path d="M23.895 4.5525L21.895 0.5525C21.8119 0.386361 21.6841 0.246665 21.526 0.149077C21.3679 0.0514891 21.1858 -0.00013275 21 2.56377e-07H3C2.81422 -0.00013275 2.63208 0.0514891 2.47399 0.149077C2.31591 0.246665 2.18814 0.386361 2.105 0.5525L0.105 4.5525C0.036071 4.69161 0.000140606 4.84475 0 5V22C0 22.5304 0.210714 23.0391 0.585786 23.4142C0.960859 23.7893 1.46957 24 2 24H22C22.5304 24 23.0391 23.7893 23.4142 23.4142C23.7893 23.0391 24 22.5304 24 22V5C23.9999 4.84475 23.9639 4.69161 23.895 4.5525ZM3.6175 2H20.3825L21.3825 4H2.6175L3.6175 2ZM22 22H2V6H22V22ZM16.7075 14.2925C16.8005 14.3854 16.8742 14.4957 16.9246 14.6171C16.9749 14.7385 17.0008 14.8686 17.0008 15C17.0008 15.1314 16.9749 15.2615 16.9246 15.3829C16.8742 15.5043 16.8005 15.6146 16.7075 15.7075L12.7075 19.7075C12.6146 19.8005 12.5043 19.8742 12.3829 19.9246C12.2615 19.9749 12.1314 20.0008 12 20.0008C11.8686 20.0008 11.7385 19.9749 11.6171 19.9246C11.4957 19.8742 11.3854 19.8005 11.2925 19.7075L7.2925 15.7075C7.10486 15.5199 6.99944 15.2654 6.99944 15C6.99944 14.7346 7.10486 14.4801 7.2925 14.2925C7.48014 14.1049 7.73464 13.9994 8 13.9994C8.26536 13.9994 8.51986 14.1049 8.7075 14.2925L11 16.5863V9C11 8.73478 11.1054 8.48043 11.2929 8.29289C11.4804 8.10536 11.7348 8 12 8C12.2652 8 12.5196 8.10536 12.7071 8.29289C12.8946 8.48043 13 8.73478 13 9V16.5863L15.2925 14.2925C15.3854 14.1995 15.4957 14.1258 15.6171 14.0754C15.7385 14.0251 15.8686 13.9992 16 13.9992C16.1314 13.9992 16.2615 14.0251 16.3829 14.0754C16.5043 14.1258 16.6146 14.1995 16.7075 14.2925Z" fill="#1A202C" fill-opacity="0.2"/>
</svg>
