<svg width="24" height="24" viewBox="0 0 24 24" fill="none" xmlns="http://www.w3.org/2000/svg">
<path d="M19.5 3H4.5C4.10218 3 3.72064 3.15804 3.43934 3.43934C3.15804 3.72064 3 4.10218 3 4.5V19.5C3 19.8978 3.15804 20.2794 3.43934 20.5607C3.72064 20.842 4.10218 21 4.5 21H19.5C19.8978 21 20.2794 20.842 20.5607 20.5607C20.842 20.2794 21 19.8978 21 19.5V4.5C21 4.10218 20.842 3.72064 20.5607 3.43934C20.2794 3.15804 19.8978 3 19.5 3ZM13.125 16.5C13.125 16.6989 13.046 16.8897 12.9053 17.0303C12.7647 17.171 12.5739 17.25 12.375 17.25C12.1761 17.25 11.9853 17.171 11.8447 17.0303C11.704 16.8897 11.625 16.6989 11.625 16.5V8.90625L10.5413 9.62906C10.4593 9.68373 10.3673 9.7217 10.2706 9.74083C10.174 9.75995 10.0745 9.75985 9.97783 9.74052C9.8812 9.72119 9.78932 9.68302 9.70744 9.62819C9.62557 9.57336 9.55529 9.50293 9.50062 9.42094C9.44596 9.33894 9.40798 9.24699 9.38886 9.15031C9.36974 9.05364 9.36984 8.95415 9.38917 8.85752C9.40849 8.76089 9.44666 8.66901 9.5015 8.58713C9.55633 8.50525 9.62676 8.43498 9.70875 8.38031L11.9587 6.88031C12.0714 6.80515 12.2023 6.7619 12.3375 6.75513C12.4728 6.74836 12.6073 6.77834 12.7269 6.84188C12.8465 6.90542 12.9467 7.00016 13.0168 7.11603C13.0868 7.2319 13.1242 7.36458 13.125 7.5V16.5Z" fill="#22B5E9"/>
</svg>
