<svg width="24" height="24" viewBox="0 0 24 24" fill="none" xmlns="http://www.w3.org/2000/svg">
<path d="M19.5 3H4.5C4.10218 3 3.72064 3.15804 3.43934 3.43934C3.15804 3.72064 3 4.10218 3 4.5V19.5C3 19.8978 3.15804 20.2794 3.43934 20.5607C3.72064 20.842 4.10218 21 4.5 21H19.5C19.8978 21 20.2794 20.842 20.5607 20.5607C20.842 20.2794 21 19.8978 21 19.5V4.5C21 4.10218 20.842 3.72064 20.5607 3.43934C20.2794 3.15804 19.8978 3 19.5 3ZM14.25 15.75C14.4489 15.75 14.6397 15.829 14.7803 15.9697C14.921 16.1103 15 16.3011 15 16.5C15 16.6989 14.921 16.8897 14.7803 17.0303C14.6397 17.171 14.4489 17.25 14.25 17.25H9.75C9.61072 17.25 9.47418 17.2112 9.3557 17.138C9.23722 17.0648 9.14147 16.96 9.07918 16.8354C9.01689 16.7108 8.99052 16.5714 9.00303 16.4326C9.01554 16.2939 9.06643 16.1614 9.15 16.05L13.1972 10.6537C13.3268 10.4811 13.4176 10.2824 13.4633 10.0714C13.5091 9.8604 13.5088 9.642 13.4624 9.43113C13.416 9.22026 13.3246 9.02189 13.1945 8.84958C13.0644 8.67727 12.8986 8.53508 12.7085 8.43272C12.5184 8.33037 12.3084 8.27026 12.0929 8.25651C11.8775 8.24275 11.6616 8.27568 11.46 8.35304C11.2584 8.43039 11.0759 8.55036 10.9249 8.70473C10.774 8.8591 10.6581 9.04424 10.5853 9.2475C10.5189 9.4351 10.3807 9.58864 10.2011 9.67435C10.0215 9.76006 9.81526 9.77092 9.62766 9.70453C9.44006 9.63814 9.28651 9.49995 9.2008 9.32036C9.11509 9.14076 9.10424 8.93447 9.17062 8.74688C9.3153 8.33957 9.54629 7.96834 9.84777 7.6586C10.1492 7.34886 10.5141 7.10793 10.9173 6.95229C11.3206 6.79665 11.7527 6.72998 12.1841 6.75685C12.6155 6.78373 13.036 6.9035 13.4168 7.10798C13.7976 7.31246 14.1297 7.59681 14.3904 7.94157C14.6511 8.28633 14.8343 8.68335 14.9273 9.10546C15.0203 9.52757 15.021 9.96479 14.9293 10.3872C14.8377 10.8096 14.6558 11.2072 14.3962 11.5528L11.25 15.75H14.25Z" fill="#22B5E9"/>
</svg>
