<svg width="40" height="40" viewBox="0 0 40 40" fill="none" xmlns="http://www.w3.org/2000/svg">
<path d="M0.5 20C0.5 9.23045 9.23045 0.5 20 0.5C30.7696 0.5 39.5 9.23045 39.5 20C39.5 30.7696 30.7696 39.5 20 39.5C9.23045 39.5 0.5 30.7696 0.5 20Z" stroke="#22B5E9"/>
<path d="M28.75 19.9999C28.7505 20.2121 28.6961 20.4208 28.5921 20.6058C28.488 20.7907 28.3379 20.9456 28.1562 21.0554L16.9 27.9413C16.7102 28.0575 16.4929 28.121 16.2704 28.1251C16.0479 28.1292 15.8283 28.0738 15.6344 27.9647C15.4423 27.8573 15.2822 27.7007 15.1708 27.5109C15.0593 27.3212 15.0003 27.1051 15 26.8851V13.1147C15.0003 12.8947 15.0593 12.6786 15.1708 12.4889C15.2822 12.2991 15.4423 12.1425 15.6344 12.0351C15.8283 11.926 16.0479 11.8706 16.2704 11.8747C16.4929 11.8788 16.7102 11.9423 16.9 12.0585L28.1562 18.9444C28.3379 19.0542 28.488 19.2091 28.5921 19.394C28.6961 19.579 28.7505 19.7877 28.75 19.9999Z" fill="#22B5E9"/>
</svg>
