<svg width="48" height="48" viewBox="0 0 48 48" fill="none" xmlns="http://www.w3.org/2000/svg">
<path d="M0 24C0 10.7452 10.7452 0 24 0C37.2548 0 48 10.7452 48 24C48 37.2548 37.2548 48 24 48C10.7452 48 0 37.2548 0 24Z" fill="#1A202C" fill-opacity="0.05"/>
<path d="M33.6013 22.9244C33.5682 22.7841 33.501 22.6542 33.4055 22.5462C33.3101 22.4382 33.1895 22.3555 33.0545 22.3053L26.7534 19.9417L28.3568 11.9212C28.3931 11.7349 28.3678 11.5418 28.2848 11.3711C28.2017 11.2003 28.0653 11.0613 27.8963 10.9748C27.7273 10.8884 27.5347 10.8593 27.3477 10.8919C27.1606 10.9245 26.9893 11.0171 26.8595 11.1556L14.6095 24.2806C14.51 24.3855 14.438 24.5133 14.4 24.6527C14.3619 24.7922 14.359 24.9389 14.3915 25.0797C14.424 25.2205 14.4909 25.3511 14.5862 25.4598C14.6815 25.5685 14.8022 25.6519 14.9376 25.7025L21.2409 28.0661L19.6418 36.0778C19.6055 36.2642 19.6308 36.4573 19.7139 36.628C19.7969 36.7987 19.9333 36.9378 20.1023 37.0242C20.2713 37.1106 20.4639 37.1397 20.6509 37.1071C20.838 37.0745 21.0093 36.982 21.1391 36.8434L33.3892 23.7184C33.4868 23.6136 33.5573 23.4863 33.5943 23.3479C33.6313 23.2094 33.6337 23.064 33.6013 22.9244ZM21.9616 33.4058L23.1068 27.6767C23.1478 27.4735 23.1153 27.2624 23.0152 27.0809C22.915 26.8994 22.7537 26.7594 22.5599 26.6858L16.7806 24.5147L26.0359 14.5987L24.8918 20.3278C24.8508 20.531 24.8833 20.7421 24.9834 20.9236C25.0836 21.1051 25.2449 21.2451 25.4387 21.3187L31.2137 23.4844L21.9616 33.4058Z" fill="#22B5E9"/>
</svg>
