<svg width="100" height="20" viewBox="0 0 100 20" fill="none" xmlns="http://www.w3.org/2000/svg">
<g clip-path="url(#clip0_12626_20720)">
<path d="M0 1.80185C0 1.64635 0.0399637 1.52047 0.119891 1.42792C0.199818 1.33536 0.319709 1.28723 0.483197 1.28723H7.48774C7.9891 1.28723 8.46503 1.35757 8.9119 1.49826C9.35876 1.63895 9.76567 1.83517 10.1399 2.08322C10.5104 2.33127 10.8483 2.63115 11.1499 2.97917C11.4478 3.32348 11.7021 3.6974 11.9092 4.10095C12.1163 4.50079 12.2761 4.92656 12.3851 5.36712C12.4941 5.80769 12.5486 6.25937 12.5486 6.71104C12.5486 7.38115 12.4287 8.03645 12.1926 8.67695C11.9528 9.31744 11.6149 9.88759 11.1789 10.3837C10.7393 10.8835 10.2125 11.287 9.60218 11.5943C8.98819 11.9053 8.30881 12.0645 7.56403 12.0682H4.24341V17.3847C4.24341 17.7031 4.07629 17.8623 3.73842 17.8623H0.483197C0.337875 17.8623 0.217984 17.8215 0.13079 17.7475C0.0435967 17.6697 0 17.5476 0 17.3847V1.79444L0 1.80185ZM8.25431 6.69624C8.25431 6.4741 8.21435 6.24826 8.13806 6.02613C8.06176 5.80399 7.94914 5.60407 7.80381 5.43006C7.65849 5.25606 7.48047 5.11167 7.27339 5.0006C7.06267 4.88953 6.83015 4.834 6.56494 4.834H4.24341V8.56588H6.56494C6.82652 8.56588 7.0663 8.51034 7.27702 8.40298C7.48774 8.29561 7.66576 8.15493 7.80745 7.98462C7.94914 7.81062 8.05813 7.6144 8.13806 7.39226C8.21435 7.17013 8.25431 6.93688 8.25431 6.69994" fill="#941F7F"/>
<path d="M19.037 1.7241C19.0442 1.67967 19.066 1.63154 19.106 1.57971C19.146 1.52788 19.1968 1.47975 19.255 1.43532C19.3131 1.39089 19.3749 1.35387 19.4403 1.32796C19.5056 1.30204 19.5674 1.28723 19.6255 1.28723H22.4339C22.5574 1.28723 22.6628 1.32796 22.7536 1.4057C22.8408 1.48345 22.9062 1.55379 22.9498 1.61303L23.2223 2.24982L28.977 17.3736C29.0352 17.5217 29.0243 17.6438 28.9443 17.7364C28.8644 17.8289 28.7264 17.8771 28.5302 17.8771H25.3839C25.2132 17.8771 25.086 17.8437 24.9952 17.7845C24.9044 17.7216 24.8317 17.6142 24.7809 17.4661C24.6355 17.0885 24.4902 16.7109 24.3521 16.3332C24.2105 15.9556 24.0724 15.5817 23.9343 15.2003H18.1142C17.9761 15.5817 17.8344 15.9593 17.6928 16.3332C17.5511 16.7109 17.4094 17.0885 17.2713 17.4661C17.1769 17.7438 16.9916 17.8808 16.7118 17.8808H13.4784C13.3403 17.8808 13.2241 17.8437 13.1333 17.7697C13.0424 17.6957 13.0243 17.5846 13.086 17.4328L19.037 1.7315V1.7241ZM21.0315 6.50372C20.8935 6.88505 20.7518 7.2923 20.6101 7.73287C20.4684 8.17344 20.3267 8.61401 20.1887 9.06198C20.0506 9.50996 19.9089 9.95052 19.7672 10.3874C19.6255 10.8243 19.4838 11.2315 19.3458 11.6091H22.71L21.0352 6.50372H21.0315Z" fill="#941F7F"/>
<path d="M33.8387 7.41073L36.4836 1.6352C36.5272 1.54635 36.5635 1.47971 36.5926 1.43898C36.6216 1.39826 36.6507 1.36864 36.6798 1.35013C36.7088 1.33162 36.7415 1.32051 36.7742 1.31681C36.8069 1.31681 36.8469 1.3057 36.8905 1.29089H41.1085C41.1593 1.29089 41.2029 1.3094 41.2356 1.34272C41.2683 1.37605 41.2829 1.41677 41.2829 1.4612C41.2829 1.54265 41.232 1.6352 41.1303 1.73887L35.935 11.1093V17.355C35.935 17.703 35.7679 17.8807 35.4336 17.8807H32.153C32.0077 17.8807 31.895 17.8326 31.8151 17.74C31.7352 17.6475 31.6952 17.5179 31.6952 17.355V11.0908L26.5108 1.74257C26.4164 1.64631 26.3691 1.55375 26.3691 1.4649C26.3691 1.42047 26.3837 1.37975 26.4127 1.34643C26.4418 1.31311 26.4818 1.2946 26.5326 1.2946H30.7542C30.8051 1.3094 30.8451 1.32051 30.8741 1.32051C30.9032 1.32421 30.9323 1.33532 30.9613 1.35383C30.9904 1.37234 31.0195 1.40196 31.0485 1.44269C31.0776 1.48341 31.1176 1.55005 31.1684 1.63891L33.8387 7.41443V7.41073Z" fill="#941F7F"/>
<path d="M42.8193 1.77959C42.8193 1.64631 42.8593 1.53154 42.9392 1.43528C43.0192 1.33902 43.139 1.29089 43.3025 1.29089H46.8884C46.9901 1.29089 47.0954 1.31681 47.2044 1.36864C47.3134 1.42047 47.4079 1.51303 47.4878 1.63891C48.4143 3.16424 49.337 4.66736 50.2489 6.15196C51.1645 7.63287 52.0873 9.13969 53.021 10.665V1.72036C53.05 1.58707 53.1082 1.47971 53.1954 1.40937C53.2825 1.33532 53.3879 1.2983 53.5005 1.2983H56.625C56.7812 1.2983 56.9083 1.33902 57.0101 1.42417C57.1118 1.50933 57.1627 1.6315 57.1627 1.787V17.4439C57.1627 17.592 57.1191 17.703 57.0319 17.7734C56.9447 17.8437 56.8248 17.8807 56.6686 17.8807H53.1736C53.0791 17.8807 52.9955 17.8474 52.9229 17.7771C52.8502 17.7104 52.7739 17.6216 52.694 17.5105C51.7203 15.8741 50.7612 14.2525 49.8093 12.6531C48.8611 11.0538 47.8947 9.43217 46.9174 7.79577V17.3883C46.9174 17.5512 46.8811 17.6771 46.8084 17.7586C46.7358 17.84 46.605 17.8807 46.4161 17.8807H43.3025C43.1354 17.8807 43.0119 17.8326 42.9356 17.74C42.8593 17.6475 42.8193 17.5327 42.8193 17.3994V1.787V1.77959Z" fill="#941F7F"/>
<path d="M82.8889 17.6364C82.8162 17.5105 82.7472 17.3772 82.6818 17.2476C82.6164 17.1107 82.5583 16.9774 82.5074 16.8441C81.5628 14.3117 80.6255 11.8016 79.6918 9.3174C78.7581 6.82948 77.8171 4.32305 76.8725 1.7907C76.8725 1.75368 76.8689 1.72036 76.858 1.69074C76.8471 1.66112 76.8398 1.6315 76.8398 1.60188C76.8398 1.39456 76.9743 1.29089 77.2467 1.29089H80.7744C81.0542 1.29089 81.2395 1.43158 81.3448 1.71665L84.6982 11.8905L87.8008 1.71665C87.9025 1.43528 88.1023 1.29089 88.4039 1.29089H91.9679C92.135 1.29089 92.2549 1.32051 92.3239 1.38715C92.393 1.45009 92.4293 1.53524 92.4293 1.63891C92.4293 1.69814 92.4257 1.73887 92.4184 1.76108V1.7944L90.4675 7.48848L91.9352 11.8794L95.4883 1.71665C95.5901 1.43528 95.7899 1.29089 96.0914 1.29089H99.5428C99.71 1.29089 99.8262 1.32051 99.8989 1.38715C99.9679 1.45009 100.004 1.53524 100.004 1.63891C100.004 1.69814 100.004 1.73887 99.9933 1.76108V1.7944C99.4956 3.105 98.9906 4.4119 98.4711 5.7151C97.9516 7.01829 97.432 8.32149 96.9089 9.62468C96.3857 10.9279 95.8662 12.2348 95.3503 13.538C94.8344 14.8449 94.333 16.1518 93.8426 17.4513C93.8135 17.5327 93.7481 17.6253 93.6464 17.7252C93.5447 17.8252 93.4211 17.877 93.2722 17.877H90.5873C90.4275 17.877 90.304 17.8437 90.2204 17.7808C90.1368 17.7178 90.0751 17.6327 90.0388 17.529L88.3094 12.8827C88.0624 13.5602 87.8153 14.2266 87.5755 14.8782C87.3358 15.5298 87.0923 16.1962 86.8526 16.87C86.8162 16.9737 86.7726 17.0847 86.7254 17.1995C86.6782 17.3143 86.62 17.4254 86.5547 17.5253C86.4893 17.6253 86.413 17.7104 86.3294 17.7771C86.2458 17.8437 86.1477 17.8807 86.0388 17.8807H83.3539C83.1214 17.8807 82.9652 17.803 82.8925 17.6475" fill="#941F7F"/>
<mask id="mask0_12626_20720" style="mask-type:luminance" maskUnits="userSpaceOnUse" x="58" y="-1" width="20" height="21">
<path d="M62.3515 2.01382C58.2134 5.30143 57.4687 11.4102 60.6948 15.627C62.5114 18.0002 65.2507 19.3626 68.208 19.3626C70.3442 19.3626 72.3642 18.6555 74.0536 17.3153C76.0554 15.7233 77.3306 13.4316 77.6431 10.8585C77.9591 8.28545 77.2689 5.742 75.7103 3.70205C75.307 3.17263 74.8529 2.68763 74.3551 2.25817C74.2498 2.16561 74.1154 2.11748 73.9773 2.11748C73.792 2.11748 73.6176 2.21004 73.505 2.36554L68.2443 9.72934L65.6067 6.44543C65.5014 6.31215 65.3488 6.2381 65.1926 6.2381C65.0218 6.2381 64.8656 6.32325 64.7602 6.46764L63.6412 8.0337C63.4632 8.28175 63.4741 8.64828 63.663 8.88522L67.9428 14.2165C68.0481 14.3498 68.2007 14.4275 68.3569 14.4275C68.5241 14.4275 68.6839 14.3424 68.7893 14.1906L74.2897 6.49356C75.7684 9.44056 75.0018 13.091 72.4005 15.1569C71.1907 16.1194 69.7375 16.6304 68.2044 16.6304C66.079 16.6304 64.1099 15.653 62.8056 13.9462C61.683 12.4801 61.1926 10.6549 61.4178 8.80377C61.6431 6.95634 62.5586 5.30884 63.9973 4.16484C65.2107 3.20225 66.6603 2.69504 68.1935 2.69504C69.1308 2.69504 70.0391 2.88385 70.8892 3.25408C71.1653 3.37625 71.5213 3.27629 71.6957 3.03194L72.5822 1.78798C72.6839 1.6473 72.7166 1.47699 72.6767 1.31409C72.6367 1.1549 72.5277 1.02162 72.3788 0.943868C71.0745 0.29227 69.6649 -0.0372314 68.1898 -0.0372314C66.0536 -0.0372314 64.0336 0.673603 62.3442 2.01382" fill="white"/>
</mask>
<g mask="url(#mask0_12626_20720)">
<path d="M67.7778 -10.4804L47.9502 9.59827L67.6485 29.7983L87.4761 9.71957L67.7778 -10.4804Z" fill="url(#paint0_linear_12626_20720)"/>
</g>
</g>
<defs>
<linearGradient id="paint0_linear_12626_20720" x1="76.9239" y1="-0.57861" x2="60.1182" y2="15.8097" gradientUnits="userSpaceOnUse">
<stop stop-color="#E83762"/>
<stop offset="1" stop-color="#9A1F81"/>
</linearGradient>
<clipPath id="clip0_12626_20720">
<rect width="100" height="20" fill="white"/>
</clipPath>
</defs>
</svg>
