<svg width="16" height="16" viewBox="0 0 16 16" fill="none" xmlns="http://www.w3.org/2000/svg">
<path d="M12.8539 3.85163L3.8539 12.8516C3.76008 12.9455 3.63283 12.9982 3.50015 12.9982C3.36746 12.9982 3.24022 12.9455 3.1464 12.8516C3.05258 12.7578 2.99987 12.6306 2.99987 12.4979C2.99987 12.3652 3.05258 12.238 3.1464 12.1441L12.1464 3.14413C12.2401 3.05031 12.3673 2.99757 12.4999 2.99751C12.6325 2.99745 12.7598 3.05008 12.8536 3.14382C12.9474 3.23756 13.0001 3.36472 13.0002 3.49735C13.0003 3.62997 12.9476 3.75719 12.8539 3.85101V3.85163ZM3.1589 6.33913C2.73695 5.91711 2.49994 5.34475 2.5 4.74797C2.50006 4.1512 2.73718 3.57889 3.15921 3.15694C3.58123 2.735 4.15359 2.49799 4.75037 2.49805C5.34714 2.49811 5.91945 2.73523 6.3414 3.15726C6.76334 3.57928 7.00035 4.15164 7.00029 4.74841C7.00023 5.34519 6.76311 5.9175 6.34108 6.33944C5.91906 6.76139 5.3467 6.9984 4.74993 6.99834C4.15315 6.99828 3.58084 6.76116 3.1589 6.33913ZM3.50015 4.74913C3.50031 4.95466 3.55115 5.15698 3.64816 5.33817C3.74518 5.51937 3.88537 5.67384 4.05634 5.78792C4.2273 5.902 4.42375 5.97216 4.62831 5.9922C4.83286 6.01223 5.03919 5.98151 5.22904 5.90277C5.41889 5.82403 5.58639 5.69969 5.71672 5.54076C5.84704 5.38184 5.93617 5.19322 5.9762 4.99163C6.01624 4.79004 6.00595 4.58168 5.94624 4.38502C5.88653 4.18835 5.77925 4.00944 5.6339 3.86413C5.45901 3.68929 5.23619 3.57026 4.99363 3.52209C4.75107 3.47392 4.49968 3.49878 4.27125 3.59352C4.04282 3.68826 3.84763 3.84863 3.71037 4.05434C3.57311 4.26004 3.49995 4.50184 3.50015 4.74913ZM13.5001 11.2491C13.5 11.7697 13.3194 12.2741 12.9891 12.6764C12.6588 13.0787 12.1992 13.354 11.6886 13.4555C11.1781 13.5569 10.6481 13.4782 10.1891 13.2327C9.73007 12.9872 9.37036 12.5902 9.17125 12.1092C8.97214 11.6283 8.94595 11.0932 9.09715 10.5951C9.24835 10.097 9.56758 9.6667 10.0005 9.37758C10.4333 9.08846 10.953 8.95837 11.4711 9.00948C11.9891 9.0606 12.4734 9.28974 12.8414 9.65788C13.051 9.86637 13.2171 10.1144 13.3302 10.3875C13.4433 10.6606 13.501 10.9535 13.5001 11.2491ZM12.5001 11.2491C12.5002 10.9599 12.4 10.6797 12.2166 10.4561C12.0332 10.2325 11.7779 10.0794 11.4943 10.0229C11.2106 9.96645 10.9162 10.0101 10.6611 10.1464C10.406 10.2826 10.2061 10.5031 10.0954 10.7703C9.98466 11.0375 9.97001 11.3348 10.0539 11.6115C10.1378 11.8883 10.3151 12.1274 10.5555 12.2881C10.7959 12.4488 11.0847 12.5212 11.3725 12.4929C11.6603 12.4646 11.9294 12.3373 12.1339 12.1329C12.2503 12.0171 12.3427 11.8794 12.4055 11.7277C12.4684 11.576 12.5006 11.4133 12.5001 11.2491Z" fill="#1A202C" fill-opacity="0.2"/>
</svg>
