<svg width="40" height="40" viewBox="0 0 40 40" fill="none" xmlns="http://www.w3.org/2000/svg">
<path d="M0.5 19.2C0.5 15.8314 0.500389 13.3351 0.66183 11.3591C0.822794 9.38904 1.14136 7.98035 1.75343 6.77911C2.85597 4.61525 4.61525 2.85597 6.77911 1.75343C7.98035 1.14136 9.38904 0.822794 11.3591 0.66183C13.3351 0.500389 15.8314 0.5 19.2 0.5H20.8C24.1686 0.5 26.6649 0.500389 28.6409 0.66183C30.611 0.822794 32.0197 1.14136 33.2209 1.75343C35.3848 2.85597 37.144 4.61525 38.2466 6.77911C38.8586 7.98035 39.1772 9.38904 39.3382 11.3591C39.4996 13.3351 39.5 15.8314 39.5 19.2V20.8C39.5 24.1686 39.4996 26.6649 39.3382 28.6409C39.1772 30.611 38.8586 32.0197 38.2466 33.2209C37.144 35.3848 35.3848 37.144 33.2209 38.2466C32.0197 38.8586 30.611 39.1772 28.6409 39.3382C26.6649 39.4996 24.1686 39.5 20.8 39.5H19.2C15.8314 39.5 13.3351 39.4996 11.3591 39.3382C9.38904 39.1772 7.98035 38.8586 6.77911 38.2466C4.61525 37.144 2.85597 35.3848 1.75342 33.2209C1.14136 32.0197 0.822794 30.611 0.66183 28.6409C0.500389 26.6649 0.5 24.1686 0.5 20.8V19.2Z" stroke="#22B5E9"/>
<path d="M25.625 12.5H22.5C22.1685 12.5 21.8505 12.6317 21.6161 12.8661C21.3817 13.1005 21.25 13.4185 21.25 13.75V26.25C21.25 26.5815 21.3817 26.8995 21.6161 27.1339C21.8505 27.3683 22.1685 27.5 22.5 27.5H25.625C25.9565 27.5 26.2745 27.3683 26.5089 27.1339C26.7433 26.8995 26.875 26.5815 26.875 26.25V13.75C26.875 13.4185 26.7433 13.1005 26.5089 12.8661C26.2745 12.6317 25.9565 12.5 25.625 12.5ZM25.625 26.25H22.5V13.75H25.625V26.25ZM17.5 12.5H14.375C14.0435 12.5 13.7255 12.6317 13.4911 12.8661C13.2567 13.1005 13.125 13.4185 13.125 13.75V26.25C13.125 26.5815 13.2567 26.8995 13.4911 27.1339C13.7255 27.3683 14.0435 27.5 14.375 27.5H17.5C17.8315 27.5 18.1495 27.3683 18.3839 27.1339C18.6183 26.8995 18.75 26.5815 18.75 26.25V13.75C18.75 13.4185 18.6183 13.1005 18.3839 12.8661C18.1495 12.6317 17.8315 12.5 17.5 12.5ZM17.5 26.25H14.375V13.75H17.5V26.25Z" fill="#22B5E9"/>
</svg>
