<svg width="40" height="40" viewBox="0 0 40 40" fill="none" xmlns="http://www.w3.org/2000/svg">
<path d="M0.5 20C0.5 9.23045 9.23045 0.5 20 0.5C30.7696 0.5 39.5 9.23045 39.5 20C39.5 30.7696 30.7696 39.5 20 39.5C9.23045 39.5 0.5 30.7696 0.5 20Z" stroke="#22B5E9"/>
<path d="M26.875 13.75V26.25C26.875 26.5815 26.7433 26.8995 26.5089 27.1339C26.2745 27.3683 25.9565 27.5 25.625 27.5H22.5C22.1685 27.5 21.8505 27.3683 21.6161 27.1339C21.3817 26.8995 21.25 26.5815 21.25 26.25V13.75C21.25 13.4185 21.3817 13.1005 21.6161 12.8661C21.8505 12.6317 22.1685 12.5 22.5 12.5H25.625C25.9565 12.5 26.2745 12.6317 26.5089 12.8661C26.7433 13.1005 26.875 13.4185 26.875 13.75ZM17.5 12.5H14.375C14.0435 12.5 13.7255 12.6317 13.4911 12.8661C13.2567 13.1005 13.125 13.4185 13.125 13.75V26.25C13.125 26.5815 13.2567 26.8995 13.4911 27.1339C13.7255 27.3683 14.0435 27.5 14.375 27.5H17.5C17.8315 27.5 18.1495 27.3683 18.3839 27.1339C18.6183 26.8995 18.75 26.5815 18.75 26.25V13.75C18.75 13.4185 18.6183 13.1005 18.3839 12.8661C18.1495 12.6317 17.8315 12.5 17.5 12.5Z" fill="#22B5E9"/>
</svg>
