<svg width="28" height="28" viewBox="0 0 28 28" fill="none" xmlns="http://www.w3.org/2000/svg">
<path d="M0 12.8C0 8.31958 0 6.07937 0.871948 4.36808C1.63893 2.86278 2.86278 1.63893 4.36808 0.871948C6.07937 0 8.31958 0 12.8 0H15.2C19.6804 0 21.9206 0 23.6319 0.871948C25.1372 1.63893 26.3611 2.86278 27.1281 4.36808C28 6.07937 28 8.31958 28 12.8V15.2C28 19.6804 28 21.9206 27.1281 23.6319C26.3611 25.1372 25.1372 26.3611 23.6319 27.1281C21.9206 28 19.6804 28 15.2 28H12.8C8.31958 28 6.07937 28 4.36808 27.1281C2.86278 26.3611 1.63893 25.1372 0.871948 23.6319C0 21.9206 0 19.6804 0 15.2V12.8Z" fill="#22B5E9"/>
<path d="M21.5 14C21.5 14.1658 21.4342 14.3247 21.3169 14.4419C21.1997 14.5592 21.0408 14.625 20.875 14.625H14.625V20.875C14.625 21.0408 14.5592 21.1997 14.4419 21.3169C14.3247 21.4342 14.1658 21.5 14 21.5C13.8342 21.5 13.6753 21.4342 13.5581 21.3169C13.4408 21.1997 13.375 21.0408 13.375 20.875V14.625H7.125C6.95924 14.625 6.80027 14.5592 6.68306 14.4419C6.56585 14.3247 6.5 14.1658 6.5 14C6.5 13.8342 6.56585 13.6753 6.68306 13.5581C6.80027 13.4408 6.95924 13.375 7.125 13.375H13.375V7.125C13.375 6.95924 13.4408 6.80027 13.5581 6.68306C13.6753 6.56585 13.8342 6.5 14 6.5C14.1658 6.5 14.3247 6.56585 14.4419 6.68306C14.5592 6.80027 14.625 6.95924 14.625 7.125V13.375H20.875C21.0408 13.375 21.1997 13.4408 21.3169 13.5581C21.4342 13.6753 21.5 13.8342 21.5 14Z" fill="white"/>
</svg>
