<svg width="20" height="20" viewBox="0 0 20 20" fill="none" xmlns="http://www.w3.org/2000/svg">
<path d="M10 6.25001C9.25833 6.25001 8.5333 6.46994 7.91662 6.882C7.29993 7.29405 6.81929 7.87972 6.53546 8.56494C6.25163 9.25017 6.17737 10.0042 6.32206 10.7316C6.46676 11.459 6.82391 12.1272 7.34836 12.6517C7.8728 13.1761 8.54099 13.5333 9.26842 13.678C9.99585 13.8226 10.7498 13.7484 11.4351 13.4646C12.1203 13.1807 12.706 12.7001 13.118 12.0834C13.5301 11.4667 13.75 10.7417 13.75 10C13.749 9.00576 13.3536 8.05254 12.6505 7.3495C11.9475 6.64646 10.9943 6.25104 10 6.25001ZM10 12.5C9.50555 12.5 9.0222 12.3534 8.61108 12.0787C8.19996 11.804 7.87953 11.4135 7.69031 10.9567C7.50109 10.4999 7.45158 9.99723 7.54804 9.51228C7.64451 9.02733 7.88261 8.58187 8.23224 8.23224C8.58187 7.88261 9.02733 7.64451 9.51228 7.54804C9.99723 7.45158 10.4999 7.50109 10.9567 7.69031C11.4135 7.87953 11.804 8.19996 12.0787 8.61108C12.3534 9.0222 12.5 9.50555 12.5 10C12.5 10.663 12.2366 11.2989 11.7678 11.7678C11.2989 12.2366 10.663 12.5 10 12.5ZM16.875 10.1688C16.8781 10.0563 16.8781 9.94376 16.875 9.83126L18.0406 8.37501C18.1017 8.29855 18.1441 8.2088 18.1641 8.113C18.1842 8.01719 18.1815 7.91801 18.1563 7.82344C17.9652 7.10516 17.6793 6.41551 17.3063 5.77266C17.2574 5.68853 17.1896 5.61697 17.1082 5.56367C17.0268 5.51037 16.9341 5.4768 16.8375 5.46563L14.9844 5.25938C14.9073 5.17813 14.8292 5.10001 14.75 5.02501L14.5313 3.16719C14.52 3.07048 14.4863 2.97774 14.4329 2.89636C14.3794 2.81497 14.3077 2.7472 14.2234 2.69844C13.5803 2.32606 12.8908 2.0405 12.1727 1.84922C12.078 1.82407 11.9788 1.82149 11.883 1.84171C11.7872 1.86193 11.6975 1.90438 11.6211 1.96563L10.1688 3.12501C10.0563 3.12501 9.94376 3.12501 9.83126 3.12501L8.37501 1.96172C8.29855 1.90061 8.2088 1.8583 8.113 1.83822C8.01719 1.81813 7.91801 1.82083 7.82344 1.8461C7.10528 2.03753 6.41567 2.32335 5.77266 2.6961C5.68853 2.74495 5.61697 2.81276 5.56367 2.89414C5.51037 2.97551 5.4768 3.06821 5.46563 3.16485L5.25938 5.0211C5.17813 5.0987 5.10001 5.17683 5.02501 5.25547L3.16719 5.46876C3.07048 5.48001 2.97774 5.5137 2.89636 5.56714C2.81497 5.62058 2.7472 5.6923 2.69844 5.77657C2.32606 6.41967 2.0405 7.10926 1.84922 7.82735C1.82407 7.92198 1.82149 8.02119 1.84171 8.117C1.86193 8.21281 1.90438 8.30252 1.96563 8.37891L3.12501 9.83126C3.12501 9.94376 3.12501 10.0563 3.12501 10.1688L1.96172 11.625C1.90061 11.7015 1.8583 11.7912 1.83822 11.887C1.81813 11.9828 1.82083 12.082 1.8461 12.1766C2.03718 12.8948 2.32303 13.5845 2.6961 14.2274C2.74495 14.3115 2.81276 14.383 2.89414 14.4363C2.97551 14.4896 3.06821 14.5232 3.16485 14.5344L5.01797 14.7406C5.09558 14.8219 5.1737 14.9 5.25235 14.975L5.46876 16.8328C5.48001 16.9295 5.5137 17.0223 5.56714 17.1037C5.62058 17.185 5.6923 17.2528 5.77657 17.3016C6.41967 17.674 7.10926 17.9595 7.82735 18.1508C7.92198 18.1759 8.02119 18.1785 8.117 18.1583C8.21281 18.1381 8.30252 18.0956 8.37891 18.0344L9.83126 16.875C9.94376 16.8781 10.0563 16.8781 10.1688 16.875L11.625 18.0406C11.7015 18.1017 11.7912 18.1441 11.887 18.1641C11.9828 18.1842 12.082 18.1815 12.1766 18.1563C12.8948 17.9652 13.5845 17.6793 14.2274 17.3063C14.3115 17.2574 14.383 17.1896 14.4363 17.1082C14.4896 17.0268 14.5232 16.9341 14.5344 16.8375L14.7406 14.9844C14.8219 14.9073 14.9 14.8292 14.975 14.75L16.8328 14.5313C16.9295 14.52 17.0223 14.4863 17.1037 14.4329C17.185 14.3794 17.2528 14.3077 17.3016 14.2234C17.674 13.5803 17.9595 12.8908 18.1508 12.1727C18.1759 12.078 18.1785 11.9788 18.1583 11.883C18.1381 11.7872 18.0956 11.6975 18.0344 11.6211L16.875 10.1688ZM15.6172 9.66094C15.6305 9.88679 15.6305 10.1132 15.6172 10.3391C15.6079 10.4937 15.6563 10.6463 15.7531 10.7672L16.8617 12.1524C16.7345 12.5566 16.5716 12.9488 16.375 13.3242L14.6094 13.5242C14.4556 13.5413 14.3137 13.6148 14.2109 13.7305C14.0606 13.8996 13.9004 14.0598 13.7313 14.2102C13.6156 14.3129 13.5421 14.4548 13.525 14.6086L13.3289 16.3727C12.9535 16.5694 12.5613 16.7323 12.157 16.8594L10.7711 15.7508C10.6602 15.6622 10.5224 15.614 10.3805 15.6141H10.343C10.1171 15.6273 9.8907 15.6273 9.66485 15.6141C9.51023 15.6048 9.35766 15.6532 9.23672 15.75L7.84766 16.8594C7.44339 16.7322 7.05122 16.5693 6.67579 16.3727L6.47579 14.6094C6.45872 14.4556 6.38523 14.3137 6.26954 14.2109C6.1004 14.0606 5.94023 13.9004 5.78985 13.7313C5.68714 13.6156 5.54517 13.5421 5.39141 13.525L3.62735 13.3281C3.43062 12.9527 3.26774 12.5606 3.14063 12.1563L4.24922 10.7703C4.34603 10.6494 4.39447 10.4968 4.38516 10.3422C4.37188 10.1163 4.37188 9.88991 4.38516 9.66407C4.39447 9.50945 4.34603 9.35688 4.24922 9.23594L3.14063 7.84766C3.26784 7.44339 3.43072 7.05122 3.62735 6.67579L5.39063 6.47579C5.54439 6.45872 5.68636 6.38523 5.78907 6.26954C5.93945 6.1004 6.09962 5.94023 6.26876 5.78985C6.38491 5.68707 6.4587 5.54478 6.47579 5.39063L6.67188 3.62735C7.04727 3.43062 7.43945 3.26774 7.84376 3.14063L9.22969 4.24922C9.35063 4.34603 9.5032 4.39447 9.65782 4.38516C9.88367 4.37188 10.1101 4.37188 10.3359 4.38516C10.4906 4.39447 10.6431 4.34603 10.7641 4.24922L12.1524 3.14063C12.5566 3.26784 12.9488 3.43072 13.3242 3.62735L13.5242 5.39063C13.5413 5.54439 13.6148 5.68636 13.7305 5.78907C13.8996 5.93945 14.0598 6.09962 14.2102 6.26876C14.3129 6.38445 14.4548 6.45794 14.6086 6.47501L16.3727 6.6711C16.5694 7.04649 16.7323 7.43867 16.8594 7.84297L15.7508 9.22891C15.6531 9.35086 15.6046 9.505 15.6149 9.66094H15.6172Z" fill="#343330"/>
</svg>
