<svg width="13" height="13" viewBox="0 0 13 13" fill="none" xmlns="http://www.w3.org/2000/svg">
<path d="M0.5 6.75C0.50182 8.40704 1.16088 9.9957 2.33259 11.1674C3.5043 12.3391 5.09296 12.9982 6.75 13L12.0206 13C12.2803 12.9997 12.5292 12.8964 12.7128 12.7128C12.8964 12.5292 12.9997 12.2803 13 12.0206L13 6.75C13 5.0924 12.3415 3.50268 11.1694 2.33058C9.99731 1.15848 8.4076 0.5 6.75 0.5C5.0924 0.5 3.50268 1.15848 2.33058 2.33058C1.15848 3.50268 0.5 5.0924 0.5 6.75ZM7.75 9.5C7.75 9.64834 7.70601 9.79334 7.6236 9.91668C7.54119 10.04 7.42406 10.1361 7.28701 10.1929C7.14997 10.2497 6.99917 10.2645 6.85368 10.2356C6.7082 10.2066 6.57456 10.1352 6.46967 10.0303C6.36478 9.92544 6.29335 9.7918 6.26441 9.64632C6.23547 9.50083 6.25032 9.35003 6.30709 9.21299C6.36386 9.07594 6.45999 8.95881 6.58332 8.8764C6.70666 8.79399 6.85166 8.75 7 8.75C7.19891 8.75 7.38968 8.82902 7.53033 8.96967C7.67098 9.11032 7.75 9.30109 7.75 9.5ZM7.75 6.75C7.75 6.89834 7.70601 7.04334 7.6236 7.16668C7.54119 7.29001 7.42406 7.38614 7.28701 7.44291C7.14997 7.49968 6.99917 7.51453 6.85368 7.48559C6.7082 7.45665 6.57456 7.38522 6.46967 7.28033C6.36478 7.17544 6.29335 7.0418 6.26441 6.89632C6.23547 6.75083 6.25032 6.60003 6.30709 6.46299C6.36386 6.32594 6.45999 6.20881 6.58332 6.1264C6.70666 6.04399 6.85166 6 7 6C7.19891 6 7.38968 6.07902 7.53033 6.21967C7.67098 6.36032 7.75 6.55109 7.75 6.75ZM7.75 4C7.75 4.14834 7.70601 4.29334 7.6236 4.41668C7.54119 4.54001 7.42406 4.63614 7.28701 4.69291C7.14997 4.74967 6.99917 4.76453 6.85368 4.73559C6.7082 4.70665 6.57456 4.63522 6.46967 4.53033C6.36478 4.42544 6.29335 4.2918 6.26441 4.14632C6.23547 4.00083 6.25032 3.85003 6.30709 3.71299C6.36386 3.57594 6.45999 3.45881 6.58332 3.3764C6.70666 3.29399 6.85166 3.25 7 3.25C7.19891 3.25 7.38968 3.32902 7.53033 3.46967C7.67098 3.61032 7.75 3.80109 7.75 4Z" fill="white"/>
</svg>
