<svg width="28" height="28" viewBox="0 0 28 28" fill="none" xmlns="http://www.w3.org/2000/svg">
<path d="M0 12.8C0 8.31958 0 6.07937 0.871948 4.36808C1.63893 2.86278 2.86278 1.63893 4.36808 0.871948C6.07937 0 8.31958 0 12.8 0H15.2C19.6804 0 21.9206 0 23.6319 0.871948C25.1372 1.63893 26.3611 2.86278 27.1281 4.36808C28 6.07937 28 8.31958 28 12.8V15.2C28 19.6804 28 21.9206 27.1281 23.6319C26.3611 25.1372 25.1372 26.3611 23.6319 27.1281C21.9206 28 19.6804 28 15.2 28H12.8C8.31958 28 6.07937 28 4.36808 27.1281C2.86278 26.3611 1.63893 25.1372 0.871948 23.6319C0 21.9206 0 19.6804 0 15.2V12.8Z" fill="#1C1C1C" fill-opacity="0.05"/>
<path fill-rule="evenodd" clip-rule="evenodd" d="M11.0746 19.4419C10.8085 19.1979 10.8085 18.8021 11.0746 18.5581L15.5625 14.4419C15.8286 14.1979 15.8286 13.8021 15.5625 13.5581L11.0746 9.44194C10.8085 9.19786 10.8085 8.80214 11.0746 8.55806C11.3407 8.31398 11.7722 8.31398 12.0383 8.55806L16.5262 12.6742C17.3246 13.4064 17.3246 14.5936 16.5262 15.3258L12.0383 19.4419C11.7722 19.686 11.3407 19.686 11.0746 19.4419Z" fill="#1C1C1C"/>
</svg>
