<svg width="140" height="24" viewBox="0 0 140 24" fill="none" xmlns="http://www.w3.org/2000/svg">
<path d="M8.52382 17.7334C12.8097 17.7334 15.417 15.4936 15.417 11.9409C15.417 9.50809 13.9303 7.84761 10.8602 7.17184L7.84819 6.49606C6.70826 6.22582 6.11002 5.85898 6.11002 5.18321C6.11002 4.50744 6.66959 4.08257 8.04018 4.08257C9.62953 4.13808 11.1474 4.75358 12.3275 5.82029L14.8559 2.11315C12.8663 0.721128 10.4659 0.0408896 8.04018 0.182413C4.02513 0.182413 1.32116 2.11315 1.32116 5.5307C1.29586 6.74384 1.72443 7.92276 2.52506 8.8344C3.32718 9.7459 4.44033 10.324 5.64722 10.4543L8.6399 11.1686C10.1266 11.4969 10.57 11.9409 10.57 12.5203C10.57 13.0995 9.9718 13.6593 8.6399 13.6593C6.75143 13.6222 4.9314 12.9411 3.48343 11.7286L0.800293 15.3199C3.0102 17.0097 5.74544 17.8645 8.52382 17.7334Z" fill="#F4333D"/>
<path d="M20.4153 5.8696C20.9972 5.8696 21.5657 5.69698 22.0478 5.3736C22.5315 5.05037 22.908 4.59083 23.1297 4.05346C23.35 3.51608 23.408 2.92499 23.2934 2.35517C23.1773 1.78536 22.8961 1.26242 22.4838 0.852729C22.0716 0.44304 21.5478 0.165053 20.9763 0.0540367C20.4064 -0.0569798 19.8156 0.00388506 19.2798 0.229043C18.7441 0.454052 18.2858 0.833235 17.9658 1.31837C17.6459 1.80351 17.4777 2.37288 17.4807 2.95415C17.4762 3.34003 17.5476 3.72323 17.6935 4.08054C17.8393 4.43785 18.0566 4.76226 18.3304 5.0343C18.6042 5.30633 18.9301 5.52048 19.2888 5.66394C19.6459 5.80754 20.0299 5.87749 20.4153 5.8696Z" fill="#1A202C"/>
<path d="M17.252 17.3387H23.5841L22.2522 6.85449C21.0557 7.16343 19.7997 7.16343 18.6032 6.85449L17.252 17.3387Z" fill="#1A202C"/>
<path d="M26.5552 17.341H31.6908V8.26619C31.6908 6.04587 32.7712 4.67498 34.8576 4.67498C36.9425 4.67498 37.889 5.81416 37.889 8.26619V17.341H42.9472V6.99189C42.9472 2.47384 40.6882 0.156933 36.8264 0.156933C35.8204 0.113182 34.8204 0.327923 33.9215 0.780917C33.0212 1.23391 32.2533 1.90983 31.6908 2.74409V1.66295C31.7057 1.50446 31.6848 1.34478 31.6313 1.19507C31.5777 1.04551 31.4914 0.909496 31.3783 0.796991C31.2667 0.684487 31.1298 0.598323 30.9809 0.544303C30.8306 0.490432 30.6714 0.470192 30.5122 0.485073H26.6504L26.5552 17.341Z" fill="#F4333D"/>
<path d="M59.4939 0.484722C59.3347 0.46984 59.1755 0.49008 59.0267 0.543951C58.8763 0.597971 58.7409 0.684135 58.6278 0.79664C58.5147 0.909144 58.4284 1.04516 58.3748 1.19472C58.3213 1.34443 58.3004 1.50411 58.3153 1.6626V2.68585C57.7543 1.85844 56.9879 1.19055 56.0905 0.747231C55.1947 0.303909 54.1976 0.100478 53.199 0.156582C51.1201 0.35659 49.1914 1.32374 47.7866 2.86949C46.3833 4.41524 45.605 6.42856 45.605 8.51689C45.605 10.6051 46.3833 12.6185 47.7866 14.1643C49.1914 15.71 51.1201 16.6772 53.199 16.8772C54.1648 16.9381 55.1321 16.7705 56.0206 16.388C56.909 16.0057 57.6962 15.4191 58.3153 14.6761V15.7959C58.3168 16.3249 58.2097 16.8485 57.9998 17.3341C57.79 17.8198 57.4834 18.2572 57.098 18.6192C56.7126 18.9813 56.2557 19.2603 55.7587 19.4389C55.2601 19.6175 54.7318 19.6919 54.2035 19.6575C52.3076 19.6944 50.4698 19.0035 49.0679 17.7268L46.422 21.5884C48.675 23.2915 51.4609 24.1397 54.2809 23.9826C59.3392 23.9826 63.4524 21.4533 63.4524 15.1009V0.484722H59.4939ZM54.5503 12.4171C53.7869 12.4171 53.0413 12.1906 52.4058 11.7663C51.7704 11.342 51.2749 10.7389 50.9832 10.0333C50.6915 9.32764 50.6141 8.55127 50.7629 7.80213C50.9132 7.05299 51.2808 6.36502 51.821 5.82497C52.3597 5.28492 53.0487 4.91704 53.7973 4.76808C54.5473 4.61912 55.3226 4.69561 56.028 4.98788C56.7349 5.28015 57.3376 5.77512 57.7617 6.41011C58.1858 7.04511 58.4121 7.79171 58.4121 8.55544C58.4121 9.57959 58.0058 10.5619 57.281 11.2861C56.5578 12.0102 55.5756 12.4171 54.5503 12.4171Z" fill="#F4333D"/>
<path d="M77.5885 0.157587C76.5587 0.1119 75.5334 0.318457 74.6003 0.759249C73.6687 1.20004 72.8577 1.86182 72.2401 2.68686V1.6636C72.255 1.50526 72.2341 1.34543 72.1806 1.19587C72.127 1.04617 72.0406 0.910148 71.9275 0.797792C71.8159 0.685288 71.679 0.598975 71.5302 0.545104C71.3799 0.491084 71.2207 0.470845 71.0629 0.485726H67.2012V23.5201H72.2401V15.4881C72.9112 16.2328 73.7386 16.8197 74.6628 17.2069C75.5884 17.5942 76.587 17.772 77.5885 17.7278C78.6927 17.6997 79.7806 17.4471 80.7836 16.9857C81.7881 16.5242 82.6869 15.8634 83.428 15.0435C84.1676 14.2236 84.7331 13.2617 85.0903 12.2163C85.4474 11.1707 85.5888 10.0635 85.504 8.96196C85.5948 7.8573 85.4579 6.74595 85.1037 5.69606C84.748 4.64601 84.184 3.67931 83.4429 2.85517C82.7018 2.03103 81.8 1.36671 80.794 0.902857C79.7865 0.438998 78.6957 0.185415 77.5885 0.157587ZM76.2372 13.2291C75.3741 13.2638 74.5199 13.0394 73.7863 12.5849C73.0526 12.1304 72.4708 11.4665 72.1181 10.6787C71.7639 9.89102 71.6537 9.01539 71.8026 8.16476C71.9514 7.31413 72.3502 6.52734 72.9499 5.90574C73.5482 5.28413 74.3205 4.85614 75.1658 4.67682C76.0095 4.4975 76.8891 4.57518 77.6897 4.89989C78.4888 5.22446 79.1734 5.78103 79.6541 6.49817C80.1362 7.21531 80.3907 8.05984 80.3877 8.92342C80.4175 9.48341 80.3312 10.0436 80.1347 10.5689C79.9383 11.0942 79.6362 11.5735 79.2478 11.9773C78.8579 12.381 78.3891 12.7005 77.8713 12.9158C77.3549 13.1312 76.7983 13.2377 76.2372 13.2291Z" fill="#F4333D"/>
<path d="M102.206 0.486609C102.047 0.471727 101.887 0.491966 101.737 0.545986C101.588 0.599857 101.451 0.68617 101.34 0.798674C101.227 0.91103 101.14 1.04705 101.087 1.19676C101.033 1.34632 101.012 1.50614 101.027 1.66448V2.68774C100.399 1.84872 99.5747 1.1783 98.6238 0.736916C97.6728 0.295529 96.6282 0.0967105 95.582 0.158469C94.4778 0.186595 93.3914 0.439137 92.3869 0.900614C91.3839 1.36209 90.4836 2.02283 89.744 2.8428C89.0029 3.66263 88.4373 4.62458 88.0802 5.67C87.723 6.71558 87.5817 7.82262 87.6665 8.9243C87.5817 10.0258 87.723 11.133 88.0802 12.1785C88.4373 13.2239 89.0029 14.1858 89.744 15.0058C90.4836 15.8256 91.3839 16.4865 92.3869 16.9478C93.3914 17.4093 94.4778 17.6619 95.582 17.6901C96.6282 17.7467 97.6714 17.5456 98.6208 17.1045C99.5702 16.6635 100.396 15.996 101.027 15.1607V17.3425H106.085V0.486609H102.206ZM96.9347 13.23C95.8395 13.1566 94.8141 12.6701 94.0641 11.8689C93.3155 11.0677 92.8973 10.0117 92.8973 8.91463C92.8973 7.81756 93.3155 6.76142 94.0641 5.96019C94.8141 5.15897 95.8395 4.67249 96.9347 4.59927C98.0285 4.67249 99.0539 5.15897 99.8039 5.96019C100.554 6.76142 100.971 7.81756 100.971 8.91463C100.971 10.0117 100.554 11.0677 99.8039 11.8689C99.0539 12.6701 98.0285 13.1566 96.9347 13.23Z" fill="#F4333D"/>
<path d="M116.321 17.7285C120.607 17.7285 123.214 15.4887 123.214 11.936C123.214 9.50335 121.728 7.84287 118.658 7.1671L115.665 6.49133C114.506 6.22093 113.907 5.8541 113.907 5.17833C113.907 4.50256 114.467 4.07784 115.839 4.07784C117.427 4.1332 118.946 4.7487 120.125 5.81556L122.653 2.10841C120.664 0.716244 118.263 0.0360067 115.839 0.17753C111.823 0.17753 109.119 2.10841 109.119 5.52581C109.093 6.73896 109.522 7.91787 110.324 8.82952C111.125 9.74116 112.238 10.3192 113.445 10.4494L116.437 11.1638C117.924 11.492 118.367 11.9362 118.367 12.5154C118.367 13.0946 117.75 13.6546 116.437 13.6546C114.549 13.6175 112.73 12.9362 111.282 11.7237L108.752 15.4308C110.967 17.1069 113.702 17.9479 116.476 17.8058L116.321 17.7285Z" fill="#F4333D"/>
<path d="M132.307 17.7295C136.592 17.7295 139.2 15.4899 139.2 11.9372C139.2 9.50434 137.713 7.84386 134.643 7.16808L131.631 6.49231C130.491 6.22206 129.893 5.85523 129.893 5.17946C129.893 4.50369 130.454 4.07882 131.824 4.07882C133.408 4.1321 134.921 4.7482 136.091 5.81654L138.621 2.1094C136.64 0.71321 134.243 0.0323762 131.824 0.178662C127.808 0.178662 125.105 2.1094 125.105 5.52695C125.079 6.74009 125.509 7.91901 126.309 8.8305C127.11 9.74215 128.223 10.3203 129.43 10.4505L132.423 11.1648C133.909 11.4931 134.353 11.9372 134.353 12.5165C134.353 13.0957 133.755 13.6556 132.423 13.6556C130.534 13.6185 128.716 12.9374 127.268 11.7248L124.738 15.432C126.952 17.1079 129.687 17.949 132.461 17.8068L132.307 17.7295Z" fill="#F4333D"/>
</svg>
