<svg width="21" height="20" viewBox="0 0 21 20" fill="none" xmlns="http://www.w3.org/2000/svg">
<path d="M3.625 6.87502H6.20312C6.34081 7.41278 6.65356 7.88942 7.09207 8.22979C7.53057 8.57017 8.06989 8.75492 8.625 8.75492C9.18011 8.75492 9.71943 8.57017 10.1579 8.22979C10.5964 7.88942 10.9092 7.41278 11.0469 6.87502H17.375C17.5408 6.87502 17.6997 6.80917 17.8169 6.69196C17.9342 6.57475 18 6.41578 18 6.25002C18 6.08426 17.9342 5.92529 17.8169 5.80808C17.6997 5.69087 17.5408 5.62502 17.375 5.62502H11.0469C10.9092 5.08726 10.5964 4.61062 10.1579 4.27024C9.71943 3.92987 9.18011 3.74512 8.625 3.74512C8.06989 3.74512 7.53057 3.92987 7.09207 4.27024C6.65356 4.61062 6.34081 5.08726 6.20312 5.62502H3.625C3.45924 5.62502 3.30027 5.69087 3.18306 5.80808C3.06585 5.92529 3 6.08426 3 6.25002C3 6.41578 3.06585 6.57475 3.18306 6.69196C3.30027 6.80917 3.45924 6.87502 3.625 6.87502ZM8.625 5.00002C8.87223 5.00002 9.1139 5.07333 9.31946 5.21068C9.52502 5.34803 9.68524 5.54326 9.77985 5.77167C9.87446 6.00007 9.89921 6.25141 9.85098 6.49388C9.80275 6.73636 9.6837 6.95909 9.50888 7.1339C9.33407 7.30872 9.11134 7.42777 8.86886 7.476C8.62639 7.52423 8.37505 7.49948 8.14665 7.40487C7.91824 7.31026 7.72301 7.15004 7.58566 6.94448C7.44831 6.73892 7.375 6.49725 7.375 6.25002C7.375 5.9185 7.5067 5.60056 7.74112 5.36614C7.97554 5.13172 8.29348 5.00002 8.625 5.00002ZM17.375 13.125H16.0469C15.9092 12.5873 15.5964 12.1106 15.1579 11.7702C14.7194 11.4299 14.1801 11.2451 13.625 11.2451C13.0699 11.2451 12.5306 11.4299 12.0921 11.7702C11.6536 12.1106 11.3408 12.5873 11.2031 13.125H3.625C3.45924 13.125 3.30027 13.1909 3.18306 13.3081C3.06585 13.4253 3 13.5843 3 13.75C3 13.9158 3.06585 14.0748 3.18306 14.192C3.30027 14.3092 3.45924 14.375 3.625 14.375H11.2031C11.3408 14.9128 11.6536 15.3894 12.0921 15.7298C12.5306 16.0702 13.0699 16.2549 13.625 16.2549C14.1801 16.2549 14.7194 16.0702 15.1579 15.7298C15.5964 15.3894 15.9092 14.9128 16.0469 14.375H17.375C17.5408 14.375 17.6997 14.3092 17.8169 14.192C17.9342 14.0748 18 13.9158 18 13.75C18 13.5843 17.9342 13.4253 17.8169 13.3081C17.6997 13.1909 17.5408 13.125 17.375 13.125ZM13.625 15C13.3778 15 13.1361 14.9267 12.9305 14.7894C12.725 14.652 12.5648 14.4568 12.4701 14.2284C12.3755 14 12.3508 13.7486 12.399 13.5062C12.4472 13.2637 12.5663 13.041 12.7411 12.8661C12.9159 12.6913 13.1387 12.5723 13.3811 12.524C13.6236 12.4758 13.8749 12.5006 14.1034 12.5952C14.3318 12.6898 14.527 12.85 14.6643 13.0556C14.8017 13.2611 14.875 13.5028 14.875 13.75C14.875 14.0815 14.7433 14.3995 14.5089 14.6339C14.2745 14.8683 13.9565 15 13.625 15Z" fill="#1A202C"/>
</svg>
