<svg width="48" height="49" viewBox="0 0 48 49" fill="none" xmlns="http://www.w3.org/2000/svg">
<path d="M0.5 13.3C0.5 11.0515 0.500389 9.39526 0.607333 8.08633C0.7138 6.78324 0.923378 5.86848 1.31745 5.09507C2.0365 3.68386 3.18386 2.5365 4.59507 1.81745C5.36848 1.42338 6.28324 1.2138 7.58633 1.10733C8.89527 1.00039 10.5515 1 12.8 1H35.2C37.4485 1 39.1047 1.00039 40.4137 1.10733C41.7168 1.2138 42.6315 1.42338 43.4049 1.81745C44.8161 2.5365 45.9635 3.68386 46.6825 5.09507C47.0766 5.86848 47.2862 6.78324 47.3927 8.08633C47.4996 9.39527 47.5 11.0515 47.5 13.3V35.7C47.5 37.9485 47.4996 39.6047 47.3927 40.9137C47.2862 42.2168 47.0766 43.1315 46.6825 43.9049C45.9635 45.3161 44.8161 46.4635 43.4049 47.1825C42.6315 47.5766 41.7168 47.7862 40.4137 47.8927C39.1047 47.9996 37.4485 48 35.2 48H12.8C10.5515 48 8.89526 47.9996 7.58633 47.8927C6.28324 47.7862 5.36848 47.5766 4.59507 47.1825C3.18386 46.4635 2.0365 45.3161 1.31745 43.9049C0.923378 43.1315 0.7138 42.2168 0.607333 40.9137C0.500389 39.6047 0.5 37.9485 0.5 35.7V13.3Z" stroke="#1A202C" stroke-opacity="0.1"/>
<path d="M34.9856 20.2716L24.4856 13.2716C24.3418 13.1757 24.1729 13.1245 24 13.1245C23.8271 13.1245 23.6582 13.1757 23.5144 13.2716L13.0144 20.2716C12.8945 20.3516 12.7963 20.4599 12.7283 20.587C12.6604 20.7141 12.6249 20.856 12.625 21.0001V32.3751C12.625 32.8392 12.8094 33.2843 13.1376 33.6125C13.4658 33.9407 13.9109 34.1251 14.375 34.1251H33.625C34.0891 34.1251 34.5342 33.9407 34.8624 33.6125C35.1906 33.2843 35.375 32.8392 35.375 32.3751V21.0001C35.3751 20.856 35.3396 20.7141 35.2717 20.587C35.2037 20.4599 35.1055 20.3516 34.9856 20.2716ZM24 15.0512L32.9589 21.0241L25.6308 26.2501H22.3714L15.0433 21.0241L24 15.0512ZM14.375 32.3751V22.6987L21.5828 27.8393C21.7312 27.9453 21.909 28.0023 22.0914 28.0023H25.9086C26.091 28.0023 26.2688 27.9453 26.4172 27.8393L33.625 22.6987V32.3751H14.375Z" fill="#22B5E9"/>
</svg>
