<svg width="80" height="80" viewBox="0 0 80 80" fill="none" xmlns="http://www.w3.org/2000/svg">
<g id="CheckCircle">
<path id="Vector" d="M70 40C70 45.9334 68.2405 51.7336 64.9441 56.6671C61.6477 61.6006 56.9623 65.4458 51.4805 67.7164C45.9987 69.987 39.9667 70.5811 34.1473 69.4236C28.3279 68.266 22.9824 65.4088 18.7868 61.2132C14.5912 57.0176 11.734 51.6721 10.5765 45.8527C9.4189 40.0333 10.013 34.0013 12.2836 28.5195C14.5543 23.0377 18.3994 18.3524 23.3329 15.0559C28.2664 11.7595 34.0666 10 40 10C47.9565 10 55.5871 13.1607 61.2132 18.7868C66.8393 24.4129 70 32.0435 70 40Z" fill="#F8F7F2"/>
<path id="Vector_2" d="M54.2688 30.7312C54.5012 30.9634 54.6856 31.2392 54.8114 31.5426C54.9372 31.8461 55.002 32.1715 55.002 32.5C55.002 32.8285 54.9372 33.1539 54.8114 33.4574C54.6856 33.7608 54.5012 34.0366 54.2688 34.2688L36.7688 51.7688C36.5366 52.0012 36.2609 52.1856 35.9574 52.3114C35.6539 52.4372 35.3286 52.502 35 52.502C34.6715 52.502 34.3462 52.4372 34.0427 52.3114C33.7392 52.1856 33.4634 52.0012 33.2313 51.7688L25.7313 44.2688C25.2622 43.7996 24.9986 43.1634 24.9986 42.5C24.9986 41.8366 25.2622 41.2004 25.7313 40.7312C26.2004 40.2621 26.8366 39.9986 27.5 39.9986C28.1634 39.9986 28.7997 40.2621 29.2688 40.7312L35 46.4656L50.7313 30.7312C50.9634 30.4988 51.2392 30.3144 51.5427 30.1886C51.8462 30.0628 52.1715 29.998 52.5 29.998C52.8286 29.998 53.1539 30.0628 53.4574 30.1886C53.7609 30.3144 54.0366 30.4988 54.2688 30.7312ZM72.5 40C72.5 46.4279 70.5939 52.7114 67.0228 58.056C63.4516 63.4006 58.3758 67.5662 52.4372 70.0261C46.4986 72.4859 39.964 73.1295 33.6596 71.8755C27.3552 70.6215 21.5643 67.5262 17.019 62.981C12.4738 58.4358 9.37851 52.6448 8.12449 46.3404C6.87047 40.0361 7.51408 33.5014 9.97393 27.5628C12.4338 21.6242 16.5994 16.5484 21.944 12.9772C27.2886 9.40609 33.5721 7.5 40 7.5C48.6168 7.5091 56.878 10.9361 62.9709 17.0291C69.0639 23.122 72.4909 31.3833 72.5 40ZM67.5 40C67.5 34.561 65.8872 29.2442 62.8654 24.7218C59.8437 20.1995 55.5488 16.6747 50.5238 14.5933C45.4988 12.5119 39.9695 11.9673 34.635 13.0284C29.3006 14.0895 24.4005 16.7086 20.5546 20.5546C16.7086 24.4005 14.0895 29.3005 13.0284 34.635C11.9673 39.9695 12.5119 45.4988 14.5933 50.5238C16.6747 55.5488 20.1995 59.8437 24.7218 62.8654C29.2442 65.8872 34.561 67.5 40 67.5C47.2909 67.4917 54.2809 64.5918 59.4363 59.4363C64.5918 54.2808 67.4917 47.2909 67.5 40Z" fill="#1A202C"/>
</g>
</svg>
