<svg width="80" height="80" viewBox="0 0 80 80" fill="none" xmlns="http://www.w3.org/2000/svg">
<circle cx="40.3995" cy="40.3995" r="38.8" fill="url(#paint0_linear_11954_35733)" fill-opacity="0.2"/>
<g filter="url(#filter0_b_11954_35733)">
<circle cx="40.0002" cy="40.0007" r="32.8" fill="#22B5E9" fill-opacity="0.6"/>
<circle cx="40.0002" cy="40.0007" r="32.5552" stroke="url(#paint1_linear_11954_35733)" stroke-width="0.489516"/>
</g>
<g filter="url(#filter1_d_11954_35733)">
<path fill-rule="evenodd" clip-rule="evenodd" d="M57.3801 29.8813C58.822 31.3232 58.822 33.661 57.3801 35.1029L40.1494 52.3336C39.4569 53.0261 38.5178 53.4151 37.5385 53.4151C36.5593 53.4151 35.6201 53.0261 34.9277 52.3336L25.0816 42.4875C23.6396 41.0456 23.6396 38.7078 25.0816 37.2658C26.5235 35.8239 28.8613 35.8239 30.3033 37.2658L37.5385 44.5011L52.1584 29.8813C53.6003 28.4393 55.9381 28.4393 57.3801 29.8813Z" fill="url(#paint2_linear_11954_35733)" fill-opacity="0.9" shape-rendering="crispEdges"/>
<path d="M37.4001 44.6396C37.4368 44.6763 37.4866 44.6969 37.5385 44.6969C37.5905 44.6969 37.6403 44.6763 37.677 44.6396L52.2968 30.0197C53.6623 28.6542 55.8761 28.6542 57.2416 30.0197C58.6071 31.3852 58.6071 33.599 57.2416 34.9645L40.0109 52.1952C39.3552 52.8509 38.4659 53.2193 37.5385 53.2193C36.6112 53.2193 35.7219 52.8509 35.0661 52.1952L25.22 42.3491C23.8546 40.9836 23.8546 38.7698 25.22 37.4043C26.5855 36.0388 28.7993 36.0388 30.1648 37.4043L37.4001 44.6396Z" stroke="url(#paint3_linear_11954_35733)" stroke-width="0.391613" stroke-linecap="round" stroke-linejoin="round" shape-rendering="crispEdges"/>
</g>
<defs>
<filter id="filter0_b_11954_35733" x="-2.64592" y="-2.64543" width="85.2922" height="85.2922" filterUnits="userSpaceOnUse" color-interpolation-filters="sRGB">
<feFlood flood-opacity="0" result="BackgroundImageFix"/>
<feGaussianBlur in="BackgroundImageFix" stdDeviation="4.92306"/>
<feComposite in2="SourceAlpha" operator="in" result="effect1_backgroundBlur_11954_35733"/>
<feBlend mode="normal" in="SourceGraphic" in2="effect1_backgroundBlur_11954_35733" result="shape"/>
</filter>
<filter id="filter1_d_11954_35733" x="12.8001" y="20.7998" width="56.8614" height="47.0152" filterUnits="userSpaceOnUse" color-interpolation-filters="sRGB">
<feFlood flood-opacity="0" result="BackgroundImageFix"/>
<feColorMatrix in="SourceAlpha" type="matrix" values="0 0 0 0 0 0 0 0 0 0 0 0 0 0 0 0 0 0 127 0" result="hardAlpha"/>
<feOffset dy="3.2"/>
<feGaussianBlur stdDeviation="5.6"/>
<feComposite in2="hardAlpha" operator="out"/>
<feColorMatrix type="matrix" values="0 0 0 0 0.133333 0 0 0 0 0.709804 0 0 0 0 0.913725 0 0 0 1 0"/>
<feBlend mode="normal" in2="BackgroundImageFix" result="effect1_dropShadow_11954_35733"/>
<feBlend mode="normal" in="SourceGraphic" in2="effect1_dropShadow_11954_35733" result="shape"/>
</filter>
<linearGradient id="paint0_linear_11954_35733" x1="18.858" y1="29.1738" x2="93.4417" y2="94.662" gradientUnits="userSpaceOnUse">
<stop stop-color="#7BDBFF"/>
<stop offset="1" stop-color="#22B5E9"/>
</linearGradient>
<linearGradient id="paint1_linear_11954_35733" x1="8.4652" y1="21.1161" x2="85.7617" y2="82.1894" gradientUnits="userSpaceOnUse">
<stop stop-color="white"/>
<stop offset="0.734375" stop-color="white" stop-opacity="0"/>
</linearGradient>
<linearGradient id="paint2_linear_11954_35733" x1="29.3855" y1="38.185" x2="83.2323" y2="44.5487" gradientUnits="userSpaceOnUse">
<stop stop-color="white"/>
<stop offset="1" stop-color="white" stop-opacity="0"/>
</linearGradient>
<linearGradient id="paint3_linear_11954_35733" x1="24.9799" y1="32.3108" x2="47.0081" y2="39.6535" gradientUnits="userSpaceOnUse">
<stop stop-color="white"/>
<stop offset="1" stop-color="white" stop-opacity="0"/>
</linearGradient>
</defs>
</svg>
