<svg width="50" height="48" viewBox="0 0 50 48" fill="none" xmlns="http://www.w3.org/2000/svg">
<path d="M0.75 24C0.75 10.7452 11.4952 0 24.75 0C38.0048 0 48.75 10.7452 48.75 24C48.75 37.2548 38.0048 48 24.75 48C11.4952 48 0.75 37.2548 0.75 24Z" fill="#1A202C" fill-opacity="0.05"/>
<path d="M35.25 24C35.2501 26.4723 34.3778 28.8654 32.7868 30.7578C31.1957 32.6501 28.9879 33.9203 26.5522 34.3447C24.1166 34.769 21.6093 34.3203 19.472 33.0776C17.3347 31.8348 15.7045 29.8777 14.8685 27.551C14.0325 25.2243 14.0443 22.6772 14.9019 20.3583C15.7595 18.0395 17.4078 16.0976 19.5566 14.8748C21.7054 13.652 24.2167 13.2266 26.6483 13.6735C29.0799 14.1205 31.2758 15.4112 32.8492 17.3182C32.9273 17.4061 32.9869 17.5089 33.0244 17.6203C33.062 17.7317 33.0766 17.8496 33.0676 17.9668C33.0585 18.0841 33.026 18.1983 32.9718 18.3027C32.9176 18.407 32.8429 18.4994 32.7523 18.5743C32.6616 18.6491 32.5568 18.7049 32.444 18.7384C32.3313 18.7718 32.213 18.7822 32.0962 18.7689C31.9793 18.7556 31.8664 18.7189 31.7641 18.6609C31.6617 18.603 31.5721 18.525 31.5006 18.4317C30.2137 16.8712 28.4259 15.8049 26.4414 15.4139C24.4569 15.023 22.3982 15.3317 20.6156 16.2874C18.833 17.2432 17.4366 18.787 16.6639 20.6563C15.8912 22.5255 15.7899 24.6047 16.3774 26.5402C16.9648 28.4757 18.2047 30.1479 19.886 31.2723C21.5673 32.3967 23.5862 32.9039 25.5993 32.7076C27.6125 32.5114 29.4954 31.6237 30.9278 30.1957C32.3603 28.7676 33.2537 26.8875 33.4563 24.875H24.75C24.5179 24.875 24.2954 24.7828 24.1313 24.6187C23.9672 24.4546 23.875 24.232 23.875 24C23.875 23.7679 23.9672 23.5453 24.1313 23.3812C24.2954 23.2172 24.5179 23.125 24.75 23.125H34.375C34.6071 23.125 34.8296 23.2172 34.9937 23.3812C35.1578 23.5453 35.25 23.7679 35.25 24Z" fill="#22B5E9"/>
<g clip-path="url(#clip0_9095_19422)">
<path d="M33.25 40C33.25 35.5817 36.8317 32 41.25 32C45.6683 32 49.25 35.5817 49.25 40C49.25 44.4183 45.6683 48 41.25 48C36.8317 48 33.25 44.4183 33.25 40Z" fill="#1A202C" fill-opacity="0.05"/>
<rect width="16" height="16" transform="translate(33.25 32)" fill="white"/>
<path d="M41.25 33.5C39.9644 33.5 38.7077 33.8812 37.6388 34.5954C36.5699 35.3097 35.7368 36.3248 35.2448 37.5126C34.7528 38.7003 34.6241 40.0072 34.8749 41.2681C35.1257 42.529 35.7448 43.6872 36.6538 44.5962C37.5629 45.5052 38.721 46.1243 39.9819 46.3751C41.2428 46.6259 42.5497 46.4972 43.7374 46.0052C44.9252 45.5132 45.9403 44.6801 46.6546 43.6112C47.3688 42.5423 47.75 41.2856 47.75 40C47.7482 38.2767 47.0628 36.6244 45.8442 35.4058C44.6256 34.1872 42.9734 33.5018 41.25 33.5ZM44.1038 38.8538L40.6038 42.3538C40.5573 42.4002 40.5022 42.4371 40.4415 42.4623C40.3808 42.4874 40.3157 42.5004 40.25 42.5004C40.1843 42.5004 40.1192 42.4874 40.0585 42.4623C39.9978 42.4371 39.9427 42.4002 39.8963 42.3538L38.3963 40.8538C38.3024 40.7599 38.2497 40.6327 38.2497 40.5C38.2497 40.3673 38.3024 40.2401 38.3963 40.1462C38.4901 40.0524 38.6173 39.9997 38.75 39.9997C38.8827 39.9997 39.0099 40.0524 39.1038 40.1462L40.25 41.2931L43.3963 38.1462C43.4427 38.0998 43.4979 38.0629 43.5586 38.0378C43.6193 38.0127 43.6843 37.9997 43.75 37.9997C43.8157 37.9997 43.8808 38.0127 43.9415 38.0378C44.0021 38.0629 44.0573 38.0998 44.1038 38.1462C44.1502 38.1927 44.1871 38.2479 44.2122 38.3086C44.2373 38.3692 44.2503 38.4343 44.2503 38.5C44.2503 38.5657 44.2373 38.6308 44.2122 38.6914C44.1871 38.7521 44.1502 38.8073 44.1038 38.8538Z" fill="#A1E3CB"/>
</g>
<defs>
<clipPath id="clip0_9095_19422">
<path d="M33.25 40C33.25 35.5817 36.8317 32 41.25 32C45.6683 32 49.25 35.5817 49.25 40C49.25 44.4183 45.6683 48 41.25 48C36.8317 48 33.25 44.4183 33.25 40Z" fill="white"/>
</clipPath>
</defs>
</svg>
