<svg width="62" height="63" viewBox="0 0 62 63" fill="none" xmlns="http://www.w3.org/2000/svg">
<path opacity="0.1" d="M52.3125 14.0625V28.2959C52.3125 48.6832 35.0421 55.4378 31.5958 56.5834C31.2098 56.7166 30.7902 56.7166 30.4042 56.5834C26.9579 55.4427 9.6875 48.6953 9.6875 28.3007V14.0625C9.6875 13.5486 9.89163 13.0558 10.255 12.6925C10.6183 12.3291 11.1111 12.125 11.625 12.125H50.375C50.8889 12.125 51.3817 12.3291 51.745 12.6925C52.1084 13.0558 52.3125 13.5486 52.3125 14.0625Z" fill="#22B5E9"/>
<path d="M50.375 10.1875H11.625C10.5973 10.1875 9.61166 10.5958 8.88496 11.3225C8.15826 12.0492 7.75 13.0348 7.75 14.0625V28.2959C7.75 50.0007 26.1127 57.1985 29.7891 58.4191C30.574 58.6878 31.426 58.6878 32.2109 58.4191C35.8922 57.1961 54.25 49.9983 54.25 28.2934V14.0625C54.25 13.0348 53.8417 12.0492 53.115 11.3225C52.3883 10.5958 51.4027 10.1875 50.375 10.1875ZM50.375 28.3007C50.375 47.293 34.3083 53.6384 31 54.7427C27.7232 53.6529 11.625 47.3124 11.625 28.3007V14.0625H50.375V28.3007ZM29.0625 33.4375V23.75C29.0625 23.2361 29.2666 22.7433 29.63 22.38C29.9933 22.0166 30.4861 21.8125 31 21.8125C31.5139 21.8125 32.0067 22.0166 32.37 22.38C32.7334 22.7433 32.9375 23.2361 32.9375 23.75V33.4375C32.9375 33.9514 32.7334 34.4442 32.37 34.8075C32.0067 35.1709 31.5139 35.375 31 35.375C30.4861 35.375 29.9933 35.1709 29.63 34.8075C29.2666 34.4442 29.0625 33.9514 29.0625 33.4375ZM28.0938 42.1562C28.0938 41.5814 28.2642 41.0196 28.5835 40.5416C28.9029 40.0637 29.3568 39.6912 29.8878 39.4712C30.4189 39.2513 31.0032 39.1937 31.567 39.3058C32.1307 39.418 32.6486 39.6948 33.055 40.1012C33.4615 40.5077 33.7383 41.0255 33.8504 41.5893C33.9625 42.153 33.905 42.7374 33.685 43.2684C33.4651 43.7995 33.0926 44.2534 32.6146 44.5727C32.1367 44.892 31.5748 45.0625 31 45.0625C30.2292 45.0625 29.49 44.7563 28.945 44.2113C28.3999 43.6662 28.0938 42.927 28.0938 42.1562Z" fill="#22B5E9"/>
</svg>
