<svg width="48" height="48" viewBox="0 0 48 48" fill="none" xmlns="http://www.w3.org/2000/svg">
<path d="M0 24C0 10.7452 10.7452 0 24 0C37.2548 0 48 10.7452 48 24C48 37.2548 37.2548 48 24 48C10.7452 48 0 37.2548 0 24Z" fill="#1A202C" fill-opacity="0.05"/>
<path d="M34.9856 19.7716L24.4856 12.7716C24.3418 12.6757 24.1729 12.6245 24 12.6245C23.8271 12.6245 23.6582 12.6757 23.5144 12.7716L13.0144 19.7716C12.8945 19.8516 12.7963 19.9599 12.7283 20.087C12.6604 20.2141 12.6249 20.356 12.625 20.5001V31.8751C12.625 32.3392 12.8094 32.7843 13.1376 33.1125C13.4658 33.4407 13.9109 33.6251 14.375 33.6251H33.625C34.0891 33.6251 34.5342 33.4407 34.8624 33.1125C35.1906 32.7843 35.375 32.3392 35.375 31.8751V20.5001C35.3751 20.356 35.3396 20.2141 35.2717 20.087C35.2037 19.9599 35.1055 19.8516 34.9856 19.7716ZM20.5788 26.6251L14.375 31.0001V22.1987L20.5788 26.6251ZM22.3692 27.5001H25.6308L31.8247 31.8751H16.1753L22.3692 27.5001ZM27.4212 26.6251L33.625 22.1987V31.0001L27.4212 26.6251ZM24 14.5512L32.9589 20.5241L25.6308 25.7501H22.3714L15.0433 20.5241L24 14.5512Z" fill="#22B5E9"/>
</svg>
