<svg width="48" height="48" viewBox="0 0 48 48" fill="none" xmlns="http://www.w3.org/2000/svg">
<path d="M0 24C0 10.7452 10.7452 0 24 0C37.2548 0 48 10.7452 48 24C48 37.2548 37.2548 48 24 48C10.7452 48 0 37.2548 0 24Z" fill="#1A202C" fill-opacity="0.05"/>
<path d="M34.5 24C34.5001 26.4723 33.6278 28.8654 32.0368 30.7578C30.4457 32.6501 28.2379 33.9203 25.8022 34.3447C23.3666 34.769 20.8593 34.3203 18.722 33.0776C16.5847 31.8348 14.9545 29.8777 14.1185 27.551C13.2825 25.2243 13.2943 22.6772 14.1519 20.3583C15.0095 18.0395 16.6578 16.0976 18.8066 14.8748C20.9554 13.652 23.4667 13.2266 25.8983 13.6735C28.3299 14.1205 30.5258 15.4112 32.0992 17.3182C32.1773 17.4061 32.2369 17.5089 32.2744 17.6203C32.312 17.7317 32.3266 17.8496 32.3176 17.9668C32.3085 18.0841 32.276 18.1983 32.2218 18.3027C32.1676 18.407 32.0929 18.4994 32.0023 18.5743C31.9116 18.6491 31.8068 18.7049 31.694 18.7384C31.5813 18.7718 31.463 18.7822 31.3462 18.7689C31.2293 18.7556 31.1164 18.7189 31.0141 18.6609C30.9117 18.603 30.8221 18.525 30.7506 18.4317C29.4637 16.8712 27.6759 15.8049 25.6914 15.4139C23.7069 15.023 21.6482 15.3317 19.8656 16.2874C18.083 17.2432 16.6866 18.787 15.9139 20.6563C15.1412 22.5255 15.0399 24.6047 15.6274 26.5402C16.2148 28.4757 17.4547 30.1479 19.136 31.2723C20.8173 32.3967 22.8362 32.9039 24.8493 32.7076C26.8625 32.5114 28.7454 31.6237 30.1778 30.1957C31.6103 28.7676 32.5037 26.8875 32.7063 24.875H24C23.7679 24.875 23.5454 24.7828 23.3813 24.6187C23.2172 24.4546 23.125 24.232 23.125 24C23.125 23.7679 23.2172 23.5453 23.3813 23.3812C23.5454 23.2172 23.7679 23.125 24 23.125H33.625C33.8571 23.125 34.0796 23.2172 34.2437 23.3812C34.4078 23.5453 34.5 23.7679 34.5 24Z" fill="#22B5E9"/>
</svg>
