<svg width="48" height="48" viewBox="0 0 48 48" fill="none" xmlns="http://www.w3.org/2000/svg">
<rect width="48" height="48" rx="8" fill="#22B5E9"/>
<path d="M28.9941 20.7559C29.0754 20.8372 29.14 20.9337 29.184 21.0399C29.228 21.1462 29.2507 21.26 29.2507 21.375C29.2507 21.49 29.228 21.6038 29.184 21.7101C29.14 21.8163 29.0754 21.9128 28.9941 21.9941L22.8691 28.1191C22.7878 28.2004 22.6913 28.265 22.5851 28.309C22.4789 28.353 22.365 28.3757 22.25 28.3757C22.135 28.3757 22.0212 28.353 21.9149 28.309C21.8087 28.265 21.7122 28.2004 21.6309 28.1191L19.0059 25.4941C18.8418 25.3299 18.7495 25.1072 18.7495 24.875C18.7495 24.6428 18.8418 24.4201 19.0059 24.2559C19.1701 24.0918 19.3928 23.9995 19.625 23.9995C19.8572 23.9995 20.0799 24.0918 20.2441 24.2559L22.25 26.263L27.7559 20.7559C27.8372 20.6746 27.9337 20.61 28.0399 20.566C28.1462 20.522 28.26 20.4993 28.375 20.4993C28.49 20.4993 28.6039 20.522 28.7101 20.566C28.8163 20.61 28.9128 20.6746 28.9941 20.7559ZM35.375 24C35.375 26.2498 34.7079 28.449 33.458 30.3196C32.2081 32.1902 30.4315 33.6482 28.353 34.5091C26.2745 35.3701 23.9874 35.5953 21.7809 35.1564C19.5743 34.7175 17.5475 33.6342 15.9567 32.0433C14.3658 30.4525 13.2825 28.4257 12.8436 26.2192C12.4047 24.0126 12.6299 21.7255 13.4909 19.647C14.3518 17.5685 15.8098 15.7919 17.6804 14.542C19.551 13.2921 21.7502 12.625 24 12.625C27.0159 12.6282 29.9073 13.8276 32.0398 15.9602C34.1724 18.0927 35.3718 20.9841 35.375 24ZM33.625 24C33.625 22.0964 33.0605 20.2355 32.0029 18.6526C30.9453 17.0698 29.4421 15.8362 27.6833 15.1077C25.9246 14.3792 23.9893 14.1886 22.1223 14.5599C20.2552 14.9313 18.5402 15.848 17.1941 17.1941C15.848 18.5402 14.9313 20.2552 14.5599 22.1223C14.1886 23.9893 14.3792 25.9246 15.1077 27.6833C15.8362 29.4421 17.0698 30.9453 18.6526 32.0029C20.2355 33.0605 22.0964 33.625 24 33.625C26.5518 33.6221 28.9983 32.6071 30.8027 30.8027C32.6071 28.9983 33.6221 26.5518 33.625 24Z" fill="white"/>
</svg>
