<svg width="48" height="48" viewBox="0 0 48 48" fill="none" xmlns="http://www.w3.org/2000/svg">
<path d="M0 24C0 10.7452 10.7452 0 24 0C37.2548 0 48 10.7452 48 24C48 37.2548 37.2548 48 24 48C10.7452 48 0 37.2548 0 24Z" fill="#1A202C" fill-opacity="0.05"/>
<path d="M34.9856 19.7716L24.4856 12.7716C24.3418 12.6757 24.1729 12.6245 24 12.6245C23.8271 12.6245 23.6582 12.6757 23.5144 12.7716L13.0144 19.7716C12.8945 19.8516 12.7963 19.9599 12.7283 20.087C12.6604 20.2141 12.6249 20.356 12.625 20.5001V31.8751C12.625 32.3392 12.8094 32.7843 13.1376 33.1125C13.4658 33.4407 13.9109 33.6251 14.375 33.6251H33.625C34.0891 33.6251 34.5342 33.4407 34.8624 33.1125C35.1906 32.7843 35.375 32.3392 35.375 31.8751V20.5001C35.3751 20.356 35.3396 20.2141 35.2717 20.087C35.2037 19.9599 35.1055 19.8516 34.9856 19.7716ZM20.5788 26.6251L14.375 31.0001V22.1987L20.5788 26.6251ZM22.3692 27.5001H25.6308L31.8247 31.8751H16.1753L22.3692 27.5001ZM27.4212 26.6251L33.625 22.1987V31.0001L27.4212 26.6251ZM24 14.5512L32.9589 20.5241L25.6308 25.7501H22.3714L15.0433 20.5241L24 14.5512Z" fill="#22B5E9"/>
<g clip-path="url(#clip0_9095_19396)">
<path d="M32 40C32 35.5817 35.5817 32 40 32C44.4183 32 48 35.5817 48 40C48 44.4183 44.4183 48 40 48C35.5817 48 32 44.4183 32 40Z" fill="#1A202C" fill-opacity="0.05"/>
<rect width="16" height="16" transform="translate(32 32)" fill="white"/>
<path d="M40 33.5C38.7144 33.5 37.4577 33.8812 36.3888 34.5954C35.3199 35.3097 34.4868 36.3248 33.9948 37.5126C33.5028 38.7003 33.3741 40.0072 33.6249 41.2681C33.8757 42.529 34.4948 43.6872 35.4038 44.5962C36.3129 45.5052 37.471 46.1243 38.7319 46.3751C39.9928 46.6259 41.2997 46.4972 42.4874 46.0052C43.6752 45.5132 44.6903 44.6801 45.4046 43.6112C46.1188 42.5423 46.5 41.2856 46.5 40C46.4982 38.2767 45.8128 36.6244 44.5942 35.4058C43.3756 34.1872 41.7234 33.5018 40 33.5ZM42.8538 38.8538L39.3538 42.3538C39.3073 42.4002 39.2522 42.4371 39.1915 42.4623C39.1308 42.4874 39.0657 42.5004 39 42.5004C38.9343 42.5004 38.8692 42.4874 38.8085 42.4623C38.7478 42.4371 38.6927 42.4002 38.6463 42.3538L37.1463 40.8538C37.0524 40.7599 36.9997 40.6327 36.9997 40.5C36.9997 40.3673 37.0524 40.2401 37.1463 40.1462C37.2401 40.0524 37.3673 39.9997 37.5 39.9997C37.6327 39.9997 37.7599 40.0524 37.8538 40.1462L39 41.2931L42.1463 38.1462C42.1927 38.0998 42.2479 38.0629 42.3086 38.0378C42.3693 38.0127 42.4343 37.9997 42.5 37.9997C42.5657 37.9997 42.6308 38.0127 42.6915 38.0378C42.7521 38.0629 42.8073 38.0998 42.8538 38.1462C42.9002 38.1927 42.9371 38.2479 42.9622 38.3086C42.9873 38.3692 43.0003 38.4343 43.0003 38.5C43.0003 38.5657 42.9873 38.6308 42.9622 38.6914C42.9371 38.7521 42.9002 38.8073 42.8538 38.8538Z" fill="#A1E3CB"/>
</g>
<defs>
<clipPath id="clip0_9095_19396">
<path d="M32 40C32 35.5817 35.5817 32 40 32C44.4183 32 48 35.5817 48 40C48 44.4183 44.4183 48 40 48C35.5817 48 32 44.4183 32 40Z" fill="white"/>
</clipPath>
</defs>
</svg>
