<svg width="48" height="48" viewBox="0 0 48 48" fill="none" xmlns="http://www.w3.org/2000/svg">
<rect width="48" height="48" rx="8" fill="#22B5E9"/>
<path d="M32.75 14.375H15.25C14.7859 14.375 14.3408 14.5594 14.0126 14.8876C13.6844 15.2158 13.5 15.6609 13.5 16.125V22.553C13.5 32.3552 21.7928 35.6058 23.4531 36.157C23.8076 36.2784 24.1924 36.2784 24.5469 36.157C26.2094 35.6047 34.5 32.3541 34.5 22.5519V16.125C34.5 15.6609 34.3156 15.2158 33.9874 14.8876C33.6592 14.5594 33.2141 14.375 32.75 14.375ZM32.75 22.5552C32.75 31.1323 25.4941 33.998 24 34.4967C22.5202 34.0045 15.25 31.1411 15.25 22.5552V16.125H32.75V22.5552ZM23.125 24.875V20.5C23.125 20.2679 23.2172 20.0454 23.3813 19.8813C23.5454 19.7172 23.7679 19.625 24 19.625C24.2321 19.625 24.4546 19.7172 24.6187 19.8813C24.7828 20.0454 24.875 20.2679 24.875 20.5V24.875C24.875 25.1071 24.7828 25.3296 24.6187 25.4937C24.4546 25.6578 24.2321 25.75 24 25.75C23.7679 25.75 23.5454 25.6578 23.3813 25.4937C23.2172 25.3296 23.125 25.1071 23.125 24.875ZM22.6875 28.8125C22.6875 28.5529 22.7645 28.2992 22.9087 28.0833C23.0529 27.8675 23.2579 27.6993 23.4977 27.5999C23.7376 27.5006 24.0015 27.4746 24.2561 27.5252C24.5107 27.5759 24.7445 27.7009 24.9281 27.8844C25.1116 28.068 25.2366 28.3018 25.2873 28.5564C25.3379 28.811 25.3119 29.0749 25.2126 29.3148C25.1133 29.5546 24.945 29.7596 24.7292 29.9038C24.5133 30.048 24.2596 30.125 24 30.125C23.6519 30.125 23.3181 29.9867 23.0719 29.7406C22.8258 29.4944 22.6875 29.1606 22.6875 28.8125Z" fill="white"/>
</svg>
