<svg width="21" height="20" viewBox="0 0 21 20" fill="none" xmlns="http://www.w3.org/2000/svg">
<path d="M16.7501 7.50005C16.7501 7.31463 16.805 7.13337 16.9081 6.9792C17.0111 6.82503 17.1575 6.70487 17.3288 6.63391C17.5001 6.56295 17.6886 6.54439 17.8705 6.58056C18.0523 6.61674 18.2194 6.70602 18.3505 6.83714C18.4816 6.96825 18.5709 7.13529 18.607 7.31715C18.6432 7.49901 18.6246 7.68751 18.5537 7.85881C18.4827 8.03012 18.3626 8.17654 18.2084 8.27955C18.0542 8.38256 17.873 8.43755 17.6876 8.43755C17.4389 8.43755 17.2005 8.33878 17.0246 8.16296C16.8488 7.98715 16.7501 7.74869 16.7501 7.50005ZM15.8126 5.62505C15.998 5.62505 16.1792 5.57007 16.3334 5.46705C16.4876 5.36404 16.6077 5.21762 16.6787 5.04631C16.7496 4.87501 16.7682 4.68651 16.732 4.50465C16.6959 4.32279 16.6066 4.15575 16.4755 4.02464C16.3444 3.89352 16.1773 3.80424 15.9955 3.76806C15.8136 3.73189 15.6251 3.75045 15.4538 3.82141C15.2825 3.89237 15.1361 4.01253 15.0331 4.1667C14.93 4.32087 14.8751 4.50213 14.8751 4.68755C14.8751 4.93619 14.9738 5.17465 15.1496 5.35046C15.3255 5.52628 15.5639 5.62505 15.8126 5.62505ZM18.0516 10C17.8865 9.98643 17.7227 10.0389 17.5963 10.146C17.4699 10.2531 17.3911 10.406 17.3774 10.5711C17.2655 11.8777 16.7828 13.1252 15.9861 14.1668C15.1893 15.2084 14.1116 16.0007 12.8798 16.4506C11.648 16.9005 10.3133 16.9891 9.03279 16.7062C7.75229 16.4233 6.57924 15.7805 5.65165 14.8535C4.72407 13.9265 4.08055 12.7538 3.79681 11.4735C3.51307 10.1932 3.60091 8.85846 4.05001 7.62637C4.4991 6.39428 5.29076 5.31608 6.33183 4.51865C7.3729 3.72122 8.62008 3.23772 9.92662 3.12505C10.0087 3.11828 10.0886 3.09541 10.1619 3.05774C10.2351 3.02008 10.3002 2.96835 10.3535 2.90553C10.4067 2.84271 10.4471 2.77001 10.4722 2.69159C10.4974 2.61317 10.5068 2.53056 10.5001 2.44849C10.4933 2.36641 10.4704 2.28647 10.4327 2.21323C10.3951 2.14 10.3434 2.07489 10.2805 2.02165C10.2177 1.9684 10.145 1.92804 10.0666 1.90289C9.98818 1.87774 9.90557 1.86828 9.82349 1.87505C8.27976 2.00783 6.80607 2.57875 5.57579 3.52064C4.34551 4.46252 3.40983 5.73619 2.87883 7.19179C2.34783 8.64739 2.2436 10.2244 2.57841 11.7372C2.91321 13.25 3.67312 14.6358 4.76874 15.7314C5.86435 16.827 7.25008 17.5869 8.76291 17.9217C10.2757 18.2565 11.8527 18.1523 13.3083 17.6213C14.7639 17.0903 16.0376 16.1546 16.9795 14.9243C17.9213 13.694 18.4923 12.2203 18.6251 10.6766C18.6321 10.5945 18.6229 10.5118 18.5978 10.4332C18.5728 10.3547 18.5324 10.2819 18.4791 10.219C18.4258 10.1561 18.3606 10.1044 18.2872 10.0668C18.2139 10.0292 18.1338 10.0065 18.0516 10ZM10.5001 4.37505C11.6126 4.37505 12.7001 4.70495 13.6251 5.32303C14.5502 5.94111 15.2711 6.81962 15.6969 7.84745C16.1226 8.87529 16.234 10.0063 16.017 11.0974C15.7999 12.1886 15.2642 13.1909 14.4775 13.9775C13.6909 14.7642 12.6886 15.2999 11.5974 15.517C10.5063 15.734 9.3753 15.6226 8.34746 15.1969C7.31963 14.7711 6.44112 14.0502 5.82304 13.1251C5.20496 12.2001 4.87506 11.1126 4.87506 10C4.87671 8.50871 5.46987 7.07893 6.52441 6.0244C7.57894 4.96987 9.00872 4.3767 10.5001 4.37505ZM9.87506 10C9.87506 10.1658 9.9409 10.3248 10.0581 10.442C10.1753 10.5592 10.3343 10.625 10.5001 10.625H14.2501C14.4158 10.625 14.5748 10.5592 14.692 10.442C14.8092 10.3248 14.8751 10.1658 14.8751 10C14.8751 9.83429 14.8092 9.67532 14.692 9.55811C14.5748 9.4409 14.4158 9.37505 14.2501 9.37505H11.1251V6.25005C11.1251 6.08429 11.0592 5.92532 10.942 5.80811C10.8248 5.6909 10.6658 5.62505 10.5001 5.62505C10.3343 5.62505 10.1753 5.6909 10.0581 5.80811C9.9409 5.92532 9.87506 6.08429 9.87506 6.25005V10ZM13.0001 3.75005C13.1855 3.75005 13.3667 3.69506 13.5209 3.59205C13.6751 3.48904 13.7952 3.34262 13.8662 3.17131C13.9371 3.00001 13.9557 2.81151 13.9195 2.62965C13.8834 2.44779 13.7941 2.28075 13.663 2.14964C13.5319 2.01852 13.3648 1.92924 13.183 1.89306C13.0011 1.85689 12.8126 1.87545 12.6413 1.94641C12.47 2.01737 12.3236 2.13753 12.2206 2.2917C12.1175 2.44587 12.0626 2.62713 12.0626 2.81255C12.0626 3.06119 12.1613 3.29965 12.3371 3.47546C12.513 3.65128 12.7514 3.75005 13.0001 3.75005Z" fill="#FFCB83"/>
</svg>
