<svg width="21" height="20" viewBox="0 0 21 20" fill="none" xmlns="http://www.w3.org/2000/svg">
<g id="UploadSimple">
<path id="Vector" d="M18 11.8755V16.2505C18 16.582 17.8683 16.9 17.6339 17.1344C17.3995 17.3688 17.0815 17.5005 16.75 17.5005H4.25C3.91848 17.5005 3.60054 17.3688 3.36612 17.1344C3.1317 16.9 3 16.582 3 16.2505V11.8755C3 11.7097 3.06585 11.5508 3.18306 11.4336C3.30027 11.3163 3.45924 11.2505 3.625 11.2505C3.79076 11.2505 3.94973 11.3163 4.06694 11.4336C4.18415 11.5508 4.25 11.7097 4.25 11.8755V16.2505H16.75V11.8755C16.75 11.7097 16.8158 11.5508 16.9331 11.4336C17.0503 11.3163 17.2092 11.2505 17.375 11.2505C17.5408 11.2505 17.6997 11.3163 17.8169 11.4336C17.9342 11.5508 18 11.7097 18 11.8755ZM7.81719 6.69268L9.875 4.63409V11.8755C9.875 12.0413 9.94085 12.2002 10.0581 12.3174C10.1753 12.4346 10.3342 12.5005 10.5 12.5005C10.6658 12.5005 10.8247 12.4346 10.9419 12.3174C11.0592 12.2002 11.125 12.0413 11.125 11.8755V4.63409L13.1828 6.69268C13.3001 6.80996 13.4591 6.87584 13.625 6.87584C13.7909 6.87584 13.9499 6.80996 14.0672 6.69268C14.1845 6.5754 14.2503 6.41634 14.2503 6.25049C14.2503 6.08464 14.1845 5.92558 14.0672 5.8083L10.9422 2.6833C10.8841 2.62519 10.8152 2.57909 10.7393 2.54764C10.6635 2.51619 10.5821 2.5 10.5 2.5C10.4179 2.5 10.3365 2.51619 10.2607 2.54764C10.1848 2.57909 10.1159 2.62519 10.0578 2.6833L6.93281 5.8083C6.81554 5.92558 6.74965 6.08464 6.74965 6.25049C6.74965 6.41634 6.81554 6.5754 6.93281 6.69268C7.05009 6.80996 7.20915 6.87584 7.375 6.87584C7.54085 6.87584 7.69991 6.80996 7.81719 6.69268Z" fill="#22B5E9"/>
</g>
</svg>
