<svg width="66" height="61" viewBox="0 0 66 61" fill="none" xmlns="http://www.w3.org/2000/svg">
<path d="M64.3875 20.9189L34.3875 0.918909C33.9767 0.644812 33.4939 0.498535 33 0.498535C32.5061 0.498535 32.0233 0.644812 31.6125 0.918909L1.6125 20.9189C1.27003 21.1474 0.989295 21.4569 0.795218 21.82C0.601141 22.1831 0.499733 22.5885 0.500001 23.0002V55.5002C0.500001 56.8262 1.02678 58.098 1.96447 59.0357C2.90215 59.9734 4.17392 60.5002 5.5 60.5002H60.5C61.8261 60.5002 63.0979 59.9734 64.0355 59.0357C64.9732 58.098 65.5 56.8262 65.5 55.5002V23.0002C65.5003 22.5885 65.3989 22.1831 65.2048 21.82C65.0107 21.4569 64.73 21.1474 64.3875 20.9189ZM23.225 40.5002L5.5 53.0002V27.8533L23.225 40.5002ZM28.3406 43.0002H37.6594L55.3562 55.5002H10.6437L28.3406 43.0002ZM42.775 40.5002L60.5 27.8533V53.0002L42.775 40.5002ZM33 6.00328L58.5969 23.0689L37.6594 38.0002H28.3469L7.40938 23.0689L33 6.00328Z" fill="#1A202C"/>
</svg>
