<svg width="56" height="56" viewBox="0 0 56 56" fill="none" xmlns="http://www.w3.org/2000/svg">
<path d="M0 12.8C0 8.31958 0 6.07937 0.871948 4.36808C1.63893 2.86278 2.86278 1.63893 4.36808 0.871948C6.07937 0 8.31958 0 12.8 0H43.2C47.6804 0 49.9206 0 51.6319 0.871948C53.1372 1.63893 54.3611 2.86278 55.1281 4.36808C56 6.07937 56 8.31958 56 12.8V43.2C56 47.6804 56 49.9206 55.1281 51.6319C54.3611 53.1372 53.1372 54.3611 51.6319 55.1281C49.9206 56 47.6804 56 43.2 56H12.8C8.31958 56 6.07937 56 4.36808 55.1281C2.86278 54.3611 1.63893 53.1372 0.871948 51.6319C0 49.9206 0 47.6804 0 43.2V12.8Z" fill="#22B5E9" fill-opacity="0.1"/>
<path d="M39.25 25.5C39.25 25.8315 39.1183 26.1495 38.8839 26.3839C38.6495 26.6183 38.3315 26.75 38 26.75H31.75C31.4185 26.75 31.1005 26.6183 30.8661 26.3839C30.6317 26.1495 30.5 25.8315 30.5 25.5C30.5 25.1685 30.6317 24.8505 30.8661 24.6161C31.1005 24.3817 31.4185 24.25 31.75 24.25H38C38.3315 24.25 38.6495 24.3817 38.8839 24.6161C39.1183 24.8505 39.25 25.1685 39.25 25.5ZM38 29.25H31.75C31.4185 29.25 31.1005 29.3817 30.8661 29.6161C30.6317 29.8505 30.5 30.1685 30.5 30.5C30.5 30.8315 30.6317 31.1495 30.8661 31.3839C31.1005 31.6183 31.4185 31.75 31.75 31.75H38C38.3315 31.75 38.6495 31.6183 38.8839 31.3839C39.1183 31.1495 39.25 30.8315 39.25 30.5C39.25 30.1685 39.1183 29.8505 38.8839 29.6161C38.6495 29.3817 38.3315 29.25 38 29.25ZM44.25 16.75V39.25C44.25 39.913 43.9866 40.5489 43.5178 41.0178C43.0489 41.4866 42.413 41.75 41.75 41.75H14.25C13.587 41.75 12.9511 41.4866 12.4822 41.0178C12.0134 40.5489 11.75 39.913 11.75 39.25V16.75C11.75 16.087 12.0134 15.4511 12.4822 14.9822C12.9511 14.5134 13.587 14.25 14.25 14.25H41.75C42.413 14.25 43.0489 14.5134 43.5178 14.9822C43.9866 15.4511 44.25 16.087 44.25 16.75ZM41.75 39.25V16.75H14.25V39.25H41.75ZM29.2094 33.9375C29.2923 34.2587 29.2442 34.5996 29.0757 34.8853C28.9072 35.171 28.6321 35.3781 28.3109 35.4609C27.9898 35.5438 27.6488 35.4957 27.3631 35.3272C27.0774 35.1587 26.8704 34.8837 26.7875 34.5625C26.3766 32.9594 24.7469 31.75 22.9984 31.75C21.25 31.75 19.6219 32.9594 19.2094 34.5625C19.1265 34.8837 18.9194 35.1587 18.6337 35.3272C18.348 35.4957 18.0071 35.5438 17.6859 35.4609C17.3648 35.3781 17.0897 35.171 16.9212 34.8853C16.7527 34.5996 16.7046 34.2587 16.7875 33.9375C17.1931 32.4277 18.152 31.1259 19.4734 30.2906C18.7712 29.5926 18.292 28.7017 18.0967 27.731C17.9014 26.7603 17.9986 25.7534 18.3762 24.838C18.7538 23.9227 19.3946 23.14 20.2175 22.5893C21.0404 22.0386 22.0083 21.7446 22.9984 21.7446C23.9886 21.7446 24.9565 22.0386 25.7794 22.5893C26.6023 23.14 27.2431 23.9227 27.6207 24.838C27.9982 25.7534 28.0955 26.7603 27.9002 27.731C27.7048 28.7017 27.2257 29.5926 26.5234 30.2906C27.8464 31.1247 28.8061 32.4269 29.2109 33.9375H29.2094ZM23 29.25C23.4945 29.25 23.9778 29.1034 24.3889 28.8287C24.8 28.554 25.1205 28.1635 25.3097 27.7067C25.4989 27.2499 25.5484 26.7472 25.452 26.2623C25.3555 25.7773 25.1174 25.3319 24.7678 24.9822C24.4181 24.6326 23.9727 24.3945 23.4877 24.298C23.0028 24.2016 22.5001 24.2511 22.0433 24.4403C21.5865 24.6295 21.196 24.95 20.9213 25.3611C20.6466 25.7722 20.5 26.2555 20.5 26.75C20.5 27.413 20.7634 28.0489 21.2322 28.5178C21.7011 28.9866 22.337 29.25 23 29.25Z" fill="#22B5E9"/>
</svg>
