<svg width="16" height="16" viewBox="0 0 16 16" fill="none" xmlns="http://www.w3.org/2000/svg">
<path d="M13.9998 8.00003C13.9998 8.13264 13.9471 8.25982 13.8533 8.35359C13.7596 8.44736 13.6324 8.50003 13.4998 8.50003H7.99979C7.86718 8.50003 7.74 8.44736 7.64624 8.35359C7.55247 8.25982 7.49979 8.13264 7.49979 8.00003C7.49979 7.86743 7.55247 7.74025 7.64624 7.64648C7.74 7.55271 7.86718 7.50003 7.99979 7.50003H13.4998C13.6324 7.50003 13.7596 7.55271 13.8533 7.64648C13.9471 7.74025 13.9998 7.86743 13.9998 8.00003ZM7.99979 4.50003H13.4998C13.6324 4.50003 13.7596 4.44736 13.8533 4.35359C13.9471 4.25982 13.9998 4.13264 13.9998 4.00003C13.9998 3.86743 13.9471 3.74025 13.8533 3.64648C13.7596 3.55271 13.6324 3.50003 13.4998 3.50003H7.99979C7.86718 3.50003 7.74 3.55271 7.64624 3.64648C7.55247 3.74025 7.49979 3.86743 7.49979 4.00003C7.49979 4.13264 7.55247 4.25982 7.64624 4.35359C7.74 4.44736 7.86718 4.50003 7.99979 4.50003ZM13.4998 11.5H7.99979C7.86718 11.5 7.74 11.5527 7.64624 11.6465C7.55247 11.7402 7.49979 11.8674 7.49979 12C7.49979 12.1326 7.55247 12.2598 7.64624 12.3536C7.74 12.4474 7.86718 12.5 7.99979 12.5H13.4998C13.6324 12.5 13.7596 12.4474 13.8533 12.3536C13.9471 12.2598 13.9998 12.1326 13.9998 12C13.9998 11.8674 13.9471 11.7402 13.8533 11.6465C13.7596 11.5527 13.6324 11.5 13.4998 11.5ZM5.14604 2.64628L3.49979 4.29316L2.85354 3.64628C2.75972 3.55246 2.63247 3.49976 2.49979 3.49976C2.36711 3.49976 2.23986 3.55246 2.14604 3.64628C2.05222 3.7401 1.99951 3.86735 1.99951 4.00003C1.99951 4.13272 2.05222 4.25996 2.14604 4.35378L3.14604 5.35378C3.19248 5.40027 3.24762 5.43715 3.30832 5.46231C3.36902 5.48748 3.43408 5.50043 3.49979 5.50043C3.5655 5.50043 3.63056 5.48748 3.69126 5.46231C3.75196 5.43715 3.8071 5.40027 3.85354 5.35378L5.85354 3.35378C5.94736 3.25996 6.00007 3.13272 6.00007 3.00003C6.00007 2.86735 5.94736 2.7401 5.85354 2.64628C5.75972 2.55246 5.63247 2.49976 5.49979 2.49976C5.36711 2.49976 5.23986 2.55246 5.14604 2.64628ZM5.14604 6.64628L3.49979 8.29316L2.85354 7.64628C2.75972 7.55246 2.63247 7.49976 2.49979 7.49976C2.36711 7.49976 2.23986 7.55246 2.14604 7.64628C2.05222 7.7401 1.99951 7.86735 1.99951 8.00003C1.99951 8.06573 2.01245 8.13079 2.03759 8.19148C2.06273 8.25218 2.09958 8.30733 2.14604 8.35378L3.14604 9.35378C3.19248 9.40027 3.24762 9.43715 3.30832 9.46231C3.36902 9.48748 3.43408 9.50043 3.49979 9.50043C3.5655 9.50043 3.63056 9.48748 3.69126 9.46231C3.75196 9.43715 3.8071 9.40027 3.85354 9.35378L5.85354 7.35378C5.94736 7.25996 6.00007 7.13272 6.00007 7.00003C6.00007 6.86735 5.94736 6.7401 5.85354 6.64628C5.75972 6.55246 5.63247 6.49976 5.49979 6.49976C5.36711 6.49976 5.23986 6.55246 5.14604 6.64628ZM5.14604 10.6463L3.49979 12.2932L2.85354 11.6463C2.80708 11.5998 2.75193 11.563 2.69124 11.5378C2.63054 11.5127 2.56549 11.4998 2.49979 11.4998C2.43409 11.4998 2.36904 11.5127 2.30834 11.5378C2.24764 11.563 2.19249 11.5998 2.14604 11.6463C2.09958 11.6927 2.06273 11.7479 2.03759 11.8086C2.01245 11.8693 1.99951 11.9343 1.99951 12C1.99951 12.0657 2.01245 12.1308 2.03759 12.1915C2.06273 12.2522 2.09958 12.3073 2.14604 12.3538L3.14604 13.3538C3.19248 13.4003 3.24762 13.4372 3.30832 13.4623C3.36902 13.4875 3.43408 13.5004 3.49979 13.5004C3.5655 13.5004 3.63056 13.4875 3.69126 13.4623C3.75196 13.4372 3.8071 13.4003 3.85354 13.3538L5.85354 11.3538C5.94736 11.26 6.00007 11.1327 6.00007 11C6.00007 10.8674 5.94736 10.7401 5.85354 10.6463C5.75972 10.5525 5.63247 10.4998 5.49979 10.4998C5.36711 10.4998 5.23986 10.5525 5.14604 10.6463Z" fill="#343330"/>
</svg>
