<svg width="48" height="48" viewBox="0 0 48 48" fill="none" xmlns="http://www.w3.org/2000/svg">
<path d="M0 24C0 10.7452 10.7452 0 24 0C37.2548 0 48 10.7452 48 24C48 37.2548 37.2548 48 24 48C10.7452 48 0 37.2548 0 24Z" fill="#1A202C" fill-opacity="0.05"/>
<path d="M12.625 21.3745H15.25V28.3745H13.5C13.2679 28.3745 13.0454 28.4666 12.8813 28.6307C12.7172 28.7948 12.625 29.0174 12.625 29.2495C12.625 29.4815 12.7172 29.7041 12.8813 29.8682C13.0454 30.0323 13.2679 30.1245 13.5 30.1245H34.5C34.7321 30.1245 34.9546 30.0323 35.1187 29.8682C35.2828 29.7041 35.375 29.4815 35.375 29.2495C35.375 29.0174 35.2828 28.7948 35.1187 28.6307C34.9546 28.4666 34.7321 28.3745 34.5 28.3745H32.75V21.3745H35.375C35.5654 21.3743 35.7505 21.312 35.9023 21.1971C36.0541 21.0821 36.1642 20.9209 36.2161 20.7377C36.2679 20.5545 36.2586 20.3594 36.1895 20.182C36.1204 20.0046 35.9953 19.8545 35.8333 19.7546L24.4583 12.7546C24.3204 12.6699 24.1618 12.625 24 12.625C23.8382 12.625 23.6796 12.6699 23.5417 12.7546L12.1667 19.7546C12.0047 19.8545 11.8796 20.0046 11.8105 20.182C11.7414 20.3594 11.7321 20.5545 11.7839 20.7377C11.8358 20.9209 11.9459 21.0821 12.0977 21.1971C12.2495 21.312 12.4346 21.3743 12.625 21.3745ZM17 21.3745H20.5V28.3745H17V21.3745ZM25.75 21.3745V28.3745H22.25V21.3745H25.75ZM31 28.3745H27.5V21.3745H31V28.3745ZM24 14.5265L32.2841 19.6245H15.7159L24 14.5265ZM37.125 32.7495C37.125 32.9815 37.0328 33.2041 36.8687 33.3682C36.7046 33.5323 36.4821 33.6245 36.25 33.6245H11.75C11.5179 33.6245 11.2954 33.5323 11.1313 33.3682C10.9672 33.2041 10.875 32.9815 10.875 32.7495C10.875 32.5174 10.9672 32.2948 11.1313 32.1307C11.2954 31.9666 11.5179 31.8745 11.75 31.8745H36.25C36.4821 31.8745 36.7046 31.9666 36.8687 32.1307C37.0328 32.2948 37.125 32.5174 37.125 32.7495Z" fill="#22B5E9"/>
</svg>
