<svg width="50" height="51" viewBox="0 0 50 51" fill="none" xmlns="http://www.w3.org/2000/svg">
<g clip-path="url(#clip0_8584_655)">
<path d="M45 0.0400391H5C2.23858 0.0400391 0 2.27862 0 5.04004V45.04C0 47.8015 2.23858 50.04 5 50.04H45C47.7614 50.04 50 47.8015 50 45.04V5.04004C50 2.27862 47.7614 0.0400391 45 0.0400391Z" fill="#22B5E9"/>
<path d="M26.8076 23.5531L33.8808 15.3311H32.2046L26.063 22.4701L21.1577 15.3311H15.5L22.9178 26.1266L15.5 34.7486H17.1762L23.6619 27.2095L28.8423 34.7486H34.5L26.8076 23.5531ZM24.5118 26.2217L23.7602 25.1467L17.7802 16.5929H20.3547L25.1807 23.4961L25.9323 24.5711L32.2054 33.5441H29.6309L24.5118 26.2217Z" fill="white"/>
</g>
<defs>
<clipPath id="clip0_8584_655">
<rect width="50" height="51" fill="white"/>
</clipPath>
</defs>
</svg>
