<svg width="25" height="25" viewBox="0 0 25 25" fill="none" xmlns="http://www.w3.org/2000/svg">
<path d="M19.6057 18.5266C19.6766 18.5974 19.7328 18.6816 19.7711 18.7741C19.8095 18.8667 19.8292 18.9659 19.8292 19.0661C19.8292 19.1664 19.8095 19.2656 19.7711 19.3582C19.7328 19.4507 19.6766 19.5349 19.6057 19.6057C19.5349 19.6766 19.4507 19.7328 19.3582 19.7711C19.2656 19.8095 19.1664 19.8292 19.0661 19.8292C18.9659 19.8292 18.8667 19.8095 18.7741 19.7711C18.6816 19.7328 18.5974 19.6766 18.5266 19.6057L12.2023 13.2805L5.87808 19.6057C5.73498 19.7488 5.54089 19.8292 5.33851 19.8292C5.13613 19.8292 4.94204 19.7488 4.79894 19.6057C4.65583 19.4626 4.57544 19.2685 4.57544 19.0661C4.57544 18.8638 4.65583 18.6697 4.79894 18.5266L11.1241 12.2023L4.79894 5.87808C4.65583 5.73498 4.57544 5.54089 4.57544 5.33851C4.57544 5.13613 4.65583 4.94204 4.79894 4.79894C4.94204 4.65583 5.13613 4.57544 5.33851 4.57544C5.54089 4.57544 5.73498 4.65583 5.87808 4.79894L12.2023 11.1241L18.5266 4.79894C18.6697 4.65583 18.8638 4.57544 19.0661 4.57544C19.2685 4.57544 19.4626 4.65583 19.6057 4.79894C19.7488 4.94204 19.8292 5.13613 19.8292 5.33851C19.8292 5.54089 19.7488 5.73498 19.6057 5.87808L13.2805 12.2023L19.6057 18.5266Z" fill="#22B5E9"/>
</svg>
