<svg width="50" height="51" viewBox="0 0 50 51" fill="none" xmlns="http://www.w3.org/2000/svg">
<rect y="0.183594" width="50" height="50" rx="5" fill="#22B5E9"/>
<path d="M23.5001 27.4355L27.3926 25.1855L23.5001 22.9355V27.4355ZM32.1701 21.563C32.2676 21.9155 32.3351 22.388 32.3801 22.988C32.4326 23.588 32.4551 24.1055 32.4551 24.5555L32.5001 25.1855C32.5001 26.828 32.3801 28.0355 32.1701 28.808C31.9826 29.483 31.5476 29.918 30.8726 30.1055C30.5201 30.203 29.8751 30.2705 28.8851 30.3155C27.9101 30.368 27.0176 30.3905 26.1926 30.3905L25.0001 30.4355C21.8576 30.4355 19.9001 30.3155 19.1276 30.1055C18.4526 29.918 18.0176 29.483 17.8301 28.808C17.7326 28.4555 17.6651 27.983 17.6201 27.383C17.5676 26.783 17.5451 26.2655 17.5451 25.8155L17.5001 25.1855C17.5001 23.543 17.6201 22.3355 17.8301 21.563C18.0176 20.888 18.4526 20.453 19.1276 20.2655C19.4801 20.168 20.1251 20.1005 21.1151 20.0555C22.0901 20.003 22.9826 19.9805 23.8076 19.9805L25.0001 19.9355C28.1426 19.9355 30.1001 20.0555 30.8726 20.2655C31.5476 20.453 31.9826 20.888 32.1701 21.563Z" fill="white"/>
</svg>
