<svg width="112" height="10" viewBox="0 0 112 10" fill="none" xmlns="http://www.w3.org/2000/svg">
<path d="M1.87891 9H0.185547L3.26758 0.269531H5.21289L8.28906 9H6.60156L4.26953 2.0625H4.19922L1.87891 9ZM1.9375 5.57812H6.53711V6.84375H1.9375V5.57812ZM11.1309 9.11719C10.6191 9.11719 10.1582 8.98633 9.74805 8.72461C9.3418 8.45898 9.02148 8.07422 8.78711 7.57031C8.55273 7.06641 8.43555 6.45508 8.43555 5.73633C8.43555 5.00586 8.55469 4.39062 8.79297 3.89062C9.03516 3.39062 9.35938 3.01172 9.76562 2.75391C10.1719 2.49609 10.627 2.36719 11.1309 2.36719C11.5176 2.36719 11.834 2.43164 12.0801 2.56055C12.3262 2.68945 12.5215 2.8457 12.666 3.0293C12.8145 3.20898 12.9277 3.37695 13.0059 3.5332H13.0703V0.269531H14.6055V9H13.0996V7.96289H13.0059C12.9238 8.12305 12.8086 8.29297 12.6602 8.47266C12.5117 8.64844 12.3145 8.80078 12.0684 8.92969C11.8223 9.05469 11.5098 9.11719 11.1309 9.11719ZM11.5586 7.85156C11.8867 7.85156 12.1641 7.76367 12.3906 7.58789C12.6211 7.4082 12.7969 7.16016 12.918 6.84375C13.0391 6.52344 13.0996 6.15234 13.0996 5.73047C13.0996 5.30469 13.0391 4.93555 12.918 4.62305C12.8008 4.30664 12.627 4.0625 12.3965 3.89062C12.1699 3.71875 11.8906 3.63281 11.5586 3.63281C11.2188 3.63281 10.9336 3.72266 10.7031 3.90234C10.4727 4.08203 10.2988 4.33008 10.1816 4.64648C10.0684 4.96289 10.0117 5.32422 10.0117 5.73047C10.0117 6.13672 10.0703 6.5 10.1875 6.82031C10.3047 7.14062 10.4766 7.39258 10.7031 7.57617C10.9336 7.75977 11.2188 7.85156 11.5586 7.85156ZM18.1621 9.11719C17.6504 9.11719 17.1895 8.98633 16.7793 8.72461C16.373 8.45898 16.0527 8.07422 15.8184 7.57031C15.584 7.06641 15.4668 6.45508 15.4668 5.73633C15.4668 5.00586 15.5859 4.39062 15.8242 3.89062C16.0664 3.39062 16.3906 3.01172 16.7969 2.75391C17.2031 2.49609 17.6582 2.36719 18.1621 2.36719C18.5488 2.36719 18.8652 2.43164 19.1113 2.56055C19.3574 2.68945 19.5527 2.8457 19.6973 3.0293C19.8457 3.20898 19.959 3.37695 20.0371 3.5332H20.1016V0.269531H21.6367V9H20.1309V7.96289H20.0371C19.9551 8.12305 19.8398 8.29297 19.6914 8.47266C19.543 8.64844 19.3457 8.80078 19.0996 8.92969C18.8535 9.05469 18.541 9.11719 18.1621 9.11719ZM18.5898 7.85156C18.918 7.85156 19.1953 7.76367 19.4219 7.58789C19.6523 7.4082 19.8281 7.16016 19.9492 6.84375C20.0703 6.52344 20.1309 6.15234 20.1309 5.73047C20.1309 5.30469 20.0703 4.93555 19.9492 4.62305C19.832 4.30664 19.6582 4.0625 19.4277 3.89062C19.2012 3.71875 18.9219 3.63281 18.5898 3.63281C18.25 3.63281 17.9648 3.72266 17.7344 3.90234C17.5039 4.08203 17.3301 4.33008 17.2129 4.64648C17.0996 4.96289 17.043 5.32422 17.043 5.73047C17.043 6.13672 17.1016 6.5 17.2188 6.82031C17.3359 7.14062 17.5078 7.39258 17.7344 7.57617C17.9648 7.75977 18.25 7.85156 18.5898 7.85156ZM28.7852 9.11719C28.4141 9.11719 28.1035 9.05469 27.8535 8.92969C27.6074 8.80078 27.4082 8.64844 27.2559 8.47266C27.1074 8.29297 26.9941 8.12305 26.916 7.96289H26.8223V9H25.3105V0.269531H26.8516V3.5332H26.916C26.9941 3.37695 27.1055 3.20898 27.25 3.0293C27.3945 2.8457 27.5898 2.68945 27.8359 2.56055C28.0859 2.43164 28.4043 2.36719 28.791 2.36719C29.2949 2.36719 29.75 2.49609 30.1562 2.75391C30.5625 3.01172 30.8848 3.39062 31.123 3.89062C31.3652 4.39062 31.4863 5.00586 31.4863 5.73633C31.4863 6.45508 31.3691 7.06641 31.1348 7.57031C30.9004 8.07422 30.5781 8.45898 30.168 8.72461C29.7617 8.98633 29.3008 9.11719 28.7852 9.11719ZM28.3633 7.85156C28.7031 7.85156 28.9863 7.75977 29.2129 7.57617C29.4434 7.39258 29.6172 7.14062 29.7344 6.82031C29.8516 6.5 29.9102 6.13672 29.9102 5.73047C29.9102 5.32422 29.8516 4.96289 29.7344 4.64648C29.6172 4.33008 29.4453 4.08203 29.2188 3.90234C28.9922 3.72266 28.707 3.63281 28.3633 3.63281C28.0312 3.63281 27.75 3.71875 27.5195 3.89062C27.293 4.0625 27.1191 4.30664 26.998 4.62305C26.8809 4.93555 26.8223 5.30469 26.8223 5.73047C26.8223 6.15234 26.8809 6.52344 26.998 6.84375C27.1191 7.16016 27.2949 7.4082 27.5254 7.58789C27.7559 7.76367 28.0352 7.85156 28.3633 7.85156ZM34.7559 9.11719C34.2441 9.11719 33.7852 8.98633 33.3789 8.72461C32.9727 8.45898 32.6504 8.07422 32.4121 7.57031C32.1777 7.06641 32.0605 6.45508 32.0605 5.73633C32.0605 5.00586 32.1797 4.39062 32.418 3.89062C32.6602 3.39062 32.9863 3.01172 33.3965 2.75391C33.8066 2.49609 34.2637 2.36719 34.7676 2.36719C35.1504 2.36719 35.4648 2.43164 35.7109 2.56055C35.957 2.68945 36.1523 2.8457 36.2969 3.0293C36.4453 3.20898 36.5586 3.37695 36.6367 3.5332H36.707V2.44922H38.2422V9H36.7305V7.96289H36.6367C36.5586 8.12305 36.4434 8.29297 36.291 8.47266C36.1426 8.64844 35.9434 8.80078 35.6934 8.92969C35.4473 9.05469 35.1348 9.11719 34.7559 9.11719ZM35.1895 7.85156C35.5215 7.85156 35.8008 7.76367 36.0273 7.58789C36.2539 7.4082 36.4277 7.16016 36.5488 6.84375C36.6699 6.52344 36.7305 6.15234 36.7305 5.73047C36.7305 5.30469 36.6719 4.93555 36.5547 4.62305C36.4375 4.30664 36.2637 4.0625 36.0332 3.89062C35.8027 3.71875 35.5215 3.63281 35.1895 3.63281C34.8457 3.63281 34.5586 3.72266 34.3281 3.90234C34.0977 4.08203 33.9238 4.33008 33.8066 4.64648C33.6934 4.96289 33.6367 5.32422 33.6367 5.73047C33.6367 6.13672 33.6953 6.5 33.8125 6.82031C33.9297 7.14062 34.1035 7.39258 34.334 7.57617C34.5684 7.75977 34.8535 7.85156 35.1895 7.85156ZM40.9258 5.16797V9H39.3848V2.44922H40.8965V3.56836H40.9727C41.1211 3.20117 41.3535 2.91016 41.6699 2.69531C41.9902 2.47656 42.3965 2.36719 42.8887 2.36719C43.3418 2.36719 43.7363 2.46289 44.0723 2.6543C44.4082 2.8457 44.668 3.12695 44.8516 3.49805C45.0391 3.86523 45.1328 4.31055 45.1328 4.83398V9H43.5918V5.07422C43.5918 4.63672 43.4785 4.29492 43.252 4.04883C43.0254 3.79883 42.7129 3.67383 42.3145 3.67383C42.0449 3.67383 41.8047 3.73242 41.5938 3.84961C41.3867 3.9668 41.2227 4.13672 41.1016 4.35938C40.9844 4.57812 40.9258 4.84766 40.9258 5.16797ZM47.6816 6.94922L47.6758 5.08008H47.9277L50.2773 2.44922H52.082L49.1875 5.67773H48.8652L47.6816 6.94922ZM46.2754 9V0.269531H47.8164V9H46.2754ZM50.3828 9L48.25 6.02344L49.293 4.93359L52.2285 9H50.3828ZM57.5957 9.11719C57.084 9.11719 56.625 8.98633 56.2188 8.72461C55.8125 8.45898 55.4902 8.07422 55.252 7.57031C55.0176 7.06641 54.9004 6.45508 54.9004 5.73633C54.9004 5.00586 55.0195 4.39062 55.2578 3.89062C55.5 3.39062 55.8262 3.01172 56.2363 2.75391C56.6465 2.49609 57.1035 2.36719 57.6074 2.36719C57.9902 2.36719 58.3047 2.43164 58.5508 2.56055C58.7969 2.68945 58.9922 2.8457 59.1367 3.0293C59.2852 3.20898 59.3984 3.37695 59.4766 3.5332H59.5469V2.44922H61.082V9H59.5703V7.96289H59.4766C59.3984 8.12305 59.2832 8.29297 59.1309 8.47266C58.9824 8.64844 58.7832 8.80078 58.5332 8.92969C58.2871 9.05469 57.9746 9.11719 57.5957 9.11719ZM58.0293 7.85156C58.3613 7.85156 58.6406 7.76367 58.8672 7.58789C59.0938 7.4082 59.2676 7.16016 59.3887 6.84375C59.5098 6.52344 59.5703 6.15234 59.5703 5.73047C59.5703 5.30469 59.5117 4.93555 59.3945 4.62305C59.2773 4.30664 59.1035 4.0625 58.873 3.89062C58.6426 3.71875 58.3613 3.63281 58.0293 3.63281C57.6855 3.63281 57.3984 3.72266 57.168 3.90234C56.9375 4.08203 56.7637 4.33008 56.6465 4.64648C56.5332 4.96289 56.4766 5.32422 56.4766 5.73047C56.4766 6.13672 56.5352 6.5 56.6523 6.82031C56.7695 7.14062 56.9434 7.39258 57.1738 7.57617C57.4082 7.75977 57.6934 7.85156 58.0293 7.85156ZM65.0781 9.12891C64.4258 9.12891 63.8652 8.98633 63.3965 8.70117C62.9277 8.41211 62.5684 8.01367 62.3184 7.50586C62.0684 6.99805 61.9434 6.41406 61.9434 5.75391C61.9434 5.08594 62.0703 4.49805 62.3242 3.99023C62.5781 3.48242 62.9395 3.08594 63.4082 2.80078C63.877 2.51172 64.4297 2.36719 65.0664 2.36719C65.6016 2.36719 66.0742 2.46484 66.4844 2.66016C66.8945 2.85547 67.2207 3.13086 67.4629 3.48633C67.709 3.83789 67.8496 4.25 67.8848 4.72266H66.4082C66.3691 4.51172 66.293 4.32227 66.1797 4.1543C66.0664 3.98633 65.918 3.85352 65.7344 3.75586C65.5547 3.6582 65.3398 3.60938 65.0898 3.60938C64.7734 3.60938 64.4961 3.69531 64.2578 3.86719C64.0234 4.03516 63.8398 4.27734 63.707 4.59375C63.5742 4.91016 63.5078 5.28906 63.5078 5.73047C63.5078 6.17578 63.5723 6.56055 63.7012 6.88477C63.8301 7.20508 64.0137 7.45312 64.252 7.62891C64.4902 7.80078 64.7695 7.88672 65.0898 7.88672C65.4297 7.88672 65.7168 7.78711 65.9512 7.58789C66.1895 7.38867 66.3418 7.11328 66.4082 6.76172H67.8848C67.8496 7.22656 67.7129 7.63672 67.4746 7.99219C67.2363 8.34766 66.9141 8.62695 66.5078 8.83008C66.1016 9.0293 65.625 9.12891 65.0781 9.12891ZM71.5703 9.12891C70.918 9.12891 70.3574 8.98633 69.8887 8.70117C69.4199 8.41211 69.0605 8.01367 68.8105 7.50586C68.5605 6.99805 68.4355 6.41406 68.4355 5.75391C68.4355 5.08594 68.5625 4.49805 68.8164 3.99023C69.0703 3.48242 69.4316 3.08594 69.9004 2.80078C70.3691 2.51172 70.9219 2.36719 71.5586 2.36719C72.0938 2.36719 72.5664 2.46484 72.9766 2.66016C73.3867 2.85547 73.7129 3.13086 73.9551 3.48633C74.2012 3.83789 74.3418 4.25 74.377 4.72266H72.9004C72.8613 4.51172 72.7852 4.32227 72.6719 4.1543C72.5586 3.98633 72.4102 3.85352 72.2266 3.75586C72.0469 3.6582 71.832 3.60938 71.582 3.60938C71.2656 3.60938 70.9883 3.69531 70.75 3.86719C70.5156 4.03516 70.332 4.27734 70.1992 4.59375C70.0664 4.91016 70 5.28906 70 5.73047C70 6.17578 70.0645 6.56055 70.1934 6.88477C70.3223 7.20508 70.5059 7.45312 70.7441 7.62891C70.9824 7.80078 71.2617 7.88672 71.582 7.88672C71.9219 7.88672 72.209 7.78711 72.4434 7.58789C72.6816 7.38867 72.834 7.11328 72.9004 6.76172H74.377C74.3418 7.22656 74.2051 7.63672 73.9668 7.99219C73.7285 8.34766 73.4062 8.62695 73 8.83008C72.5938 9.0293 72.1172 9.12891 71.5703 9.12891ZM78.0625 9.12891C77.4219 9.12891 76.8672 8.98828 76.3984 8.70703C75.9297 8.42578 75.5664 8.03125 75.3086 7.52344C75.0547 7.01562 74.9277 6.42578 74.9277 5.75391C74.9277 5.07812 75.0547 4.48633 75.3086 3.97852C75.5664 3.4668 75.9297 3.07031 76.3984 2.78906C76.8672 2.50781 77.4219 2.36719 78.0625 2.36719C78.7031 2.36719 79.2578 2.50781 79.7266 2.78906C80.1953 3.07031 80.5586 3.4668 80.8164 3.97852C81.0742 4.48633 81.2031 5.07812 81.2031 5.75391C81.2031 6.42578 81.0742 7.01562 80.8164 7.52344C80.5586 8.03125 80.1953 8.42578 79.7266 8.70703C79.2578 8.98828 78.7031 9.12891 78.0625 9.12891ZM78.0625 7.88672C78.418 7.88672 78.7109 7.79297 78.9414 7.60547C79.1719 7.41406 79.3438 7.15625 79.457 6.83203C79.5742 6.50781 79.6328 6.14844 79.6328 5.75391C79.6328 5.35156 79.5742 4.98828 79.457 4.66406C79.3438 4.33984 79.1719 4.08398 78.9414 3.89648C78.7109 3.70508 78.418 3.60938 78.0625 3.60938C77.7148 3.60938 77.4238 3.70508 77.1895 3.89648C76.9551 4.08398 76.7793 4.33984 76.6621 4.66406C76.5488 4.98828 76.4922 5.35156 76.4922 5.75391C76.4922 6.14844 76.5488 6.50781 76.6621 6.83203C76.7793 7.15625 76.9551 7.41406 77.1895 7.60547C77.4238 7.79297 77.7148 7.88672 78.0625 7.88672ZM86.2246 6.25195V2.44922H87.7656V9H86.2715V7.83398H86.2012C86.0527 8.20117 85.8105 8.50195 85.4746 8.73633C85.1387 8.9707 84.7246 9.08594 84.2324 9.08203C83.8027 9.08203 83.4238 8.98828 83.0957 8.80078C82.7715 8.60938 82.5156 8.33008 82.3281 7.96289C82.1445 7.5918 82.0527 7.14453 82.0527 6.62109V2.44922H83.5938V6.38672C83.5938 6.79688 83.707 7.125 83.9336 7.37109C84.1641 7.61719 84.4648 7.73828 84.8359 7.73438C85.0625 7.73438 85.2812 7.67969 85.4922 7.57031C85.707 7.46094 85.8828 7.29688 86.0195 7.07812C86.1562 6.85938 86.2246 6.58398 86.2246 6.25195ZM90.4492 5.16797V9H88.9082V2.44922H90.4199V3.56836H90.4961C90.6445 3.20117 90.877 2.91016 91.1934 2.69531C91.5137 2.47656 91.9199 2.36719 92.4121 2.36719C92.8652 2.36719 93.2598 2.46289 93.5957 2.6543C93.9316 2.8457 94.1914 3.12695 94.375 3.49805C94.5625 3.86523 94.6562 4.31055 94.6562 4.83398V9H93.1152V5.07422C93.1152 4.63672 93.002 4.29492 92.7754 4.04883C92.5488 3.79883 92.2363 3.67383 91.8379 3.67383C91.5684 3.67383 91.3281 3.73242 91.1172 3.84961C90.9102 3.9668 90.7461 4.13672 90.625 4.35938C90.5078 4.57812 90.4492 4.84766 90.4492 5.16797ZM99.0625 2.44922V3.64453H95.3066V2.44922H99.0625ZM96.2266 0.890625H97.7676V7.03125C97.7676 7.28906 97.8242 7.48047 97.9375 7.60547C98.0508 7.72656 98.2305 7.78711 98.4766 7.78711C98.543 7.78711 98.6172 7.78125 98.6992 7.76953C98.7812 7.75781 98.8555 7.74414 98.9219 7.72852L99.1855 8.93555C99.0215 8.98633 98.8555 9.02344 98.6875 9.04688C98.5195 9.07422 98.3516 9.08789 98.1836 9.08789C97.5742 9.08789 97.0957 8.92773 96.748 8.60742C96.4004 8.2832 96.2266 7.8418 96.2266 7.2832V0.890625ZM107.787 9.31641L106.914 8.44922L109.539 5.81836H103.152V4.54688H109.539L106.914 1.91602L107.787 1.04297L111.918 5.17969L107.787 9.31641Z" fill="#22B5E9"/>
</svg>
