<svg width="18" height="17" viewBox="0 0 18 17" fill="none" xmlns="http://www.w3.org/2000/svg">
<path d="M17.5008 13.6946L10.6688 1.82974C10.4981 1.53906 10.2544 1.29803 9.96178 1.13057C9.66921 0.9631 9.33795 0.875 9.00084 0.875C8.66373 0.875 8.33247 0.9631 8.0399 1.13057C7.74732 1.29803 7.50359 1.53906 7.33287 1.82974L0.500838 13.6946C0.336569 13.9757 0.25 14.2955 0.25 14.6211C0.25 14.9468 0.336569 15.2665 0.500838 15.5477C0.669377 15.8401 0.91269 16.0825 1.20581 16.2498C1.49893 16.4172 1.83129 16.5036 2.16881 16.5001H15.8329C16.1701 16.5033 16.5022 16.4168 16.795 16.2494C17.0878 16.0821 17.3309 15.8399 17.4993 15.5477C17.6638 15.2667 17.7506 14.947 17.7509 14.6214C17.7512 14.2957 17.6649 13.9759 17.5008 13.6946ZM16.4172 14.9219C16.3577 15.0235 16.2722 15.1075 16.1695 15.1651C16.0668 15.2228 15.9506 15.2521 15.8329 15.2501H2.16881C2.05105 15.2521 1.93488 15.2228 1.83219 15.1651C1.7295 15.1075 1.64399 15.0235 1.58443 14.9219C1.53048 14.8306 1.50202 14.7264 1.50202 14.6204C1.50202 14.5143 1.53048 14.4101 1.58443 14.3188L8.41646 2.45396C8.47723 2.35284 8.56312 2.26917 8.6658 2.21108C8.76847 2.153 8.88443 2.12247 9.0024 2.12247C9.12037 2.12247 9.23633 2.153 9.339 2.21108C9.44168 2.26917 9.52758 2.35284 9.58834 2.45396L16.4204 14.3188C16.4738 14.4104 16.5018 14.5147 16.5012 14.6208C16.5007 14.7269 16.4717 14.8309 16.4172 14.9219ZM8.37584 10.2501V7.12505C8.37584 6.95929 8.44169 6.80032 8.5589 6.68311C8.67611 6.5659 8.83508 6.50005 9.00084 6.50005C9.1666 6.50005 9.32557 6.5659 9.44278 6.68311C9.55999 6.80032 9.62584 6.95929 9.62584 7.12505V10.2501C9.62584 10.4158 9.55999 10.5748 9.44278 10.692C9.32557 10.8092 9.1666 10.8751 9.00084 10.8751C8.83508 10.8751 8.67611 10.8092 8.5589 10.692C8.44169 10.5748 8.37584 10.4158 8.37584 10.2501ZM9.93834 13.0626C9.93834 13.248 9.88335 13.4292 9.78034 13.5834C9.67733 13.7376 9.53091 13.8577 9.3596 13.9287C9.1883 13.9996 8.9998 14.0182 8.81794 13.982C8.63608 13.9459 8.46904 13.8566 8.33792 13.7255C8.20681 13.5944 8.11753 13.4273 8.08135 13.2454C8.04518 13.0636 8.06374 12.8751 8.1347 12.7038C8.20566 12.5325 8.32582 12.3861 8.47999 12.283C8.63416 12.18 8.81542 12.1251 9.00084 12.1251C9.24948 12.1251 9.48794 12.2238 9.66375 12.3996C9.83957 12.5755 9.93834 12.8139 9.93834 13.0626Z" fill="#FF4747"/>
</svg>
