<svg width="133" height="12" viewBox="0 0 133 12" fill="none" xmlns="http://www.w3.org/2000/svg">
<path d="M4.5625 9.11719C3.79688 9.11719 3.11133 8.93945 2.50586 8.58398C1.9043 8.22852 1.42969 7.7168 1.08203 7.04883C0.738281 6.38086 0.566406 5.57812 0.566406 4.64062C0.566406 3.69922 0.740234 2.89453 1.08789 2.22656C1.43945 1.55469 1.91602 1.04102 2.51758 0.685547C3.12305 0.330078 3.80469 0.152344 4.5625 0.152344C5.04297 0.152344 5.49219 0.220703 5.91016 0.357422C6.33203 0.494141 6.70703 0.695312 7.03516 0.960938C7.36328 1.22266 7.63086 1.54492 7.83789 1.92773C8.04883 2.30664 8.1875 2.73828 8.25391 3.22266H6.66016C6.61719 2.95703 6.5332 2.72266 6.4082 2.51953C6.28711 2.31641 6.13477 2.14453 5.95117 2.00391C5.77148 1.85938 5.56641 1.75195 5.33594 1.68164C5.10547 1.60742 4.85742 1.57031 4.5918 1.57031C4.11523 1.57031 3.69336 1.68945 3.32617 1.92773C2.95898 2.16211 2.67188 2.50977 2.46484 2.9707C2.25781 3.42773 2.1543 3.98438 2.1543 4.64062C2.1543 5.30469 2.25781 5.86523 2.46484 6.32227C2.67578 6.77539 2.96289 7.11914 3.32617 7.35352C3.69336 7.58398 4.11328 7.69922 4.58594 7.69922C4.84766 7.69922 5.0918 7.66602 5.31836 7.59961C5.54492 7.5293 5.75 7.42578 5.93359 7.28906C6.12109 7.14844 6.27539 6.98047 6.39648 6.78516C6.52148 6.58594 6.60938 6.35742 6.66016 6.09961H8.25391C8.19531 6.51758 8.06641 6.91016 7.86719 7.27734C7.67188 7.64062 7.41406 7.96094 7.09375 8.23828C6.77734 8.51172 6.40625 8.72656 5.98047 8.88281C5.55469 9.03906 5.08203 9.11719 4.5625 9.11719ZM10.7441 5.16797V9H9.20312V0.269531H10.709V3.56836H10.791C10.9434 3.19727 11.1797 2.9043 11.5 2.68945C11.8203 2.47461 12.2324 2.36719 12.7363 2.36719C13.1895 2.36719 13.584 2.46289 13.9199 2.6543C14.2598 2.8457 14.5234 3.125 14.7109 3.49219C14.8984 3.85938 14.9922 4.30664 14.9922 4.83398V9H13.4453V5.07422C13.4453 4.62891 13.332 4.28516 13.1055 4.04297C12.8789 3.79688 12.5625 3.67383 12.1562 3.67383C11.8828 3.67383 11.6387 3.73242 11.4238 3.84961C11.2129 3.9668 11.0469 4.13672 10.9258 4.35938C10.8047 4.57812 10.7441 4.84766 10.7441 5.16797ZM18.543 9.11719C18.0312 9.11719 17.5723 8.98633 17.166 8.72461C16.7598 8.45898 16.4375 8.07422 16.1992 7.57031C15.9648 7.06641 15.8477 6.45508 15.8477 5.73633C15.8477 5.00586 15.9668 4.39062 16.2051 3.89062C16.4473 3.39062 16.7734 3.01172 17.1836 2.75391C17.5938 2.49609 18.0508 2.36719 18.5547 2.36719C18.9375 2.36719 19.252 2.43164 19.498 2.56055C19.7441 2.68945 19.9395 2.8457 20.084 3.0293C20.2324 3.20898 20.3457 3.37695 20.4238 3.5332H20.4941V2.44922H22.0293V9H20.5176V7.96289H20.4238C20.3457 8.12305 20.2305 8.29297 20.0781 8.47266C19.9297 8.64844 19.7305 8.80078 19.4805 8.92969C19.2344 9.05469 18.9219 9.11719 18.543 9.11719ZM18.9766 7.85156C19.3086 7.85156 19.5879 7.76367 19.8145 7.58789C20.041 7.4082 20.2148 7.16016 20.3359 6.84375C20.457 6.52344 20.5176 6.15234 20.5176 5.73047C20.5176 5.30469 20.459 4.93555 20.3418 4.62305C20.2246 4.30664 20.0508 4.0625 19.8203 3.89062C19.5898 3.71875 19.3086 3.63281 18.9766 3.63281C18.6328 3.63281 18.3457 3.72266 18.1152 3.90234C17.8848 4.08203 17.7109 4.33008 17.5938 4.64648C17.4805 4.96289 17.4238 5.32422 17.4238 5.73047C17.4238 6.13672 17.4824 6.5 17.5996 6.82031C17.7168 7.14062 17.8906 7.39258 18.1211 7.57617C18.3555 7.75977 18.6406 7.85156 18.9766 7.85156ZM24.7129 5.16797V9H23.1719V2.44922H24.6836V3.56836H24.7598C24.9082 3.20117 25.1406 2.91016 25.457 2.69531C25.7773 2.47656 26.1836 2.36719 26.6758 2.36719C27.1289 2.36719 27.5234 2.46289 27.8594 2.6543C28.1953 2.8457 28.4551 3.12695 28.6387 3.49805C28.8262 3.86523 28.9199 4.31055 28.9199 4.83398V9H27.3789V5.07422C27.3789 4.63672 27.2656 4.29492 27.0391 4.04883C26.8125 3.79883 26.5 3.67383 26.1016 3.67383C25.832 3.67383 25.5918 3.73242 25.3809 3.84961C25.1738 3.9668 25.0098 4.13672 24.8887 4.35938C24.7715 4.57812 24.7129 4.84766 24.7129 5.16797ZM32.8984 11.5898C32.0664 11.5898 31.4121 11.4277 30.9355 11.1035C30.459 10.7832 30.1523 10.3945 30.0156 9.9375L31.3984 9.59766C31.4609 9.72656 31.5527 9.85352 31.6738 9.97852C31.7949 10.1074 31.957 10.2129 32.1602 10.2949C32.3633 10.3809 32.6191 10.4238 32.9277 10.4238C33.3652 10.4238 33.7266 10.3164 34.0117 10.1016C34.3008 9.89062 34.4453 9.54492 34.4453 9.06445V7.82812H34.3574C34.2832 7.98438 34.1699 8.14648 34.0176 8.31445C33.8652 8.47852 33.6641 8.61914 33.4141 8.73633C33.168 8.84961 32.8555 8.90625 32.4766 8.90625C31.9766 8.90625 31.5215 8.78711 31.1113 8.54883C30.7051 8.31055 30.3809 7.95508 30.1387 7.48242C29.9004 7.00977 29.7812 6.41797 29.7812 5.70703C29.7812 4.98828 29.9004 4.38086 30.1387 3.88477C30.3809 3.38867 30.707 3.01172 31.1172 2.75391C31.5273 2.49609 31.9844 2.36719 32.4883 2.36719C32.8711 2.36719 33.1875 2.43164 33.4375 2.56055C33.6875 2.68945 33.8867 2.8457 34.0352 3.0293C34.1836 3.20898 34.2988 3.37695 34.3809 3.5332H34.4629V2.44922H35.9688V9.10547C35.9688 9.66406 35.8359 10.127 35.5703 10.4941C35.3047 10.8613 34.9395 11.1348 34.4746 11.3145C34.0137 11.498 33.4883 11.5898 32.8984 11.5898ZM32.9102 7.69336C33.4023 7.69336 33.7812 7.51758 34.0469 7.16602C34.3164 6.81055 34.4512 6.32031 34.4512 5.69531C34.4512 5.28125 34.3926 4.91992 34.2754 4.61133C34.1582 4.30273 33.9844 4.0625 33.7539 3.89062C33.5234 3.71875 33.2422 3.63281 32.9102 3.63281C32.5664 3.63281 32.2793 3.72266 32.0488 3.90234C31.8184 4.08203 31.6445 4.32812 31.5273 4.64062C31.4141 4.94922 31.3574 5.30078 31.3574 5.69531C31.3574 6.09375 31.416 6.44336 31.5332 6.74414C31.6504 7.04492 31.8242 7.2793 32.0547 7.44727C32.2891 7.61133 32.5742 7.69336 32.9102 7.69336ZM40.0059 9.12891C39.3496 9.12891 38.7832 8.99219 38.3066 8.71875C37.8301 8.44141 37.4629 8.05078 37.2051 7.54688C36.9512 7.04297 36.8242 6.44922 36.8242 5.76562C36.8242 5.08984 36.9512 4.49805 37.2051 3.99023C37.459 3.47852 37.8164 3.08008 38.2773 2.79492C38.7383 2.50977 39.2812 2.36719 39.9062 2.36719C40.3086 2.36719 40.6895 2.43164 41.0488 2.56055C41.4121 2.68945 41.7324 2.88867 42.0098 3.1582C42.291 3.42773 42.5117 3.77148 42.6719 4.18945C42.832 4.60352 42.9121 5.09766 42.9121 5.67188V6.15234H37.5449V5.11523H42.1445L41.4238 5.41992C41.4238 5.04883 41.3672 4.72656 41.2539 4.45312C41.1406 4.17578 40.9727 3.95898 40.75 3.80273C40.5273 3.64648 40.25 3.56836 39.918 3.56836C39.5859 3.56836 39.3027 3.64648 39.0684 3.80273C38.834 3.95898 38.6562 4.16992 38.5352 4.43555C38.4141 4.69727 38.3535 4.99023 38.3535 5.31445V6.03516C38.3535 6.43359 38.4219 6.77539 38.5586 7.06055C38.6992 7.3418 38.8945 7.55664 39.1445 7.70508C39.3984 7.85352 39.6934 7.92773 40.0293 7.92773C40.248 7.92773 40.4473 7.89648 40.627 7.83398C40.8105 7.77148 40.9668 7.67773 41.0957 7.55273C41.2285 7.42383 41.3301 7.26562 41.4004 7.07812L42.8418 7.24805C42.748 7.62695 42.5742 7.95898 42.3203 8.24414C42.0703 8.52539 41.748 8.74414 41.3535 8.90039C40.9629 9.05273 40.5137 9.12891 40.0059 9.12891ZM49.7559 9.11719C49.3848 9.11719 49.0742 9.05469 48.8242 8.92969C48.5781 8.80078 48.3789 8.64844 48.2266 8.47266C48.0781 8.29297 47.9648 8.12305 47.8867 7.96289H47.793V9H46.2812V0.269531H47.8223V3.5332H47.8867C47.9648 3.37695 48.0762 3.20898 48.2207 3.0293C48.3652 2.8457 48.5605 2.68945 48.8066 2.56055C49.0566 2.43164 49.375 2.36719 49.7617 2.36719C50.2656 2.36719 50.7207 2.49609 51.127 2.75391C51.5332 3.01172 51.8555 3.39062 52.0938 3.89062C52.3359 4.39062 52.457 5.00586 52.457 5.73633C52.457 6.45508 52.3398 7.06641 52.1055 7.57031C51.8711 8.07422 51.5488 8.45898 51.1387 8.72461C50.7324 8.98633 50.2715 9.11719 49.7559 9.11719ZM49.334 7.85156C49.6738 7.85156 49.957 7.75977 50.1836 7.57617C50.4141 7.39258 50.5879 7.14062 50.7051 6.82031C50.8223 6.5 50.8809 6.13672 50.8809 5.73047C50.8809 5.32422 50.8223 4.96289 50.7051 4.64648C50.5879 4.33008 50.416 4.08203 50.1895 3.90234C49.9629 3.72266 49.6777 3.63281 49.334 3.63281C49.002 3.63281 48.7207 3.71875 48.4902 3.89062C48.2637 4.0625 48.0898 4.30664 47.9688 4.62305C47.8516 4.93555 47.793 5.30469 47.793 5.73047C47.793 6.15234 47.8516 6.52344 47.9688 6.84375C48.0898 7.16016 48.2656 7.4082 48.4961 7.58789C48.7266 7.76367 49.0059 7.85156 49.334 7.85156ZM55.7266 9.11719C55.2148 9.11719 54.7559 8.98633 54.3496 8.72461C53.9434 8.45898 53.6211 8.07422 53.3828 7.57031C53.1484 7.06641 53.0312 6.45508 53.0312 5.73633C53.0312 5.00586 53.1504 4.39062 53.3887 3.89062C53.6309 3.39062 53.957 3.01172 54.3672 2.75391C54.7773 2.49609 55.2344 2.36719 55.7383 2.36719C56.1211 2.36719 56.4355 2.43164 56.6816 2.56055C56.9277 2.68945 57.123 2.8457 57.2676 3.0293C57.416 3.20898 57.5293 3.37695 57.6074 3.5332H57.6777V2.44922H59.2129V9H57.7012V7.96289H57.6074C57.5293 8.12305 57.4141 8.29297 57.2617 8.47266C57.1133 8.64844 56.9141 8.80078 56.6641 8.92969C56.418 9.05469 56.1055 9.11719 55.7266 9.11719ZM56.1602 7.85156C56.4922 7.85156 56.7715 7.76367 56.998 7.58789C57.2246 7.4082 57.3984 7.16016 57.5195 6.84375C57.6406 6.52344 57.7012 6.15234 57.7012 5.73047C57.7012 5.30469 57.6426 4.93555 57.5254 4.62305C57.4082 4.30664 57.2344 4.0625 57.0039 3.89062C56.7734 3.71875 56.4922 3.63281 56.1602 3.63281C55.8164 3.63281 55.5293 3.72266 55.2988 3.90234C55.0684 4.08203 54.8945 4.33008 54.7773 4.64648C54.6641 4.96289 54.6074 5.32422 54.6074 5.73047C54.6074 6.13672 54.666 6.5 54.7832 6.82031C54.9004 7.14062 55.0742 7.39258 55.3047 7.57617C55.5391 7.75977 55.8242 7.85156 56.1602 7.85156ZM61.8965 5.16797V9H60.3555V2.44922H61.8672V3.56836H61.9434C62.0918 3.20117 62.3242 2.91016 62.6406 2.69531C62.9609 2.47656 63.3672 2.36719 63.8594 2.36719C64.3125 2.36719 64.707 2.46289 65.043 2.6543C65.3789 2.8457 65.6387 3.12695 65.8223 3.49805C66.0098 3.86523 66.1035 4.31055 66.1035 4.83398V9H64.5625V5.07422C64.5625 4.63672 64.4492 4.29492 64.2227 4.04883C63.9961 3.79883 63.6836 3.67383 63.2852 3.67383C63.0156 3.67383 62.7754 3.73242 62.5645 3.84961C62.3574 3.9668 62.1934 4.13672 62.0723 4.35938C61.9551 4.57812 61.8965 4.84766 61.8965 5.16797ZM68.6523 6.94922L68.6465 5.08008H68.8984L71.248 2.44922H73.0527L70.1582 5.67773H69.8359L68.6523 6.94922ZM67.2461 9V0.269531H68.7871V9H67.2461ZM71.3535 9L69.2207 6.02344L70.2637 4.93359L73.1992 9H71.3535ZM78.5664 9.11719C78.0547 9.11719 77.5957 8.98633 77.1895 8.72461C76.7832 8.45898 76.4609 8.07422 76.2227 7.57031C75.9883 7.06641 75.8711 6.45508 75.8711 5.73633C75.8711 5.00586 75.9902 4.39062 76.2285 3.89062C76.4707 3.39062 76.7969 3.01172 77.207 2.75391C77.6172 2.49609 78.0742 2.36719 78.5781 2.36719C78.9609 2.36719 79.2754 2.43164 79.5215 2.56055C79.7676 2.68945 79.9629 2.8457 80.1074 3.0293C80.2559 3.20898 80.3691 3.37695 80.4473 3.5332H80.5176V2.44922H82.0527V9H80.541V7.96289H80.4473C80.3691 8.12305 80.2539 8.29297 80.1016 8.47266C79.9531 8.64844 79.7539 8.80078 79.5039 8.92969C79.2578 9.05469 78.9453 9.11719 78.5664 9.11719ZM79 7.85156C79.332 7.85156 79.6113 7.76367 79.8379 7.58789C80.0645 7.4082 80.2383 7.16016 80.3594 6.84375C80.4805 6.52344 80.541 6.15234 80.541 5.73047C80.541 5.30469 80.4824 4.93555 80.3652 4.62305C80.248 4.30664 80.0742 4.0625 79.8438 3.89062C79.6133 3.71875 79.332 3.63281 79 3.63281C78.6562 3.63281 78.3691 3.72266 78.1387 3.90234C77.9082 4.08203 77.7344 4.33008 77.6172 4.64648C77.5039 4.96289 77.4473 5.32422 77.4473 5.73047C77.4473 6.13672 77.5059 6.5 77.623 6.82031C77.7402 7.14062 77.9141 7.39258 78.1445 7.57617C78.3789 7.75977 78.6641 7.85156 79 7.85156ZM86.0488 9.12891C85.3965 9.12891 84.8359 8.98633 84.3672 8.70117C83.8984 8.41211 83.5391 8.01367 83.2891 7.50586C83.0391 6.99805 82.9141 6.41406 82.9141 5.75391C82.9141 5.08594 83.041 4.49805 83.2949 3.99023C83.5488 3.48242 83.9102 3.08594 84.3789 2.80078C84.8477 2.51172 85.4004 2.36719 86.0371 2.36719C86.5723 2.36719 87.0449 2.46484 87.4551 2.66016C87.8652 2.85547 88.1914 3.13086 88.4336 3.48633C88.6797 3.83789 88.8203 4.25 88.8555 4.72266H87.3789C87.3398 4.51172 87.2637 4.32227 87.1504 4.1543C87.0371 3.98633 86.8887 3.85352 86.7051 3.75586C86.5254 3.6582 86.3105 3.60938 86.0605 3.60938C85.7441 3.60938 85.4668 3.69531 85.2285 3.86719C84.9941 4.03516 84.8105 4.27734 84.6777 4.59375C84.5449 4.91016 84.4785 5.28906 84.4785 5.73047C84.4785 6.17578 84.543 6.56055 84.6719 6.88477C84.8008 7.20508 84.9844 7.45312 85.2227 7.62891C85.4609 7.80078 85.7402 7.88672 86.0605 7.88672C86.4004 7.88672 86.6875 7.78711 86.9219 7.58789C87.1602 7.38867 87.3125 7.11328 87.3789 6.76172H88.8555C88.8203 7.22656 88.6836 7.63672 88.4453 7.99219C88.207 8.34766 87.8848 8.62695 87.4785 8.83008C87.0723 9.0293 86.5957 9.12891 86.0488 9.12891ZM92.541 9.12891C91.8887 9.12891 91.3281 8.98633 90.8594 8.70117C90.3906 8.41211 90.0312 8.01367 89.7812 7.50586C89.5312 6.99805 89.4062 6.41406 89.4062 5.75391C89.4062 5.08594 89.5332 4.49805 89.7871 3.99023C90.041 3.48242 90.4023 3.08594 90.8711 2.80078C91.3398 2.51172 91.8926 2.36719 92.5293 2.36719C93.0645 2.36719 93.5371 2.46484 93.9473 2.66016C94.3574 2.85547 94.6836 3.13086 94.9258 3.48633C95.1719 3.83789 95.3125 4.25 95.3477 4.72266H93.8711C93.832 4.51172 93.7559 4.32227 93.6426 4.1543C93.5293 3.98633 93.3809 3.85352 93.1973 3.75586C93.0176 3.6582 92.8027 3.60938 92.5527 3.60938C92.2363 3.60938 91.959 3.69531 91.7207 3.86719C91.4863 4.03516 91.3027 4.27734 91.1699 4.59375C91.0371 4.91016 90.9707 5.28906 90.9707 5.73047C90.9707 6.17578 91.0352 6.56055 91.1641 6.88477C91.293 7.20508 91.4766 7.45312 91.7148 7.62891C91.9531 7.80078 92.2324 7.88672 92.5527 7.88672C92.8926 7.88672 93.1797 7.78711 93.4141 7.58789C93.6523 7.38867 93.8047 7.11328 93.8711 6.76172H95.3477C95.3125 7.22656 95.1758 7.63672 94.9375 7.99219C94.6992 8.34766 94.377 8.62695 93.9707 8.83008C93.5645 9.0293 93.0879 9.12891 92.541 9.12891ZM99.0332 9.12891C98.3926 9.12891 97.8379 8.98828 97.3691 8.70703C96.9004 8.42578 96.5371 8.03125 96.2793 7.52344C96.0254 7.01562 95.8984 6.42578 95.8984 5.75391C95.8984 5.07812 96.0254 4.48633 96.2793 3.97852C96.5371 3.4668 96.9004 3.07031 97.3691 2.78906C97.8379 2.50781 98.3926 2.36719 99.0332 2.36719C99.6738 2.36719 100.229 2.50781 100.697 2.78906C101.166 3.07031 101.529 3.4668 101.787 3.97852C102.045 4.48633 102.174 5.07812 102.174 5.75391C102.174 6.42578 102.045 7.01562 101.787 7.52344C101.529 8.03125 101.166 8.42578 100.697 8.70703C100.229 8.98828 99.6738 9.12891 99.0332 9.12891ZM99.0332 7.88672C99.3887 7.88672 99.6816 7.79297 99.9121 7.60547C100.143 7.41406 100.314 7.15625 100.428 6.83203C100.545 6.50781 100.604 6.14844 100.604 5.75391C100.604 5.35156 100.545 4.98828 100.428 4.66406C100.314 4.33984 100.143 4.08398 99.9121 3.89648C99.6816 3.70508 99.3887 3.60938 99.0332 3.60938C98.6855 3.60938 98.3945 3.70508 98.1602 3.89648C97.9258 4.08398 97.75 4.33984 97.6328 4.66406C97.5195 4.98828 97.4629 5.35156 97.4629 5.75391C97.4629 6.14844 97.5195 6.50781 97.6328 6.83203C97.75 7.15625 97.9258 7.41406 98.1602 7.60547C98.3945 7.79297 98.6855 7.88672 99.0332 7.88672ZM107.195 6.25195V2.44922H108.736V9H107.242V7.83398H107.172C107.023 8.20117 106.781 8.50195 106.445 8.73633C106.109 8.9707 105.695 9.08594 105.203 9.08203C104.773 9.08203 104.395 8.98828 104.066 8.80078C103.742 8.60938 103.486 8.33008 103.299 7.96289C103.115 7.5918 103.023 7.14453 103.023 6.62109V2.44922H104.564V6.38672C104.564 6.79688 104.678 7.125 104.904 7.37109C105.135 7.61719 105.436 7.73828 105.807 7.73438C106.033 7.73438 106.252 7.67969 106.463 7.57031C106.678 7.46094 106.854 7.29688 106.99 7.07812C107.127 6.85938 107.195 6.58398 107.195 6.25195ZM111.42 5.16797V9H109.879V2.44922H111.391V3.56836H111.467C111.615 3.20117 111.848 2.91016 112.164 2.69531C112.484 2.47656 112.891 2.36719 113.383 2.36719C113.836 2.36719 114.23 2.46289 114.566 2.6543C114.902 2.8457 115.162 3.12695 115.346 3.49805C115.533 3.86523 115.627 4.31055 115.627 4.83398V9H114.086V5.07422C114.086 4.63672 113.973 4.29492 113.746 4.04883C113.52 3.79883 113.207 3.67383 112.809 3.67383C112.539 3.67383 112.299 3.73242 112.088 3.84961C111.881 3.9668 111.717 4.13672 111.596 4.35938C111.479 4.57812 111.42 4.84766 111.42 5.16797ZM120.033 2.44922V3.64453H116.277V2.44922H120.033ZM117.197 0.890625H118.738V7.03125C118.738 7.28906 118.795 7.48047 118.908 7.60547C119.021 7.72656 119.201 7.78711 119.447 7.78711C119.514 7.78711 119.588 7.78125 119.67 7.76953C119.752 7.75781 119.826 7.74414 119.893 7.72852L120.156 8.93555C119.992 8.98633 119.826 9.02344 119.658 9.04688C119.49 9.07422 119.322 9.08789 119.154 9.08789C118.545 9.08789 118.066 8.92773 117.719 8.60742C117.371 8.2832 117.197 7.8418 117.197 7.2832V0.890625ZM128.758 9.31641L127.885 8.44922L130.51 5.81836H124.123V4.54688H130.51L127.885 1.91602L128.758 1.04297L132.889 5.17969L128.758 9.31641Z" fill="#22B5E9"/>
</svg>
