<svg width="17" height="17" viewBox="0 0 17 17" fill="none" xmlns="http://www.w3.org/2000/svg">
<path d="M13.354 12.4258C13.4005 12.4723 13.4373 12.5274 13.4625 12.5881C13.4876 12.6488 13.5006 12.7139 13.5006 12.7796C13.5006 12.8453 13.4876 12.9103 13.4625 12.971C13.4373 13.0317 13.4005 13.0869 13.354 13.1333C13.3076 13.1798 13.2524 13.2166 13.1917 13.2418C13.131 13.2669 13.066 13.2799 13.0003 13.2799C12.9346 13.2799 12.8695 13.2669 12.8088 13.2418C12.7481 13.2166 12.693 13.1798 12.6465 13.1333L8.50028 8.98645L4.35403 13.1333C4.26021 13.2271 4.13296 13.2799 4.00028 13.2799C3.8676 13.2799 3.74035 13.2271 3.64653 13.1333C3.55271 13.0395 3.5 12.9123 3.5 12.7796C3.5 12.6469 3.55271 12.5196 3.64653 12.4258L7.7934 8.27957L3.64653 4.13332C3.55271 4.0395 3.5 3.91226 3.5 3.77957C3.5 3.64689 3.55271 3.51965 3.64653 3.42582C3.74035 3.332 3.8676 3.2793 4.00028 3.2793C4.13296 3.2793 4.26021 3.332 4.35403 3.42582L8.50028 7.5727L12.6465 3.42582C12.7403 3.332 12.8676 3.2793 13.0003 3.2793C13.133 3.2793 13.2602 3.332 13.354 3.42582C13.4478 3.51965 13.5006 3.64689 13.5006 3.77957C13.5006 3.91226 13.4478 4.0395 13.354 4.13332L9.20715 8.27957L13.354 12.4258Z" fill="#1A202C" fill-opacity="0.2"/>
</svg>
