<svg width="54" height="13" viewBox="0 0 54 13" fill="none" xmlns="http://www.w3.org/2000/svg">
<path d="M2.98242 10H0.767578V8.62891H2.90039C3.50586 8.62891 4.01172 8.51953 4.41797 8.30078C4.82812 8.07812 5.13477 7.74414 5.33789 7.29883C5.54492 6.85352 5.64844 6.29688 5.64844 5.62891C5.64844 4.96094 5.54688 4.40625 5.34375 3.96484C5.14062 3.52344 4.83789 3.19336 4.43555 2.97461C4.0332 2.75195 3.53516 2.64062 2.94141 2.64062H0.720703V1.26953H3.03516C3.90234 1.26953 4.64648 1.44336 5.26758 1.79102C5.89258 2.13867 6.37305 2.63867 6.70898 3.29102C7.04492 3.94336 7.21289 4.72266 7.21289 5.62891C7.21289 6.53516 7.04492 7.31641 6.70898 7.97266C6.37305 8.625 5.88867 9.12695 5.25586 9.47852C4.62695 9.82617 3.86914 10 2.98242 10ZM1.59961 1.26953V10H0.0175781V1.26953H1.59961ZM11.0918 10.1289C10.4355 10.1289 9.86914 9.99219 9.39258 9.71875C8.91602 9.44141 8.54883 9.05078 8.29102 8.54688C8.03711 8.04297 7.91016 7.44922 7.91016 6.76562C7.91016 6.08984 8.03711 5.49805 8.29102 4.99023C8.54492 4.47852 8.90234 4.08008 9.36328 3.79492C9.82422 3.50977 10.3672 3.36719 10.9922 3.36719C11.3945 3.36719 11.7754 3.43164 12.1348 3.56055C12.498 3.68945 12.8184 3.88867 13.0957 4.1582C13.377 4.42773 13.5977 4.77148 13.7578 5.18945C13.918 5.60352 13.998 6.09766 13.998 6.67188V7.15234H8.63086V6.11523H13.2305L12.5098 6.41992C12.5098 6.04883 12.4531 5.72656 12.3398 5.45312C12.2266 5.17578 12.0586 4.95898 11.8359 4.80273C11.6133 4.64648 11.3359 4.56836 11.0039 4.56836C10.6719 4.56836 10.3887 4.64648 10.1543 4.80273C9.91992 4.95898 9.74219 5.16992 9.62109 5.43555C9.5 5.69727 9.43945 5.99023 9.43945 6.31445V7.03516C9.43945 7.43359 9.50781 7.77539 9.64453 8.06055C9.78516 8.3418 9.98047 8.55664 10.2305 8.70508C10.4844 8.85352 10.7793 8.92773 11.1152 8.92773C11.334 8.92773 11.5332 8.89648 11.7129 8.83398C11.8965 8.77148 12.0527 8.67773 12.1816 8.55273C12.3145 8.42383 12.416 8.26562 12.4863 8.07812L13.9277 8.24805C13.834 8.62695 13.6602 8.95898 13.4062 9.24414C13.1562 9.52539 12.834 9.74414 12.4395 9.90039C12.0488 10.0527 11.5996 10.1289 11.0918 10.1289ZM14.8359 12.4492V3.44922H16.3477V4.5332H16.4414C16.5195 4.37695 16.6309 4.20898 16.7754 4.0293C16.9199 3.8457 17.1152 3.68945 17.3613 3.56055C17.6113 3.43164 17.9297 3.36719 18.3164 3.36719C18.8203 3.36719 19.2754 3.49609 19.6816 3.75391C20.0879 4.01172 20.4102 4.39062 20.6484 4.89062C20.8906 5.39062 21.0117 6.00586 21.0117 6.73633C21.0117 7.45508 20.8945 8.06641 20.6602 8.57031C20.4258 9.07422 20.1035 9.45898 19.6934 9.72461C19.2871 9.98633 18.8262 10.1172 18.3105 10.1172C17.9395 10.1172 17.6289 10.0547 17.3789 9.92969C17.1328 9.80078 16.9336 9.64844 16.7812 9.47266C16.6328 9.29297 16.5195 9.12305 16.4414 8.96289H16.377V12.4492H14.8359ZM17.8887 8.85156C18.2285 8.85156 18.5117 8.75977 18.7383 8.57617C18.9688 8.39258 19.1426 8.14062 19.2598 7.82031C19.377 7.5 19.4355 7.13672 19.4355 6.73047C19.4355 6.32422 19.377 5.96289 19.2598 5.64648C19.1426 5.33008 18.9707 5.08203 18.7441 4.90234C18.5176 4.72266 18.2324 4.63281 17.8887 4.63281C17.5566 4.63281 17.2754 4.71875 17.0449 4.89062C16.8184 5.0625 16.6445 5.30664 16.5234 5.62305C16.4062 5.93555 16.3477 6.30469 16.3477 6.73047C16.3477 7.15234 16.4062 7.52344 16.5234 7.84375C16.6445 8.16016 16.8203 8.4082 17.0508 8.58789C17.2812 8.76367 17.5605 8.85156 17.8887 8.85156ZM24.7207 10.1289C24.0801 10.1289 23.5254 9.98828 23.0566 9.70703C22.5879 9.42578 22.2246 9.03125 21.9668 8.52344C21.7129 8.01562 21.5859 7.42578 21.5859 6.75391C21.5859 6.07812 21.7129 5.48633 21.9668 4.97852C22.2246 4.4668 22.5879 4.07031 23.0566 3.78906C23.5254 3.50781 24.0801 3.36719 24.7207 3.36719C25.3613 3.36719 25.916 3.50781 26.3848 3.78906C26.8535 4.07031 27.2168 4.4668 27.4746 4.97852C27.7324 5.48633 27.8613 6.07812 27.8613 6.75391C27.8613 7.42578 27.7324 8.01562 27.4746 8.52344C27.2168 9.03125 26.8535 9.42578 26.3848 9.70703C25.916 9.98828 25.3613 10.1289 24.7207 10.1289ZM24.7207 8.88672C25.0762 8.88672 25.3691 8.79297 25.5996 8.60547C25.8301 8.41406 26.002 8.15625 26.1152 7.83203C26.2324 7.50781 26.291 7.14844 26.291 6.75391C26.291 6.35156 26.2324 5.98828 26.1152 5.66406C26.002 5.33984 25.8301 5.08398 25.5996 4.89648C25.3691 4.70508 25.0762 4.60938 24.7207 4.60938C24.373 4.60938 24.082 4.70508 23.8477 4.89648C23.6133 5.08398 23.4375 5.33984 23.3203 5.66406C23.207 5.98828 23.1504 6.35156 23.1504 6.75391C23.1504 7.14844 23.207 7.50781 23.3203 7.83203C23.4375 8.15625 23.6133 8.41406 23.8477 8.60547C24.082 8.79297 24.373 8.88672 24.7207 8.88672ZM33.8789 5.18945L32.4785 5.33594C32.4199 5.12109 32.293 4.93164 32.0977 4.76758C31.9023 4.59961 31.627 4.51562 31.2715 4.51562C30.9512 4.51562 30.6816 4.58594 30.4629 4.72656C30.248 4.86719 30.1406 5.04688 30.1406 5.26562C30.1406 5.45703 30.2109 5.61523 30.3516 5.74023C30.4961 5.86133 30.7344 5.95898 31.0664 6.0332L32.1855 6.26758C32.7988 6.39648 33.2578 6.60742 33.5625 6.90039C33.8672 7.19336 34.0195 7.57227 34.0195 8.03711C34.0195 8.44727 33.9004 8.81055 33.6621 9.12695C33.4238 9.44336 33.0938 9.68945 32.6719 9.86523C32.2539 10.041 31.7715 10.1289 31.2246 10.1289C30.4238 10.1289 29.7793 9.96094 29.291 9.625C28.8066 9.28516 28.5156 8.81445 28.418 8.21289L29.9238 8.07227C29.9902 8.36523 30.1348 8.58789 30.3574 8.74023C30.584 8.88867 30.873 8.96289 31.2246 8.96289C31.5918 8.96289 31.8867 8.88867 32.1094 8.74023C32.332 8.58789 32.4434 8.40234 32.4434 8.18359C32.4434 7.81641 32.1504 7.56641 31.5645 7.43359L30.4453 7.19922C29.8164 7.0625 29.3516 6.8418 29.0508 6.53711C28.75 6.22852 28.5996 5.83594 28.5996 5.35938C28.5996 4.95312 28.7109 4.60156 28.9336 4.30469C29.1562 4.00781 29.4668 3.77734 29.8652 3.61328C30.2637 3.44922 30.7246 3.36719 31.248 3.36719C32.0176 3.36719 32.6211 3.5332 33.0586 3.86523C33.5 4.19336 33.7734 4.63477 33.8789 5.18945ZM34.8516 10V3.44922H36.3926V10H34.8516ZM35.625 2.5293C35.3789 2.5293 35.168 2.44727 34.9922 2.2832C34.8164 2.11914 34.7285 1.92188 34.7285 1.69141C34.7285 1.45703 34.8164 1.25781 34.9922 1.09375C35.168 0.929688 35.3789 0.847656 35.625 0.847656C35.8672 0.847656 36.0762 0.929688 36.252 1.09375C36.4277 1.25781 36.5156 1.45508 36.5156 1.68555C36.5156 1.91992 36.4277 2.11914 36.252 2.2832C36.0762 2.44727 35.8672 2.5293 35.625 2.5293ZM40.7988 3.44922V4.64453H37.043V3.44922H40.7988ZM37.9629 1.89062H39.5039V8.03125C39.5039 8.28906 39.5605 8.48047 39.6738 8.60547C39.7871 8.72656 39.9668 8.78711 40.2129 8.78711C40.2793 8.78711 40.3535 8.78125 40.4355 8.76953C40.5176 8.75781 40.5918 8.74414 40.6582 8.72852L40.9219 9.93555C40.7578 9.98633 40.5918 10.0234 40.4238 10.0469C40.2559 10.0742 40.0879 10.0879 39.9199 10.0879C39.3105 10.0879 38.832 9.92773 38.4844 9.60742C38.1367 9.2832 37.9629 8.8418 37.9629 8.2832V1.89062ZM49.5234 10.3164L48.6504 9.44922L51.2754 6.81836H44.8887V5.54688H51.2754L48.6504 2.91602L49.5234 2.04297L53.6543 6.17969L49.5234 10.3164Z" fill="#22B5E9"/>
</svg>
