<svg width="31" height="22" viewBox="0 0 31 22" fill="none" xmlns="http://www.w3.org/2000/svg">
<path d="M22.5 6.19625V5.5C22.5 2.365 17.7712 0 11.5 0C5.22875 0 0.5 2.365 0.5 5.5V10.5C0.5 13.1112 3.78125 15.1863 8.5 15.8075V16.5C8.5 19.635 13.2288 22 19.5 22C25.7712 22 30.5 19.635 30.5 16.5V11.5C30.5 8.9125 27.3225 6.835 22.5 6.19625ZM6.5 13.3587C4.05125 12.675 2.5 11.5487 2.5 10.5V8.74125C3.52 9.46375 4.88625 10.0463 6.5 10.4375V13.3587ZM16.5 10.4375C18.1138 10.0463 19.48 9.46375 20.5 8.74125V10.5C20.5 11.5487 18.9487 12.675 16.5 13.3587V10.4375ZM14.5 19.3587C12.0513 18.675 10.5 17.5487 10.5 16.5V15.9788C10.8287 15.9913 11.1613 16 11.5 16C11.985 16 12.4587 15.9837 12.9237 15.9562C13.4403 16.1412 13.9665 16.2981 14.5 16.4263V19.3587ZM14.5 13.7812C13.5068 13.928 12.504 14.0011 11.5 14C10.496 14.0011 9.49324 13.928 8.5 13.7812V10.8075C9.49472 10.9371 10.4969 11.0014 11.5 11C12.5031 11.0014 13.5053 10.9371 14.5 10.8075V13.7812ZM22.5 19.7812C20.5106 20.0729 18.4894 20.0729 16.5 19.7812V16.8C17.4944 16.9337 18.4967 17.0005 19.5 17C20.5031 17.0014 21.5053 16.9371 22.5 16.8075V19.7812ZM28.5 16.5C28.5 17.5487 26.9487 18.675 24.5 19.3587V16.4375C26.1138 16.0462 27.48 15.4637 28.5 14.7412V16.5Z" fill="white"/>
</svg>
