<svg width="32" height="32" viewBox="0 0 32 32" fill="none" xmlns="http://www.w3.org/2000/svg">
<rect x="0.5" y="0.5" width="31" height="31" rx="15.5" stroke="#1A202C" stroke-opacity="0.05"/>
<path d="M22.4324 21.25C21.4806 19.6044 20.0137 18.4244 18.3018 17.865C19.1486 17.3609 19.8065 16.5928 20.1744 15.6786C20.5424 14.7644 20.6001 13.7547 20.3387 12.8046C20.0773 11.8544 19.5112 11.0164 18.7274 10.4191C17.9436 9.82178 16.9854 9.49829 15.9999 9.49829C15.0145 9.49829 14.0563 9.82178 13.2724 10.4191C12.4886 11.0164 11.9225 11.8544 11.6611 12.8046C11.3997 13.7547 11.4574 14.7644 11.8254 15.6786C12.1934 16.5928 12.8513 17.3609 13.6981 17.865C11.9862 18.4237 10.5193 19.6037 9.56743 21.25C9.53252 21.3069 9.50936 21.3702 9.49933 21.4363C9.4893 21.5023 9.49259 21.5696 9.509 21.6343C9.52542 21.6991 9.55463 21.7598 9.59492 21.8131C9.63521 21.8663 9.68575 21.911 9.74357 21.9444C9.80138 21.9778 9.8653 21.9992 9.93156 22.0075C9.99781 22.0158 10.065 22.0108 10.1293 21.9926C10.1936 21.9745 10.2536 21.9437 10.3057 21.902C10.3579 21.8604 10.4012 21.8087 10.4331 21.75C11.6106 19.715 13.6918 18.5 15.9999 18.5C18.3081 18.5 20.3893 19.715 21.5668 21.75C21.5987 21.8087 21.642 21.8604 21.6941 21.902C21.7463 21.9437 21.8063 21.9745 21.8705 21.9926C21.9348 22.0108 22.002 22.0158 22.0683 22.0075C22.1345 21.9992 22.1985 21.9778 22.2563 21.9444C22.3141 21.911 22.3646 21.8663 22.4049 21.8131C22.4452 21.7598 22.4744 21.6991 22.4908 21.6343C22.5073 21.5696 22.5106 21.5023 22.5005 21.4363C22.4905 21.3702 22.4673 21.3069 22.4324 21.25ZM12.4999 14C12.4999 13.3078 12.7052 12.6311 13.0898 12.0555C13.4744 11.4799 14.021 11.0313 14.6605 10.7664C15.3001 10.5015 16.0038 10.4322 16.6827 10.5672C17.3617 10.7023 17.9853 11.0356 18.4748 11.5251C18.9643 12.0146 19.2976 12.6382 19.4327 13.3172C19.5677 13.9961 19.4984 14.6998 19.2335 15.3394C18.9686 15.9789 18.52 16.5256 17.9444 16.9101C17.3688 17.2947 16.6922 17.5 15.9999 17.5C15.072 17.499 14.1823 17.1299 13.5261 16.4738C12.87 15.8176 12.5009 14.9279 12.4999 14Z" fill="#1C1C1C"/>
</svg>
