<svg width="16" height="17" viewBox="0 0 16 17" fill="none" xmlns="http://www.w3.org/2000/svg">
<path d="M13.5 5H3.5C3.36739 5 3.24021 4.94732 3.14645 4.85355C3.05268 4.75979 3 4.63261 3 4.5C3 4.36739 3.05268 4.24021 3.14645 4.14645C3.24021 4.05268 3.36739 4 3.5 4H12C12.1326 4 12.2598 3.94732 12.3536 3.85355C12.4473 3.75979 12.5 3.63261 12.5 3.5C12.5 3.36739 12.4473 3.24021 12.3536 3.14645C12.2598 3.05268 12.1326 3 12 3H3.5C3.10218 3 2.72064 3.15804 2.43934 3.43934C2.15804 3.72064 2 4.10218 2 4.5V12.5C2 12.8978 2.15804 13.2794 2.43934 13.5607C2.72064 13.842 3.10218 14 3.5 14H13.5C13.7652 14 14.0196 13.8946 14.2071 13.7071C14.3946 13.5196 14.5 13.2652 14.5 13V6C14.5 5.73478 14.3946 5.48043 14.2071 5.29289C14.0196 5.10536 13.7652 5 13.5 5ZM13.5 13H3.5C3.36739 13 3.24021 12.9473 3.14645 12.8536C3.05268 12.7598 3 12.6326 3 12.5V5.91437C3.16055 5.97129 3.32966 6.00025 3.5 6H13.5V13ZM10.5 9.25C10.5 9.10166 10.544 8.95666 10.6264 8.83332C10.7088 8.70999 10.8259 8.61386 10.963 8.55709C11.1 8.50033 11.2508 8.48547 11.3963 8.51441C11.5418 8.54335 11.6754 8.61478 11.7803 8.71967C11.8852 8.82456 11.9567 8.9582 11.9856 9.10368C12.0145 9.24917 11.9997 9.39997 11.9429 9.53701C11.8861 9.67406 11.79 9.79119 11.6667 9.8736C11.5433 9.95601 11.3983 10 11.25 10C11.0511 10 10.8603 9.92098 10.7197 9.78033C10.579 9.63968 10.5 9.44891 10.5 9.25Z" fill="#1C1C1C"/>
</svg>
