<svg width="24" height="24" viewBox="0 0 24 24" fill="none" xmlns="http://www.w3.org/2000/svg">
<path d="M0 12C0 8.27247 0 6.4087 0.608964 4.93853C1.42092 2.97831 2.97831 1.42092 4.93853 0.608964C6.4087 0 8.27247 0 12 0V0C15.7275 0 17.5913 0 19.0615 0.608964C21.0217 1.42092 22.5791 2.97831 23.391 4.93853C24 6.4087 24 8.27247 24 12V12C24 15.7275 24 17.5913 23.391 19.0615C22.5791 21.0217 21.0217 22.5791 19.0615 23.391C17.5913 24 15.7275 24 12 24V24C8.27247 24 6.4087 24 4.93853 23.391C2.97831 22.5791 1.42092 21.0217 0.608964 19.0615C0 17.5913 0 15.7275 0 12V12Z" fill="#1A202C" fill-opacity="0.05"/>
<path d="M17 6.5H7C6.73478 6.5 6.48043 6.60536 6.29289 6.79289C6.10536 6.98043 6 7.23478 6 7.5V11.1737C6 16.7744 10.7387 18.6325 11.6875 18.9481C11.8901 19.017 12.1099 19.017 12.3125 18.9481C13.2625 18.6325 18 16.7744 18 11.1737V7.5C18 7.23478 17.8946 6.98043 17.7071 6.79289C17.5196 6.60536 17.2652 6.5 17 6.5ZM17 11.1744C17 16.0756 12.8531 17.7131 12 17.9981C11.1544 17.7163 7 16.08 7 11.1744V7.5H17V11.1744ZM9.14625 12.8538C9.05243 12.7599 8.99972 12.6327 8.99972 12.5C8.99972 12.3673 9.05243 12.2401 9.14625 12.1462C9.24007 12.0524 9.36732 11.9997 9.5 11.9997C9.63268 11.9997 9.75993 12.0524 9.85375 12.1462L11 13.2925L14.1462 10.1462C14.1927 10.0998 14.2479 10.0629 14.3086 10.0378C14.3692 10.0127 14.4343 9.99972 14.5 9.99972C14.5657 9.99972 14.6308 10.0127 14.6914 10.0378C14.7521 10.0629 14.8073 10.0998 14.8538 10.1462C14.9002 10.1927 14.9371 10.2479 14.9622 10.3086C14.9873 10.3692 15.0003 10.4343 15.0003 10.5C15.0003 10.5657 14.9873 10.6308 14.9622 10.6914C14.9371 10.7521 14.9002 10.8073 14.8538 10.8538L11.3538 14.3538C11.3073 14.4002 11.2522 14.4371 11.1915 14.4623C11.1308 14.4874 11.0657 14.5004 11 14.5004C10.9343 14.5004 10.8692 14.4874 10.8085 14.4623C10.7478 14.4371 10.6927 14.4002 10.6462 14.3538L9.14625 12.8538Z" fill="#22B5E9"/>
</svg>
