<svg width="24" height="24" viewBox="0 0 24 24" fill="none" xmlns="http://www.w3.org/2000/svg">
<path d="M0 12C0 8.27247 0 6.4087 0.608964 4.93853C1.42092 2.97831 2.97831 1.42092 4.93853 0.608964C6.4087 0 8.27247 0 12 0V0C15.7275 0 17.5913 0 19.0615 0.608964C21.0217 1.42092 22.5791 2.97831 23.391 4.93853C24 6.4087 24 8.27247 24 12V12C24 15.7275 24 17.5913 23.391 19.0615C22.5791 21.0217 21.0217 22.5791 19.0615 23.391C17.5913 24 15.7275 24 12 24V24C8.27247 24 6.4087 24 4.93853 23.391C2.97831 22.5791 1.42092 21.0217 0.608964 19.0615C0 17.5913 0 15.7275 0 12V12Z" fill="#1A202C" fill-opacity="0.05"/>
<path d="M16.3544 15.6481C16.4477 15.7418 16.5001 15.8687 16.5001 16.0009C16.5001 16.1332 16.4477 16.26 16.3544 16.3538C16.2862 16.4206 14.6762 18 12 18C9.66313 18 7.96688 16.6 7 15.5094V17C7 17.1326 6.94732 17.2598 6.85355 17.3536C6.75979 17.4473 6.63261 17.5 6.5 17.5C6.36739 17.5 6.24021 17.4473 6.14645 17.3536C6.05268 17.2598 6 17.1326 6 17V14C6 13.8674 6.05268 13.7402 6.14645 13.6464C6.24021 13.5527 6.36739 13.5 6.5 13.5H9.5C9.63261 13.5 9.75979 13.5527 9.85355 13.6464C9.94732 13.7402 10 13.8674 10 14C10 14.1326 9.94732 14.2598 9.85355 14.3536C9.75979 14.4473 9.63261 14.5 9.5 14.5H7.465C8.235 15.4594 9.8125 17 12 17C14.25 17 15.6338 15.6588 15.6475 15.645C15.7417 15.5517 15.869 15.4996 16.0016 15.5002C16.1341 15.5008 16.261 15.554 16.3544 15.6481ZM17.5 6.5C17.3674 6.5 17.2402 6.55268 17.1464 6.64645C17.0527 6.74021 17 6.86739 17 7V8.49062C16.0331 7.4 14.3369 6 12 6C9.32375 6 7.71375 7.57938 7.64625 7.64625C7.55226 7.7399 7.49933 7.86706 7.4991 7.99974C7.49886 8.13242 7.55135 8.25976 7.645 8.35375C7.73865 8.44774 7.86581 8.50067 7.99849 8.5009C8.13117 8.50114 8.25851 8.44865 8.3525 8.355C8.36625 8.34125 9.75 7 12 7C14.1875 7 15.765 8.54062 16.535 9.5H14.5C14.3674 9.5 14.2402 9.55268 14.1464 9.64645C14.0527 9.74021 14 9.86739 14 10C14 10.1326 14.0527 10.2598 14.1464 10.3536C14.2402 10.4473 14.3674 10.5 14.5 10.5H17.5C17.6326 10.5 17.7598 10.4473 17.8536 10.3536C17.9473 10.2598 18 10.1326 18 10V7C18 6.86739 17.9473 6.74021 17.8536 6.64645C17.7598 6.55268 17.6326 6.5 17.5 6.5Z" fill="#22B5E9"/>
</svg>
