<svg width="24" height="24" viewBox="0 0 24 24" fill="none" xmlns="http://www.w3.org/2000/svg">
<path d="M0 12C0 8.27247 0 6.4087 0.608964 4.93853C1.42092 2.97831 2.97831 1.42092 4.93853 0.608964C6.4087 0 8.27247 0 12 0V0C15.7275 0 17.5913 0 19.0615 0.608964C21.0217 1.42092 22.5791 2.97831 23.391 4.93853C24 6.4087 24 8.27247 24 12V12C24 15.7275 24 17.5913 23.391 19.0615C22.5791 21.0217 21.0217 22.5791 19.0615 23.391C17.5913 24 15.7275 24 12 24V24C8.27247 24 6.4087 24 4.93853 23.391C2.97831 22.5791 1.42092 21.0217 0.608964 19.0615C0 17.5913 0 15.7275 0 12V12Z" fill="#1A202C" fill-opacity="0.05"/>
<path d="M18.3538 7.64628L16.3538 5.64628C16.3073 5.59979 16.2522 5.56291 16.1915 5.53775C16.1308 5.51258 16.0657 5.49963 16 5.49963C15.9343 5.49963 15.8692 5.51258 15.8085 5.53775C15.7478 5.56291 15.6927 5.59979 15.6462 5.64628L9.64625 11.6463C9.59983 11.6927 9.56303 11.7479 9.53793 11.8086C9.51284 11.8693 9.49995 11.9343 9.5 12V14C9.5 14.1326 9.55268 14.2598 9.64645 14.3536C9.74021 14.4473 9.86739 14.5 10 14.5H12C12.0657 14.5001 12.1307 14.4872 12.1914 14.4621C12.2521 14.437 12.3073 14.4002 12.3538 14.3538L18.3538 8.35378C18.4002 8.30734 18.4371 8.2522 18.4623 8.1915C18.4874 8.1308 18.5004 8.06573 18.5004 8.00003C18.5004 7.93432 18.4874 7.86926 18.4623 7.80856C18.4371 7.74786 18.4002 7.69271 18.3538 7.64628ZM11.7931 13.5H10.5V12.2069L14.5 8.2069L15.7931 9.50003L11.7931 13.5ZM16.5 8.79315L15.2069 7.50003L16 6.7069L17.2931 8.00003L16.5 8.79315ZM18 11.5V17C18 17.2652 17.8946 17.5196 17.7071 17.7071C17.5196 17.8947 17.2652 18 17 18H7C6.73478 18 6.48043 17.8947 6.29289 17.7071C6.10536 17.5196 6 17.2652 6 17V7.00003C6 6.73481 6.10536 6.48046 6.29289 6.29292C6.48043 6.10538 6.73478 6.00003 7 6.00003H12.5C12.6326 6.00003 12.7598 6.05271 12.8536 6.14647C12.9473 6.24024 13 6.36742 13 6.50003C13 6.63264 12.9473 6.75981 12.8536 6.85358C12.7598 6.94735 12.6326 7.00003 12.5 7.00003H7V17H17V11.5C17 11.3674 17.0527 11.2402 17.1464 11.1465C17.2402 11.0527 17.3674 11 17.5 11C17.6326 11 17.7598 11.0527 17.8536 11.1465C17.9473 11.2402 18 11.3674 18 11.5Z" fill="#22B5E9"/>
</svg>
