<svg width="24" height="24" viewBox="0 0 24 24" fill="none" xmlns="http://www.w3.org/2000/svg">
<path d="M0 12C0 8.27247 0 6.4087 0.608964 4.93853C1.42092 2.97831 2.97831 1.42092 4.93853 0.608964C6.4087 0 8.27247 0 12 0V0C15.7275 0 17.5913 0 19.0615 0.608964C21.0217 1.42092 22.5791 2.97831 23.391 4.93853C24 6.4087 24 8.27247 24 12V12C24 15.7275 24 17.5913 23.391 19.0615C22.5791 21.0217 21.0217 22.5791 19.0615 23.391C17.5913 24 15.7275 24 12 24V24C8.27247 24 6.4087 24 4.93853 23.391C2.97831 22.5791 1.42092 21.0217 0.608964 19.0615C0 17.5913 0 15.7275 0 12V12Z" fill="#1A202C" fill-opacity="0.05"/>
<path fill-rule="evenodd" clip-rule="evenodd" d="M6 8.75C6 7.23122 7.23122 6 8.75 6C10.2688 6 11.5 7.23122 11.5 8.75V10.4C11.5 11.0075 11.0075 11.5 10.4 11.5H8.75C7.23122 11.5 6 10.2688 6 8.75ZM10.5 8.75V10.4C10.5 10.4552 10.4552 10.5 10.4 10.5H8.75C7.7835 10.5 7 9.7165 7 8.75C7 7.7835 7.7835 7 8.75 7C9.7165 7 10.5 7.7835 10.5 8.75Z" fill="#22B5E9"/>
<path fill-rule="evenodd" clip-rule="evenodd" d="M6 15.25C6 13.7312 7.23122 12.5 8.75 12.5H10.4C11.0075 12.5 11.5 12.9925 11.5 13.6V15.25C11.5 16.7688 10.2688 18 8.75 18C7.23122 18 6 16.7688 6 15.25ZM8.75 13.5H10.4C10.4552 13.5 10.5 13.5448 10.5 13.6V15.25C10.5 16.2165 9.7165 17 8.75 17C7.7835 17 7 16.2165 7 15.25C7 14.2835 7.7835 13.5 8.75 13.5Z" fill="#22B5E9"/>
<path fill-rule="evenodd" clip-rule="evenodd" d="M15.25 6C13.7312 6 12.5 7.23122 12.5 8.75V10.4C12.5 11.0075 12.9925 11.5 13.6 11.5H15.25C16.7688 11.5 18 10.2688 18 8.75C18 7.23122 16.7688 6 15.25 6ZM13.6 10.5H15.25C16.2165 10.5 17 9.7165 17 8.75C17 7.7835 16.2165 7 15.25 7C14.2835 7 13.5 7.7835 13.5 8.75V10.4C13.5 10.4552 13.5448 10.5 13.6 10.5Z" fill="#22B5E9"/>
<path fill-rule="evenodd" clip-rule="evenodd" d="M12.5 13.6C12.5 12.9925 12.9925 12.5 13.6 12.5H15.25C16.7688 12.5 18 13.7312 18 15.25C18 16.7688 16.7688 18 15.25 18C13.7312 18 12.5 16.7688 12.5 15.25V13.6ZM13.6 13.5H15.25C16.2165 13.5 17 14.2835 17 15.25C17 16.2165 16.2165 17 15.25 17C14.2835 17 13.5 16.2165 13.5 15.25V13.6C13.5 13.5448 13.5448 13.5 13.6 13.5Z" fill="#22B5E9"/>
</svg>
