<svg width="24" height="24" viewBox="0 0 24 24" fill="none" xmlns="http://www.w3.org/2000/svg">
<path d="M0 12C0 8.27247 0 6.4087 0.608964 4.93853C1.42092 2.97831 2.97831 1.42092 4.93853 0.608964C6.4087 0 8.27247 0 12 0V0C15.7275 0 17.5913 0 19.0615 0.608964C21.0217 1.42092 22.5791 2.97831 23.391 4.93853C24 6.4087 24 8.27247 24 12V12C24 15.7275 24 17.5913 23.391 19.0615C22.5791 21.0217 21.0217 22.5791 19.0615 23.391C17.5913 24 15.7275 24 12 24V24C8.27247 24 6.4087 24 4.93853 23.391C2.97831 22.5791 1.42092 21.0217 0.608964 19.0615C0 17.5913 0 15.7275 0 12V12Z" fill="#1A202C" fill-opacity="0.05"/>
<path d="M13.5 11.5H12.5V7.5H13C13.5304 7.5 14.0391 7.71071 14.4142 8.08579C14.7893 8.46086 15 8.96957 15 9.5C15 9.63261 15.0527 9.75979 15.1464 9.85355C15.2402 9.94732 15.3674 10 15.5 10C15.6326 10 15.7598 9.94732 15.8536 9.85355C15.9473 9.75979 16 9.63261 16 9.5C15.9992 8.7046 15.6828 7.94202 15.1204 7.37959C14.558 6.81716 13.7954 6.50083 13 6.5H12.5V5.5C12.5 5.36739 12.4473 5.24021 12.3536 5.14645C12.2598 5.05268 12.1326 5 12 5C11.8674 5 11.7402 5.05268 11.6464 5.14645C11.5527 5.24021 11.5 5.36739 11.5 5.5V6.5H11C10.2044 6.5 9.44129 6.81607 8.87868 7.37868C8.31607 7.94129 8 8.70435 8 9.5C8 10.2956 8.31607 11.0587 8.87868 11.6213C9.44129 12.1839 10.2044 12.5 11 12.5H11.5V16.5H10.5C9.96957 16.5 9.46086 16.2893 9.08579 15.9142C8.71071 15.5391 8.5 15.0304 8.5 14.5C8.5 14.3674 8.44732 14.2402 8.35355 14.1464C8.25979 14.0527 8.13261 14 8 14C7.86739 14 7.74021 14.0527 7.64645 14.1464C7.55268 14.2402 7.5 14.3674 7.5 14.5C7.50083 15.2954 7.81716 16.058 8.37959 16.6204C8.94202 17.1828 9.7046 17.4992 10.5 17.5H11.5V18.5C11.5 18.6326 11.5527 18.7598 11.6464 18.8536C11.7402 18.9473 11.8674 19 12 19C12.1326 19 12.2598 18.9473 12.3536 18.8536C12.4473 18.7598 12.5 18.6326 12.5 18.5V17.5H13.5C14.2956 17.5 15.0587 17.1839 15.6213 16.6213C16.1839 16.0587 16.5 15.2956 16.5 14.5C16.5 13.7044 16.1839 12.9413 15.6213 12.3787C15.0587 11.8161 14.2956 11.5 13.5 11.5ZM11 11.5C10.4696 11.5 9.96086 11.2893 9.58579 10.9142C9.21071 10.5391 9 10.0304 9 9.5C9 8.96957 9.21071 8.46086 9.58579 8.08579C9.96086 7.71071 10.4696 7.5 11 7.5H11.5V11.5H11ZM13.5 16.5H12.5V12.5H13.5C14.0304 12.5 14.5391 12.7107 14.9142 13.0858C15.2893 13.4609 15.5 13.9696 15.5 14.5C15.5 15.0304 15.2893 15.5391 14.9142 15.9142C14.5391 16.2893 14.0304 16.5 13.5 16.5Z" fill="#343330"/>
</svg>
