<svg width="24" height="24" viewBox="0 0 24 24" fill="none" xmlns="http://www.w3.org/2000/svg">
<path d="M0 12C0 8.27247 0 6.4087 0.608964 4.93853C1.42092 2.97831 2.97831 1.42092 4.93853 0.608964C6.4087 0 8.27247 0 12 0V0C15.7275 0 17.5913 0 19.0615 0.608964C21.0217 1.42092 22.5791 2.97831 23.391 4.93853C24 6.4087 24 8.27247 24 12V12C24 15.7275 24 17.5913 23.391 19.0615C22.5791 21.0217 21.0217 22.5791 19.0615 23.391C17.5913 24 15.7275 24 12 24V24C8.27247 24 6.4087 24 4.93853 23.391C2.97831 22.5791 1.42092 21.0217 0.608964 19.0615C0 17.5913 0 15.7275 0 12V12Z" fill="#1A202C" fill-opacity="0.05"/>
<path d="M12 5.5C10.7144 5.5 9.45772 5.88122 8.3888 6.59545C7.31988 7.30968 6.48676 8.32484 5.99479 9.51256C5.50282 10.7003 5.37409 12.0072 5.6249 13.2681C5.8757 14.529 6.49477 15.6872 7.40381 16.5962C8.31285 17.5052 9.47104 18.1243 10.7319 18.3751C11.9928 18.6259 13.2997 18.4972 14.4874 18.0052C15.6752 17.5132 16.6903 16.6801 17.4046 15.6112C18.1188 14.5423 18.5 13.2856 18.5 12C18.4982 10.2767 17.8128 8.62441 16.5942 7.40582C15.3756 6.18722 13.7234 5.50182 12 5.5ZM12 17.5C10.9122 17.5 9.84884 17.1774 8.94437 16.5731C8.0399 15.9687 7.33495 15.1098 6.91867 14.1048C6.50238 13.0998 6.39347 11.9939 6.60568 10.927C6.8179 9.86011 7.34173 8.8801 8.11092 8.11091C8.8801 7.34172 9.86011 6.8179 10.927 6.60568C11.9939 6.39346 13.0998 6.50238 14.1048 6.91866C15.1098 7.33494 15.9687 8.03989 16.5731 8.94436C17.1774 9.84883 17.5 10.9122 17.5 12C17.4983 13.4582 16.9184 14.8562 15.8873 15.8873C14.8562 16.9184 13.4582 17.4983 12 17.5ZM12.2775 11.5837L9.2775 9.58375C9.20219 9.5335 9.11464 9.50464 9.0242 9.50026C8.93376 9.49588 8.84383 9.51614 8.76401 9.55887C8.68419 9.60161 8.61747 9.66521 8.57097 9.74291C8.52447 9.8206 8.49994 9.90946 8.5 10V14C8.49994 14.0905 8.52447 14.1794 8.57097 14.2571C8.61747 14.3348 8.68419 14.3984 8.76401 14.4411C8.84383 14.4839 8.93376 14.5041 9.0242 14.4997C9.11464 14.4954 9.20219 14.4665 9.2775 14.4163L12.2775 12.4163C12.3461 12.3706 12.4023 12.3087 12.4412 12.2361C12.4801 12.1635 12.5005 12.0824 12.5005 12C12.5005 11.9176 12.4801 11.8365 12.4412 11.7639C12.4023 11.6913 12.3461 11.6294 12.2775 11.5837ZM9.5 13.0656V10.9375L11.0988 12L9.5 13.0656ZM16.2775 11.5837L13.2775 9.58375C13.2022 9.5335 13.1146 9.50464 13.0242 9.50026C12.9338 9.49588 12.8438 9.51614 12.764 9.55887C12.6842 9.60161 12.6175 9.66521 12.571 9.74291C12.5245 9.8206 12.4999 9.90946 12.5 10V14C12.4999 14.0905 12.5245 14.1794 12.571 14.2571C12.6175 14.3348 12.6842 14.3984 12.764 14.4411C12.8438 14.4839 12.9338 14.5041 13.0242 14.4997C13.1146 14.4954 13.2022 14.4665 13.2775 14.4163L16.2775 12.4163C16.3461 12.3706 16.4023 12.3087 16.4412 12.2361C16.4801 12.1635 16.5005 12.0824 16.5005 12C16.5005 11.9176 16.4801 11.8365 16.4412 11.7639C16.4023 11.6913 16.3461 11.6294 16.2775 11.5837ZM13.5 13.0656V10.9375L15.0988 12L13.5 13.0656Z" fill="#343330"/>
</svg>
