<svg width="20" height="20" viewBox="0 0 20 20" fill="none" xmlns="http://www.w3.org/2000/svg">
<g id="ArrowLineUpDown">
<g id="Vector">
<path d="M14.5581 7.92541C14.8021 8.19153 15.1979 8.19153 15.4419 7.92541C15.686 7.65928 15.686 7.22781 15.4419 6.96169L11.3258 2.47378C10.5936 1.67541 9.40641 1.67541 8.67418 2.47378L4.55806 6.96168C4.31398 7.22781 4.31398 7.65928 4.55806 7.92541C4.80214 8.19153 5.19786 8.19153 5.44194 7.92541L9.55806 3.4375C9.80214 3.17138 10.1979 3.17138 10.4419 3.4375L14.5581 7.92541Z" fill="#1A202C" fill-opacity="0.2"/>
<path d="M5.44194 12.0746C5.19786 11.8085 4.80214 11.8085 4.55806 12.0746C4.31398 12.3407 4.31398 12.7722 4.55806 13.0383L8.67418 17.5262C9.40641 18.3246 10.5936 18.3246 11.3258 17.5262L15.4419 13.0383C15.686 12.7722 15.686 12.3407 15.4419 12.0746C15.1979 11.8085 14.8021 11.8085 14.5581 12.0746L10.4419 16.5625C10.1979 16.8286 9.80214 16.8286 9.55806 16.5625L5.44194 12.0746Z" fill="#1A202C" fill-opacity="0.2"/>
</g>
</g>
</svg>
