<svg width="80" height="81" viewBox="0 0 80 81" fill="none" xmlns="http://www.w3.org/2000/svg">
<rect y="0.200195" width="80" height="80" rx="13.3333" fill="#22B5E9"/>
<path d="M57.5 40.1998C57.5002 44.3204 56.0464 48.3089 53.3946 51.4628C50.7428 54.6167 47.0632 56.7337 43.0037 57.441C38.9443 58.1483 34.7655 57.4004 31.2034 55.3291C27.6412 53.2579 24.9242 49.996 23.5308 46.1182C22.1375 42.2403 22.1572 37.9952 23.5865 34.1304C25.0159 30.2657 27.7631 27.0293 31.3443 24.9912C34.9256 22.9531 39.1112 22.2441 43.1638 22.9891C47.2165 23.7341 50.8763 25.8852 53.4987 29.0636C53.6289 29.2101 53.7282 29.3813 53.7907 29.5671C53.8533 29.7528 53.8777 29.9492 53.8627 30.1446C53.8476 30.34 53.7933 30.5304 53.703 30.7043C53.6127 30.8782 53.4882 31.0322 53.3371 31.157C53.186 31.2817 53.0113 31.3748 52.8234 31.4305C52.6355 31.4862 52.4383 31.5035 52.2436 31.4813C52.0489 31.4592 51.8606 31.398 51.6901 31.3014C51.5196 31.2048 51.3702 31.0749 51.251 30.9193C49.1062 28.3186 46.1265 26.5413 42.819 25.8898C39.5114 25.2382 36.0803 25.7527 33.1093 27.3456C30.1383 28.9385 27.8109 31.5116 26.5231 34.627C25.2353 37.7424 25.0665 41.2078 26.0456 44.4336C27.0247 47.6594 29.0911 50.4463 31.8933 52.3204C34.6955 54.1944 38.0604 55.0398 41.4156 54.7126C44.7708 54.3855 47.909 52.906 50.2964 50.526C52.6838 48.146 54.1729 45.0123 54.5104 41.6581H40C39.6132 41.6581 39.2423 41.5045 38.9688 41.231C38.6953 40.9575 38.5417 40.5866 38.5417 40.1998C38.5417 39.813 38.6953 39.4421 38.9688 39.1686C39.2423 38.8951 39.6132 38.7415 40 38.7415H56.0417C56.4284 38.7415 56.7994 38.8951 57.0729 39.1686C57.3464 39.4421 57.5 39.813 57.5 40.1998Z" fill="white"/>
</svg>
