<svg width="28" height="29" viewBox="0 0 28 29" fill="none" xmlns="http://www.w3.org/2000/svg">
<path d="M0 6.60019C0 4.35999 0 3.23988 0.435974 2.38423C0.819467 1.63159 1.43139 1.01966 2.18404 0.636169C3.03969 0.200195 4.15979 0.200195 6.4 0.200195H21.6C23.8402 0.200195 24.9603 0.200195 25.816 0.636169C26.5686 1.01966 27.1805 1.63159 27.564 2.38423C28 3.23988 28 4.35999 28 6.6002V21.8002C28 24.0404 28 25.1605 27.564 26.0162C27.1805 26.7688 26.5686 27.3807 25.816 27.7642C24.9603 28.2002 23.8402 28.2002 21.6 28.2002H6.4C4.15979 28.2002 3.03969 28.2002 2.18404 27.7642C1.43139 27.3807 0.819467 26.7688 0.435974 26.0162C0 25.1605 0 24.0404 0 21.8002V6.60019Z" fill="#22B5E9" fill-opacity="0.05"/>
<path d="M21.5 14.2002C21.5001 15.9661 20.877 17.6755 19.7405 19.0272C18.6041 20.3789 17.0271 21.2862 15.2873 21.5893C13.5476 21.8924 11.7566 21.5719 10.23 20.6842C8.70337 19.7965 7.53893 18.3986 6.94178 16.7366C6.34464 15.0747 6.35309 13.2553 6.96566 11.599C7.57822 9.94271 8.7556 8.55567 10.2904 7.68221C11.8253 6.80875 13.6191 6.50489 15.3559 6.82416C17.0928 7.14343 18.6613 8.06535 19.7852 9.42753C19.841 9.49031 19.8835 9.56369 19.9103 9.64329C19.9371 9.72289 19.9476 9.80707 19.9411 9.89082C19.9347 9.97456 19.9114 10.0561 19.8727 10.1307C19.834 10.2052 19.7807 10.2712 19.7159 10.3247C19.6511 10.3782 19.5763 10.418 19.4957 10.4419C19.4152 10.4658 19.3307 10.4732 19.2473 10.4637C19.1638 10.4542 19.0831 10.428 19.01 10.3866C18.937 10.3452 18.873 10.2895 18.8219 10.2228C17.9026 9.10825 16.6256 8.34654 15.2081 8.06731C13.7906 7.78807 12.3201 8.00855 11.0468 8.69124C9.77356 9.37393 8.77611 10.4767 8.22419 11.8118C7.67226 13.147 7.59995 14.6322 8.01955 16.0147C8.43915 17.3971 9.32475 18.5916 10.5257 19.3947C11.7266 20.1979 13.1687 20.5602 14.6067 20.42C16.0446 20.2798 17.3896 19.6457 18.4127 18.6257C19.4359 17.6057 20.0741 16.2627 20.2188 14.8252H14C13.8342 14.8252 13.6753 14.7593 13.5581 14.6421C13.4408 14.5249 13.375 14.3659 13.375 14.2002C13.375 14.0344 13.4408 13.8755 13.5581 13.7582C13.6753 13.641 13.8342 13.5752 14 13.5752H20.875C21.0408 13.5752 21.1997 13.641 21.3169 13.7582C21.4342 13.8755 21.5 14.0344 21.5 14.2002Z" fill="#22B5E9"/>
</svg>
