<svg width="15" height="10" viewBox="0 0 15 10" fill="none" xmlns="http://www.w3.org/2000/svg">
<path d="M14.4163 4.7225L11.5625 0.445625C11.4717 0.30864 11.3483 0.196262 11.2035 0.118508C11.0587 0.040755 10.8969 4.23553e-05 10.7325 0H1.5C1.23478 0 0.98043 0.105357 0.792893 0.292893C0.605357 0.48043 0.5 0.734784 0.5 1V9C0.5 9.26522 0.605357 9.51957 0.792893 9.70711C0.98043 9.89464 1.23478 10 1.5 10H10.7325C10.8968 9.9997 11.0584 9.95894 11.2032 9.88132C11.3479 9.80371 11.4713 9.69164 11.5625 9.555L14.4144 5.2775C14.4695 5.19552 14.4991 5.09906 14.4994 5.00028C14.4997 4.90151 14.4708 4.80485 14.4163 4.7225Z" fill="#22B5E9"/>
</svg>
