<svg width="21" height="20" viewBox="0 0 21 20" fill="none" xmlns="http://www.w3.org/2000/svg">
<path d="M19.2293 16.2498H18.0004V7.49975C18.0004 7.16823 17.8687 6.85029 17.6343 6.61587C17.3999 6.38145 17.0819 6.24975 16.7504 6.24975H13.3129C13.23 6.24975 13.1505 6.28268 13.0919 6.34128C13.0333 6.39989 13.0004 6.47937 13.0004 6.56225V16.2498H11.7504V2.53179C11.7525 2.33708 11.7102 2.14446 11.6268 1.9685C11.5435 1.79254 11.4211 1.63786 11.2691 1.51616C11.062 1.35463 10.8091 1.26248 10.5466 1.2528C10.2841 1.24312 10.0252 1.31641 9.80665 1.46225L3.55665 5.62475C3.38519 5.73915 3.24469 5.89416 3.14764 6.07599C3.05059 6.25782 3.00001 6.46083 3.0004 6.66694V16.2498H1.77149C1.60998 16.2474 1.45356 16.3062 1.33369 16.4145C1.21382 16.5228 1.1394 16.6724 1.1254 16.8333C1.11972 16.9188 1.13168 17.0046 1.16054 17.0853C1.1894 17.1659 1.23453 17.2398 1.29315 17.3023C1.35176 17.3648 1.42259 17.4146 1.50125 17.4485C1.57991 17.4825 1.66472 17.4999 1.7504 17.4998H19.2504C19.3361 17.4999 19.4209 17.4825 19.4995 17.4485C19.5782 17.4146 19.649 17.3648 19.7076 17.3023C19.7663 17.2398 19.8114 17.1659 19.8403 17.0853C19.8691 17.0046 19.8811 16.9188 19.8754 16.8333C19.8614 16.6724 19.787 16.5228 19.6671 16.4145C19.5472 16.3062 19.3908 16.2474 19.2293 16.2498ZM6.4379 14.3748C6.43809 14.4604 6.42065 14.5452 6.38669 14.6239C6.35272 14.7026 6.30295 14.7734 6.24045 14.832C6.17796 14.8906 6.10408 14.9358 6.0234 14.9646C5.94273 14.9935 5.85698 15.0054 5.77149 14.9998C5.61043 14.9857 5.46067 14.9112 5.35238 14.7912C5.24409 14.6711 5.18531 14.5145 5.1879 14.3529V13.1458C5.1857 12.9844 5.24462 12.8281 5.35286 12.7082C5.4611 12.5884 5.61064 12.5139 5.77149 12.4998C5.85698 12.4941 5.94273 12.506 6.0234 12.5349C6.10408 12.5638 6.17796 12.6089 6.24045 12.6675C6.30295 12.7261 6.35272 12.797 6.38669 12.8756C6.42065 12.9543 6.43809 13.0391 6.4379 13.1248V14.3748ZM6.4379 9.99975C6.43809 10.0854 6.42065 10.1702 6.38669 10.2489C6.35272 10.3276 6.30295 10.3984 6.24045 10.457C6.17796 10.5156 6.10408 10.5608 6.0234 10.5896C5.94273 10.6185 5.85698 10.6304 5.77149 10.6248C5.6105 10.6106 5.46085 10.536 5.35259 10.416C5.24434 10.296 5.1855 10.1395 5.1879 9.97788V8.77085C5.1857 8.60939 5.24462 8.45307 5.35286 8.33324C5.4611 8.21341 5.61064 8.13894 5.77149 8.12475C5.85698 8.11908 5.94273 8.13104 6.0234 8.1599C6.10408 8.18876 6.17796 8.23389 6.24045 8.2925C6.30295 8.35112 6.35272 8.42195 6.38669 8.50061C6.42065 8.57927 6.43809 8.66408 6.4379 8.74975V9.99975ZM9.5629 14.3748C9.56308 14.4604 9.54566 14.5452 9.51169 14.6239C9.47772 14.7026 9.42795 14.7734 9.36545 14.832C9.30295 14.8906 9.22908 14.9358 9.1484 14.9646C9.06773 14.9935 8.98198 15.0054 8.89649 14.9998C8.73571 14.9858 8.58617 14.9115 8.47792 14.7917C8.36966 14.672 8.31071 14.5158 8.3129 14.3544V13.1458C8.31089 12.9845 8.36991 12.8284 8.47813 12.7087C8.58635 12.5891 8.73578 12.5147 8.89649 12.5005C8.98198 12.4949 9.06773 12.5068 9.1484 12.5357C9.22908 12.5645 9.30295 12.6097 9.36545 12.6683C9.42795 12.7269 9.47772 12.7977 9.51169 12.8764C9.54566 12.9551 9.56308 13.0399 9.5629 13.1255V14.3748ZM9.5629 9.99975C9.56308 10.0854 9.54566 10.1702 9.51169 10.2489C9.47772 10.3276 9.42795 10.3984 9.36545 10.457C9.30295 10.5156 9.22908 10.5608 9.1484 10.5896C9.06773 10.6185 8.98198 10.6304 8.89649 10.6248C8.73578 10.6106 8.58635 10.5362 8.47813 10.4166C8.36991 10.2969 8.31089 10.1408 8.3129 9.97944V8.77085C8.31089 8.60952 8.36991 8.45339 8.47813 8.33373C8.58635 8.21407 8.73578 8.13971 8.89649 8.12554C8.98198 8.11986 9.06773 8.13182 9.1484 8.16068C9.22908 8.18954 9.30295 8.23467 9.36545 8.29329C9.42795 8.3519 9.47772 8.42273 9.51169 8.50139C9.54566 8.58005 9.56308 8.66486 9.5629 8.75054V9.99975Z" fill="#2CBFF3"/>
</svg>
