<svg width="16" height="17" viewBox="0 0 16 17" fill="none" xmlns="http://www.w3.org/2000/svg">
<path d="M11.5306 9.0306L6.53062 14.0306C6.38973 14.1715 6.19863 14.2506 5.99937 14.2506C5.80012 14.2506 5.60902 14.1715 5.46812 14.0306C5.32723 13.8897 5.24807 13.6986 5.24807 13.4993C5.24807 13.3001 5.32723 13.109 5.46812 12.9681L9.9375 8.49997L5.46937 4.0306C5.39961 3.96083 5.34427 3.87801 5.30651 3.78686C5.26876 3.69571 5.24932 3.59801 5.24932 3.49935C5.24932 3.40069 5.26876 3.30299 5.30651 3.21184C5.34427 3.12069 5.39961 3.03786 5.46937 2.9681C5.53914 2.89833 5.62196 2.84299 5.71311 2.80524C5.80427 2.76748 5.90196 2.74805 6.00062 2.74805C6.09929 2.74805 6.19698 2.76748 6.28814 2.80524C6.37929 2.84299 6.46211 2.89833 6.53187 2.9681L11.5319 7.9681C11.6017 8.03786 11.6571 8.12072 11.6948 8.21193C11.7326 8.30313 11.752 8.4009 11.7518 8.49961C11.7517 8.59832 11.7321 8.69604 11.6942 8.78715C11.6562 8.87827 11.6006 8.961 11.5306 9.0306Z" fill="#1A202C"/>
</svg>
