<svg width="16" height="17" viewBox="0 0 16 17" fill="none" xmlns="http://www.w3.org/2000/svg">
<path d="M13.5306 7.03061L8.53063 12.0306C8.46095 12.1005 8.37816 12.156 8.28699 12.1939C8.19583 12.2317 8.09809 12.2512 7.99938 12.2512C7.90067 12.2512 7.80293 12.2317 7.71176 12.1939C7.6206 12.156 7.53781 12.1005 7.46813 12.0306L2.46813 7.03061C2.32723 6.88972 2.24808 6.69862 2.24808 6.49936C2.24808 6.30011 2.32723 6.10901 2.46813 5.96811C2.60902 5.82722 2.80012 5.74806 2.99938 5.74806C3.19864 5.74806 3.38973 5.82722 3.53063 5.96811L8 10.4375L12.4694 5.96749C12.6103 5.82659 12.8014 5.74744 13.0006 5.74744C13.1999 5.74744 13.391 5.82659 13.5319 5.96749C13.6728 6.10838 13.7519 6.29948 13.7519 6.49874C13.7519 6.698 13.6728 6.88909 13.5319 7.02999L13.5306 7.03061Z" fill="white"/>
</svg>
