<svg width="80" height="81" viewBox="0 0 80 81" fill="none" xmlns="http://www.w3.org/2000/svg">
<rect y="0.200195" width="80" height="80" rx="13.3333" fill="#22B5E9"/>
<path d="M56.0391 25.6167H23.9558C23.1822 25.6167 22.4404 25.924 21.8934 26.471C21.3464 27.018 21.0391 27.7598 21.0391 28.5334V57.7C21.0358 58.256 21.193 58.801 21.4917 59.2699C21.7905 59.7387 22.2182 60.1114 22.7235 60.3433C23.1096 60.5225 23.5301 60.6158 23.9558 60.6167C24.6405 60.6151 25.3025 60.3709 25.8243 59.9276C25.833 59.922 25.8409 59.9152 25.848 59.9076L31.7032 54.7834H56.0391C56.8127 54.7834 57.5545 54.4761 58.1015 53.9291C58.6485 53.3821 58.9558 52.6402 58.9558 51.8667V28.5334C58.9558 27.7598 58.6485 27.018 58.1015 26.471C57.5545 25.924 56.8127 25.6167 56.0391 25.6167ZM56.0391 51.8667H31.7032C31.0163 51.8664 30.3514 52.1085 29.8256 52.5503L29.8037 52.5703L23.9558 57.7V28.5334H56.0391V51.8667ZM32.7058 37.2834C32.7058 36.8966 32.8594 36.5257 33.1329 36.2522C33.4064 35.9787 33.7773 35.825 34.1641 35.825H45.8308C46.2176 35.825 46.5885 35.9787 46.862 36.2522C47.1355 36.5257 47.2891 36.8966 47.2891 37.2834C47.2891 37.6701 47.1355 38.0411 46.862 38.3146C46.5885 38.5881 46.2176 38.7417 45.8308 38.7417H34.1641C33.7773 38.7417 33.4064 38.5881 33.1329 38.3146C32.8594 38.0411 32.7058 37.6701 32.7058 37.2834ZM32.7058 43.1167C32.7058 42.7299 32.8594 42.359 33.1329 42.0855C33.4064 41.812 33.7773 41.6584 34.1641 41.6584H45.8308C46.2176 41.6584 46.5885 41.812 46.862 42.0855C47.1355 42.359 47.2891 42.7299 47.2891 43.1167C47.2891 43.5035 47.1355 43.8744 46.862 44.1479C46.5885 44.4214 46.2176 44.575 45.8308 44.575H34.1641C33.7773 44.575 33.4064 44.4214 33.1329 44.1479C32.8594 43.8744 32.7058 43.5035 32.7058 43.1167Z" fill="white"/>
</svg>
