<svg width="32" height="32" viewBox="0 0 32 32" fill="none" xmlns="http://www.w3.org/2000/svg">
<g clip-path="url(#clip0_9444_13452)">
<path d="M23 11.1962V10.5C23 7.365 18.2712 5 12 5C5.72875 5 1 7.365 1 10.5V15.5C1 18.1112 4.28125 20.1863 9 20.8075V21.5C9 24.635 13.7288 27 20 27C26.2712 27 31 24.635 31 21.5V16.5C31 13.9125 27.8225 11.835 23 11.1962ZM7 18.3587C4.55125 17.675 3 16.5487 3 15.5V13.7413C4.02 14.4637 5.38625 15.0463 7 15.4375V18.3587ZM17 15.4375C18.6138 15.0463 19.98 14.4637 21 13.7413V15.5C21 16.5487 19.4487 17.675 17 18.3587V15.4375ZM15 24.3587C12.5513 23.675 11 22.5487 11 21.5V20.9788C11.3287 20.9913 11.6613 21 12 21C12.485 21 12.9587 20.9837 13.4237 20.9562C13.9403 21.1412 14.4665 21.2981 15 21.4263V24.3587ZM15 18.7812C14.0068 18.928 13.004 19.0011 12 19C10.996 19.0011 9.99324 18.928 9 18.7812V15.8075C9.99472 15.9371 10.9969 16.0014 12 16C13.0031 16.0014 14.0053 15.9371 15 15.8075V18.7812ZM23 24.7812C21.0106 25.0729 18.9894 25.0729 17 24.7812V21.8C17.9944 21.9337 18.9967 22.0005 20 22C21.0031 22.0014 22.0053 21.9371 23 21.8075V24.7812ZM29 21.5C29 22.5487 27.4487 23.675 25 24.3587V21.4375C26.6138 21.0462 27.98 20.4637 29 19.7412V21.5Z" fill="#22B5E9"/>
</g>
<defs>
<clipPath id="clip0_9444_13452">
<path d="M0 12.8C0 8.31958 0 6.07937 0.871948 4.36808C1.63893 2.86278 2.86278 1.63893 4.36808 0.871948C6.07937 0 8.31958 0 12.8 0H19.2C23.6804 0 25.9206 0 27.6319 0.871948C29.1372 1.63893 30.3611 2.86278 31.1281 4.36808C32 6.07937 32 8.31958 32 12.8V19.2C32 23.6804 32 25.9206 31.1281 27.6319C30.3611 29.1372 29.1372 30.3611 27.6319 31.1281C25.9206 32 23.6804 32 19.2 32H12.8C8.31958 32 6.07937 32 4.36808 31.1281C2.86278 30.3611 1.63893 29.1372 0.871948 27.6319C0 25.9206 0 23.6804 0 19.2V12.8Z" fill="white"/>
</clipPath>
</defs>
</svg>
