<svg width="16" height="17" viewBox="0 0 16 17" fill="none" xmlns="http://www.w3.org/2000/svg">
<path d="M13.5 5H11.3075C11.3319 4.97937 11.3569 4.95937 11.3806 4.9375C11.5704 4.76886 11.7234 4.56287 11.83 4.33241C11.9366 4.10195 11.9944 3.85197 12 3.59812C12.0082 3.32042 11.9596 3.04397 11.8571 2.78574C11.7546 2.52751 11.6004 2.29296 11.404 2.09648C11.2075 1.9 10.973 1.74573 10.7148 1.64316C10.4566 1.54059 10.1802 1.49187 9.9025 1.5C9.64855 1.50547 9.39845 1.5633 9.16788 1.66988C8.9373 1.77645 8.73121 1.92948 8.5625 2.11937C8.32905 2.38993 8.13927 2.69528 8 3.02437C7.86073 2.69528 7.67095 2.38993 7.4375 2.11937C7.26879 1.92948 7.0627 1.77645 6.83212 1.66988C6.60155 1.5633 6.35146 1.50547 6.0975 1.5C5.81979 1.49187 5.54336 1.54059 5.28516 1.64316C5.02696 1.74573 4.79245 1.9 4.59603 2.09648C4.39961 2.29296 4.24542 2.52751 4.14292 2.78574C4.04043 3.04397 3.99179 3.32042 4 3.59812C4.00556 3.85197 4.06343 4.10195 4.17 4.33241C4.27658 4.56287 4.42956 4.76886 4.61938 4.9375C4.64313 4.95812 4.66813 4.97812 4.6925 5H2.5C2.23478 5 1.98043 5.10536 1.79289 5.29289C1.60536 5.48043 1.5 5.73478 1.5 6V8C1.5 8.26522 1.60536 8.51957 1.79289 8.70711C1.98043 8.89464 2.23478 9 2.5 9V13C2.5 13.2652 2.60536 13.5196 2.79289 13.7071C2.98043 13.8946 3.23478 14 3.5 14H12.5C12.7652 14 13.0196 13.8946 13.2071 13.7071C13.3946 13.5196 13.5 13.2652 13.5 13V9C13.7652 9 14.0196 8.89464 14.2071 8.70711C14.3946 8.51957 14.5 8.26522 14.5 8V6C14.5 5.73478 14.3946 5.48043 14.2071 5.29289C14.0196 5.10536 13.7652 5 13.5 5ZM9.3125 2.78187C9.39167 2.69445 9.48805 2.62434 9.59561 2.57594C9.70316 2.52754 9.81956 2.5019 9.9375 2.50062H9.96813C10.1064 2.50149 10.243 2.52993 10.3701 2.58429C10.4972 2.63865 10.6122 2.71783 10.7083 2.8172C10.8044 2.91656 10.8797 3.0341 10.9298 3.16294C10.9799 3.29178 11.0037 3.42932 11 3.5675C10.9987 3.68544 10.9731 3.80183 10.9247 3.90939C10.8763 4.01694 10.8062 4.11333 10.7188 4.1925C10.1256 4.7175 9.14125 4.9025 8.53125 4.9675C8.60625 4.30562 8.8125 3.34375 9.3125 2.78187ZM5.30688 2.80437C5.50059 2.61068 5.76294 2.50129 6.03687 2.5H6.0675C6.18544 2.50127 6.30184 2.52691 6.40939 2.57531C6.51695 2.62371 6.61333 2.69382 6.6925 2.78125C7.21688 3.37375 7.40188 4.35625 7.46688 4.96375C6.85938 4.90125 5.87687 4.71375 5.28438 4.18937C5.19695 4.11021 5.12684 4.01382 5.07844 3.90626C5.03004 3.79871 5.0044 3.68231 5.00313 3.56437C4.99925 3.4239 5.02395 3.28409 5.07574 3.15345C5.12752 3.02281 5.20531 2.90405 5.30438 2.80437H5.30688ZM2.5 6H7.5V8H2.5V6ZM3.5 9H7.5V13H3.5V9ZM12.5 13H8.5V9H12.5V13ZM13.5 8H8.5V6H13.5V8Z" fill="#22B5E9"/>
</svg>
