<svg width="20" height="20" viewBox="0 0 20 20" fill="none" xmlns="http://www.w3.org/2000/svg">
<path d="M18.125 10C18.1225 11.9858 17.3939 13.9021 16.0765 15.388C14.7591 16.8739 12.9439 17.8268 10.9727 18.0672C10.9288 18.0722 10.8843 18.0678 10.8423 18.0543C10.8002 18.0409 10.7615 18.0186 10.7286 17.9891C10.6958 17.9596 10.6695 17.9234 10.6517 17.883C10.6338 17.8426 10.6247 17.7989 10.625 17.7547V11.875H12.5C12.5857 11.8752 12.6705 11.8578 12.7492 11.8238C12.8278 11.7898 12.8987 11.7401 12.9573 11.6776C13.0159 11.6151 13.061 11.5412 13.0899 11.4605C13.1187 11.3798 13.1307 11.2941 13.125 11.2086C13.1112 11.0479 13.0371 10.8984 12.9175 10.7901C12.7979 10.6818 12.6418 10.6228 12.4805 10.625H10.625V8.75001C10.625 8.41849 10.7567 8.10055 10.9911 7.86613C11.2256 7.63171 11.5435 7.50001 11.875 7.50001H13.125C13.2107 7.5002 13.2955 7.48277 13.3742 7.4488C13.4528 7.41484 13.5237 7.36506 13.5823 7.30257C13.6409 7.24007 13.686 7.16619 13.7149 7.08552C13.7437 7.00484 13.7557 6.9191 13.75 6.83361C13.7362 6.67262 13.6618 6.52286 13.5419 6.41455C13.422 6.30624 13.2655 6.24744 13.1039 6.25001H11.875C11.212 6.25001 10.5761 6.5134 10.1073 6.98224C9.63842 7.45109 9.37503 8.08697 9.37503 8.75001V10.625H7.50003C7.41435 10.6248 7.32954 10.6423 7.25088 10.6762C7.17222 10.7102 7.10139 10.76 7.04277 10.8225C6.98416 10.885 6.93903 10.9588 6.91017 11.0395C6.88131 11.1202 6.86935 11.2059 6.87503 11.2914C6.88885 11.4524 6.96322 11.6022 7.08312 11.7105C7.20303 11.8188 7.35956 11.8776 7.52112 11.875H9.37503V17.7563C9.37529 17.8004 9.36622 17.844 9.34842 17.8844C9.33061 17.9247 9.30446 17.9608 9.2717 17.9903C9.23893 18.0198 9.20029 18.0421 9.15832 18.0556C9.11634 18.0691 9.07198 18.0736 9.02815 18.0688C7.00421 17.8223 5.14656 16.8249 3.8229 15.2741C2.49923 13.7233 1.80603 11.7321 1.88049 9.69454C2.03674 5.47579 5.45393 2.0461 9.67581 1.88204C10.7688 1.8397 11.8592 2.01825 12.8816 2.40701C13.9041 2.79578 14.8376 3.38676 15.6264 4.14462C16.4152 4.90248 17.043 5.81164 17.4723 6.81773C17.9016 7.82381 18.1236 8.90615 18.125 10Z" fill="white"/>
</svg>
