<svg width="56" height="56" viewBox="0 0 56 56" fill="none" xmlns="http://www.w3.org/2000/svg">
<path d="M0 12.8C0 8.31958 0 6.07937 0.871948 4.36808C1.63893 2.86278 2.86278 1.63893 4.36808 0.871948C6.07937 0 8.31958 0 12.8 0H43.2C47.6804 0 49.9206 0 51.6319 0.871948C53.1372 1.63893 54.3611 2.86278 55.1281 4.36808C56 6.07937 56 8.31958 56 12.8V43.2C56 47.6804 56 49.9206 55.1281 51.6319C54.3611 53.1372 53.1372 54.3611 51.6319 55.1281C49.9206 56 47.6804 56 43.2 56H12.8C8.31958 56 6.07937 56 4.36808 55.1281C2.86278 54.3611 1.63893 53.1372 0.871948 51.6319C0 49.9206 0 47.6804 0 43.2V12.8Z" fill="#89E8A6" fill-opacity="0.1"/>
<path d="M20.015 30.475C20.0184 30.5427 20.008 30.6105 19.9844 30.674C19.9608 30.7376 19.9245 30.7957 19.8777 30.8448C19.8309 30.8939 19.7747 30.933 19.7123 30.9597C19.65 30.9864 19.5828 31.0001 19.515 31H14C13.7743 31.0003 13.5551 30.9243 13.3781 30.7843C13.2011 30.6443 13.0766 30.4485 13.025 30.2288C12.9929 30.0784 12.9943 29.9227 13.0294 29.773C13.0644 29.6232 13.132 29.4831 13.2275 29.3625C14.1098 28.1925 15.2804 27.2712 16.625 26.6888C16.0347 26.1505 15.5819 25.4786 15.3046 24.7294C15.0273 23.9802 14.9336 23.1755 15.0313 22.3826C15.129 21.5897 15.4152 20.8317 15.8661 20.1722C16.3169 19.5127 16.9192 18.9708 17.6226 18.592C18.3259 18.2131 19.1098 18.0083 19.9085 17.9947C20.7073 17.9811 21.4977 18.159 22.2135 18.5137C22.9294 18.8684 23.5498 19.3894 24.0229 20.0332C24.4959 20.6769 24.8079 21.4247 24.9325 22.2138C24.9486 22.3199 24.9296 22.4283 24.8784 22.5227C24.8272 22.617 24.7465 22.692 24.6488 22.7363C23.2618 23.3775 22.0871 24.4021 21.2634 25.6891C20.4397 26.9761 20.0013 28.4719 20 30C20 30.16 20 30.3175 20.015 30.475ZM42.765 29.3613C41.8848 28.1926 40.7169 27.2719 39.375 26.6888C39.9654 26.1505 40.4181 25.4786 40.6954 24.7294C40.9727 23.9802 41.0664 23.1755 40.9687 22.3826C40.8711 21.5897 40.5848 20.8317 40.134 20.1722C39.6831 19.5127 39.0808 18.9708 38.3775 18.592C37.6741 18.2131 36.8903 18.0083 36.0915 17.9947C35.2927 17.9811 34.5023 18.159 33.7865 18.5137C33.0707 18.8684 32.4502 19.3894 31.9772 20.0332C31.5041 20.6769 31.1922 21.4247 31.0675 22.2138C31.0514 22.3199 31.0704 22.4283 31.1216 22.5227C31.1729 22.617 31.2535 22.692 31.3513 22.7363C32.7383 23.3775 33.9129 24.4021 34.7366 25.6891C35.5603 26.9761 35.9987 28.4719 36 30C36 30.16 36 30.3175 35.985 30.475C35.9816 30.5427 35.992 30.6105 36.0157 30.674C36.0393 30.7376 36.0755 30.7957 36.1223 30.8448C36.1691 30.8939 36.2254 30.933 36.2877 30.9597C36.3501 30.9864 36.4172 31.0001 36.485 31H42C42.2257 31.0003 42.4449 30.9243 42.6219 30.7843C42.7989 30.6443 42.9234 30.4485 42.975 30.2288C43.0074 30.0781 43.0059 29.9221 42.9706 29.7721C42.9354 29.6221 42.8673 29.4818 42.7713 29.3613H42.765ZM31.64 34.7588C32.6357 33.9962 33.3674 32.9408 33.7323 31.741C34.0972 30.5411 34.0769 29.257 33.6744 28.0692C33.2718 26.8815 32.5071 25.8497 31.4879 25.119C30.4686 24.3882 29.246 23.9952 27.9919 23.9952C26.7377 23.9952 25.5151 24.3882 24.4959 25.119C23.4766 25.8497 22.712 26.8815 22.3094 28.0692C21.9068 29.257 21.8866 30.5411 22.2515 31.741C22.6164 32.9408 23.3481 33.9962 24.3438 34.7588C22.5769 35.5243 21.1016 36.8354 20.1338 38.5C20.046 38.652 19.9998 38.8245 19.9998 39.0001C19.9998 39.1756 20.046 39.3481 20.1338 39.5001C20.2216 39.6521 20.3479 39.7784 20.4999 39.8661C20.652 39.9539 20.8245 40 21 40H35C35.1756 40 35.348 39.9539 35.5001 39.8661C35.6521 39.7784 35.7784 39.6521 35.8662 39.5001C35.954 39.3481 36.0002 39.1756 36.0002 39.0001C36.0002 38.8245 35.954 38.652 35.8663 38.5C34.8964 36.8343 33.4183 35.5231 31.6488 34.7588H31.64Z" fill="#89E8A6"/>
</svg>
