<svg width="48" height="48" viewBox="0 0 48 48" fill="none" xmlns="http://www.w3.org/2000/svg">
<path d="M41.5 24.1998C41.5002 28.3204 40.0464 32.3089 37.3946 35.4628C34.7428 38.6167 31.0632 40.7337 27.0037 41.441C22.9443 42.1483 18.7655 41.4004 15.2034 39.3291C11.6412 37.2579 8.92417 33.996 7.53083 30.1182C6.13749 26.2403 6.15722 21.9952 7.58654 18.1304C9.01585 14.2657 11.7631 11.0293 15.3443 8.9912C18.9256 6.95312 23.1112 6.24413 27.1638 6.98909C31.2165 7.73405 34.8763 9.88519 37.4987 13.0636C37.6289 13.2101 37.7282 13.3813 37.7907 13.5671C37.8533 13.7528 37.8777 13.9492 37.8627 14.1446C37.8476 14.34 37.7933 14.5304 37.703 14.7043C37.6127 14.8782 37.4882 15.0322 37.3371 15.157C37.186 15.2817 37.0113 15.3748 36.8234 15.4305C36.6355 15.4862 36.4383 15.5035 36.2436 15.4813C36.0489 15.4592 35.8606 15.398 35.6901 15.3014C35.5196 15.2048 35.3702 15.0749 35.251 14.9193C33.1062 12.3186 30.1265 10.5413 26.819 9.88976C23.5114 9.2382 20.0803 9.75266 17.1093 11.3456C14.1383 12.9385 11.8109 15.5116 10.5231 18.627C9.23528 21.7424 9.06655 25.2078 10.0456 28.4336C11.0247 31.6594 13.0911 34.4463 15.8933 36.3204C18.6955 38.1944 22.0604 39.0398 25.4156 38.7126C28.7708 38.3855 31.909 36.906 34.2964 34.526C36.6838 32.146 38.1729 29.0123 38.5104 25.6581H24C23.6132 25.6581 23.2423 25.5045 22.9688 25.231C22.6953 24.9575 22.5417 24.5866 22.5417 24.1998C22.5417 23.813 22.6953 23.4421 22.9688 23.1686C23.2423 22.8951 23.6132 22.7415 24 22.7415H40.0417C40.4284 22.7415 40.7994 22.8951 41.0729 23.1686C41.3464 23.4421 41.5 23.813 41.5 24.1998Z" fill="white"/>
</svg>
