<svg width="24" height="24" viewBox="0 0 24 24" fill="none" xmlns="http://www.w3.org/2000/svg">
<path d="M0 12C0 8.27247 0 6.4087 0.608964 4.93853C1.42092 2.97831 2.97831 1.42092 4.93853 0.608964C6.4087 0 8.27247 0 12 0V0C15.7275 0 17.5913 0 19.0615 0.608964C21.0217 1.42092 22.5791 2.97831 23.391 4.93853C24 6.4087 24 8.27247 24 12V12C24 15.7275 24 17.5913 23.391 19.0615C22.5791 21.0217 21.0217 22.5791 19.0615 23.391C17.5913 24 15.7275 24 12 24V24C8.27247 24 6.4087 24 4.93853 23.391C2.97831 22.5791 1.42092 21.0217 0.608964 19.0615C0 17.5913 0 15.7275 0 12V12Z" fill="#1A202C" fill-opacity="0.05"/>
<path d="M14 5C13.2108 5.00071 12.433 5.18805 11.73 5.54673C11.0271 5.9054 10.4189 6.42525 9.95518 7.06381C9.49146 7.70238 9.18534 8.44157 9.0618 9.22102C8.93827 10.0005 9.00083 10.7981 9.24438 11.5487L5.64625 15.1462C5.59983 15.1927 5.56303 15.2479 5.53793 15.3086C5.51284 15.3693 5.49995 15.4343 5.5 15.5V18C5.5 18.1326 5.55268 18.2598 5.64645 18.3536C5.74021 18.4473 5.86739 18.5 6 18.5H8.5C8.63261 18.5 8.75979 18.4473 8.85355 18.3536C8.94732 18.2598 9 18.1326 9 18V17H10C10.1326 17 10.2598 16.9473 10.3536 16.8536C10.4473 16.7598 10.5 16.6326 10.5 16.5V15.5H11.5C11.5657 15.5001 11.6307 15.4872 11.6914 15.4621C11.7521 15.437 11.8073 15.4002 11.8538 15.3538L12.4513 14.7556C13.1385 14.9787 13.8658 15.0503 14.5833 14.9653C15.3008 14.8803 15.9914 14.6408 16.6075 14.2634C17.2235 13.8859 17.7505 13.3794 18.152 12.7787C18.5536 12.1781 18.8201 11.4975 18.9334 10.784C19.0467 10.0704 19.004 9.34072 18.8082 8.64524C18.6125 7.94975 18.2683 7.30495 17.7994 6.75524C17.3305 6.20553 16.7481 5.76397 16.0922 5.46096C15.4363 5.15794 14.7225 5.00068 14 5ZM14 14C13.4939 14.0009 12.9922 13.9052 12.5219 13.7181C12.4299 13.6782 12.328 13.6669 12.2295 13.6856C12.1309 13.7043 12.0403 13.7522 11.9694 13.8231L11.2931 14.5H10C9.86739 14.5 9.74021 14.5527 9.64645 14.6464C9.55268 14.7402 9.5 14.8674 9.5 15V16H8.5C8.36739 16 8.24022 16.0527 8.14645 16.1464C8.05268 16.2402 8 16.3674 8 16.5V17.5H6.5V15.7069L10.1769 12.0306C10.2478 11.9597 10.2957 11.8691 10.3144 11.7705C10.3331 11.672 10.3218 11.5701 10.2819 11.4781C9.96568 10.683 9.91278 9.80749 10.131 8.98011C10.3491 8.15273 10.8269 7.41712 11.494 6.88132C12.1611 6.34551 12.9825 6.03776 13.8375 6.00325C14.6924 5.96875 15.5359 6.20932 16.2441 6.68963C16.9522 7.16993 17.4877 7.86466 17.7718 8.67177C18.0559 9.47888 18.0737 10.3558 17.8226 11.1738C17.5715 11.9918 17.0648 12.7077 16.3767 13.2164C15.6887 13.7251 14.8557 13.9997 14 14ZM16 8.75C16 8.89834 15.956 9.04334 15.8736 9.16668C15.7912 9.29001 15.6741 9.38614 15.537 9.44291C15.4 9.49968 15.2492 9.51453 15.1037 9.48559C14.9582 9.45665 14.8246 9.38522 14.7197 9.28033C14.6148 9.17544 14.5433 9.0418 14.5144 8.89632C14.4855 8.75083 14.5003 8.60003 14.5571 8.46299C14.6139 8.32594 14.71 8.20881 14.8333 8.1264C14.9567 8.04399 15.1017 8 15.25 8C15.4489 8 15.6397 8.07902 15.7803 8.21967C15.921 8.36032 16 8.55109 16 8.75Z" fill="#1A202C"/>
</svg>
