<svg width="56" height="56" viewBox="0 0 56 56" fill="none" xmlns="http://www.w3.org/2000/svg">
<path d="M0 12.8C0 8.31958 0 6.07937 0.871948 4.36808C1.63893 2.86278 2.86278 1.63893 4.36808 0.871948C6.07937 0 8.31958 0 12.8 0H43.2C47.6804 0 49.9206 0 51.6319 0.871948C53.1372 1.63893 54.3611 2.86278 55.1281 4.36808C56 6.07937 56 8.31958 56 12.8V43.2C56 47.6804 56 49.9206 55.1281 51.6319C54.3611 53.1372 53.1372 54.3611 51.6319 55.1281C49.9206 56 47.6804 56 43.2 56H12.8C8.31958 56 6.07937 56 4.36808 55.1281C2.86278 54.3611 1.63893 53.1372 0.871948 51.6319C0 49.9206 0 47.6804 0 43.2V12.8Z" fill="#53D2FF" fill-opacity="0.1"/>
<path d="M40 18V21.5C40 21.7652 39.8946 22.0196 39.7071 22.2071C39.5196 22.3946 39.2652 22.5 39 22.5C38.7348 22.5 38.4804 22.3946 38.2929 22.2071C38.1054 22.0196 38 21.7652 38 21.5V18H34.5C34.2348 18 33.9804 17.8946 33.7929 17.7071C33.6054 17.5196 33.5 17.2652 33.5 17C33.5 16.7348 33.6054 16.4804 33.7929 16.2929C33.9804 16.1054 34.2348 16 34.5 16H38C38.5304 16 39.0391 16.2107 39.4142 16.5858C39.7893 16.9609 40 17.4696 40 18ZM39 33.5C38.7348 33.5 38.4804 33.6054 38.2929 33.7929C38.1054 33.9804 38 34.2348 38 34.5V38H34.5C34.2348 38 33.9804 38.1054 33.7929 38.2929C33.6054 38.4804 33.5 38.7348 33.5 39C33.5 39.2652 33.6054 39.5196 33.7929 39.7071C33.9804 39.8946 34.2348 40 34.5 40H38C38.5304 40 39.0391 39.7893 39.4142 39.4142C39.7893 39.0391 40 38.5304 40 38V34.5C40 34.2348 39.8946 33.9804 39.7071 33.7929C39.5196 33.6054 39.2652 33.5 39 33.5ZM21.5 38H18V34.5C18 34.2348 17.8946 33.9804 17.7071 33.7929C17.5196 33.6054 17.2652 33.5 17 33.5C16.7348 33.5 16.4804 33.6054 16.2929 33.7929C16.1054 33.9804 16 34.2348 16 34.5V38C16 38.5304 16.2107 39.0391 16.5858 39.4142C16.9609 39.7893 17.4696 40 18 40H21.5C21.7652 40 22.0196 39.8946 22.2071 39.7071C22.3946 39.5196 22.5 39.2652 22.5 39C22.5 38.7348 22.3946 38.4804 22.2071 38.2929C22.0196 38.1054 21.7652 38 21.5 38ZM17 22.5C17.2652 22.5 17.5196 22.3946 17.7071 22.2071C17.8946 22.0196 18 21.7652 18 21.5V18H21.5C21.7652 18 22.0196 17.8946 22.2071 17.7071C22.3946 17.5196 22.5 17.2652 22.5 17C22.5 16.7348 22.3946 16.4804 22.2071 16.2929C22.0196 16.1054 21.7652 16 21.5 16H18C17.4696 16 16.9609 16.2107 16.5858 16.5858C16.2107 16.9609 16 17.4696 16 18V21.5C16 21.7652 16.1054 22.0196 16.2929 22.2071C16.4804 22.3946 16.7348 22.5 17 22.5ZM24.625 29.6887C23.2666 30.2781 22.0859 31.2123 21.2 32.3988C21.0882 32.5473 21.0201 32.7241 21.0032 32.9093C20.9863 33.0944 21.0214 33.2806 21.1045 33.4469C21.1876 33.6133 21.3154 33.7531 21.4736 33.8508C21.6318 33.9485 21.8141 34.0002 22 34H34C34.1859 34.0002 34.3682 33.9485 34.5264 33.8508C34.6846 33.7531 34.8124 33.6133 34.8955 33.4469C34.9786 33.2806 35.0137 33.0944 34.9968 32.9093C34.9799 32.7241 34.9118 32.5473 34.8 32.3988C33.9141 31.2123 32.7334 30.2781 31.375 29.6887C32.1196 29.0089 32.6413 28.1199 32.8716 27.1382C33.1019 26.1566 33.03 25.1283 32.6654 24.1883C32.3009 23.2482 31.6606 22.4404 30.8287 21.8707C29.9967 21.3011 29.012 20.9962 28.0037 20.9962C26.9955 20.9962 26.0108 21.3011 25.1788 21.8707C24.3469 22.4404 23.7066 23.2482 23.3421 24.1883C22.9775 25.1283 22.9056 26.1566 23.1359 27.1382C23.3662 28.1199 23.8879 29.0089 24.6325 29.6887H24.625Z" fill="#53D2FF"/>
</svg>
