<svg width="16" height="16" viewBox="0 0 16 16" fill="none" xmlns="http://www.w3.org/2000/svg">
<path d="M10 1C9.21082 1.00071 8.433 1.18805 7.73003 1.54673C7.02707 1.9054 6.4189 2.42525 5.95518 3.06381C5.49146 3.70238 5.18534 4.44157 5.0618 5.22102C4.93827 6.00047 5.00083 6.79809 5.24438 7.54875L1.64625 11.1462C1.59983 11.1927 1.56303 11.2479 1.53793 11.3086C1.51284 11.3693 1.49995 11.4343 1.5 11.5V14C1.5 14.1326 1.55268 14.2598 1.64645 14.3536C1.74021 14.4473 1.86739 14.5 2 14.5H4.5C4.63261 14.5 4.75979 14.4473 4.85355 14.3536C4.94732 14.2598 5 14.1326 5 14V13H6C6.13261 13 6.25979 12.9473 6.35355 12.8536C6.44732 12.7598 6.5 12.6326 6.5 12.5V11.5H7.5C7.56568 11.5001 7.63073 11.4872 7.69142 11.4621C7.75212 11.437 7.80728 11.4002 7.85375 11.3538L8.45125 10.7556C9.13845 10.9787 9.86584 11.0503 10.5833 10.9653C11.3008 10.8803 11.9914 10.6408 12.6075 10.2634C13.2235 9.88591 13.7505 9.37941 14.152 8.77874C14.5536 8.17808 14.8201 7.49753 14.9334 6.78395C15.0467 6.07038 15.004 5.34072 14.8082 4.64524C14.6125 3.94975 14.2683 3.30495 13.7994 2.75524C13.3305 2.20553 12.7481 1.76397 12.0922 1.46096C11.4363 1.15794 10.7225 1.00068 10 1ZM10 10C9.49385 10.0009 8.99219 9.90519 8.52188 9.71813C8.42987 9.6782 8.32799 9.66686 8.22946 9.68558C8.13094 9.70431 8.04031 9.75223 7.96938 9.82312L7.29313 10.5H6C5.86739 10.5 5.74021 10.5527 5.64645 10.6464C5.55268 10.7402 5.5 10.8674 5.5 11V12H4.5C4.36739 12 4.24022 12.0527 4.14645 12.1464C4.05268 12.2402 4 12.3674 4 12.5V13.5H2.5V11.7069L6.17688 8.03063C6.24777 7.95969 6.29569 7.86907 6.31442 7.77054C6.33314 7.67201 6.3218 7.57013 6.28188 7.47813C5.96568 6.68303 5.91279 5.80749 6.13095 4.98011C6.34912 4.15273 6.82686 3.41712 7.49399 2.88132C8.16113 2.34551 8.9825 2.03776 9.83746 2.00325C10.6924 1.96875 11.5359 2.20932 12.2441 2.68963C12.9522 3.16993 13.4877 3.86466 13.7718 4.67177C14.0559 5.47888 14.0737 6.35583 13.8226 7.17382C13.5715 7.99181 13.0648 8.70772 12.3767 9.2164C11.6887 9.72509 10.8557 9.99973 10 10ZM12 4.75C12 4.89834 11.956 5.04334 11.8736 5.16668C11.7912 5.29001 11.6741 5.38614 11.537 5.44291C11.4 5.49968 11.2492 5.51453 11.1037 5.48559C10.9582 5.45665 10.8246 5.38522 10.7197 5.28033C10.6148 5.17544 10.5434 5.0418 10.5144 4.89632C10.4855 4.75083 10.5003 4.60003 10.5571 4.46299C10.6139 4.32594 10.71 4.20881 10.8333 4.1264C10.9567 4.04399 11.1017 4 11.25 4C11.4489 4 11.6397 4.07902 11.7803 4.21967C11.921 4.36032 12 4.55109 12 4.75Z" fill="#1A202C"/>
</svg>
