<svg width="16" height="16" viewBox="0 0 16 16" fill="none" xmlns="http://www.w3.org/2000/svg">
<path d="M8 7C7.57975 7.00014 7.17358 7.15151 6.85574 7.42644C6.53789 7.70137 6.3296 8.08149 6.26892 8.49734C6.20825 8.91319 6.29925 9.33698 6.52529 9.69127C6.75133 10.0456 7.09731 10.3067 7.5 10.4269V11.5C7.5 11.6326 7.55268 11.7598 7.64645 11.8536C7.74021 11.9473 7.86739 12 8 12C8.13261 12 8.25979 11.9473 8.35355 11.8536C8.44732 11.7598 8.5 11.6326 8.5 11.5V10.4269C8.90269 10.3067 9.24867 10.0456 9.47471 9.69127C9.70075 9.33698 9.79175 8.91319 9.73108 8.49734C9.6704 8.08149 9.46211 7.70137 9.14426 7.42644C8.82642 7.15151 8.42025 7.00014 8 7ZM8 9.5C7.85166 9.5 7.70666 9.45601 7.58332 9.3736C7.45999 9.29119 7.36386 9.17406 7.30709 9.03701C7.25032 8.89997 7.23547 8.74917 7.26441 8.60368C7.29335 8.4582 7.36478 8.32456 7.46967 8.21967C7.57456 8.11478 7.7082 8.04335 7.85368 8.01441C7.99917 7.98547 8.14997 8.00033 8.28701 8.05709C8.42406 8.11386 8.54119 8.20999 8.6236 8.33332C8.70601 8.45666 8.75 8.60166 8.75 8.75C8.75 8.94891 8.67098 9.13968 8.53033 9.28033C8.38968 9.42098 8.19891 9.5 8 9.5ZM13 5H11V3.5C11 2.70435 10.6839 1.94129 10.1213 1.37868C9.55871 0.81607 8.79565 0.5 8 0.5C7.20435 0.5 6.44129 0.81607 5.87868 1.37868C5.31607 1.94129 5 2.70435 5 3.5V5H3C2.73478 5 2.48043 5.10536 2.29289 5.29289C2.10536 5.48043 2 5.73478 2 6V13C2 13.2652 2.10536 13.5196 2.29289 13.7071C2.48043 13.8946 2.73478 14 3 14H13C13.2652 14 13.5196 13.8946 13.7071 13.7071C13.8946 13.5196 14 13.2652 14 13V6C14 5.73478 13.8946 5.48043 13.7071 5.29289C13.5196 5.10536 13.2652 5 13 5ZM6 3.5C6 2.96957 6.21071 2.46086 6.58579 2.08579C6.96086 1.71071 7.46957 1.5 8 1.5C8.53043 1.5 9.03914 1.71071 9.41421 2.08579C9.78929 2.46086 10 2.96957 10 3.5V5H6V3.5ZM13 13H3V6H13V13Z" fill="#343330"/>
</svg>
