<svg width="28" height="28" viewBox="0 0 28 28" fill="none" xmlns="http://www.w3.org/2000/svg">
<path d="M22.75 8.75H10.5V6.125C10.5 5.19674 10.8687 4.3065 11.5251 3.65013C12.1815 2.99375 13.0717 2.625 14 2.625C15.6811 2.625 17.1938 3.82812 17.5175 5.42391C17.5656 5.6494 17.7007 5.84681 17.8935 5.97323C18.0863 6.09965 18.3212 6.14486 18.5472 6.09903C18.7731 6.05321 18.9719 5.92005 19.1002 5.7285C19.2285 5.53695 19.2761 5.3025 19.2325 5.07609C18.7381 2.64141 16.5375 0.875 14 0.875C12.6081 0.876448 11.2735 1.43004 10.2893 2.41429C9.30504 3.39854 8.75145 4.73306 8.75 6.125V8.75H5.25C4.78587 8.75 4.34075 8.93437 4.01256 9.26256C3.68437 9.59075 3.5 10.0359 3.5 10.5V22.75C3.5 23.2141 3.68437 23.6592 4.01256 23.9874C4.34075 24.3156 4.78587 24.5 5.25 24.5H22.75C23.2141 24.5 23.6592 24.3156 23.9874 23.9874C24.3156 23.6592 24.5 23.2141 24.5 22.75V10.5C24.5 10.0359 24.3156 9.59075 23.9874 9.26256C23.6592 8.93437 23.2141 8.75 22.75 8.75ZM14 17.9375C13.7404 17.9375 13.4867 17.8605 13.2708 17.7163C13.055 17.5721 12.8867 17.3671 12.7874 17.1273C12.6881 16.8874 12.6621 16.6235 12.7127 16.3689C12.7634 16.1143 12.8884 15.8805 13.0719 15.6969C13.2555 15.5134 13.4893 15.3884 13.7439 15.3377C13.9985 15.2871 14.2624 15.3131 14.5023 15.4124C14.7421 15.5117 14.9471 15.68 15.0913 15.8958C15.2355 16.1117 15.3125 16.3654 15.3125 16.625C15.3125 16.9731 15.1742 17.3069 14.9281 17.5531C14.6819 17.7992 14.3481 17.9375 14 17.9375Z" fill="white"/>
</svg>
