<svg width="37" height="37" viewBox="0 0 37 37" fill="none" xmlns="http://www.w3.org/2000/svg">
<rect width="37" height="37" rx="10.5714" fill="#22B5E9" fill-opacity="0.14"/>
<path d="M10.4352 12.4273C14.6968 6.36693 24.2937 6.90701 27.5287 13.6925C28.4727 15.6734 28.7997 17.8079 28.5098 20.0961C28.4828 20.3081 28.5738 20.5891 28.2097 20.5891C21.6971 20.5924 15.1851 20.5924 8.67358 20.5891C8.64977 20.5891 8.62666 20.581 8.60822 20.5659C8.58977 20.5509 8.57713 20.5299 8.57244 20.5066C8.00603 17.6817 8.77642 14.7845 10.4352 12.4273ZM13.8573 16.398C16.9984 16.4383 20.1597 16.444 23.3413 16.4148C23.3978 16.4143 23.4526 16.3948 23.4966 16.3593C23.5407 16.3239 23.5715 16.2747 23.584 16.2196C23.6042 16.1299 23.5846 16.011 23.525 15.8629C21.7449 11.4851 15.6593 11.7442 13.6432 15.7418C13.4847 16.0564 13.2892 16.3896 13.8573 16.398Z" fill="#1A202C"/>
<path d="M15.4842 28.3336C12.7179 27.5361 10.3763 25.465 9.3177 22.7999C9.30781 22.7749 9.30419 22.7479 9.30715 22.7212C9.31012 22.6945 9.31957 22.6689 9.33469 22.6467C9.34981 22.6245 9.37014 22.6063 9.39391 22.5937C9.41769 22.5811 9.44419 22.5745 9.47111 22.5745L14.267 22.5644C14.2991 22.5644 14.3308 22.5706 14.3603 22.5827C14.3898 22.5948 14.4166 22.6126 14.439 22.635C16.649 24.8542 20.4959 25.0006 22.6149 22.6636C22.6439 22.6309 22.6797 22.6048 22.7199 22.5871C22.76 22.5694 22.8035 22.5605 22.8475 22.561L27.6991 22.5862C27.7285 22.5863 27.7574 22.5939 27.7832 22.6081C27.809 22.6223 27.8308 22.6428 27.8467 22.6677C27.8626 22.6925 27.8721 22.7211 27.8743 22.7506C27.8765 22.7802 27.8713 22.8098 27.8592 22.8369C25.6913 27.6573 20.4993 29.7806 15.4842 28.3336Z" fill="#22B5E9"/>
</svg>
