<svg width="20" height="20" viewBox="0 0 20 20" fill="none" xmlns="http://www.w3.org/2000/svg">
<path d="M10 1.875C8.59724 1.87469 7.2183 2.23757 5.99739 2.9283C4.77648 3.61904 3.7552 4.6141 3.03295 5.81664C2.3107 7.01918 1.9121 8.38822 1.87593 9.79052C1.83976 11.1928 2.16727 12.5806 2.82657 13.8188L1.93985 16.4789C1.8664 16.6992 1.85574 16.9355 1.90906 17.1615C1.96239 17.3874 2.07759 17.5941 2.24176 17.7582C2.40593 17.9224 2.61258 18.0376 2.83854 18.0909C3.0645 18.1443 3.30085 18.1336 3.5211 18.0602L6.18125 17.1734C7.27092 17.753 8.4783 18.0767 9.71174 18.12C10.9452 18.1633 12.1723 17.925 13.2999 17.4232C14.4275 16.9215 15.426 16.1694 16.2195 15.2241C17.0131 14.2789 17.5809 13.1652 17.8798 11.9678C18.1787 10.7703 18.2009 9.52047 17.9446 8.31315C17.6884 7.10584 17.1605 5.97276 16.401 4.99993C15.6414 4.02711 14.6703 3.24009 13.5612 2.69864C12.4521 2.15718 11.2342 1.87551 10 1.875ZM14.1922 9.19219L11.6922 11.6922C11.6341 11.7503 11.5652 11.7964 11.4893 11.8279C11.4135 11.8593 11.3321 11.8755 11.25 11.8755C11.1679 11.8755 11.0865 11.8593 11.0107 11.8279C10.9348 11.7964 10.8659 11.7503 10.8078 11.6922L8.75 9.63359L6.69219 11.6922C6.57492 11.8095 6.41586 11.8753 6.25 11.8753C6.08415 11.8753 5.92509 11.8095 5.80782 11.6922C5.69054 11.5749 5.62466 11.4159 5.62466 11.25C5.62466 11.0841 5.69054 10.9251 5.80782 10.8078L8.30782 8.30781C8.36586 8.2497 8.43479 8.2036 8.51067 8.17215C8.58654 8.1407 8.66787 8.12451 8.75 8.12451C8.83214 8.12451 8.91347 8.1407 8.98934 8.17215C9.06522 8.2036 9.13415 8.2497 9.19219 8.30781L11.25 10.3664L13.3078 8.30781C13.3659 8.24974 13.4348 8.20368 13.5107 8.17225C13.5866 8.14083 13.6679 8.12465 13.75 8.12465C13.8321 8.12465 13.9134 8.14083 13.9893 8.17225C14.0652 8.20368 14.1341 8.24974 14.1922 8.30781C14.2503 8.36588 14.2963 8.43482 14.3278 8.51069C14.3592 8.58656 14.3754 8.66788 14.3754 8.75C14.3754 8.83212 14.3592 8.91344 14.3278 8.98931C14.2963 9.06518 14.2503 9.13412 14.1922 9.19219Z" fill="white"/>
</svg>
