<svg width="21" height="20" viewBox="0 0 21 20" fill="none" xmlns="http://www.w3.org/2000/svg">
<path d="M13.625 10C13.625 10.6181 13.4417 11.2223 13.0983 11.7362C12.755 12.2501 12.2669 12.6506 11.6959 12.8871C11.1249 13.1236 10.4965 13.1855 9.89034 13.065C9.28415 12.9444 8.72733 12.6467 8.29029 12.2097C7.85325 11.7727 7.55562 11.2158 7.43505 10.6097C7.31447 10.0035 7.37635 9.37513 7.61288 8.80411C7.8494 8.2331 8.24994 7.74504 8.76384 7.40166C9.27775 7.05828 9.88193 6.875 10.5 6.875C11.3288 6.875 12.1237 7.20424 12.7097 7.79029C13.2958 8.37634 13.625 9.1712 13.625 10ZM19.875 5V15C19.875 15.1658 19.8092 15.3247 19.6919 15.4419C19.5747 15.5592 19.4158 15.625 19.25 15.625H1.75C1.58424 15.625 1.42527 15.5592 1.30806 15.4419C1.19085 15.3247 1.125 15.1658 1.125 15V5C1.125 4.83424 1.19085 4.67527 1.30806 4.55806C1.42527 4.44085 1.58424 4.375 1.75 4.375H19.25C19.4158 4.375 19.5747 4.44085 19.6919 4.55806C19.8092 4.67527 19.875 4.83424 19.875 5ZM18.625 8.62109C17.9153 8.41125 17.2694 8.02719 16.7461 7.50389C16.2228 6.98059 15.8387 6.33468 15.6289 5.625H5.37109C5.16125 6.33468 4.77719 6.98059 4.25389 7.50389C3.73059 8.02719 3.08468 8.41125 2.375 8.62109V11.3789C3.08468 11.5887 3.73059 11.9728 4.25389 12.4961C4.77719 13.0194 5.16125 13.6653 5.37109 14.375H15.6289C15.8387 13.6653 16.2228 13.0194 16.7461 12.4961C17.2694 11.9728 17.9153 11.5887 18.625 11.3789V8.62109Z" fill="#2CBFF3"/>
</svg>
