<svg width="56" height="56" viewBox="0 0 56 56" fill="none" xmlns="http://www.w3.org/2000/svg">
<path d="M0 12.8C0 8.31958 0 6.07937 0.871948 4.36808C1.63893 2.86278 2.86278 1.63893 4.36808 0.871948C6.07937 0 8.31958 0 12.8 0H43.2C47.6804 0 49.9206 0 51.6319 0.871948C53.1372 1.63893 54.3611 2.86278 55.1281 4.36808C56 6.07937 56 8.31958 56 12.8V43.2C56 47.6804 56 49.9206 55.1281 51.6319C54.3611 53.1372 53.1372 54.3611 51.6319 55.1281C49.9206 56 47.6804 56 43.2 56H12.8C8.31958 56 6.07937 56 4.36808 55.1281C2.86278 54.3611 1.63893 53.1372 0.871948 51.6319C0 49.9206 0 47.6804 0 43.2V12.8Z" fill="#A7E1F6" fill-opacity="0.1"/>
<path d="M36.8137 19.0113C35.305 16.425 33.24 15 31 15H25C22.76 15 20.695 16.425 19.1863 19.0113C17.7763 21.4275 17 24.625 17 28C17 31.375 17.7763 34.5725 19.1863 36.9888C20.695 39.575 22.76 41 25 41H31C33.24 41 35.305 39.575 36.8137 36.9888C38.2237 34.5725 39 31.375 39 28C39 24.625 38.2237 21.4275 36.8137 19.0113ZM36.9737 27H32.9737C32.8956 24.948 32.487 22.9219 31.7638 21H35.5875C36.3525 22.6725 36.8575 24.75 36.9737 27ZM34.3988 19H30.8075C30.3898 18.2754 29.8862 17.6039 29.3075 17H31C32.25 17 33.425 17.75 34.3988 19ZM31 39H29.3113C29.8899 38.3961 30.3936 37.7246 30.8113 37H34.4025C33.425 38.25 32.25 39 31 39ZM35.5875 35H31.765C32.4883 33.0781 32.8969 31.052 32.975 29H36.975C36.8575 31.25 36.3525 33.3275 35.5875 35Z" fill="#A7E1F6"/>
</svg>
