<svg width="24" height="24" viewBox="0 0 24 24" fill="none" xmlns="http://www.w3.org/2000/svg">
<path d="M0 12C0 8.27247 0 6.4087 0.608964 4.93853C1.42092 2.97831 2.97831 1.42092 4.93853 0.608964C6.4087 0 8.27247 0 12 0V0C15.7275 0 17.5913 0 19.0615 0.608964C21.0217 1.42092 22.5791 2.97831 23.391 4.93853C24 6.4087 24 8.27247 24 12V12C24 15.7275 24 17.5913 23.391 19.0615C22.5791 21.0217 21.0217 22.5791 19.0615 23.391C17.5913 24 15.7275 24 12 24V24C8.27247 24 6.4087 24 4.93853 23.391C2.97831 22.5791 1.42092 21.0217 0.608964 19.0615C0 17.5913 0 15.7275 0 12V12Z" fill="#22B5E9"/>
<path d="M18.3537 8.85375L10.3537 16.8538C10.3073 16.9002 10.2521 16.9371 10.1914 16.9623C10.1307 16.9874 10.0657 17.0004 9.99997 17.0004C9.93427 17.0004 9.8692 16.9874 9.8085 16.9623C9.7478 16.9371 9.69266 16.9002 9.64622 16.8538L6.14622 13.3538C6.0524 13.2599 5.99969 13.1327 5.99969 13C5.99969 12.8673 6.0524 12.7401 6.14622 12.6463C6.24004 12.5524 6.36729 12.4997 6.49997 12.4997C6.63265 12.4997 6.7599 12.5524 6.85372 12.6463L9.99997 15.7931L17.6462 8.14625C17.74 8.05243 17.8673 7.99973 18 7.99973C18.1327 7.99973 18.2599 8.05243 18.3537 8.14625C18.4475 8.24007 18.5003 8.36732 18.5003 8.5C18.5003 8.63269 18.4475 8.75993 18.3537 8.85375Z" fill="white"/>
</svg>
