<svg width="16" height="16" viewBox="0 0 16 16" fill="none" xmlns="http://www.w3.org/2000/svg">
<path d="M9.35058 5.35687L3.75058 10.8569C3.65706 10.9489 3.53113 11.0004 3.39995 11.0004C3.26877 11.0004 3.14285 10.9489 3.04933 10.8569L0.649328 8.49999C0.602503 8.45395 0.565206 8.39913 0.539567 8.33867C0.513927 8.27822 0.500447 8.2133 0.499896 8.14763C0.499344 8.08196 0.511733 8.01683 0.536353 7.95595C0.560974 7.89507 0.597345 7.83963 0.64339 7.79281C0.689435 7.74598 0.744251 7.70868 0.80471 7.68305C0.865169 7.65741 0.930086 7.64393 0.995754 7.64337C1.06142 7.64282 1.12656 7.65521 1.18744 7.67983C1.24832 7.70445 1.30375 7.74082 1.35058 7.78687L3.39995 9.79937L8.64995 4.64312C8.7446 4.55013 8.87231 4.49854 9.005 4.49972C9.07069 4.5003 9.13563 4.51381 9.19611 4.53949C9.25658 4.56517 9.31141 4.6025 9.35745 4.64937C9.4035 4.69623 9.43986 4.75171 9.46447 4.81263C9.48907 4.87355 9.50144 4.93872 9.50086 5.00441C9.50028 5.07011 9.48676 5.13505 9.46108 5.19552C9.4354 5.256 9.39807 5.31082 9.3512 5.35687H9.35058ZM15.3568 4.64937C15.3108 4.60247 15.256 4.5651 15.1955 4.5394C15.135 4.5137 15.0701 4.50017 15.0044 4.49959C14.9387 4.49901 14.8735 4.51139 14.8126 4.53602C14.7516 4.56064 14.6962 4.59704 14.6493 4.64312L9.39933 9.79937L8.22245 8.64312C8.1278 8.55021 8.00012 8.49871 7.8675 8.49994C7.73488 8.50117 7.60817 8.55503 7.51527 8.64968C7.42236 8.74433 7.37085 8.87201 7.37208 9.00463C7.37331 9.13726 7.42718 9.26396 7.52183 9.35687L9.0487 10.8569C9.14222 10.9489 9.26815 11.0004 9.39933 11.0004C9.53051 11.0004 9.65643 10.9489 9.74995 10.8569L15.35 5.35687C15.3969 5.31089 15.4343 5.2561 15.4601 5.19565C15.4858 5.13519 15.4994 5.07025 15.5 5.00454C15.5007 4.93884 15.4884 4.87364 15.4638 4.8127C15.4392 4.75176 15.4029 4.69626 15.3568 4.64937Z" fill="#22B5E9"/>
</svg>
