<svg width="32" height="33" viewBox="0 0 32 33" fill="none" xmlns="http://www.w3.org/2000/svg">
<rect x="0.5" y="1" width="31" height="31" rx="15.5" stroke="#1A202C" stroke-opacity="0.05"/>
<path d="M21.8625 19.4963C21.5156 18.8988 21 17.2081 21 15C21 13.6739 20.4732 12.4021 19.5355 11.4645C18.5979 10.5268 17.3261 10 16 10C14.6739 10 13.4022 10.5268 12.4645 11.4645C11.5268 12.4021 11 13.6739 11 15C11 17.2087 10.4838 18.8988 10.1369 19.4963C10.0483 19.6482 10.0013 19.8207 10.0007 19.9966C10.0001 20.1724 10.0459 20.3453 10.1334 20.4978C10.221 20.6503 10.3472 20.777 10.4993 20.8652C10.6515 20.9534 10.8242 20.9999 11 21H13.5506C13.666 21.5645 13.9728 22.0718 14.4191 22.4361C14.8654 22.8004 15.4239 22.9994 16 22.9994C16.5761 22.9994 17.1346 22.8004 17.5809 22.4361C18.0272 22.0718 18.334 21.5645 18.4494 21H21C21.1758 20.9998 21.3484 20.9532 21.5005 20.865C21.6525 20.7768 21.7786 20.65 21.8661 20.4975C21.9536 20.345 21.9993 20.1722 21.9987 19.9964C21.998 19.8206 21.9511 19.6481 21.8625 19.4963ZM16 22C15.6899 21.9999 15.3874 21.9037 15.1343 21.7246C14.8811 21.5455 14.6896 21.2924 14.5863 21H17.4138C17.3104 21.2924 17.1189 21.5455 16.8658 21.7246C16.6126 21.9037 16.3101 21.9999 16 22ZM11 20C11.4813 19.1725 12 17.255 12 15C12 13.9391 12.4214 12.9217 13.1716 12.1716C13.9217 11.4214 14.9391 11 16 11C17.0609 11 18.0783 11.4214 18.8284 12.1716C19.5786 12.9217 20 13.9391 20 15C20 17.2531 20.5175 19.1706 21 20H11Z" fill="#1C1C1C"/>
</svg>
