<svg width="56" height="56" viewBox="0 0 56 56" fill="none" xmlns="http://www.w3.org/2000/svg">
<path d="M0 12.8C0 8.31958 0 6.07937 0.871948 4.36808C1.63893 2.86278 2.86278 1.63893 4.36808 0.871948C6.07937 0 8.31958 0 12.8 0H43.2C47.6804 0 49.9206 0 51.6319 0.871948C53.1372 1.63893 54.3611 2.86278 55.1281 4.36808C56 6.07937 56 8.31958 56 12.8V43.2C56 47.6804 56 49.9206 55.1281 51.6319C54.3611 53.1372 53.1372 54.3611 51.6319 55.1281C49.9206 56 47.6804 56 43.2 56H12.8C8.31958 56 6.07937 56 4.36808 55.1281C2.86278 54.3611 1.63893 53.1372 0.871948 51.6319C0 49.9206 0 47.6804 0 43.2V12.8Z" fill="#89E8A6" fill-opacity="0.1"/>
<path d="M35.1344 23.3656C35.2506 23.4817 35.3428 23.6196 35.4057 23.7713C35.4686 23.9231 35.501 24.0857 35.501 24.25C35.501 24.4143 35.4686 24.5769 35.4057 24.7287C35.3428 24.8804 35.2506 25.0183 35.1344 25.1344L26.3844 33.8844C26.2683 34.0006 26.1304 34.0928 25.9787 34.1557C25.8269 34.2186 25.6643 34.251 25.5 34.251C25.3357 34.251 25.1731 34.2186 25.0213 34.1557C24.8696 34.0928 24.7317 34.0006 24.6156 33.8844L20.8656 30.1344C20.6311 29.8998 20.4993 29.5817 20.4993 29.25C20.4993 28.9183 20.6311 28.6002 20.8656 28.3656C21.1002 28.1311 21.4183 27.9993 21.75 27.9993C22.0817 27.9993 22.3998 28.1311 22.6344 28.3656L25.5 31.2328L33.3656 23.3656C33.4817 23.2494 33.6196 23.1572 33.7713 23.0943C33.9231 23.0314 34.0857 22.999 34.25 22.999C34.4143 22.999 34.5769 23.0314 34.7287 23.0943C34.8804 23.1572 35.0183 23.2494 35.1344 23.3656ZM44.25 28C44.25 31.2139 43.297 34.3557 41.5114 37.028C39.7258 39.7003 37.1879 41.7831 34.2186 43.013C31.2493 44.243 27.982 44.5648 24.8298 43.9378C21.6776 43.3107 18.7821 41.7631 16.5095 39.4905C14.2369 37.2179 12.6893 34.3224 12.0622 31.1702C11.4352 28.018 11.757 24.7507 12.987 21.7814C14.2169 18.8121 16.2997 16.2742 18.972 14.4886C21.6443 12.703 24.7861 11.75 28 11.75C32.3084 11.7545 36.439 13.4681 39.4855 16.5145C42.5319 19.561 44.2455 23.6916 44.25 28ZM41.75 28C41.75 25.2805 40.9436 22.6221 39.4327 20.3609C37.9218 18.0997 35.7744 16.3374 33.2619 15.2967C30.7494 14.256 27.9848 13.9837 25.3175 14.5142C22.6503 15.0447 20.2003 16.3543 18.2773 18.2773C16.3543 20.2003 15.0448 22.6503 14.5142 25.3175C13.9837 27.9847 14.256 30.7494 15.2967 33.2619C16.3374 35.7744 18.0997 37.9218 20.3609 39.4327C22.6221 40.9436 25.2805 41.75 28 41.75C31.6455 41.7459 35.1404 40.2959 37.7182 37.7182C40.2959 35.1404 41.7459 31.6455 41.75 28Z" fill="#89E8A6"/>
</svg>
