<svg width="56" height="56" viewBox="0 0 56 56" fill="none" xmlns="http://www.w3.org/2000/svg">
<path d="M0 12.8C0 8.31958 0 6.07937 0.871948 4.36808C1.63893 2.86278 2.86278 1.63893 4.36808 0.871948C6.07937 0 8.31958 0 12.8 0H43.2C47.6804 0 49.9206 0 51.6319 0.871948C53.1372 1.63893 54.3611 2.86278 55.1281 4.36808C56 6.07937 56 8.31958 56 12.8V43.2C56 47.6804 56 49.9206 55.1281 51.6319C54.3611 53.1372 53.1372 54.3611 51.6319 55.1281C49.9206 56 47.6804 56 43.2 56H12.8C8.31958 56 6.07937 56 4.36808 55.1281C2.86278 54.3611 1.63893 53.1372 0.871948 51.6319C0 49.9206 0 47.6804 0 43.2V12.8Z" fill="#22B5E9" fill-opacity="0.1"/>
<path d="M20.5891 26.2812C20.6504 26.1286 20.7413 25.9896 20.8564 25.8722C20.9716 25.7547 21.1088 25.6612 21.2602 25.5969C21.4116 25.5326 21.5742 25.4988 21.7387 25.4974C21.9032 25.4961 22.0663 25.5272 22.2188 25.5891L26.75 27.4031V23C26.75 22.6685 26.8817 22.3505 27.1161 22.1161C27.3505 21.8817 27.6685 21.75 28 21.75C28.3315 21.75 28.6495 21.8817 28.8839 22.1161C29.1183 22.3505 29.25 22.6685 29.25 23V27.4031L33.7812 25.5891C33.9337 25.5275 34.0968 25.4966 34.2612 25.498C34.4256 25.4995 34.5881 25.5334 34.7394 25.5976C34.8908 25.6619 35.028 25.7554 35.1432 25.8727C35.2584 25.99 35.3494 26.1288 35.4109 26.2812C35.4725 26.4337 35.5034 26.5968 35.5019 26.7612C35.5005 26.9256 35.4666 27.0881 35.4024 27.2394C35.3381 27.3908 35.2446 27.528 35.1273 27.6432C35.01 27.7584 34.8712 27.8494 34.7188 27.9109L29.9828 29.8047L32.75 33.5C32.9489 33.7652 33.0343 34.0986 32.9874 34.4268C32.9406 34.755 32.7652 35.0511 32.5 35.25C32.2348 35.4489 31.9014 35.5343 31.5732 35.4874C31.245 35.4406 30.9489 35.2652 30.75 35L28 31.3328L25.25 35C25.1515 35.1313 25.0281 35.242 24.8869 35.3256C24.7456 35.4092 24.5893 35.4642 24.4268 35.4874C24.2643 35.5107 24.0988 35.5016 23.9398 35.4609C23.7808 35.4202 23.6313 35.3485 23.5 35.25C23.3687 35.1515 23.258 35.0281 23.1744 34.8869C23.0908 34.7456 23.0358 34.5893 23.0126 34.4268C22.9893 34.2643 22.9984 34.0988 23.0391 33.9398C23.0798 33.7808 23.1515 33.6313 23.25 33.5L26.0219 29.8047L21.2812 27.9109C21.1286 27.8496 20.9896 27.7587 20.8722 27.6436C20.7547 27.5284 20.6612 27.3912 20.5969 27.2398C20.5326 27.0884 20.4988 26.9258 20.4974 26.7613C20.4961 26.5968 20.5272 26.4337 20.5891 26.2812ZM43 16.75V25.9328C43 39.9359 31.1531 44.5797 28.7812 45.3687C28.2748 45.5421 27.7252 45.5421 27.2188 45.3687C24.8438 44.5875 13 39.9375 13 25.9344V16.75C13 16.087 13.2634 15.4511 13.7322 14.9822C14.2011 14.5134 14.837 14.25 15.5 14.25H40.5C41.163 14.25 41.7989 14.5134 42.2678 14.9822C42.7366 15.4511 43 16.087 43 16.75ZM40.5 16.75H15.5V25.9359C15.5 38.2016 25.8859 42.2922 28 42.9953C30.1344 42.2828 40.5 38.1891 40.5 25.9359V16.75Z" fill="#22B5E9"/>
</svg>
