<svg width="24" height="25" viewBox="0 0 24 25" fill="none" xmlns="http://www.w3.org/2000/svg">
<path d="M15 1.69922C13.8162 1.70028 12.6495 1.98129 11.595 2.51931C10.5406 3.05732 9.62835 3.83709 8.93277 4.79494C8.23719 5.75279 7.778 6.86157 7.5927 8.03075C7.4074 9.19993 7.50125 10.3964 7.86656 11.5223L2.46938 16.9186C2.39975 16.9883 2.34454 17.071 2.3069 17.1621C2.26926 17.2531 2.24992 17.3507 2.25 17.4492V21.1992C2.25 21.3981 2.32902 21.5889 2.46967 21.7295C2.61032 21.8702 2.80109 21.9492 3 21.9492H6.75C6.94891 21.9492 7.13968 21.8702 7.28033 21.7295C7.42098 21.5889 7.5 21.3981 7.5 21.1992V19.6992H9C9.19891 19.6992 9.38968 19.6202 9.53033 19.4795C9.67098 19.3389 9.75 19.1481 9.75 18.9492V17.4492H11.25C11.3485 17.4493 11.4461 17.43 11.5371 17.3923C11.6282 17.3547 11.7109 17.2995 11.7806 17.2298L12.6769 16.3327C13.7077 16.6673 14.7988 16.7746 15.875 16.6472C16.9513 16.5197 17.9871 16.1605 18.9112 15.5943C19.8353 15.0281 20.6257 14.2683 21.228 13.3673C21.8303 12.4663 22.2302 11.4455 22.4001 10.3751C22.5701 9.30478 22.506 8.2103 22.2124 7.16707C21.9187 6.12384 21.4025 5.15665 20.6991 4.33208C19.9958 3.50752 19.1222 2.84517 18.1383 2.39065C17.1544 1.93614 16.0838 1.70024 15 1.69922ZM15 15.1992C14.2408 15.2005 13.4883 15.057 12.7828 14.7764C12.6448 14.7165 12.492 14.6995 12.3442 14.7276C12.1964 14.7557 12.0605 14.8276 11.9541 14.9339L10.9397 15.9492H9C8.80109 15.9492 8.61032 16.0282 8.46967 16.1689C8.32902 16.3095 8.25 16.5003 8.25 16.6992V18.1992H6.75C6.55109 18.1992 6.36032 18.2782 6.21967 18.4189C6.07902 18.5595 6 18.7503 6 18.9492V20.4492H3.75V17.7595L9.26531 12.2452C9.37165 12.1387 9.44354 12.0028 9.47162 11.855C9.49971 11.7072 9.48271 11.5544 9.42281 11.4164C8.94852 10.2238 8.86918 8.91046 9.19643 7.66939C9.52368 6.42832 10.2403 5.3249 11.241 4.52119C12.2417 3.71748 13.4737 3.25585 14.7562 3.2041C16.0386 3.15235 17.3039 3.5132 18.3661 4.23366C19.4283 4.95412 20.2315 5.99621 20.6577 7.20687C21.0839 8.41754 21.1106 9.73296 20.734 10.9599C20.3573 12.1869 19.5971 13.2608 18.5651 14.0238C17.533 14.7868 16.2835 15.1988 15 15.1992ZM18 7.32422C18 7.54672 17.934 7.76423 17.8104 7.94923C17.6868 8.13424 17.5111 8.27843 17.3055 8.36358C17.1 8.44873 16.8738 8.47101 16.6555 8.4276C16.4373 8.38419 16.2368 8.27705 16.0795 8.11971C15.9222 7.96238 15.815 7.76192 15.7716 7.5437C15.7282 7.32547 15.7505 7.09927 15.8356 6.8937C15.9208 6.68813 16.065 6.51243 16.25 6.38881C16.435 6.2652 16.6525 6.19922 16.875 6.19922C17.1734 6.19922 17.4595 6.31775 17.6705 6.52872C17.8815 6.7397 18 7.02585 18 7.32422Z" fill="#1A202C"/>
</svg>
