<svg width="80" height="81" viewBox="0 0 80 81" fill="none" xmlns="http://www.w3.org/2000/svg">
<rect y="0.200195" width="80" height="80" rx="13.3333" fill="#22B5E9"/>
<path d="M45.8307 19.7842C43.529 19.7862 41.2603 20.3327 39.21 21.3788C37.1597 22.4249 35.3859 23.9411 34.0333 25.8036C32.6808 27.6661 31.788 29.8221 31.4277 32.0955C31.0673 34.3689 31.2498 36.6953 31.9602 38.8847L21.4656 49.3774C21.3302 49.5129 21.2229 49.6738 21.1497 49.8509C21.0765 50.0279 21.0389 50.2176 21.0391 50.4092V57.7008C21.0391 58.0876 21.1927 58.4586 21.4662 58.732C21.7397 59.0055 22.1106 59.1592 22.4974 59.1592H29.7891C30.1758 59.1592 30.5468 59.0055 30.8203 58.732C31.0938 58.4586 31.2474 58.0876 31.2474 57.7008V54.7842H34.1641C34.5508 54.7842 34.9218 54.6305 35.1953 54.357C35.4687 54.0836 35.6224 53.7126 35.6224 53.3258V50.4092H38.5391C38.7306 50.4093 38.9203 50.3717 39.0974 50.2985C39.2744 50.2254 39.4353 50.118 39.5708 49.9826L41.3135 48.2381C43.3179 48.8888 45.4394 49.0975 47.5321 48.8496C49.6249 48.6018 51.639 47.9033 53.4359 46.8024C55.2327 45.7014 56.7696 44.2241 57.9408 42.4722C59.1119 40.7202 59.8895 38.7353 60.2199 36.654C60.5503 34.5728 60.4257 32.4446 59.8548 30.4161C59.2838 28.3876 58.2799 26.507 56.9124 24.9036C55.5448 23.3003 53.846 22.0124 51.933 21.1286C50.0199 20.2449 47.9381 19.7862 45.8307 19.7842ZM45.8307 46.0342C44.3545 46.0367 42.8913 45.7576 41.5195 45.212C41.2512 45.0956 40.954 45.0625 40.6667 45.1171C40.3793 45.1717 40.115 45.3115 39.9081 45.5183L37.9357 47.4925H34.1641C33.7773 47.4925 33.4064 47.6462 33.1329 47.9196C32.8594 48.1931 32.7057 48.5641 32.7057 48.9508V51.8675H29.7891C29.4023 51.8675 29.0314 52.0212 28.7579 52.2946C28.4844 52.5681 28.3307 52.9391 28.3307 53.3258V56.2425H23.9557V51.0126L34.6799 40.2902C34.8867 40.0833 35.0265 39.819 35.0811 39.5316C35.1357 39.2442 35.1027 38.947 34.9862 38.6787C34.064 36.3597 33.9097 33.806 34.546 31.3928C35.1823 28.9797 36.5757 26.8341 38.5215 25.2713C40.4673 23.7086 42.863 22.811 45.3567 22.7103C47.8503 22.6097 50.3105 23.3114 52.3759 24.7123C54.4413 26.1131 56.0031 28.1394 56.8318 30.4935C57.6605 32.8476 57.7125 35.4053 56.9801 37.7911C56.2477 40.1769 54.7696 42.265 52.7628 43.7487C50.7561 45.2323 48.3264 46.0334 45.8307 46.0342ZM51.6641 30.7217C51.6641 31.1543 51.5358 31.5773 51.2954 31.937C51.055 32.2967 50.7134 32.5771 50.3137 32.7427C49.914 32.9082 49.4741 32.9516 49.0498 32.8671C48.6255 32.7827 48.2357 32.5744 47.9298 32.2685C47.6238 31.9625 47.4155 31.5728 47.3311 31.1484C47.2467 30.7241 47.29 30.2843 47.4556 29.8846C47.6211 29.4848 47.9015 29.1432 48.2613 28.9028C48.621 28.6625 49.0439 28.5342 49.4766 28.5342C50.0567 28.5342 50.6131 28.7646 51.0234 29.1749C51.4336 29.5851 51.6641 30.1415 51.6641 30.7217Z" fill="white"/>
</svg>
