<svg width="14" height="14" viewBox="0 0 14 14" fill="none" xmlns="http://www.w3.org/2000/svg">
<path d="M9 0C8.21082 0.000707633 7.433 0.188048 6.73003 0.546725C6.02707 0.905402 5.4189 1.42525 4.95518 2.06381C4.49146 2.70238 4.18534 3.44157 4.0618 4.22102C3.93827 5.00047 4.00083 5.79809 4.24438 6.54875L0.64625 10.1462C0.599833 10.1927 0.563026 10.2479 0.537932 10.3086C0.512838 10.3693 0.499949 10.4343 0.5 10.5V13C0.5 13.1326 0.552679 13.2598 0.646447 13.3536C0.740215 13.4473 0.867392 13.5 1 13.5H3.5C3.63261 13.5 3.75979 13.4473 3.85355 13.3536C3.94732 13.2598 4 13.1326 4 13V12H5C5.13261 12 5.25979 11.9473 5.35355 11.8536C5.44732 11.7598 5.5 11.6326 5.5 11.5V10.5H6.5C6.56568 10.5001 6.63073 10.4872 6.69142 10.4621C6.75212 10.437 6.80728 10.4002 6.85375 10.3538L7.45125 9.75562C8.13845 9.97874 8.86584 10.0503 9.58334 9.96529C10.3008 9.88032 10.9914 9.64085 11.6075 9.26338C12.2235 8.88591 12.7505 8.37941 13.152 7.77874C13.5536 7.17808 13.8201 6.49753 13.9334 5.78395C14.0467 5.07038 14.004 4.34072 13.8082 3.64524C13.6125 2.94975 13.2683 2.30495 12.7994 1.75524C12.3305 1.20553 11.7481 0.763968 11.0922 0.460956C10.4363 0.157945 9.72251 0.000682943 9 0ZM10.25 4.75C10.0522 4.75 9.85888 4.69135 9.69443 4.58147C9.52998 4.47159 9.40181 4.31541 9.32612 4.13268C9.25043 3.94996 9.23063 3.74889 9.26921 3.55491C9.3078 3.36093 9.40304 3.18275 9.54289 3.04289C9.68275 2.90304 9.86093 2.8078 10.0549 2.76921C10.2489 2.73063 10.45 2.75043 10.6327 2.82612C10.8154 2.90181 10.9716 3.02998 11.0815 3.19443C11.1914 3.35888 11.25 3.55222 11.25 3.75C11.25 4.01522 11.1446 4.26957 10.9571 4.45711C10.7696 4.64464 10.5152 4.75 10.25 4.75Z" fill="#22B5E9"/>
</svg>
