<svg width="28" height="29" viewBox="0 0 28 29" fill="none" xmlns="http://www.w3.org/2000/svg">
<path d="M0 6.60019C0 4.35999 0 3.23988 0.435974 2.38423C0.819467 1.63159 1.43139 1.01966 2.18404 0.636169C3.03969 0.200195 4.15979 0.200195 6.4 0.200195H21.6C23.8402 0.200195 24.9603 0.200195 25.816 0.636169C26.5686 1.01966 27.1805 1.63159 27.564 2.38423C28 3.23988 28 4.35999 28 6.6002V21.8002C28 24.0404 28 25.1605 27.564 26.0162C27.1805 26.7688 26.5686 27.3807 25.816 27.7642C24.9603 28.2002 23.8402 28.2002 21.6 28.2002H6.4C4.15979 28.2002 3.03969 28.2002 2.18404 27.7642C1.43139 27.3807 0.819467 26.7688 0.435974 26.0162C0 25.1605 0 24.0404 0 21.8002V6.60019Z" fill="#22B5E9" fill-opacity="0.05"/>
<path d="M16.5 5.4502C15.5135 5.45108 14.5412 5.68526 13.6625 6.1336C12.7838 6.58195 12.0236 7.23175 11.444 8.02996C10.8643 8.82817 10.4817 9.75216 10.3273 10.7265C10.1728 11.7008 10.251 12.6978 10.5555 13.6361L6.05781 18.133C5.99979 18.1911 5.95378 18.26 5.92241 18.3359C5.89105 18.4118 5.87494 18.4931 5.875 18.5752V21.7002C5.875 21.866 5.94085 22.0249 6.05806 22.1421C6.17527 22.2593 6.33424 22.3252 6.5 22.3252H9.625C9.79076 22.3252 9.94973 22.2593 10.0669 22.1421C10.1842 22.0249 10.25 21.866 10.25 21.7002V20.4502H11.5C11.6658 20.4502 11.8247 20.3843 11.9419 20.2671C12.0592 20.1499 12.125 19.991 12.125 19.8252V18.5752H13.375C13.4571 18.5753 13.5384 18.5591 13.6143 18.5278C13.6902 18.4964 13.7591 18.4504 13.8172 18.3924L14.5641 17.6447C15.4231 17.9236 16.3323 18.013 17.2292 17.9068C18.1261 17.8006 18.9893 17.5013 19.7593 17.0294C20.5294 16.5576 21.1881 15.9245 21.69 15.1736C22.192 14.4228 22.5252 13.5721 22.6668 12.6801C22.8084 11.7882 22.755 10.8761 22.5103 10.0067C22.2656 9.13738 21.8354 8.33138 21.2493 7.64425C20.6632 6.95711 19.9351 6.40516 19.1153 6.02639C18.2954 5.64763 17.4031 5.45105 16.5 5.4502ZM16.5 16.7002C15.8673 16.7013 15.2402 16.5817 14.6523 16.3479C14.5373 16.2979 14.41 16.2838 14.2868 16.3072C14.1637 16.3306 14.0504 16.3905 13.9617 16.4791L13.1164 17.3252H11.5C11.3342 17.3252 11.1753 17.391 11.0581 17.5083C10.9408 17.6255 10.875 17.7844 10.875 17.9502V19.2002H9.625C9.45924 19.2002 9.30027 19.266 9.18306 19.3833C9.06585 19.5005 9 19.6594 9 19.8252V21.0752H7.125V18.8338L11.7211 14.2385C11.8097 14.1498 11.8696 14.0365 11.893 13.9134C11.9164 13.7902 11.9023 13.6629 11.8523 13.5479C11.4571 12.554 11.391 11.4596 11.6637 10.4253C11.9364 9.39111 12.5336 8.4716 13.3675 7.80184C14.2014 7.13208 15.2281 6.74739 16.2968 6.70426C17.3655 6.66113 18.4199 6.96185 19.3051 7.56223C20.1902 8.16261 20.8596 9.03102 21.2147 10.0399C21.5699 11.0488 21.5922 12.145 21.2783 13.1675C20.9644 14.19 20.3309 15.0848 19.4709 15.7207C18.6109 16.3566 17.5696 16.6999 16.5 16.7002ZM19 10.1377C19 10.3231 18.945 10.5044 18.842 10.6585C18.739 10.8127 18.5926 10.9329 18.4213 11.0038C18.25 11.0748 18.0615 11.0934 17.8796 11.0572C17.6977 11.021 17.5307 10.9317 17.3996 10.8006C17.2685 10.6695 17.1792 10.5024 17.143 10.3206C17.1068 10.1387 17.1254 9.95024 17.1964 9.77893C17.2673 9.60762 17.3875 9.46121 17.5417 9.35819C17.6958 9.25518 17.8771 9.2002 18.0625 9.2002C18.3111 9.2002 18.5496 9.29897 18.7254 9.47478C18.9012 9.6506 19 9.88905 19 10.1377Z" fill="#22B5E9"/>
</svg>
