<svg width="48" height="48" viewBox="0 0 48 48" fill="none" xmlns="http://www.w3.org/2000/svg">
<rect x="0.5" y="0.5" width="47" height="47" rx="6.5" stroke="#E4E4E4"/>
<path d="M17.75 30.25C19.19 30.2481 20.5852 29.7497 21.7005 28.8389C22.8158 27.9281 23.5829 26.6605 23.8725 25.25H26.5V27.75H29V25.25H31.5V29H34V25.25H35.25V22.75H23.8725C23.5829 21.3395 22.8158 20.0719 21.7005 19.1611C20.5852 18.2503 19.19 17.7519 17.75 17.75C14.3038 17.75 11.5 20.5538 11.5 24C11.5 27.4462 14.3038 30.25 17.75 30.25ZM17.75 20.25C19.8175 20.25 21.5 21.9325 21.5 24C21.5 26.0675 19.8175 27.75 17.75 27.75C15.6825 27.75 14 26.0675 14 24C14 21.9325 15.6825 20.25 17.75 20.25Z" fill="#22B5E9"/>
</svg>
