<svg width="20" height="20" viewBox="0 0 20 20" fill="none" xmlns="http://www.w3.org/2000/svg">
<path d="M16.0671 4.81564L4.81713 16.0656C4.69985 16.1829 4.54079 16.2488 4.37494 16.2488C4.20909 16.2488 4.05003 16.1829 3.93275 16.0656C3.81548 15.9484 3.74959 15.7893 3.74959 15.6234C3.74959 15.4576 3.81548 15.2985 3.93275 15.1813L15.1828 3.93126C15.2999 3.81399 15.4589 3.74806 15.6247 3.74799C15.7904 3.74791 15.9495 3.8137 16.0667 3.93087C16.184 4.04804 16.2499 4.207 16.25 4.37278C16.2501 4.53856 16.1843 4.69758 16.0671 4.81486V4.81564ZM3.94838 7.92501C3.42095 7.39748 3.12468 6.68203 3.12476 5.93606C3.12483 5.19009 3.42123 4.47471 3.94877 3.94728C4.4763 3.41985 5.19175 3.12358 5.93772 3.12366C6.68369 3.12373 7.39907 3.42014 7.9265 3.94767C8.45393 4.4752 8.7502 5.19065 8.75012 5.93662C8.75005 6.68259 8.45364 7.39797 7.92611 7.9254C7.39858 8.45283 6.68313 8.7491 5.93716 8.74902C5.19119 8.74895 4.47581 8.45254 3.94838 7.92501ZM4.37494 5.93751C4.37514 6.19442 4.43869 6.44732 4.55996 6.67381C4.68123 6.90031 4.85647 7.0934 5.07018 7.236C5.28388 7.3786 5.52945 7.4663 5.78514 7.49134C6.04083 7.51638 6.29875 7.47799 6.53606 7.37956C6.77337 7.28114 6.98275 7.12571 7.14565 6.92705C7.30856 6.72839 7.41997 6.49263 7.47001 6.24064C7.52005 5.98864 7.50719 5.7282 7.43255 5.48237C7.35792 5.23654 7.22382 5.0129 7.04213 4.83126C6.82351 4.61272 6.54499 4.46392 6.24179 4.40371C5.9386 4.3435 5.62435 4.37457 5.33882 4.493C5.05329 4.61143 4.8093 4.81189 4.63772 5.06902C4.46615 5.32615 4.3747 5.62839 4.37494 5.93751ZM16.8749 14.0625C16.8748 14.7132 16.649 15.3437 16.2361 15.8466C15.8232 16.3495 15.2487 16.6936 14.6105 16.8204C13.9723 16.9472 13.3099 16.8488 12.7361 16.542C12.1623 16.2351 11.7127 15.7388 11.4638 15.1376C11.2149 14.5364 11.1822 13.8676 11.3712 13.2449C11.5602 12.6223 11.9592 12.0845 12.5003 11.7231C13.0414 11.3617 13.6911 11.1991 14.3386 11.263C14.9861 11.3268 15.5915 11.6133 16.0515 12.0734C16.3135 12.3341 16.5212 12.6441 16.6625 12.9855C16.8038 13.3269 16.8761 13.693 16.8749 14.0625ZM15.6249 14.0625C15.625 13.701 15.4997 13.3507 15.2705 13.0712C15.0412 12.7917 14.7221 12.6004 14.3676 12.5298C14.013 12.4592 13.645 12.5137 13.3261 12.684C13.0073 12.8544 12.7574 13.13 12.619 13.464C12.4806 13.7979 12.4623 14.1695 12.5671 14.5155C12.672 14.8614 12.8936 15.1603 13.1941 15.3612C13.4947 15.5621 13.8556 15.6526 14.2153 15.6172C14.5751 15.5818 14.9115 15.4228 15.1671 15.1672C15.3127 15.0225 15.4281 14.8503 15.5067 14.6607C15.5853 14.4711 15.6255 14.2678 15.6249 14.0625Z" fill="#1A202C" fill-opacity="0.2"/>
</svg>
