<svg width="19" height="15" viewBox="0 0 19 15" fill="none" xmlns="http://www.w3.org/2000/svg">
<path d="M10.25 10.3188C11.2298 9.70853 11.9841 8.7958 12.399 7.71866C12.8138 6.64153 12.8665 5.45858 12.5492 4.3488C12.2319 3.23903 11.5617 2.2628 10.6401 1.56781C9.71854 0.872819 8.59568 0.496887 7.44142 0.496887C6.28716 0.496887 5.1643 0.872819 4.24273 1.56781C3.32115 2.2628 2.65099 3.23903 2.33365 4.3488C2.0163 5.45858 2.06904 6.64153 2.48387 7.71866C2.8987 8.7958 3.65307 9.70853 4.63283 10.3188C3.01955 10.8469 1.56798 11.8336 0.400797 13.2227C0.34611 13.2852 0.304438 13.358 0.27822 13.4368C0.252001 13.5157 0.241761 13.5989 0.248098 13.6818C0.254435 13.7646 0.277223 13.8453 0.315128 13.9193C0.353034 13.9932 0.405296 14.0588 0.46886 14.1123C0.532425 14.1658 0.606015 14.2061 0.685328 14.2308C0.764642 14.2555 0.848087 14.2642 0.930785 14.2563C1.01348 14.2483 1.09377 14.224 1.16696 14.1847C1.24015 14.1454 1.30477 14.0919 1.35705 14.0274C2.9258 12.1555 5.08673 11.125 7.43752 11.125C9.7883 11.125 11.9492 12.1555 13.5211 14.0274C13.6278 14.1544 13.7806 14.2338 13.9459 14.2481C14.1111 14.2625 14.2753 14.2106 14.4024 14.1039C14.5294 13.9972 14.6088 13.8444 14.6232 13.6791C14.6375 13.5139 14.5856 13.3497 14.4789 13.2227C13.311 11.8336 11.8594 10.8469 10.25 10.3188ZM3.37502 5.81251C3.37502 5.00903 3.61328 4.22358 4.05967 3.55551C4.50606 2.88743 5.14054 2.36673 5.88286 2.05925C6.62519 1.75177 7.44202 1.67132 8.23007 1.82807C9.01812 1.98482 9.74199 2.37174 10.3101 2.93989C10.8783 3.50804 11.2652 4.23191 11.422 5.01996C11.5787 5.808 11.4983 6.62484 11.1908 7.36716C10.8833 8.10949 10.3626 8.74396 9.69452 9.19036C9.02644 9.63675 8.241 9.87501 7.43752 9.87501C6.36045 9.87377 5.32786 9.44536 4.56626 8.68376C3.80467 7.92217 3.37626 6.88957 3.37502 5.81251ZM18.082 9.17736L17.718 8.9672C17.7607 8.74107 17.7607 8.50895 17.718 8.28282L18.082 8.07267C18.2256 7.98979 18.3304 7.85326 18.3734 7.69312C18.4163 7.53298 18.3938 7.36235 18.311 7.21876C18.2281 7.07517 18.0915 6.97039 17.9314 6.92746C17.7713 6.88453 17.6006 6.90698 17.457 6.98986L17.0922 7.20079C16.9176 7.05099 16.7168 6.93472 16.5 6.85782V6.43751C16.5 6.27175 16.4342 6.11278 16.317 5.99557C16.1997 5.87836 16.0408 5.81251 15.875 5.81251C15.7093 5.81251 15.5503 5.87836 15.4331 5.99557C15.3159 6.11278 15.25 6.27175 15.25 6.43751V6.85782C15.0332 6.93472 14.8324 7.05099 14.6578 7.20079L14.293 6.98986C14.2219 6.94882 14.1434 6.92218 14.062 6.91148C13.9806 6.90077 13.8979 6.9062 13.8186 6.92746C13.7393 6.94871 13.665 6.98538 13.5999 7.03536C13.5348 7.08534 13.4801 7.14766 13.4391 7.21876C13.398 7.28986 13.3714 7.36835 13.3607 7.44974C13.35 7.53113 13.3554 7.61383 13.3767 7.69312C13.3979 7.77242 13.4346 7.84674 13.4846 7.91187C13.5346 7.97699 13.5969 8.03163 13.668 8.07267L14.032 8.28282C13.9893 8.50895 13.9893 8.74107 14.032 8.9672L13.668 9.17736C13.5244 9.26024 13.4196 9.39676 13.3767 9.5569C13.3338 9.71704 13.3562 9.88767 13.4391 10.0313C13.522 10.1749 13.6585 10.2796 13.8186 10.3226C13.9788 10.3655 14.1494 10.343 14.293 10.2602L14.6578 10.0492C14.8324 10.199 15.0332 10.3153 15.25 10.3922V10.8125C15.25 10.9783 15.3159 11.1372 15.4331 11.2545C15.5503 11.3717 15.7093 11.4375 15.875 11.4375C16.0408 11.4375 16.1997 11.3717 16.317 11.2545C16.4342 11.1372 16.5 10.9783 16.5 10.8125V10.3922C16.7168 10.3153 16.9176 10.199 17.0922 10.0492L17.457 10.2602C17.552 10.3153 17.6598 10.3441 17.7695 10.3438C17.9072 10.3438 18.041 10.2984 18.1502 10.2147C18.2594 10.1309 18.3379 10.0134 18.3735 9.88051C18.4091 9.74757 18.3999 9.60659 18.3472 9.47945C18.2945 9.35231 18.2013 9.24612 18.082 9.17736ZM15.25 8.62501C15.25 8.5014 15.2867 8.38056 15.3553 8.27778C15.424 8.175 15.5216 8.09489 15.6358 8.04759C15.75 8.00028 15.8757 7.98791 15.9969 8.01202C16.1182 8.03614 16.2296 8.09566 16.317 8.18307C16.4044 8.27048 16.4639 8.38184 16.488 8.50308C16.5121 8.62432 16.4997 8.74998 16.4524 8.86419C16.4051 8.97839 16.325 9.076 16.2222 9.14468C16.1195 9.21336 15.9986 9.25001 15.875 9.25001C15.7093 9.25001 15.5503 9.18416 15.4331 9.06695C15.3159 8.94974 15.25 8.79077 15.25 8.62501Z" fill="#1C1C1C"/>
</svg>
