<svg width="132" height="24" viewBox="0 0 132 24" fill="none" xmlns="http://www.w3.org/2000/svg">
<path fill-rule="evenodd" clip-rule="evenodd" d="M14.831 9.57689H24L16.585 14.9549L19.407 23.6729L11.992 18.2789L4.576 23.6729L7.415 14.9549L0 9.56089L9.169 9.57689L12.008 0.858887L14.831 9.57689ZM41.758 9.57689H50.927L43.512 14.9549L46.334 23.6729L38.919 18.2789L31.504 23.6729L34.343 14.9549L26.927 9.56089L36.096 9.57689L38.936 0.858887L41.758 9.57689ZM68.686 9.57689H77.855L70.439 14.9549L73.262 23.6729L65.846 18.2789L58.431 23.6729L61.27 14.9549L53.855 9.56089L63.024 9.57689L65.863 0.858887L68.686 9.57689ZM95.613 9.57689H104.782L97.367 14.9549L100.189 23.6729L92.774 18.2789L85.358 23.6729L88.197 14.9549L80.782 9.56089L89.951 9.57689L92.79 0.858887L95.613 9.57689ZM119.919 18.2789L119.936 0.858887L117.096 9.57689L107.927 9.56089L115.343 14.9549L112.504 23.6729L119.919 18.2789Z" fill="#00B67A"/>
<path d="M131.927 9.57689H122.758L119.936 0.858887L119.919 18.2789L127.334 23.6729L124.512 14.9549L131.927 9.57689Z" fill="#00B67A" fill-opacity="0.2"/>
</svg>
