<svg width="41" height="41" viewBox="0 0 41 41" fill="none" xmlns="http://www.w3.org/2000/svg">
<path d="M0 9.21043C0 5.98647 0 4.37449 0.627422 3.14311C1.17932 2.05995 2.05995 1.17932 3.14311 0.627422C4.37449 0 5.98647 0 9.21042 0H31.5153C34.7393 0 36.3513 0 37.5827 0.627422C38.6658 1.17932 39.5464 2.05995 40.0983 3.14311C40.7258 4.37449 40.7258 5.98647 40.7258 9.21042V31.5153C40.7258 34.7393 40.7258 36.3513 40.0983 37.5827C39.5464 38.6658 38.6658 39.5464 37.5827 40.0983C36.3513 40.7258 34.7393 40.7258 31.5153 40.7258H9.21043C5.98647 40.7258 4.37449 40.7258 3.14311 40.0983C2.05995 39.5464 1.17932 38.6658 0.627422 37.5827C0 36.3513 0 34.7393 0 31.5153V9.21043Z" fill="#89E8A6"/>
<path d="M30.5897 9.1134H10.1361C9.59362 9.1134 9.07337 9.3289 8.68979 9.71248C8.30621 10.0961 8.09072 10.6163 8.09072 11.1588V18.6729C8.09072 30.1282 17.7832 33.9287 19.7237 34.5743C20.1382 34.7152 20.5876 34.7152 21.0021 34.5743C22.9451 33.9287 32.635 30.1282 32.635 18.6729V11.1588C32.635 10.6163 32.4195 10.0961 32.036 9.71248C31.6524 9.3289 31.1321 9.1134 30.5897 9.1134ZM30.5897 18.6742C30.5897 28.699 22.1078 32.0483 20.3629 32.6312C18.6333 32.0547 10.1361 28.708 10.1361 18.6742V11.1588H30.5897V18.6742ZM14.5259 22.1091C14.334 21.9172 14.2262 21.6569 14.2262 21.3856C14.2262 21.1142 14.334 20.8539 14.5259 20.662C14.7178 20.4701 14.9781 20.3623 15.2495 20.3623C15.5209 20.3623 15.7811 20.4701 15.973 20.662L18.3175 23.0065L24.7527 16.5713C24.8478 16.4763 24.9606 16.4009 25.0847 16.3495C25.2088 16.2981 25.3419 16.2716 25.4763 16.2716C25.6107 16.2716 25.7437 16.2981 25.8679 16.3495C25.992 16.4009 26.1048 16.4763 26.1998 16.5713C26.2948 16.6663 26.3702 16.7791 26.4216 16.9033C26.4731 17.0274 26.4995 17.1605 26.4995 17.2948C26.4995 17.4292 26.4731 17.5623 26.4216 17.6864C26.3702 17.8106 26.2948 17.9234 26.1998 18.0184L19.0411 25.1772C18.9461 25.2722 18.8333 25.3477 18.7091 25.3991C18.585 25.4506 18.4519 25.4771 18.3175 25.4771C18.1831 25.4771 18.05 25.4506 17.9259 25.3991C17.8017 25.3477 17.689 25.2722 17.594 25.1772L14.5259 22.1091Z" fill="#F8F7F2"/>
</svg>
