<svg width="20" height="20" viewBox="0 0 20 20" fill="none" xmlns="http://www.w3.org/2000/svg">
<path d="M16.25 3.125H3.75C3.41848 3.125 3.10054 3.2567 2.86612 3.49112C2.6317 3.72554 2.5 4.04348 2.5 4.375V8.96641C2.5 15.9672 8.42344 18.2898 9.60938 18.6844C9.86267 18.7705 10.1373 18.7705 10.3906 18.6844C11.5781 18.2898 17.5 15.9672 17.5 8.96641V4.375C17.5 4.04348 17.3683 3.72554 17.1339 3.49112C16.8995 3.2567 16.5815 3.125 16.25 3.125ZM16.25 8.96797C16.25 15.0945 11.0664 17.1414 10 17.4977C8.94297 17.1453 3.75 15.1 3.75 8.96797V4.375H16.25V8.96797Z" fill="#22B5E9"/>
</svg>
