<svg width="56" height="56" viewBox="0 0 56 56" fill="none" xmlns="http://www.w3.org/2000/svg">
<path d="M0 12.8C0 8.31958 0 6.07937 0.871948 4.36808C1.63893 2.86278 2.86278 1.63893 4.36808 0.871948C6.07937 0 8.31958 0 12.8 0H43.2C47.6804 0 49.9206 0 51.6319 0.871948C53.1372 1.63893 54.3611 2.86278 55.1281 4.36808C56 6.07937 56 8.31958 56 12.8V43.2C56 47.6804 56 49.9206 55.1281 51.6319C54.3611 53.1372 53.1372 54.3611 51.6319 55.1281C49.9206 56 47.6804 56 43.2 56H12.8C8.31958 56 6.07937 56 4.36808 55.1281C2.86278 54.3611 1.63893 53.1372 0.871948 51.6319C0 49.9206 0 47.6804 0 43.2V12.8Z" fill="#22B5E9" fill-opacity="0.1"/>
<path d="M41.75 15.5H14.25C13.587 15.5 12.9511 15.7634 12.4823 16.2322C12.0134 16.7011 11.75 17.337 11.75 18V43C11.7472 43.4765 11.8819 43.9437 12.138 44.3456C12.3941 44.7475 12.7607 45.0669 13.1938 45.2656C13.5248 45.4193 13.8851 45.4993 14.25 45.5C14.8369 45.4986 15.4043 45.2894 15.8516 44.9094C15.8591 44.9045 15.8659 44.8987 15.8719 44.8922L20.8907 40.5H41.75C42.4131 40.5 43.049 40.2366 43.5178 39.7678C43.9866 39.2989 44.25 38.663 44.25 38V18C44.25 17.337 43.9866 16.7011 43.5178 16.2322C43.049 15.7634 42.4131 15.5 41.75 15.5ZM41.75 38H20.8907C20.302 37.9997 19.732 38.2072 19.2813 38.5859L19.2625 38.6031L14.25 43V18H41.75V38ZM21.75 25.5C21.75 25.1685 21.8817 24.8505 22.1162 24.6161C22.3506 24.3817 22.6685 24.25 23 24.25H33C33.3316 24.25 33.6495 24.3817 33.8839 24.6161C34.1183 24.8505 34.25 25.1685 34.25 25.5C34.25 25.8315 34.1183 26.1495 33.8839 26.3839C33.6495 26.6183 33.3316 26.75 33 26.75H23C22.6685 26.75 22.3506 26.6183 22.1162 26.3839C21.8817 26.1495 21.75 25.8315 21.75 25.5ZM21.75 30.5C21.75 30.1685 21.8817 29.8505 22.1162 29.6161C22.3506 29.3817 22.6685 29.25 23 29.25H33C33.3316 29.25 33.6495 29.3817 33.8839 29.6161C34.1183 29.8505 34.25 30.1685 34.25 30.5C34.25 30.8315 34.1183 31.1495 33.8839 31.3839C33.6495 31.6183 33.3316 31.75 33 31.75H23C22.6685 31.75 22.3506 31.6183 22.1162 31.3839C21.8817 31.1495 21.75 30.8315 21.75 30.5Z" fill="#22B5E9"/>
</svg>
