<svg width="28" height="29" viewBox="0 0 28 29" fill="none" xmlns="http://www.w3.org/2000/svg">
<path d="M0 6.60019C0 4.35999 0 3.23988 0.435974 2.38423C0.819467 1.63159 1.43139 1.01966 2.18404 0.636169C3.03969 0.200195 4.15979 0.200195 6.4 0.200195H21.6C23.8402 0.200195 24.9603 0.200195 25.816 0.636169C26.5686 1.01966 27.1805 1.63159 27.564 2.38423C28 3.23988 28 4.35999 28 6.6002V21.8002C28 24.0404 28 25.1605 27.564 26.0162C27.1805 26.7688 26.5686 27.3807 25.816 27.7642C24.9603 28.2002 23.8402 28.2002 21.6 28.2002H6.4C4.15979 28.2002 3.03969 28.2002 2.18404 27.7642C1.43139 27.3807 0.819467 26.7688 0.435974 26.0162C0 25.1605 0 24.0404 0 21.8002V6.60019Z" fill="#22B5E9" fill-opacity="0.05"/>
<path d="M20.875 7.9502H7.12502C6.7935 7.9502 6.47556 8.08189 6.24114 8.31631C6.00672 8.55073 5.87502 8.86867 5.87502 9.2002V21.7002C5.87361 21.9385 5.94096 22.1721 6.06901 22.373C6.19705 22.5739 6.38034 22.7336 6.5969 22.833C6.76238 22.9098 6.94257 22.9498 7.12502 22.9502C7.41846 22.9495 7.70217 22.8449 7.9258 22.6549C7.92953 22.6524 7.93294 22.6496 7.93596 22.6463L10.4453 20.4502H20.875C21.2065 20.4502 21.5245 20.3185 21.7589 20.0841C21.9933 19.8497 22.125 19.5317 22.125 19.2002V9.2002C22.125 8.86867 21.9933 8.55073 21.7589 8.31631C21.5245 8.08189 21.2065 7.9502 20.875 7.9502ZM20.875 19.2002H10.4453C10.151 19.2001 9.86601 19.3038 9.64065 19.4932L9.63127 19.5018L7.12502 21.7002V9.2002H20.875V19.2002ZM10.875 12.9502C10.875 12.7844 10.9409 12.6255 11.0581 12.5083C11.1753 12.391 11.3343 12.3252 11.5 12.3252H16.5C16.6658 12.3252 16.8248 12.391 16.942 12.5083C17.0592 12.6255 17.125 12.7844 17.125 12.9502C17.125 13.116 17.0592 13.2749 16.942 13.3921C16.8248 13.5093 16.6658 13.5752 16.5 13.5752H11.5C11.3343 13.5752 11.1753 13.5093 11.0581 13.3921C10.9409 13.2749 10.875 13.116 10.875 12.9502ZM10.875 15.4502C10.875 15.2844 10.9409 15.1255 11.0581 15.0083C11.1753 14.891 11.3343 14.8252 11.5 14.8252H16.5C16.6658 14.8252 16.8248 14.891 16.942 15.0083C17.0592 15.1255 17.125 15.2844 17.125 15.4502C17.125 15.616 17.0592 15.7749 16.942 15.8921C16.8248 16.0093 16.6658 16.0752 16.5 16.0752H11.5C11.3343 16.0752 11.1753 16.0093 11.0581 15.8921C10.9409 15.7749 10.875 15.616 10.875 15.4502Z" fill="#22B5E9"/>
</svg>
