<svg width="114" height="30" viewBox="0 0 114 30" fill="none" xmlns="http://www.w3.org/2000/svg">
<g clip-path="url(#clip0_13852_178386)">
<path d="M30.4949 14.9999C30.4949 6.71561 23.7792 -0.00012207 15.4949 -0.00012207C7.21066 -0.00012207 0.494934 6.71561 0.494934 14.9999C0.494934 23.2841 7.21066 29.9999 15.4949 29.9999C23.7792 29.9999 30.4949 23.2841 30.4949 14.9999Z" fill="#FEEDED"/>
<path d="M22.872 10.7943V13.2275L16.4623 10.4933C15.6222 10.1349 14.6682 10.1578 13.8463 10.5561L9.89516 12.4705V14.2007L13.8667 12.2765C14.6768 11.8839 15.6159 11.8558 16.448 12.1991L22.872 14.8496V21.9328L16.4382 19.1432C15.6123 18.7852 14.6729 18.7966 13.856 19.1746L7.89471 21.9328V19.2293L13.8814 16.5486C14.6839 16.1893 15.5999 16.1808 16.4089 16.5253L20.6011 18.3101V16.5257L16.4517 14.7591C15.6177 14.4041 14.6715 14.4246 13.8537 14.8151L7.89471 17.6612V10.7943L13.7889 7.89116C14.6435 7.47021 15.6425 7.4576 16.5076 7.85684L22.872 10.7943Z" fill="url(#paint0_linear_13852_178386)"/>
<path d="M42.135 21.4862C41.2761 21.4862 40.5055 21.3346 39.8234 21.0314C39.1413 20.7156 38.5982 20.2925 38.194 19.7619C37.8024 19.2314 37.5876 18.644 37.5497 17.9998H40.2213C40.2718 18.404 40.4676 18.7388 40.8087 19.004C41.1624 19.2693 41.5982 19.4019 42.1161 19.4019C42.6213 19.4019 43.0129 19.3009 43.2908 19.0988C43.5813 18.8967 43.7266 18.6377 43.7266 18.3219C43.7266 17.9809 43.5497 17.7283 43.1961 17.564C42.855 17.3872 42.3055 17.1977 41.5476 16.9956C40.7645 16.8062 40.1203 16.6104 39.615 16.4083C39.1224 16.2062 38.6929 15.8967 38.3266 15.4798C37.9729 15.063 37.7961 14.5009 37.7961 13.7935C37.7961 13.2125 37.9603 12.6819 38.2887 12.2019C38.6297 11.7219 39.1097 11.343 39.7287 11.0651C40.3603 10.7872 41.0992 10.6483 41.9455 10.6483C43.1961 10.6483 44.194 10.964 44.9392 11.5956C45.6845 12.2146 46.095 13.0546 46.1708 14.1156H43.6318C43.594 13.6988 43.4171 13.3704 43.1013 13.1304C42.7982 12.8777 42.3876 12.7514 41.8697 12.7514C41.3897 12.7514 41.0171 12.8398 40.7518 13.0167C40.4992 13.1935 40.3729 13.4398 40.3729 13.7556C40.3729 14.1093 40.5497 14.3809 40.9034 14.5704C41.2571 14.7472 41.8066 14.9304 42.5518 15.1198C43.3097 15.3093 43.935 15.5051 44.4276 15.7072C44.9203 15.9093 45.3434 16.2251 45.6971 16.6546C46.0634 17.0714 46.2529 17.6272 46.2655 18.3219C46.2655 18.9283 46.095 19.4714 45.754 19.9514C45.4255 20.4314 44.9455 20.8104 44.314 21.0883C43.695 21.3535 42.9687 21.4862 42.135 21.4862ZM51.5314 12.9977V18.0756C51.5314 18.4293 51.6135 18.6883 51.7777 18.8525C51.9546 19.0041 52.2451 19.0798 52.6493 19.0798H53.8809V21.3156H52.2135C49.9777 21.3156 48.8598 20.2293 48.8598 18.0567V12.9977H47.6093V10.8188H48.8598V8.223H51.5314V10.8188H53.8809V12.9977H51.5314ZM55.1067 16.0293C55.1067 14.9683 55.3151 14.0272 55.732 13.2062C56.1614 12.3851 56.7362 11.7535 57.4562 11.3114C58.1888 10.8693 59.0035 10.6483 59.9004 10.6483C60.6835 10.6483 61.3656 10.8062 61.9467 11.1219C62.5404 11.4377 63.0141 11.8356 63.3677 12.3156V10.8188H66.0393V21.3156H63.3677V19.7809C63.0267 20.2735 62.553 20.684 61.9467 21.0125C61.353 21.3283 60.6646 21.4862 59.8814 21.4862C58.9972 21.4862 58.1888 21.2588 57.4562 20.804C56.7362 20.3493 56.1614 19.7114 55.732 18.8904C55.3151 18.0567 55.1067 17.103 55.1067 16.0293ZM63.3677 16.0672C63.3677 15.423 63.2414 14.8735 62.9888 14.4188C62.7362 13.9514 62.3951 13.5977 61.9656 13.3577C61.5362 13.1051 61.0751 12.9788 60.5825 12.9788C60.0898 12.9788 59.6351 13.0988 59.2183 13.3388C58.8014 13.5788 58.4604 13.9325 58.1951 14.3998C57.9425 14.8546 57.8162 15.3977 57.8162 16.0293C57.8162 16.6609 57.9425 17.2167 58.1951 17.6967C58.4604 18.164 58.8014 18.524 59.2183 18.7767C59.6477 19.0293 60.1025 19.1556 60.5825 19.1556C61.0751 19.1556 61.5362 19.0356 61.9656 18.7956C62.3951 18.543 62.7362 18.1893 62.9888 17.7346C63.2414 17.2672 63.3677 16.7114 63.3677 16.0672ZM72.6469 21.4862C71.788 21.4862 71.0174 21.3346 70.3353 21.0314C69.6532 20.7156 69.1101 20.2925 68.7058 19.7619C68.3143 19.2314 68.0995 18.644 68.0616 17.9998H70.7332C70.7837 18.404 70.9795 18.7388 71.3206 19.004C71.6743 19.2693 72.1101 19.4019 72.628 19.4019C73.1332 19.4019 73.5248 19.3009 73.8027 19.0988C74.0932 18.8967 74.2385 18.6377 74.2385 18.3219C74.2385 17.9809 74.0616 17.7283 73.708 17.564C73.3669 17.3872 72.8174 17.1977 72.0595 16.9956C71.2764 16.8062 70.6322 16.6104 70.1269 16.4083C69.6343 16.2062 69.2048 15.8967 68.8385 15.4798C68.4848 15.063 68.308 14.5009 68.308 13.7935C68.308 13.2125 68.4722 12.6819 68.8006 12.2019C69.1416 11.7219 69.6216 11.343 70.2406 11.0651C70.8722 10.7872 71.6111 10.6483 72.4574 10.6483C73.708 10.6483 74.7058 10.964 75.4511 11.5956C76.1964 12.2146 76.6069 13.0546 76.6827 14.1156H74.1437C74.1058 13.6988 73.929 13.3704 73.6132 13.1304C73.3101 12.8777 72.8995 12.7514 72.3816 12.7514C71.9016 12.7514 71.529 12.8398 71.2637 13.0167C71.0111 13.1935 70.8848 13.4398 70.8848 13.7556C70.8848 14.1093 71.0616 14.3809 71.4153 14.5704C71.769 14.7472 72.3185 14.9304 73.0637 15.1198C73.8216 15.3093 74.4469 15.5051 74.9395 15.7072C75.4322 15.9093 75.8553 16.2251 76.209 16.6546C76.5753 17.0714 76.7648 17.6272 76.7774 18.3219C76.7774 18.9283 76.6069 19.4714 76.2659 19.9514C75.9374 20.4314 75.4574 20.8104 74.8259 21.0883C74.2069 21.3535 73.4806 21.4862 72.6469 21.4862ZM84.8668 10.6672C85.6626 10.6672 86.37 10.844 86.9889 11.1977C87.6079 11.5388 88.0879 12.0504 88.429 12.7325C88.7826 13.4019 88.9595 14.2104 88.9595 15.1577V21.3156H86.3068V15.5177C86.3068 14.684 86.0984 14.0462 85.6816 13.604C85.2647 13.1493 84.6963 12.9219 83.9763 12.9219C83.2437 12.9219 82.6626 13.1493 82.2332 13.604C81.8163 14.0462 81.6079 14.684 81.6079 15.5177V21.3156H78.9553V7.29461H81.6079V12.1262C81.949 11.6714 82.4037 11.3177 82.9721 11.0651C83.5405 10.7998 84.1721 10.6672 84.8668 10.6672ZM96.2945 12.9977H94.4566V21.3156H91.7661V12.9977H90.5724V10.8188H91.7661V10.2883C91.7661 8.99984 92.1324 8.05247 92.865 7.44619C93.5976 6.83987 94.7029 6.55566 96.1808 6.59355V8.82931C95.5366 8.81668 95.0882 8.92405 94.8355 9.15142C94.5829 9.37879 94.4566 9.78931 94.4566 10.383V10.8188H96.2945V12.9977ZM99.3584 9.56826C98.8911 9.56826 98.4995 9.423 98.1837 9.13247C97.8805 8.82931 97.729 8.45668 97.729 8.01458C97.729 7.5725 97.8805 7.20619 98.1837 6.91566C98.4995 6.6125 98.8911 6.46092 99.3584 6.46092C99.8258 6.46092 100.211 6.6125 100.514 6.91566C100.83 7.20619 100.988 7.5725 100.988 8.01458C100.988 8.45668 100.83 8.82931 100.514 9.13247C100.211 9.423 99.8258 9.56826 99.3584 9.56826ZM100.666 10.8188V21.3156H98.0132V10.8188H100.666ZM109.104 10.6672C110.354 10.6672 111.365 11.0651 112.135 11.8609C112.906 12.644 113.291 13.743 113.291 15.1577V21.3156H110.638V15.5177C110.638 14.684 110.43 14.0462 110.013 13.604C109.596 13.1493 109.028 12.9219 108.308 12.9219C107.575 12.9219 106.994 13.1493 106.565 13.604C106.148 14.0462 105.939 14.684 105.939 15.5177V21.3156H103.287V10.8188H105.939V12.1262C106.293 11.6714 106.742 11.3177 107.285 11.0651C107.841 10.7998 108.447 10.6672 109.104 10.6672Z" fill="url(#paint1_linear_13852_178386)"/>
<path d="M42.135 21.4862C41.2761 21.4862 40.5055 21.3346 39.8234 21.0314C39.1413 20.7156 38.5982 20.2925 38.194 19.7619C37.8024 19.2314 37.5876 18.644 37.5497 17.9998H40.2213C40.2718 18.404 40.4676 18.7388 40.8087 19.004C41.1624 19.2693 41.5982 19.4019 42.1161 19.4019C42.6213 19.4019 43.0129 19.3009 43.2908 19.0988C43.5813 18.8967 43.7266 18.6377 43.7266 18.3219C43.7266 17.9809 43.5497 17.7283 43.1961 17.564C42.855 17.3872 42.3055 17.1977 41.5476 16.9956C40.7645 16.8062 40.1203 16.6104 39.615 16.4083C39.1224 16.2062 38.6929 15.8967 38.3266 15.4798C37.9729 15.063 37.7961 14.5009 37.7961 13.7935C37.7961 13.2125 37.9603 12.6819 38.2887 12.2019C38.6297 11.7219 39.1097 11.343 39.7287 11.0651C40.3603 10.7872 41.0992 10.6483 41.9455 10.6483C43.1961 10.6483 44.194 10.964 44.9392 11.5956C45.6845 12.2146 46.095 13.0546 46.1708 14.1156H43.6318C43.594 13.6988 43.4171 13.3704 43.1013 13.1304C42.7982 12.8777 42.3876 12.7514 41.8697 12.7514C41.3897 12.7514 41.0171 12.8398 40.7518 13.0167C40.4992 13.1935 40.3729 13.4398 40.3729 13.7556C40.3729 14.1093 40.5497 14.3809 40.9034 14.5704C41.2571 14.7472 41.8066 14.9304 42.5518 15.1198C43.3097 15.3093 43.935 15.5051 44.4276 15.7072C44.9203 15.9093 45.3434 16.2251 45.6971 16.6546C46.0634 17.0714 46.2529 17.6272 46.2655 18.3219C46.2655 18.9283 46.095 19.4714 45.754 19.9514C45.4255 20.4314 44.9455 20.8104 44.314 21.0883C43.695 21.3535 42.9687 21.4862 42.135 21.4862ZM51.5314 12.9977V18.0756C51.5314 18.4293 51.6135 18.6883 51.7777 18.8525C51.9546 19.0041 52.2451 19.0798 52.6493 19.0798H53.8809V21.3156H52.2135C49.9777 21.3156 48.8598 20.2293 48.8598 18.0567V12.9977H47.6093V10.8188H48.8598V8.223H51.5314V10.8188H53.8809V12.9977H51.5314ZM55.1067 16.0293C55.1067 14.9683 55.3151 14.0272 55.732 13.2062C56.1614 12.3851 56.7362 11.7535 57.4562 11.3114C58.1888 10.8693 59.0035 10.6483 59.9004 10.6483C60.6835 10.6483 61.3656 10.8062 61.9467 11.1219C62.5404 11.4377 63.0141 11.8356 63.3677 12.3156V10.8188H66.0393V21.3156H63.3677V19.7809C63.0267 20.2735 62.553 20.684 61.9467 21.0125C61.353 21.3283 60.6646 21.4862 59.8814 21.4862C58.9972 21.4862 58.1888 21.2588 57.4562 20.804C56.7362 20.3493 56.1614 19.7114 55.732 18.8904C55.3151 18.0567 55.1067 17.103 55.1067 16.0293ZM63.3677 16.0672C63.3677 15.423 63.2414 14.8735 62.9888 14.4188C62.7362 13.9514 62.3951 13.5977 61.9656 13.3577C61.5362 13.1051 61.0751 12.9788 60.5825 12.9788C60.0898 12.9788 59.6351 13.0988 59.2183 13.3388C58.8014 13.5788 58.4604 13.9325 58.1951 14.3998C57.9425 14.8546 57.8162 15.3977 57.8162 16.0293C57.8162 16.6609 57.9425 17.2167 58.1951 17.6967C58.4604 18.164 58.8014 18.524 59.2183 18.7767C59.6477 19.0293 60.1025 19.1556 60.5825 19.1556C61.0751 19.1556 61.5362 19.0356 61.9656 18.7956C62.3951 18.543 62.7362 18.1893 62.9888 17.7346C63.2414 17.2672 63.3677 16.7114 63.3677 16.0672ZM72.6469 21.4862C71.788 21.4862 71.0174 21.3346 70.3353 21.0314C69.6532 20.7156 69.1101 20.2925 68.7058 19.7619C68.3143 19.2314 68.0995 18.644 68.0616 17.9998H70.7332C70.7837 18.404 70.9795 18.7388 71.3206 19.004C71.6743 19.2693 72.1101 19.4019 72.628 19.4019C73.1332 19.4019 73.5248 19.3009 73.8027 19.0988C74.0932 18.8967 74.2385 18.6377 74.2385 18.3219C74.2385 17.9809 74.0616 17.7283 73.708 17.564C73.3669 17.3872 72.8174 17.1977 72.0595 16.9956C71.2764 16.8062 70.6322 16.6104 70.1269 16.4083C69.6343 16.2062 69.2048 15.8967 68.8385 15.4798C68.4848 15.063 68.308 14.5009 68.308 13.7935C68.308 13.2125 68.4722 12.6819 68.8006 12.2019C69.1416 11.7219 69.6216 11.343 70.2406 11.0651C70.8722 10.7872 71.6111 10.6483 72.4574 10.6483C73.708 10.6483 74.7058 10.964 75.4511 11.5956C76.1964 12.2146 76.6069 13.0546 76.6827 14.1156H74.1437C74.1058 13.6988 73.929 13.3704 73.6132 13.1304C73.3101 12.8777 72.8995 12.7514 72.3816 12.7514C71.9016 12.7514 71.529 12.8398 71.2637 13.0167C71.0111 13.1935 70.8848 13.4398 70.8848 13.7556C70.8848 14.1093 71.0616 14.3809 71.4153 14.5704C71.769 14.7472 72.3185 14.9304 73.0637 15.1198C73.8216 15.3093 74.4469 15.5051 74.9395 15.7072C75.4322 15.9093 75.8553 16.2251 76.209 16.6546C76.5753 17.0714 76.7648 17.6272 76.7774 18.3219C76.7774 18.9283 76.6069 19.4714 76.2659 19.9514C75.9374 20.4314 75.4574 20.8104 74.8259 21.0883C74.2069 21.3535 73.4806 21.4862 72.6469 21.4862ZM84.8668 10.6672C85.6626 10.6672 86.37 10.844 86.9889 11.1977C87.6079 11.5388 88.0879 12.0504 88.429 12.7325C88.7826 13.4019 88.9595 14.2104 88.9595 15.1577V21.3156H86.3068V15.5177C86.3068 14.684 86.0984 14.0462 85.6816 13.604C85.2647 13.1493 84.6963 12.9219 83.9763 12.9219C83.2437 12.9219 82.6626 13.1493 82.2332 13.604C81.8163 14.0462 81.6079 14.684 81.6079 15.5177V21.3156H78.9553V7.29461H81.6079V12.1262C81.949 11.6714 82.4037 11.3177 82.9721 11.0651C83.5405 10.7998 84.1721 10.6672 84.8668 10.6672ZM96.2945 12.9977H94.4566V21.3156H91.7661V12.9977H90.5724V10.8188H91.7661V10.2883C91.7661 8.99984 92.1324 8.05247 92.865 7.44619C93.5976 6.83987 94.7029 6.55566 96.1808 6.59355V8.82931C95.5366 8.81668 95.0882 8.92405 94.8355 9.15142C94.5829 9.37879 94.4566 9.78931 94.4566 10.383V10.8188H96.2945V12.9977ZM99.3584 9.56826C98.8911 9.56826 98.4995 9.423 98.1837 9.13247C97.8805 8.82931 97.729 8.45668 97.729 8.01458C97.729 7.5725 97.8805 7.20619 98.1837 6.91566C98.4995 6.6125 98.8911 6.46092 99.3584 6.46092C99.8258 6.46092 100.211 6.6125 100.514 6.91566C100.83 7.20619 100.988 7.5725 100.988 8.01458C100.988 8.45668 100.83 8.82931 100.514 9.13247C100.211 9.423 99.8258 9.56826 99.3584 9.56826ZM100.666 10.8188V21.3156H98.0132V10.8188H100.666ZM109.104 10.6672C110.354 10.6672 111.365 11.0651 112.135 11.8609C112.906 12.644 113.291 13.743 113.291 15.1577V21.3156H110.638V15.5177C110.638 14.684 110.43 14.0462 110.013 13.604C109.596 13.1493 109.028 12.9219 108.308 12.9219C107.575 12.9219 106.994 13.1493 106.565 13.604C106.148 14.0462 105.939 14.684 105.939 15.5177V21.3156H103.287V10.8188H105.939V12.1262C106.293 11.6714 106.742 11.3177 107.285 11.0651C107.841 10.7998 108.447 10.6672 109.104 10.6672Z" fill="#FF4539"/>
</g>
<defs>
<linearGradient id="paint0_linear_13852_178386" x1="8.65158" y1="7.83006" x2="15.6929" y2="23.5843" gradientUnits="userSpaceOnUse">
<stop stop-color="#FF3E3E"/>
<stop offset="0.51" stop-color="#FF2D4E"/>
<stop offset="1" stop-color="#FF552B"/>
</linearGradient>
<linearGradient id="paint1_linear_13852_178386" x1="40.7602" y1="1.31136" x2="46.9189" y2="37.6598" gradientUnits="userSpaceOnUse">
<stop stop-color="#FF3E3E"/>
<stop offset="0.51" stop-color="#FF2D4E"/>
<stop offset="1" stop-color="#FF552B"/>
</linearGradient>
<clipPath id="clip0_13852_178386">
<rect width="113.684" height="30" fill="white"/>
</clipPath>
</defs>
</svg>
