<svg width="42" height="41" viewBox="0 0 42 41" fill="none" xmlns="http://www.w3.org/2000/svg">
<path d="M0.637115 9.34751C0.637115 6.12356 0.637115 4.51158 1.26454 3.28019C1.81643 2.19704 2.69707 1.3164 3.78022 0.764507C5.01161 0.137085 6.62358 0.137085 9.84753 0.137085H32.1525C35.3764 0.137085 36.9884 0.137085 38.2198 0.764507C39.3029 1.3164 40.1836 2.19704 40.7355 3.28019C41.3629 4.51158 41.3629 6.12355 41.3629 9.3475V31.6524C41.3629 34.8764 41.3629 36.4884 40.7355 37.7197C40.1836 38.8029 39.3029 39.6835 38.2198 40.2354C36.9884 40.8628 35.3764 40.8628 32.1525 40.8628H9.84754C6.62359 40.8628 5.01161 40.8628 3.78022 40.2354C2.69707 39.6835 1.81643 38.8029 1.26454 37.7197C0.637115 36.4884 0.637115 34.8764 0.637115 31.6524V9.34751Z" fill="#A7E1F6" fill-opacity="0.4"/>
<path d="M34.2948 30.7268C34.2948 30.998 34.1871 31.2581 33.9953 31.4499C33.8035 31.6417 33.5434 31.7494 33.2721 31.7494H8.72781C8.45658 31.7494 8.19646 31.6417 8.00467 31.4499C7.81288 31.2581 7.70513 30.998 7.70513 30.7268V10.2732C7.70513 10.0019 7.81288 9.74181 8.00467 9.55002C8.19646 9.35823 8.45658 9.25049 8.72781 9.25049C8.99904 9.25049 9.25917 9.35823 9.45096 9.55002C9.64275 9.74181 9.75049 10.0019 9.75049 10.2732V22.337L16.2356 16.6649C16.412 16.5104 16.6362 16.4213 16.8706 16.4125C17.105 16.4036 17.3352 16.4756 17.5229 16.6163L25.0408 22.2551L32.5984 15.6422C32.6975 15.5441 32.8156 15.4674 32.9455 15.4166C33.0754 15.3658 33.2142 15.3421 33.3536 15.347C33.4929 15.3519 33.6298 15.3852 33.7558 15.4449C33.8818 15.5046 33.9943 15.5894 34.0863 15.6942C34.1783 15.7989 34.2479 15.9214 34.2909 16.054C34.3338 16.1867 34.3492 16.3267 34.336 16.4655C34.3229 16.6043 34.2815 16.739 34.2144 16.8612C34.1473 16.9834 34.0559 17.0906 33.9458 17.1763L25.7644 24.335C25.5879 24.4895 25.3637 24.5786 25.1293 24.5875C24.895 24.5963 24.6647 24.5243 24.4771 24.3836L16.9591 18.7474L9.75049 25.0547V29.7041H33.2721C33.5434 29.7041 33.8035 29.8118 33.9953 30.0036C34.1871 30.1954 34.2948 30.4555 34.2948 30.7268Z" fill="#53D2FF"/>
</svg>
