<svg width="24" height="24" viewBox="0 0 24 24" fill="none" xmlns="http://www.w3.org/2000/svg">
<path d="M0 12C0 8.27247 0 6.4087 0.608964 4.93853C1.42092 2.97831 2.97831 1.42092 4.93853 0.608964C6.4087 0 8.27247 0 12 0V0C15.7275 0 17.5913 0 19.0615 0.608964C21.0217 1.42092 22.5791 2.97831 23.391 4.93853C24 6.4087 24 8.27247 24 12V12C24 15.7275 24 17.5913 23.391 19.0615C22.5791 21.0217 21.0217 22.5791 19.0615 23.391C17.5913 24 15.7275 24 12 24V24C8.27247 24 6.4087 24 4.93853 23.391C2.97831 22.5791 1.42092 21.0217 0.608964 19.0615C0 17.5913 0 15.7275 0 12V12Z" fill="#1A202C" fill-opacity="0.05"/>
<path d="M16.4069 7.50563C15.6525 6.2125 14.62 5.5 13.5 5.5H10.5C9.38 5.5 8.3475 6.2125 7.59313 7.50563C6.88813 8.71375 6.5 10.3125 6.5 12C6.5 13.6875 6.88813 15.2863 7.59313 16.4944C8.3475 17.7875 9.38 18.5 10.5 18.5H13.5C14.62 18.5 15.6525 17.7875 16.4069 16.4944C17.1119 15.2863 17.5 13.6875 17.5 12C17.5 10.3125 17.1119 8.71375 16.4069 7.50563ZM16.4869 11.5H14.4869C14.4478 10.474 14.2435 9.46097 13.8819 8.5H15.7937C16.1762 9.33625 16.4287 10.375 16.4869 11.5ZM15.1994 7.5H13.4038C13.1949 7.1377 12.9431 6.80194 12.6538 6.5H13.5C14.125 6.5 14.7125 6.875 15.1994 7.5ZM7.5 12C7.5 9.01875 8.875 6.5 10.5 6.5C12.125 6.5 13.5 9.01875 13.5 12C13.5 14.9813 12.125 17.5 10.5 17.5C8.875 17.5 7.5 14.9813 7.5 12ZM13.5 17.5H12.6556C12.945 17.1981 13.1968 16.8623 13.4056 16.5H15.2013C14.7125 17.125 14.125 17.5 13.5 17.5ZM15.7937 15.5H13.8825C14.2441 14.539 14.4484 13.526 14.4875 12.5H16.4875C16.4288 13.625 16.1762 14.6637 15.7937 15.5Z" fill="#1A202C"/>
</svg>
