<svg width="20" height="20" viewBox="0 0 20 20" fill="none" xmlns="http://www.w3.org/2000/svg">
<path d="M18.5063 2.0461C18.4094 1.96248 18.2916 1.90687 18.1655 1.88526C18.0394 1.86364 17.9098 1.87685 17.7906 1.92345L1.95783 8.11954C1.73344 8.20679 1.54347 8.36458 1.41652 8.56914C1.28957 8.7737 1.2325 9.01397 1.25392 9.25377C1.27533 9.49357 1.37407 9.71992 1.53526 9.89875C1.69645 10.0776 1.91137 10.1992 2.14767 10.2453L6.25001 11.0508V15.625C6.24921 15.8742 6.32325 16.1178 6.46255 16.3244C6.60184 16.531 6.79998 16.691 7.03126 16.7836C7.2622 16.8779 7.51616 16.9005 7.76013 16.8486C8.00409 16.7966 8.22678 16.6724 8.39923 16.4922L10.3774 14.4406L13.5156 17.1875C13.7421 17.3883 14.0341 17.4995 14.3367 17.5C14.4694 17.4999 14.6012 17.4791 14.7274 17.4383C14.9336 17.3729 15.119 17.2545 15.2653 17.0951C15.4115 16.9357 15.5135 16.7408 15.561 16.5297L18.732 2.73438C18.7604 2.60997 18.7544 2.48018 18.7146 2.35893C18.6748 2.23768 18.6028 2.12954 18.5063 2.0461ZM14.3383 16.25L7.87892 10.5859L17.1758 3.92267L14.3383 16.25Z" fill="white"/>
</svg>
