<svg width="56" height="56" viewBox="0 0 56 56" fill="none" xmlns="http://www.w3.org/2000/svg">
<path d="M0 12.8C0 8.31958 0 6.07937 0.871948 4.36808C1.63893 2.86278 2.86278 1.63893 4.36808 0.871948C6.07937 0 8.31958 0 12.8 0H43.2C47.6804 0 49.9206 0 51.6319 0.871948C53.1372 1.63893 54.3611 2.86278 55.1281 4.36808C56 6.07937 56 8.31958 56 12.8V43.2C56 47.6804 56 49.9206 55.1281 51.6319C54.3611 53.1372 53.1372 54.3611 51.6319 55.1281C49.9206 56 47.6804 56 43.2 56H12.8C8.31958 56 6.07937 56 4.36808 55.1281C2.86278 54.3611 1.63893 53.1372 0.871948 51.6319C0 49.9206 0 47.6804 0 43.2V12.8Z" fill="#22B5E9" fill-opacity="0.1"/>
<path d="M35.5 10.5H20.5C19.5054 10.5 18.5516 10.8951 17.8483 11.5983C17.1451 12.3016 16.75 13.2554 16.75 14.25V41.75C16.75 42.7446 17.1451 43.6984 17.8483 44.4016C18.5516 45.1049 19.5054 45.5 20.5 45.5H35.5C36.4946 45.5 37.4484 45.1049 38.1517 44.4016C38.8549 43.6984 39.25 42.7446 39.25 41.75V14.25C39.25 13.2554 38.8549 12.3016 38.1517 11.5983C37.4484 10.8951 36.4946 10.5 35.5 10.5ZM19.25 18H36.75V38H19.25V18ZM20.5 13H35.5C35.8315 13 36.1495 13.1317 36.3839 13.3661C36.6183 13.6005 36.75 13.9185 36.75 14.25V15.5H19.25V14.25C19.25 13.9185 19.3817 13.6005 19.6161 13.3661C19.8505 13.1317 20.1685 13 20.5 13ZM35.5 43H20.5C20.1685 43 19.8505 42.8683 19.6161 42.6339C19.3817 42.3995 19.25 42.0815 19.25 41.75V40.5H36.75V41.75C36.75 42.0815 36.6183 42.3995 36.3839 42.6339C36.1495 42.8683 35.8315 43 35.5 43Z" fill="#22B5E9"/>
</svg>
