<svg width="12" height="12" viewBox="0 0 12 12" fill="none" xmlns="http://www.w3.org/2000/svg">
<path d="M9.30516 2.62922C8.73937 1.65937 7.965 1.125 7.125 1.125H4.875C4.035 1.125 3.26063 1.65937 2.69484 2.62922C2.16609 3.53531 1.875 4.73438 1.875 6C1.875 7.26562 2.16609 8.46469 2.69484 9.37078C3.26063 10.3406 4.035 10.875 4.875 10.875H7.125C7.965 10.875 8.73937 10.3406 9.30516 9.37078C9.83391 8.46469 10.125 7.26562 10.125 6C10.125 4.73438 9.83391 3.53531 9.30516 2.62922ZM9.36516 5.625H7.86516C7.83586 4.85548 7.68264 4.09573 7.41141 3.375H8.84531C9.13219 4.00219 9.32156 4.78125 9.36516 5.625ZM8.39953 2.625H7.05281C6.89618 2.35327 6.70731 2.10145 6.49031 1.875H7.125C7.59375 1.875 8.03438 2.15625 8.39953 2.625ZM7.125 10.125H6.49172C6.70872 9.89855 6.89759 9.64673 7.05422 9.375H8.40094C8.03438 9.84375 7.59375 10.125 7.125 10.125ZM8.84531 8.625H7.41187C7.68311 7.90427 7.83633 7.14452 7.86563 6.375H9.36563C9.32156 7.21875 9.13219 7.99781 8.84531 8.625Z" fill="#969696"/>
</svg>
