<svg width="12" height="12" viewBox="0 0 12 12" fill="none" xmlns="http://www.w3.org/2000/svg">
<path d="M10.9921 5.36147L8.87804 7.20647L9.51132 9.95334C9.54483 10.0969 9.53527 10.2472 9.48383 10.3854C9.43239 10.5236 9.34135 10.6436 9.2221 10.7303C9.10285 10.8171 8.96068 10.8667 8.81336 10.8731C8.66604 10.8795 8.52011 10.8423 8.39382 10.7662L5.99804 9.31303L3.60741 10.7662C3.48112 10.8423 3.33519 10.8795 3.18787 10.8731C3.04055 10.8667 2.89838 10.8171 2.77913 10.7303C2.65988 10.6436 2.56884 10.5236 2.5174 10.3854C2.46596 10.2472 2.4564 10.0969 2.48991 9.95334L3.12226 7.20928L1.00773 5.36147C0.895886 5.26501 0.815014 5.13768 0.775251 4.99544C0.735489 4.85321 0.738606 4.7024 0.784212 4.56193C0.829818 4.42145 0.915882 4.29757 1.03161 4.20582C1.14734 4.11407 1.28759 4.05852 1.43476 4.04616L4.22194 3.80475L5.30991 1.20975C5.36673 1.07359 5.46256 0.957276 5.58534 0.875465C5.70813 0.793654 5.85237 0.75 5.99991 0.75C6.14746 0.75 6.2917 0.793654 6.41448 0.875465C6.53727 0.957276 6.6331 1.07359 6.68991 1.20975L7.78116 3.80475L10.5674 4.04616C10.7146 4.05852 10.8548 4.11407 10.9706 4.20582C11.0863 4.29757 11.1724 4.42145 11.218 4.56193C11.2636 4.7024 11.2667 4.85321 11.2269 4.99544C11.1872 5.13768 11.1063 5.26501 10.9944 5.36147H10.9921Z" fill="#969696"/>
</svg>
