<svg width="20" height="20" viewBox="0 0 20 20" fill="none" xmlns="http://www.w3.org/2000/svg">
<path d="M3.125 10C3.125 9.83424 3.19085 9.67527 3.30806 9.55806C3.42527 9.44085 3.58424 9.375 3.75 9.375H9.375C9.54076 9.375 9.69973 9.44085 9.81694 9.55806C9.93415 9.67527 10 9.83424 10 10C10 10.1658 9.93415 10.3247 9.81694 10.4419C9.69973 10.5592 9.54076 10.625 9.375 10.625H3.75C3.58424 10.625 3.42527 10.5592 3.30806 10.4419C3.19085 10.3247 3.125 10.1658 3.125 10ZM3.75 5.625H8.125C8.29076 5.625 8.44973 5.55915 8.56694 5.44194C8.68415 5.32473 8.75 5.16576 8.75 5C8.75 4.83424 8.68415 4.67527 8.56694 4.55806C8.44973 4.44085 8.29076 4.375 8.125 4.375H3.75C3.58424 4.375 3.42527 4.44085 3.30806 4.55806C3.19085 4.67527 3.125 4.83424 3.125 5C3.125 5.16576 3.19085 5.32473 3.30806 5.44194C3.42527 5.55915 3.58424 5.625 3.75 5.625ZM14.375 14.375H3.75C3.58424 14.375 3.42527 14.4408 3.30806 14.5581C3.19085 14.6753 3.125 14.8342 3.125 15C3.125 15.1658 3.19085 15.3247 3.30806 15.4419C3.42527 15.5592 3.58424 15.625 3.75 15.625H14.375C14.5408 15.625 14.6997 15.5592 14.8169 15.4419C14.9342 15.3247 15 15.1658 15 15C15 14.8342 14.9342 14.6753 14.8169 14.5581C14.6997 14.4408 14.5408 14.375 14.375 14.375ZM17.9422 6.43282L14.8172 3.30782C14.7591 3.24971 14.6902 3.20361 14.6143 3.17215C14.5385 3.1407 14.4571 3.12451 14.375 3.12451C14.2929 3.12451 14.2115 3.1407 14.1357 3.17215C14.0598 3.20361 13.9909 3.24971 13.9328 3.30782L10.8078 6.43282C10.6905 6.55009 10.6247 6.70915 10.6247 6.875C10.6247 7.04086 10.6905 7.19992 10.8078 7.31719C10.9251 7.43447 11.0841 7.50035 11.25 7.50035C11.4159 7.50035 11.5749 7.43447 11.6922 7.31719L13.75 5.2586V11.25C13.75 11.4158 13.8158 11.5747 13.9331 11.6919C14.0503 11.8092 14.2092 11.875 14.375 11.875C14.5408 11.875 14.6997 11.8092 14.8169 11.6919C14.9342 11.5747 15 11.4158 15 11.25V5.2586L17.0578 7.31719C17.1159 7.37526 17.1848 7.42132 17.2607 7.45275C17.3366 7.48418 17.4179 7.50035 17.5 7.50035C17.5821 7.50035 17.6634 7.48418 17.7393 7.45275C17.8152 7.42132 17.8841 7.37526 17.9422 7.31719C18.0003 7.25912 18.0463 7.19018 18.0777 7.11431C18.1092 7.03844 18.1253 6.95712 18.1253 6.875C18.1253 6.79288 18.1092 6.71156 18.0777 6.63569C18.0463 6.55982 18.0003 6.49088 17.9422 6.43282Z" fill="#1C1C1C" fill-opacity="0.8"/>
</svg>
