<svg width="21" height="20" viewBox="0 0 21 20" fill="none" xmlns="http://www.w3.org/2000/svg">
<path d="M10.3281 10C10.3281 10.1658 10.2623 10.3247 10.1451 10.4419C10.0279 10.5592 9.86889 10.625 9.70313 10.625H4.07813C3.91236 10.625 3.75339 10.5592 3.63618 10.4419C3.51897 10.3247 3.45312 10.1658 3.45312 10C3.45312 9.83424 3.51897 9.67527 3.63618 9.55806C3.75339 9.44085 3.91236 9.375 4.07813 9.375H9.70313C9.86889 9.375 10.0279 9.44085 10.1451 9.55806C10.2623 9.67527 10.3281 9.83424 10.3281 10ZM4.07813 5.625H14.7031C14.8689 5.625 15.0279 5.55915 15.1451 5.44194C15.2623 5.32473 15.3281 5.16576 15.3281 5C15.3281 4.83424 15.2623 4.67527 15.1451 4.55806C15.0279 4.44085 14.8689 4.375 14.7031 4.375H4.07813C3.91236 4.375 3.75339 4.44085 3.63618 4.55806C3.51897 4.67527 3.45312 4.83424 3.45312 5C3.45312 5.16576 3.51897 5.32473 3.63618 5.44194C3.75339 5.55915 3.91236 5.625 4.07813 5.625ZM8.45313 14.375H4.07813C3.91236 14.375 3.75339 14.4408 3.63618 14.5581C3.51897 14.6753 3.45312 14.8342 3.45312 15C3.45312 15.1658 3.51897 15.3247 3.63618 15.4419C3.75339 15.5592 3.91236 15.625 4.07813 15.625H8.45313C8.61889 15.625 8.77786 15.5592 8.89507 15.4419C9.01228 15.3247 9.07813 15.1658 9.07813 15C9.07813 14.8342 9.01228 14.6753 8.89507 14.5581C8.77786 14.4408 8.61889 14.375 8.45313 14.375ZM18.2703 12.6828C18.2123 12.6247 18.1433 12.5786 18.0675 12.5472C17.9916 12.5157 17.9103 12.4995 17.8281 12.4995C17.746 12.4995 17.6647 12.5157 17.5888 12.5472C17.5129 12.5786 17.444 12.6247 17.3859 12.6828L15.3281 14.7414V8.75C15.3281 8.58424 15.2623 8.42527 15.1451 8.30806C15.0279 8.19085 14.8689 8.125 14.7031 8.125C14.5374 8.125 14.3784 8.19085 14.2612 8.30806C14.144 8.42527 14.0781 8.58424 14.0781 8.75V14.7414L12.0203 12.6828C11.903 12.5655 11.744 12.4997 11.5781 12.4997C11.4123 12.4997 11.2532 12.5655 11.1359 12.6828C11.0187 12.8001 10.9528 12.9591 10.9528 13.125C10.9528 13.2909 11.0187 13.4499 11.1359 13.5672L14.2609 16.6922C14.319 16.7503 14.3879 16.7964 14.4638 16.8279C14.5397 16.8593 14.621 16.8755 14.7031 16.8755C14.7853 16.8755 14.8666 16.8593 14.9425 16.8279C15.0183 16.7964 15.0873 16.7503 15.1453 16.6922L18.2703 13.5672C18.3284 13.5091 18.3745 13.4402 18.406 13.3643C18.4374 13.2885 18.4536 13.2071 18.4536 13.125C18.4536 13.0429 18.4374 12.9615 18.406 12.8857C18.3745 12.8098 18.3284 12.7409 18.2703 12.6828Z" fill="#1C1C1C" fill-opacity="0.6"/>
</svg>
