<svg width="22" height="22" viewBox="0 0 22 22" fill="none" xmlns="http://www.w3.org/2000/svg">
<path d="M20.625 7.5H16.25V3.125C16.25 2.89294 16.1578 2.67038 15.9937 2.50628C15.8296 2.34219 15.6071 2.25 15.375 2.25H2.25V1.375C2.25 1.14294 2.15781 0.920376 1.99372 0.756282C1.82962 0.592187 1.60706 0.5 1.375 0.5C1.14294 0.5 0.920376 0.592187 0.756282 0.756282C0.592187 0.920376 0.5 1.14294 0.5 1.375V20.625C0.5 20.8571 0.592187 21.0796 0.756282 21.2437C0.920376 21.4078 1.14294 21.5 1.375 21.5C1.60706 21.5 1.82962 21.4078 1.99372 21.2437C2.15781 21.0796 2.25 20.8571 2.25 20.625V19.75H11.875C12.1071 19.75 12.3296 19.6578 12.4937 19.4937C12.6578 19.3296 12.75 19.1071 12.75 18.875V14.5H20.625C20.8571 14.5 21.0796 14.4078 21.2437 14.2437C21.4078 14.0796 21.5 13.8571 21.5 13.625V8.375C21.5 8.14294 21.4078 7.92038 21.2437 7.75628C21.0796 7.59219 20.8571 7.5 20.625 7.5ZM14.5 4V7.5H2.25V4H14.5ZM11 18H2.25V14.5H11V18ZM19.75 12.75H2.25V9.25H19.75V12.75Z" fill="#22B5E9"/>
</svg>
