<svg width="12" height="12" viewBox="0 0 12 12" fill="none" xmlns="http://www.w3.org/2000/svg">
<path d="M12 1V7.5C12 7.76522 11.8946 8.01957 11.7071 8.20711C11.5196 8.39464 11.2652 8.5 11 8.5H4.20687L4.85375 9.14625C4.90021 9.19271 4.93706 9.24786 4.9622 9.30855C4.98734 9.36925 5.00028 9.4343 5.00028 9.5C5.00028 9.5657 4.98734 9.63075 4.9622 9.69145C4.93706 9.75214 4.90021 9.80729 4.85375 9.85375C4.8073 9.90021 4.75214 9.93705 4.69145 9.9622C4.63075 9.98734 4.5657 10.0003 4.5 10.0003C4.4343 10.0003 4.36925 9.98734 4.30855 9.9622C4.24786 9.93705 4.1927 9.90021 4.14625 9.85375L2.64625 8.35375C2.59976 8.30731 2.56288 8.25217 2.53772 8.19147C2.51256 8.13077 2.49961 8.06571 2.49961 8C2.49961 7.93429 2.51256 7.86923 2.53772 7.80853C2.56288 7.74783 2.59976 7.69269 2.64625 7.64625L4.14625 6.14625C4.24007 6.05243 4.36732 5.99972 4.5 5.99972C4.63268 5.99972 4.75993 6.05243 4.85375 6.14625C4.94757 6.24007 5.00028 6.36732 5.00028 6.5C5.00028 6.63268 4.94757 6.75993 4.85375 6.85375L4.20687 7.5H11V1H4V1.5C4 1.63261 3.94732 1.75979 3.85355 1.85355C3.75979 1.94732 3.63261 2 3.5 2C3.36739 2 3.24021 1.94732 3.14645 1.85355C3.05268 1.75979 3 1.63261 3 1.5V1C3 0.734784 3.10536 0.48043 3.29289 0.292893C3.48043 0.105357 3.73478 0 4 0H11C11.2652 0 11.5196 0.105357 11.7071 0.292893C11.8946 0.48043 12 0.734784 12 1ZM8.5 10C8.36739 10 8.24021 10.0527 8.14645 10.1464C8.05268 10.2402 8 10.3674 8 10.5V11H1V4.5H7.79313L7.14625 5.14625C7.05243 5.24007 6.99972 5.36732 6.99972 5.5C6.99972 5.63268 7.05243 5.75993 7.14625 5.85375C7.24007 5.94757 7.36732 6.00028 7.5 6.00028C7.63268 6.00028 7.75993 5.94757 7.85375 5.85375L9.35375 4.35375C9.40024 4.30731 9.43712 4.25217 9.46228 4.19147C9.48744 4.13077 9.50039 4.06571 9.50039 4C9.50039 3.93429 9.48744 3.86923 9.46228 3.80853C9.43712 3.74783 9.40024 3.69269 9.35375 3.64625L7.85375 2.14625C7.75993 2.05243 7.63268 1.99972 7.5 1.99972C7.36732 1.99972 7.24007 2.05243 7.14625 2.14625C7.05243 2.24007 6.99972 2.36732 6.99972 2.5C6.99972 2.63268 7.05243 2.75993 7.14625 2.85375L7.79313 3.5H1C0.734784 3.5 0.48043 3.60536 0.292893 3.79289C0.105357 3.98043 0 4.23478 0 4.5V11C0 11.2652 0.105357 11.5196 0.292893 11.7071C0.48043 11.8946 0.734784 12 1 12H8C8.26522 12 8.51957 11.8946 8.70711 11.7071C8.89464 11.5196 9 11.2652 9 11V10.5C9 10.3674 8.94732 10.2402 8.85355 10.1464C8.75979 10.0527 8.63261 10 8.5 10Z" fill="#7AB5DF"/>
</svg>
