<svg width="20" height="20" viewBox="0 0 20 20" fill="none" xmlns="http://www.w3.org/2000/svg">
<path d="M4.75 0.375002C3.88471 0.375002 3.03885 0.631591 2.31938 1.11232C1.59992 1.59305 1.03916 2.27634 0.708029 3.07576C0.376896 3.87519 0.290256 4.75486 0.459066 5.60352C0.627877 6.45219 1.04456 7.23174 1.65641 7.84359C2.26826 8.45545 3.04782 8.87213 3.89648 9.04094C4.74515 9.20975 5.62482 9.12311 6.42424 8.79198C7.22367 8.46084 7.90695 7.90009 8.38768 7.18062C8.86841 6.46116 9.125 5.6153 9.125 4.75C9.125 3.58968 8.66407 2.47688 7.84359 1.65641C7.02312 0.835938 5.91032 0.375002 4.75 0.375002ZM4.75 7.375C4.23083 7.375 3.72331 7.22105 3.29163 6.93261C2.85995 6.64417 2.5235 6.2342 2.32482 5.75455C2.12614 5.27489 2.07415 4.74709 2.17544 4.23789C2.27673 3.72869 2.52673 3.26096 2.89385 2.89385C3.26096 2.52673 3.72869 2.27673 4.23789 2.17544C4.74709 2.07415 5.27489 2.12614 5.75455 2.32482C6.2342 2.5235 6.64417 2.85995 6.93261 3.29163C7.22105 3.72331 7.375 4.23083 7.375 4.75C7.375 5.4462 7.09844 6.11387 6.60616 6.60616C6.11387 7.09844 5.4462 7.375 4.75 7.375ZM15.25 9.125C16.1153 9.125 16.9612 8.86841 17.6806 8.38768C18.4001 7.90695 18.9608 7.22367 19.292 6.42424C19.6231 5.62482 19.7097 4.74515 19.5409 3.89648C19.3721 3.04782 18.9555 2.26826 18.3436 1.65641C17.7317 1.04456 16.9522 0.627877 16.1035 0.459066C15.2549 0.290256 14.3752 0.376896 13.5758 0.708029C12.7763 1.03916 12.0931 1.59992 11.6123 2.31938C11.1316 3.03885 10.875 3.88471 10.875 4.75C10.875 5.91032 11.3359 7.02312 12.1564 7.84359C12.9769 8.66407 14.0897 9.125 15.25 9.125ZM15.25 2.125C15.7692 2.125 16.2767 2.27896 16.7084 2.56739C17.1401 2.85583 17.4765 3.2658 17.6752 3.74546C17.8739 4.22511 17.9258 4.75291 17.8246 5.26211C17.7233 5.77131 17.4733 6.23905 17.1062 6.60616C16.739 6.97327 16.2713 7.22328 15.7621 7.32456C15.2529 7.42585 14.7251 7.37387 14.2455 7.17519C13.7658 6.97651 13.3558 6.64005 13.0674 6.20837C12.779 5.7767 12.625 5.26918 12.625 4.75C12.625 4.05381 12.9016 3.38613 13.3938 2.89385C13.8861 2.40156 14.5538 2.125 15.25 2.125ZM4.75 10.875C3.88471 10.875 3.03885 11.1316 2.31938 11.6123C1.59992 12.0931 1.03916 12.7763 0.708029 13.5758C0.376896 14.3752 0.290256 15.2549 0.459066 16.1035C0.627877 16.9522 1.04456 17.7317 1.65641 18.3436C2.26826 18.9555 3.04782 19.3721 3.89648 19.5409C4.74515 19.7097 5.62482 19.6231 6.42424 19.292C7.22367 18.9608 7.90695 18.4001 8.38768 17.6806C8.86841 16.9612 9.125 16.1153 9.125 15.25C9.125 14.0897 8.66407 12.9769 7.84359 12.1564C7.02312 11.3359 5.91032 10.875 4.75 10.875ZM4.75 17.875C4.23083 17.875 3.72331 17.7211 3.29163 17.4326C2.85995 17.1442 2.5235 16.7342 2.32482 16.2545C2.12614 15.7749 2.07415 15.2471 2.17544 14.7379C2.27673 14.2287 2.52673 13.761 2.89385 13.3938C3.26096 13.0267 3.72869 12.7767 4.23789 12.6754C4.74709 12.5742 5.27489 12.6261 5.75455 12.8248C6.2342 13.0235 6.64417 13.36 6.93261 13.7916C7.22105 14.2233 7.375 14.7308 7.375 15.25C7.375 15.9462 7.09844 16.6139 6.60616 17.1062C6.11387 17.5984 5.4462 17.875 4.75 17.875ZM15.25 10.875C14.3847 10.875 13.5388 11.1316 12.8194 11.6123C12.0999 12.0931 11.5392 12.7763 11.208 13.5758C10.8769 14.3752 10.7903 15.2549 10.9591 16.1035C11.1279 16.9522 11.5446 17.7317 12.1564 18.3436C12.7683 18.9555 13.5478 19.3721 14.3965 19.5409C15.2451 19.7097 16.1248 19.6231 16.9242 19.292C17.7237 18.9608 18.407 18.4001 18.8877 17.6806C19.3684 16.9612 19.625 16.1153 19.625 15.25C19.625 14.0897 19.1641 12.9769 18.3436 12.1564C17.5231 11.3359 16.4103 10.875 15.25 10.875ZM15.25 17.875C14.7308 17.875 14.2233 17.7211 13.7916 17.4326C13.36 17.1442 13.0235 16.7342 12.8248 16.2545C12.6261 15.7749 12.5742 15.2471 12.6754 14.7379C12.7767 14.2287 13.0267 13.761 13.3938 13.3938C13.761 13.0267 14.2287 12.7767 14.7379 12.6754C15.2471 12.5742 15.7749 12.6261 16.2545 12.8248C16.7342 13.0235 17.1442 13.36 17.4326 13.7916C17.7211 14.2233 17.875 14.7308 17.875 15.25C17.875 15.9462 17.5984 16.6139 17.1062 17.1062C16.6139 17.5984 15.9462 17.875 15.25 17.875Z" fill="#22B5E9"/>
</svg>
