<svg width="16" height="16" viewBox="0 0 16 16" fill="none" xmlns="http://www.w3.org/2000/svg">
<path d="M12.4069 3.50563C11.6525 2.2125 10.62 1.5 9.5 1.5H6.5C5.38 1.5 4.3475 2.2125 3.59313 3.50563C2.88813 4.71375 2.5 6.3125 2.5 8C2.5 9.6875 2.88813 11.2863 3.59313 12.4944C4.3475 13.7875 5.38 14.5 6.5 14.5H9.5C10.62 14.5 11.6525 13.7875 12.4069 12.4944C13.1119 11.2863 13.5 9.6875 13.5 8C13.5 6.3125 13.1119 4.71375 12.4069 3.50563ZM12.4869 7.5H10.4869C10.4478 6.47398 10.2435 5.46097 9.88188 4.5H11.7937C12.1762 5.33625 12.4288 6.375 12.4869 7.5ZM11.1994 3.5H9.40375C9.19491 3.1377 8.94308 2.80194 8.65375 2.5H9.5C10.125 2.5 10.7125 2.875 11.1994 3.5ZM3.5 8C3.5 5.01875 4.875 2.5 6.5 2.5C8.125 2.5 9.5 5.01875 9.5 8C9.5 10.9812 8.125 13.5 6.5 13.5C4.875 13.5 3.5 10.9812 3.5 8ZM9.5 13.5H8.65563C8.94496 13.1981 9.19678 12.8623 9.40563 12.5H11.2013C10.7125 13.125 10.125 13.5 9.5 13.5ZM11.7937 11.5H9.8825C10.2441 10.539 10.4484 9.52602 10.4875 8.5H12.4875C12.4288 9.625 12.1762 10.6637 11.7937 11.5Z" fill="#55C2FF"/>
</svg>
