<svg width="16" height="16" viewBox="0 0 16 16" fill="none" xmlns="http://www.w3.org/2000/svg">
<path d="M13.3538 6.35403L8.35378 11.354C8.30735 11.4005 8.2522 11.4374 8.1915 11.4626C8.13081 11.4877 8.06574 11.5007 8.00003 11.5007C7.93433 11.5007 7.86926 11.4877 7.80856 11.4626C7.74786 11.4374 7.69272 11.4005 7.64628 11.354L2.64628 6.35403C2.55246 6.26021 2.49976 6.13296 2.49976 6.00028C2.49976 5.8676 2.55246 5.74035 2.64628 5.64653C2.7401 5.55271 2.86735 5.5 3.00003 5.5C3.13272 5.5 3.25996 5.55271 3.35378 5.64653L8.00003 10.2934L12.6463 5.64653C12.6927 5.60007 12.7479 5.56322 12.8086 5.53808C12.8693 5.51294 12.9343 5.5 13 5.5C13.0657 5.5 13.1308 5.51294 13.1915 5.53808C13.2522 5.56322 13.3073 5.60007 13.3538 5.64653C13.4002 5.69298 13.4371 5.74813 13.4622 5.80883C13.4874 5.86953 13.5003 5.93458 13.5003 6.00028C13.5003 6.06598 13.4874 6.13103 13.4622 6.19173C13.4371 6.25242 13.4002 6.30757 13.3538 6.35403Z" fill="#343330"/>
</svg>
