<svg width="25" height="24" viewBox="0 0 25 24" fill="none" xmlns="http://www.w3.org/2000/svg">
<path d="M12.4997 5.86667C14.3775 5.86667 15.6442 6.67778 16.3664 7.35556L19.1886 4.6C17.4553 2.98889 15.1997 2 12.4997 2C8.58863 2 5.21085 4.24445 3.56641 7.51111L6.79974 10.0222C7.61085 7.61111 9.8553 5.86667 12.4997 5.86667Z" fill="#EA4335"/>
<path d="M22.1 12.2222C22.1 11.4 22.0333 10.8 21.8889 10.1777H12.5V13.8888H18.0111C17.9 14.8111 17.3 16.2 15.9667 17.1333L19.1222 19.5777C21.0111 17.8333 22.1 15.2666 22.1 12.2222Z" fill="#4285F4"/>
<path d="M6.81111 13.9778C6.6 13.3556 6.47778 12.6889 6.47778 12C6.47778 11.3111 6.6 10.6444 6.8 10.0222L3.56667 7.51111C2.88889 8.86666 2.5 10.3889 2.5 12C2.5 13.6111 2.88889 15.1333 3.56667 16.4889L6.81111 13.9778Z" fill="#FBBC05"/>
<path d="M12.5004 22C15.2004 22 17.467 21.1111 19.1226 19.5778L15.967 17.1333C15.1226 17.7222 13.9892 18.1333 12.5004 18.1333C9.85591 18.1333 7.61146 16.3889 6.81146 13.9778L3.57812 16.4889C5.22257 19.7556 8.58924 22 12.5004 22Z" fill="#34A853"/>
</svg>
