<svg width="20" height="24" viewBox="0 0 20 24" fill="none" xmlns="http://www.w3.org/2000/svg">
<path d="M17.712 4.13484C16.3919 1.87187 14.585 0.625 12.625 0.625H7.375C5.415 0.625 3.60813 1.87187 2.28797 4.13484C1.05422 6.24906 0.375 9.04688 0.375 12C0.375 14.9531 1.05422 17.7509 2.28797 19.8652C3.60813 22.1281 5.415 23.375 7.375 23.375H12.625C14.585 23.375 16.3919 22.1281 17.712 19.8652C18.9458 17.7509 19.625 14.9531 19.625 12C19.625 9.04688 18.9458 6.24906 17.712 4.13484ZM17.852 11.125H14.352C14.2837 9.32946 13.9262 7.55669 13.2933 5.875H16.6391C17.3084 7.33844 17.7503 9.15625 17.852 11.125ZM15.5989 4.125H12.4566C12.0911 3.49097 11.6504 2.90339 11.1441 2.375H12.625C13.7188 2.375 14.7469 3.03125 15.5989 4.125ZM2.125 12C2.125 6.78281 4.53125 2.375 7.375 2.375C10.2188 2.375 12.625 6.78281 12.625 12C12.625 17.2172 10.2188 21.625 7.375 21.625C4.53125 21.625 2.125 17.2172 2.125 12ZM12.625 21.625H11.1473C11.6537 21.0966 12.0944 20.509 12.4598 19.875H15.6022C14.7469 20.9688 13.7188 21.625 12.625 21.625ZM16.6391 18.125H13.2944C13.9273 16.4433 14.2848 14.6705 14.3531 12.875H17.8531C17.7503 14.8438 17.3084 16.6616 16.6391 18.125Z" fill="#22B5E9"/>
</svg>
