<svg width="20" height="25" viewBox="0 0 20 25" fill="none" xmlns="http://www.w3.org/2000/svg">
<path d="M14.375 15.6248C14.375 15.8569 14.2828 16.0795 14.1187 16.2436C13.9546 16.4077 13.7321 16.4998 13.5 16.4998H6.5C6.26794 16.4998 6.04538 16.4077 5.88128 16.2436C5.71719 16.0795 5.625 15.8569 5.625 15.6248C5.625 15.3928 5.71719 15.1702 5.88128 15.0061C6.04538 14.842 6.26794 14.7498 6.5 14.7498H13.5C13.7321 14.7498 13.9546 14.842 14.1187 15.0061C14.2828 15.1702 14.375 15.3928 14.375 15.6248ZM13.5 11.2498H6.5C6.26794 11.2498 6.04538 11.342 5.88128 11.5061C5.71719 11.6702 5.625 11.8928 5.625 12.1248C5.625 12.3569 5.71719 12.5795 5.88128 12.7436C6.04538 12.9077 6.26794 12.9998 6.5 12.9998H13.5C13.7321 12.9998 13.9546 12.9077 14.1187 12.7436C14.2828 12.5795 14.375 12.3569 14.375 12.1248C14.375 11.8928 14.2828 11.6702 14.1187 11.5061C13.9546 11.342 13.7321 11.2498 13.5 11.2498ZM19.625 4.24984V22.6248C19.625 23.089 19.4406 23.5341 19.1124 23.8623C18.7842 24.1905 18.3391 24.3748 17.875 24.3748H2.125C1.66087 24.3748 1.21575 24.1905 0.887563 23.8623C0.559374 23.5341 0.375 23.089 0.375 22.6248V4.24984C0.375 3.78571 0.559374 3.34059 0.887563 3.0124C1.21575 2.68422 1.66087 2.49984 2.125 2.49984H6.09094C6.58258 1.94938 7.18494 1.50897 7.85858 1.20742C8.53222 0.905875 9.26195 0.75 10 0.75C10.7381 0.75 11.4678 0.905875 12.1414 1.20742C12.8151 1.50897 13.4174 1.94938 13.9091 2.49984H17.875C18.3391 2.49984 18.7842 2.68422 19.1124 3.0124C19.4406 3.34059 19.625 3.78571 19.625 4.24984ZM6.5 5.99984H13.5C13.5 5.07158 13.1313 4.18134 12.4749 3.52497C11.8185 2.86859 10.9283 2.49984 10 2.49984C9.07174 2.49984 8.1815 2.86859 7.52513 3.52497C6.86875 4.18134 6.5 5.07158 6.5 5.99984ZM17.875 4.24984H14.9492C15.1483 4.81183 15.25 5.40365 15.25 5.99984V6.87484C15.25 7.10691 15.1578 7.32947 14.9937 7.49356C14.8296 7.65765 14.6071 7.74984 14.375 7.74984H5.625C5.39294 7.74984 5.17038 7.65765 5.00628 7.49356C4.84219 7.32947 4.75 7.10691 4.75 6.87484V5.99984C4.75002 5.40365 4.85174 4.81183 5.05078 4.24984H2.125V22.6248H17.875V4.24984Z" fill="#22B5E9"/>
</svg>
