<svg width="11" height="14" viewBox="0 0 11 14" fill="none" xmlns="http://www.w3.org/2000/svg">
<path d="M10.525 6.15557L1.52 0.646821C1.36818 0.553854 1.19429 0.503101 1.0163 0.499805C0.838305 0.496509 0.662659 0.540789 0.5075 0.628071C0.353819 0.713997 0.225798 0.839308 0.136602 0.991115C0.0474072 1.14292 0.000256786 1.31575 0 1.49182V12.5081C0.00115798 12.7722 0.107146 13.025 0.294665 13.211C0.482184 13.397 0.735885 13.5009 1 13.4999C1.18435 13.4999 1.36511 13.4491 1.5225 13.3531L10.525 7.84432C10.6697 7.75612 10.7893 7.63218 10.8723 7.48442C10.9553 7.33666 10.9989 7.17004 10.9989 7.00057C10.9989 6.8311 10.9553 6.66448 10.8723 6.51672C10.7893 6.36896 10.6697 6.24502 10.525 6.15682V6.15557ZM1 12.4962V1.49995L9.98938 6.99995L1 12.4962Z" fill="#22B5E9"/>
</svg>
