<svg width="16" height="16" viewBox="0 0 16 16" fill="none" xmlns="http://www.w3.org/2000/svg">
<path d="M15 3.50005V6.50005C15 6.63266 14.9473 6.75983 14.8535 6.8536C14.7597 6.94737 14.6326 7.00005 14.5 7.00005H11.5C11.3674 7.00005 11.2402 6.94737 11.1464 6.8536C11.0526 6.75983 11 6.63266 11 6.50005C11 6.36744 11.0526 6.24026 11.1464 6.14649C11.2402 6.05273 11.3674 6.00005 11.5 6.00005H13.2125L11.5506 4.47755L11.535 4.46255C10.84 3.76785 9.95576 3.29333 8.99268 3.09826C8.02961 2.9032 7.03041 2.99623 6.1199 3.36574C5.20939 3.73524 4.42794 4.36485 3.87318 5.1759C3.31841 5.98695 3.01492 6.94348 3.00063 7.92601C2.98633 8.90854 3.26186 9.8735 3.7928 10.7003C4.32373 11.5272 5.08653 12.1793 5.9859 12.5751C6.88528 12.9709 7.88135 13.093 8.8497 12.926C9.81804 12.7591 10.7157 12.3105 11.4306 11.6363C11.527 11.5451 11.6556 11.496 11.7883 11.4997C11.9209 11.5034 12.0466 11.5596 12.1378 11.656C12.2289 11.7524 12.2781 11.881 12.2744 12.0137C12.2707 12.1463 12.2145 12.272 12.1181 12.3632C11.0065 13.4174 9.53194 14.0035 7.99996 14H7.91746C6.9348 13.9866 5.97049 13.732 5.10928 13.2585C4.24807 12.7851 3.51633 12.1074 2.97838 11.285C2.44042 10.4625 2.11273 9.52052 2.02409 8.54177C1.93545 7.56302 2.08859 6.57748 2.47003 5.67177C2.85148 4.76606 3.44956 3.96792 4.21171 3.34748C4.97386 2.72705 5.87674 2.30332 6.841 2.11354C7.80525 1.92377 8.80137 1.97375 9.74178 2.2591C10.6822 2.54445 11.5381 3.05643 12.2343 3.75005L14 5.36255V3.50005C14 3.36744 14.0526 3.24026 14.1464 3.14649C14.2402 3.05273 14.3674 3.00005 14.5 3.00005C14.6326 3.00005 14.7597 3.05273 14.8535 3.14649C14.9473 3.24026 15 3.36744 15 3.50005Z" fill="#9E9FC3"/>
</svg>
