<svg width="14" height="12" viewBox="0 0 14 12" fill="none" xmlns="http://www.w3.org/2000/svg">
<path d="M3.5 4.5C3.5 4.36739 3.55268 4.24021 3.64645 4.14645C3.74021 4.05268 3.86739 4 4 4H10C10.1326 4 10.2598 4.05268 10.3536 4.14645C10.4473 4.24021 10.5 4.36739 10.5 4.5C10.5 4.63261 10.4473 4.75979 10.3536 4.85355C10.2598 4.94732 10.1326 5 10 5H4C3.86739 5 3.74021 4.94732 3.64645 4.85355C3.55268 4.75979 3.5 4.63261 3.5 4.5ZM4 7H10C10.1326 7 10.2598 6.94732 10.3536 6.85355C10.4473 6.75979 10.5 6.63261 10.5 6.5C10.5 6.36739 10.4473 6.24021 10.3536 6.14645C10.2598 6.05268 10.1326 6 10 6H4C3.86739 6 3.74021 6.05268 3.64645 6.14645C3.55268 6.24021 3.5 6.36739 3.5 6.5C3.5 6.63261 3.55268 6.75979 3.64645 6.85355C3.74021 6.94732 3.86739 7 4 7ZM13.5 1.5V11C13.5 11.0852 13.4781 11.169 13.4366 11.2434C13.3951 11.3178 13.3352 11.3804 13.2627 11.4252C13.1902 11.4699 13.1074 11.4954 13.0223 11.4992C12.9372 11.503 12.8525 11.485 12.7762 11.4469L11 10.5588L9.22375 11.4469C9.15429 11.4816 9.07768 11.4997 9 11.4997C8.92232 11.4997 8.84571 11.4816 8.77625 11.4469L7 10.5588L5.22375 11.4469C5.15428 11.4816 5.07768 11.4997 5 11.4997C4.92232 11.4997 4.84572 11.4816 4.77625 11.4469L3 10.5588L1.22375 11.4469C1.14754 11.485 1.06285 11.503 0.977713 11.4992C0.892578 11.4954 0.809827 11.4699 0.737316 11.4252C0.664805 11.3804 0.604941 11.3178 0.563406 11.2434C0.521872 11.169 0.500045 11.0852 0.5 11V1.5C0.5 1.23478 0.605357 0.98043 0.792893 0.792893C0.98043 0.605357 1.23478 0.5 1.5 0.5H12.5C12.7652 0.5 13.0196 0.605357 13.2071 0.792893C13.3946 0.98043 13.5 1.23478 13.5 1.5ZM12.5 1.5H1.5V10.1912L2.77625 9.5525C2.84571 9.51774 2.92232 9.49964 3 9.49964C3.07768 9.49964 3.15429 9.51774 3.22375 9.5525L5 10.4412L6.77625 9.5525C6.84572 9.51774 6.92232 9.49964 7 9.49964C7.07768 9.49964 7.15428 9.51774 7.22375 9.5525L9 10.4412L10.7762 9.5525C10.8457 9.51774 10.9223 9.49964 11 9.49964C11.0777 9.49964 11.1543 9.51774 11.2238 9.5525L12.5 10.1912V1.5Z" fill="#65CD6B"/>
</svg>
