<svg width="16" height="16" viewBox="0 0 16 16" fill="none" xmlns="http://www.w3.org/2000/svg">
<path d="M13.3538 10.3541C13.3073 10.4006 13.2522 10.4375 13.1915 10.4627C13.1308 10.4878 13.0657 10.5008 13 10.5008C12.9343 10.5008 12.8693 10.4878 12.8086 10.4627C12.7479 10.4375 12.6927 10.4006 12.6463 10.3541L8.00003 5.70727L3.35378 10.3541C3.25996 10.448 3.13272 10.5007 3.00003 10.5007C2.86735 10.5007 2.7401 10.448 2.64628 10.3541C2.55246 10.2603 2.49976 10.1331 2.49976 10.0004C2.49976 9.86771 2.55246 9.74046 2.64628 9.64664L7.64628 4.64664C7.69272 4.60015 7.74786 4.56328 7.80856 4.53811C7.86926 4.51295 7.93433 4.5 8.00003 4.5C8.06574 4.5 8.13081 4.51295 8.1915 4.53811C8.2522 4.56328 8.30735 4.60015 8.35378 4.64664L13.3538 9.64664C13.4003 9.69308 13.4372 9.74822 13.4623 9.80892C13.4875 9.86962 13.5004 9.93469 13.5004 10.0004C13.5004 10.0661 13.4875 10.1312 13.4623 10.1919C13.4372 10.2526 13.4003 10.3077 13.3538 10.3541Z" fill="#343330"/>
</svg>
