<svg width="81" height="74" viewBox="0 0 81 74" fill="none" xmlns="http://www.w3.org/2000/svg">
<g filter="url(#filter0_b_12004_356)">
<path d="M74.6111 54.9503L49.1704 10.7973C46.5108 6.08064 40.4569 4.34657 35.6977 6.98583C34.0529 7.85286 32.7232 9.20197 31.8483 10.7661L6.23262 55.2624C4.16797 60.253 6.61756 66.0102 11.6917 68.0564C12.7065 68.4379 13.7913 68.6841 14.8762 68.75H66.1075C68.7321 68.6113 71.1467 67.4668 72.9314 65.5281C74.7161 63.5825 75.6259 61.0542 75.4859 58.4531C75.416 57.3398 75.171 56.2681 74.6111 54.9503Z" fill="#22B5E9" fill-opacity="0.6"/>
<path d="M48.957 10.9177L48.9581 10.9196L74.3914 55.0596C74.9371 56.3477 75.1734 57.3884 75.2414 58.4672C75.3775 61.0015 74.4912 63.4651 72.7508 65.3625C71.0105 67.2528 68.6584 68.3682 66.101 68.505H14.8837C13.8287 68.4401 12.7715 68.2003 11.7805 67.828C6.83723 65.8328 4.45254 60.2289 6.45296 55.3707L32.0606 10.8883L32.0606 10.8883L32.0621 10.8857C32.9151 9.3606 34.2113 8.04633 35.8119 7.20256L35.8119 7.20261L35.8165 7.20009C40.4575 4.62639 46.3633 6.31777 48.957 10.9177Z" stroke="url(#paint0_linear_12004_356)" stroke-width="0.49"/>
</g>
<path d="M77.0133 53.9297L76.9515 53.7842L76.8726 53.6472L51.4439 9.51539C51.4418 9.51166 51.4397 9.50793 51.4376 9.5042C48.0777 3.55971 40.4671 1.37357 34.456 4.68998C32.3579 5.80241 30.682 7.51108 29.5788 9.47706L3.97066 53.9602L3.88585 54.1075L3.82086 54.2646C1.19154 60.6202 4.32082 67.8982 10.7156 70.477L10.7443 70.4885L10.7733 70.4995C12.0099 70.9643 13.3505 71.2721 14.7179 71.3552L14.797 71.36H14.8762H66.1075H66.1765L66.2453 71.3564C69.5573 71.1813 72.6096 69.7313 74.8516 67.2958L74.8548 67.2924C77.1089 64.835 78.2703 61.6221 78.0922 58.3128L78.0916 58.3011L78.0908 58.2893C78.0006 56.8541 77.6778 55.4937 77.0133 53.9297Z" stroke="url(#paint1_linear_12004_356)" stroke-opacity="0.2" stroke-width="5.22"/>
<g filter="url(#filter1_d_12004_356)">
<mask id="path-4-inside-1_12004_356" fill="white">
<path fill-rule="evenodd" clip-rule="evenodd" d="M40.4941 43.1903C42.3867 43.1903 43.9244 41.6233 43.9244 39.7477V28.6931C43.9244 26.8135 42.3867 25.2935 40.4941 25.2935C38.6016 25.2935 37.0244 26.8135 37.0244 28.6931V39.7477C37.0244 41.6233 38.6016 43.1903 40.4941 43.1903ZM37.0242 53.3932C37.0242 55.2649 38.6014 56.8319 40.4939 56.8319C42.3865 56.8319 43.9242 55.2649 43.9242 53.3502C43.9242 51.4785 42.3865 49.9506 40.4939 49.9506C38.6014 49.9506 37.0242 51.5136 37.0242 53.3932Z"/>
</mask>
<path fill-rule="evenodd" clip-rule="evenodd" d="M40.4941 43.1903C42.3867 43.1903 43.9244 41.6233 43.9244 39.7477V28.6931C43.9244 26.8135 42.3867 25.2935 40.4941 25.2935C38.6016 25.2935 37.0244 26.8135 37.0244 28.6931V39.7477C37.0244 41.6233 38.6016 43.1903 40.4941 43.1903ZM37.0242 53.3932C37.0242 55.2649 38.6014 56.8319 40.4939 56.8319C42.3865 56.8319 43.9242 55.2649 43.9242 53.3502C43.9242 51.4785 42.3865 49.9506 40.4939 49.9506C38.6014 49.9506 37.0242 51.5136 37.0242 53.3932Z" fill="url(#paint2_linear_12004_356)" fill-opacity="0.9" shape-rendering="crispEdges"/>
<path d="M43.5641 39.7477C43.5641 41.4272 42.1849 42.83 40.4941 42.83V43.5506C42.5885 43.5506 44.2847 41.8195 44.2847 39.7477H43.5641ZM43.5641 28.6931V39.7477H44.2847V28.6931H43.5641ZM40.4941 25.6537C42.191 25.6537 43.5641 27.0158 43.5641 28.6931H44.2847C44.2847 26.6112 42.5823 24.9332 40.4941 24.9332V25.6537ZM37.3847 28.6931C37.3847 27.0211 38.7918 25.6537 40.4941 25.6537V24.9332C38.4113 24.9332 36.6641 26.6059 36.6641 28.6931H37.3847ZM37.3847 39.7477V28.6931H36.6641V39.7477H37.3847ZM40.4941 42.83C38.798 42.83 37.3847 41.4218 37.3847 39.7477H36.6641C36.6641 41.8248 38.4051 43.5506 40.4941 43.5506V42.83ZM40.4939 56.4716C38.7976 56.4716 37.3845 55.0632 37.3845 53.3932H36.6639C36.6639 55.4667 38.4052 57.1922 40.4939 57.1922V56.4716ZM43.5639 53.3502C43.5639 55.0714 42.1821 56.4716 40.4939 56.4716V57.1922C42.5909 57.1922 44.2845 55.4584 44.2845 53.3502H43.5639ZM40.4939 50.3109C42.1903 50.3109 43.5639 51.6802 43.5639 53.3502H44.2845C44.2845 51.2767 42.5827 49.5903 40.4939 49.5903V50.3109ZM37.3845 53.3932C37.3845 51.7154 38.7976 50.3109 40.4939 50.3109V49.5903C38.4052 49.5903 36.6639 51.3119 36.6639 53.3932H37.3845Z" fill="url(#paint3_linear_12004_356)" mask="url(#path-4-inside-1_12004_356)"/>
</g>
<defs>
<filter id="filter0_b_12004_356" x="-2.93952" y="-2.68952" width="86.879" height="79.879" filterUnits="userSpaceOnUse" color-interpolation-filters="sRGB">
<feFlood flood-opacity="0" result="BackgroundImageFix"/>
<feGaussianBlur in="BackgroundImageFix" stdDeviation="4.21976"/>
<feComposite in2="SourceAlpha" operator="in" result="effect1_backgroundBlur_12004_356"/>
<feBlend mode="normal" in="SourceGraphic" in2="effect1_backgroundBlur_12004_356" result="shape"/>
</filter>
<filter id="filter1_d_12004_356" x="26.7203" y="17.9335" width="27.508" height="52.1462" filterUnits="userSpaceOnUse" color-interpolation-filters="sRGB">
<feFlood flood-opacity="0" result="BackgroundImageFix"/>
<feColorMatrix in="SourceAlpha" type="matrix" values="0 0 0 0 0 0 0 0 0 0 0 0 0 0 0 0 0 0 127 0" result="hardAlpha"/>
<feOffset dy="2.94398"/>
<feGaussianBlur stdDeviation="5.15197"/>
<feComposite in2="hardAlpha" operator="out"/>
<feColorMatrix type="matrix" values="0 0 0 0 0.133333 0 0 0 0 0.709804 0 0 0 0 0.913725 0 0 0 1 0"/>
<feBlend mode="normal" in2="BackgroundImageFix" result="effect1_dropShadow_12004_356"/>
<feBlend mode="normal" in="SourceGraphic" in2="effect1_dropShadow_12004_356" result="shape"/>
</filter>
<linearGradient id="paint0_linear_12004_356" x1="6.84985" y1="19.1139" x2="82.5097" y2="85.5363" gradientUnits="userSpaceOnUse">
<stop stop-color="white"/>
<stop offset="0.734375" stop-color="white" stop-opacity="0"/>
</linearGradient>
<linearGradient id="paint1_linear_12004_356" x1="21.0682" y1="28.1364" x2="82.1136" y2="87.6929" gradientUnits="userSpaceOnUse">
<stop stop-color="#7BDBFF"/>
<stop offset="1" stop-color="#22B5E9"/>
</linearGradient>
<linearGradient id="paint2_linear_12004_356" x1="38.2149" y1="37.4957" x2="48.6253" y2="37.688" gradientUnits="userSpaceOnUse">
<stop stop-color="white"/>
<stop offset="1" stop-color="white" stop-opacity="0"/>
</linearGradient>
<linearGradient id="paint3_linear_12004_356" x1="37.3746" y1="30.326" x2="42.0304" y2="30.5686" gradientUnits="userSpaceOnUse">
<stop stop-color="white"/>
<stop offset="1" stop-color="white" stop-opacity="0"/>
</linearGradient>
</defs>
</svg>
