<svg width="12" height="7" viewBox="0 0 12 7" fill="none" xmlns="http://www.w3.org/2000/svg">
<path d="M11.3538 6.35414C11.3073 6.40063 11.2522 6.43751 11.1915 6.46267C11.1308 6.48784 11.0657 6.50079 11 6.50079C10.9343 6.50079 10.8693 6.48784 10.8086 6.46267C10.7479 6.43751 10.6927 6.40063 10.6463 6.35414L6.00003 1.70727L1.35378 6.35414C1.25996 6.44796 1.13272 6.50067 1.00003 6.50067C0.867352 6.50067 0.740104 6.44796 0.646284 6.35414C0.552464 6.26032 0.499756 6.13308 0.499756 6.00039C0.499756 5.86771 0.552464 5.74046 0.646284 5.64664L5.64628 0.646643C5.69272 0.600155 5.74786 0.563276 5.80856 0.538114C5.86926 0.512951 5.93433 0.5 6.00003 0.5C6.06574 0.5 6.13081 0.512951 6.1915 0.538114C6.2522 0.563276 6.30735 0.600155 6.35378 0.646643L11.3538 5.64664C11.4003 5.69308 11.4372 5.74822 11.4623 5.80892C11.4875 5.86962 11.5004 5.93469 11.5004 6.00039C11.5004 6.0661 11.4875 6.13116 11.4623 6.19186C11.4372 6.25256 11.4003 6.30771 11.3538 6.35414Z" fill="#343330"/>
</svg>
