<svg width="23" height="20" viewBox="0 0 23 20" fill="none" xmlns="http://www.w3.org/2000/svg">
<path d="M20.625 3.875H3.125C2.89294 3.875 2.67038 3.78281 2.50628 3.61872C2.34219 3.45462 2.25 3.23206 2.25 3C2.25 2.76794 2.34219 2.54538 2.50628 2.38128C2.67038 2.21719 2.89294 2.125 3.125 2.125H18C18.2321 2.125 18.4546 2.03281 18.6187 1.86872C18.7828 1.70462 18.875 1.48206 18.875 1.25C18.875 1.01794 18.7828 0.795376 18.6187 0.631282C18.4546 0.467187 18.2321 0.375 18 0.375H3.125C2.42881 0.375 1.76113 0.651562 1.26884 1.14384C0.776562 1.63613 0.5 2.30381 0.5 3V17C0.5 17.6962 0.776562 18.3639 1.26884 18.8562C1.76113 19.3484 2.42881 19.625 3.125 19.625H20.625C21.0891 19.625 21.5342 19.4406 21.8624 19.1124C22.1906 18.7842 22.375 18.3391 22.375 17.875V5.625C22.375 5.16087 22.1906 4.71575 21.8624 4.38756C21.5342 4.05937 21.0891 3.875 20.625 3.875ZM20.625 17.875H3.125C2.89294 17.875 2.67038 17.7828 2.50628 17.6187C2.34219 17.4546 2.25 17.2321 2.25 17V5.47516C2.53096 5.57475 2.82691 5.62543 3.125 5.625H20.625V17.875ZM15.375 11.3125C15.375 11.0529 15.452 10.7992 15.5962 10.5833C15.7404 10.3675 15.9454 10.1992 16.1852 10.0999C16.4251 10.0006 16.689 9.97458 16.9436 10.0252C17.1982 10.0759 17.432 10.2009 17.6156 10.3844C17.7991 10.568 17.9241 10.8018 17.9748 11.0564C18.0254 11.311 17.9994 11.5749 17.9001 11.8148C17.8008 12.0546 17.6325 12.2596 17.4167 12.4038C17.2008 12.548 16.9471 12.625 16.6875 12.625C16.3394 12.625 16.0056 12.4867 15.7594 12.2406C15.5133 11.9944 15.375 11.6606 15.375 11.3125Z" fill="#22B5E9"/>
</svg>
