<svg width="16" height="16" viewBox="0 0 16 16" fill="none" xmlns="http://www.w3.org/2000/svg">
<path d="M8.5 2V4C8.5 4.13261 8.44732 4.25979 8.35355 4.35355C8.25979 4.44732 8.13261 4.5 8 4.5C7.86739 4.5 7.74021 4.44732 7.64645 4.35355C7.55268 4.25979 7.5 4.13261 7.5 4V2C7.5 1.86739 7.55268 1.74021 7.64645 1.64645C7.74021 1.55268 7.86739 1.5 8 1.5C8.13261 1.5 8.25979 1.55268 8.35355 1.64645C8.44732 1.74021 8.5 1.86739 8.5 2ZM14 7.5H12C11.8674 7.5 11.7402 7.55268 11.6464 7.64645C11.5527 7.74021 11.5 7.86739 11.5 8C11.5 8.13261 11.5527 8.25979 11.6464 8.35355C11.7402 8.44732 11.8674 8.5 12 8.5H14C14.1326 8.5 14.2598 8.44732 14.3536 8.35355C14.4473 8.25979 14.5 8.13261 14.5 8C14.5 7.86739 14.4473 7.74021 14.3536 7.64645C14.2598 7.55268 14.1326 7.5 14 7.5ZM11.1819 10.475C11.0873 10.3852 10.9615 10.3359 10.8311 10.3375C10.7007 10.3392 10.5761 10.3917 10.4839 10.4839C10.3917 10.5761 10.3392 10.7007 10.3375 10.8311C10.3359 10.9615 10.3852 11.0873 10.475 11.1819L11.8888 12.5962C11.9826 12.6901 12.1098 12.7428 12.2425 12.7428C12.3752 12.7428 12.5024 12.6901 12.5962 12.5962C12.6901 12.5024 12.7428 12.3752 12.7428 12.2425C12.7428 12.1098 12.6901 11.9826 12.5962 11.8888L11.1819 10.475ZM8 11.5C7.86739 11.5 7.74021 11.5527 7.64645 11.6464C7.55268 11.7402 7.5 11.8674 7.5 12V14C7.5 14.1326 7.55268 14.2598 7.64645 14.3536C7.74021 14.4473 7.86739 14.5 8 14.5C8.13261 14.5 8.25979 14.4473 8.35355 14.3536C8.44732 14.2598 8.5 14.1326 8.5 14V12C8.5 11.8674 8.44732 11.7402 8.35355 11.6464C8.25979 11.5527 8.13261 11.5 8 11.5ZM4.81812 10.475L3.40375 11.8888C3.30993 11.9826 3.25722 12.1098 3.25722 12.2425C3.25722 12.3752 3.30993 12.5024 3.40375 12.5962C3.49757 12.6901 3.62482 12.7428 3.7575 12.7428C3.89018 12.7428 4.01743 12.6901 4.11125 12.5962L5.525 11.1819C5.61481 11.0873 5.66414 10.9615 5.66247 10.8311C5.6608 10.7007 5.60826 10.5761 5.51606 10.4839C5.42386 10.3917 5.29929 10.3392 5.16891 10.3375C5.03853 10.3359 4.91266 10.3852 4.81812 10.475ZM4.5 8C4.5 7.86739 4.44732 7.74021 4.35355 7.64645C4.25979 7.55268 4.13261 7.5 4 7.5H2C1.86739 7.5 1.74021 7.55268 1.64645 7.64645C1.55268 7.74021 1.5 7.86739 1.5 8C1.5 8.13261 1.55268 8.25979 1.64645 8.35355C1.74021 8.44732 1.86739 8.5 2 8.5H4C4.13261 8.5 4.25979 8.44732 4.35355 8.35355C4.44732 8.25979 4.5 8.13261 4.5 8ZM4.11125 3.40375C4.01743 3.30993 3.89018 3.25722 3.7575 3.25722C3.62482 3.25722 3.49757 3.30993 3.40375 3.40375C3.30993 3.49757 3.25722 3.62482 3.25722 3.7575C3.25722 3.89018 3.30993 4.01743 3.40375 4.11125L4.81812 5.525C4.91266 5.61481 5.03853 5.66414 5.16891 5.66247C5.29929 5.6608 5.42386 5.60826 5.51606 5.51606C5.60826 5.42386 5.6608 5.29929 5.66247 5.16891C5.66414 5.03853 5.61481 4.91266 5.525 4.81812L4.11125 3.40375Z" fill="#22B5E9"/>
</svg>
